<svg xmlns="http://www.w3.org/2000/svg" width="200" height="200" fill="currentColor" viewBox="0 0 200 200">
  <path fill="#160023" d="M100.007 199.567c55.225 0 99.993-44.675 99.993-99.784C200 44.675 155.232 0 100.007 0 44.783 0 .014 44.675.014 99.783c0 55.109 44.769 99.784 99.993 99.784Z"/>
  <path fill="url(#a)" d="M99.993 200c55.224 0 99.993-44.65 99.993-99.729 0-55.08-44.769-99.73-99.993-99.73C44.768.541 0 45.191 0 100.271 0 155.35 44.768 200 99.993 200Z"/>
  <g filter="url(#b)">
    <path fill="#EDD1FF" d="M146.484 91.916c0-5.052-2.959-9.655-7.447-11.86.047-.456.074-.916.074-1.384 0-7.303-5.955-13.244-13.272-13.244-.112 0-.223.02-.336.022-1.338-5.901-6.625-10.323-12.936-10.323-5.136 0-9.593 2.933-11.797 7.205-2.205-4.272-6.662-7.205-11.797-7.205-6.265 0-11.594 4.348-12.941 10.317-.11-.002-.22-.016-.332-.016-7.317 0-13.272 5.94-13.272 13.244 0 .449.024.902.073 1.357-4.498 2.204-7.446 6.84-7.446 11.887 0 3.39 1.293 6.475 3.4 8.819a13.23 13.23 0 0 0-3.4 8.841c0 5.05 2.96 9.655 7.447 11.86-.047.455-.074.916-.074 1.384 0 7.303 5.955 13.244 13.272 13.244.112 0 .222-.015.332-.016 1.347 5.969 6.676 10.317 12.94 10.317 5.136 0 9.593-2.933 11.798-7.205 2.204 4.272 6.661 7.205 11.797 7.205 6.311 0 11.598-4.422 12.936-10.323.113.003.224.022.336.022 7.317 0 13.272-5.941 13.272-13.244 0-.449-.025-.901-.073-1.357 4.498-2.203 7.446-6.84 7.446-11.887 0-3.39-1.293-6.476-3.399-8.82a13.229 13.229 0 0 0 3.399-8.84Zm-9.596 27.273-1.157.442.236 1.214c.129.665.194 1.33.194 1.975 0 5.678-4.63 10.301-10.322 10.301 0-7.304-5.955-13.244-13.272-13.244v2.943c5.692 0 10.322 4.622 10.322 10.301s-4.63 10.301-10.322 10.301c-5.692 0-10.323-4.622-10.323-10.301v-55.92h-2.949v55.92c0 5.679-4.63 10.301-10.323 10.301a10.308 10.308 0 0 1-10.002-7.782c5.739-1.458 10.002-6.646 10.002-12.82h-2.949c0 5.678-4.63 10.301-10.323 10.301-5.692 0-10.322-4.623-10.322-10.301 0-5.679 4.63-10.301 10.322-10.301v-2.943c-5.798 0-10.728 3.736-12.53 8.917-3.142-1.819-5.166-5.224-5.166-8.917 0-2.552.955-4.997 2.644-6.877a13.21 13.21 0 0 0 7.679 2.462v-2.943c-5.692 0-10.322-4.623-10.322-10.302 0-4.235 2.672-8.1 6.646-9.613l1.159-.443-.238-1.215c-.13-.66-.194-1.325-.194-1.973 0-5.678 4.63-10.301 10.322-10.301 5.693 0 10.323 4.623 10.323 10.301h2.95c0-6.174-4.264-11.362-10.003-12.82a10.307 10.307 0 0 1 10.002-7.782c5.692 0 10.323 4.622 10.323 10.3v5.887h2.949v-5.886c0-5.679 4.631-10.301 10.323-10.301s10.322 4.622 10.322 10.3c0 5.68-4.63 10.302-10.322 10.302v2.943c7.317 0 13.272-5.94 13.272-13.244 5.692 0 10.322 4.623 10.322 10.301 0 5.68-4.63 10.301-10.322 10.301v2.943c5.798 0 10.728-3.736 12.53-8.919 3.142 1.82 5.166 5.226 5.166 8.92 0 2.551-.954 4.995-2.644 6.876a13.207 13.207 0 0 0-7.679-2.462c-7.317 0-13.272 5.941-13.272 13.245h2.949c0-5.68 4.631-10.302 10.323-10.302s10.323 4.622 10.323 10.302c0 4.235-2.672 8.099-6.647 9.613Z"/>
    <path fill="#EDD1FF" d="M116.983 68.373h2.949c0-4.057-3.308-7.358-7.373-7.358v2.943a4.425 4.425 0 0 1 4.424 4.415Zm-8.842 64.747h-2.949c0 4.057 3.307 7.358 7.373 7.358v-2.943a4.425 4.425 0 0 1-4.424-4.415Zm25.066-19.131v2.943c4.065 0 7.373-3.3 7.373-7.358h-2.949a4.425 4.425 0 0 1-4.424 4.415Zm-22.122-5.884h-2.949c0 4.869 3.968 8.83 8.848 8.83v-2.944c-3.253 0-5.899-2.64-5.899-5.886ZM114.04 87.5v-2.943c-4.88 0-8.848 3.96-8.848 8.83h2.949c0-3.246 2.646-5.887 5.899-5.887Zm-23.594 20.605h-2.949c0 4.869 3.968 8.83 8.848 8.83v-2.944c-3.253 0-5.899-2.64-5.899-5.886Zm22.118-13.245h-2.95c0 4.87 3.969 8.831 8.848 8.831v-2.944c-3.253 0-5.898-2.64-5.898-5.886ZM93.392 87.5v-2.943c-4.88 0-8.848 3.96-8.848 8.83h2.95c0-3.246 2.645-5.887 5.898-5.887Zm-19.178 19.134h2.95c0-3.246 2.644-5.886 5.897-5.886v-2.943c-4.879 0-8.847 3.959-8.847 8.829Zm1.478 20.599v2.943c4.066 0 7.373-3.3 7.373-7.358h-2.949a4.425 4.425 0 0 1-4.424 4.415ZM60.95 91.915h2.95a4.425 4.425 0 0 1 4.424-4.415v-2.943c-4.066 0-7.373 3.301-7.373 7.358Zm14.742-20.601v2.943a4.425 4.425 0 0 1 4.424 4.415h2.95c0-4.057-3.309-7.358-7.374-7.358Zm13.272-10.299v2.943a4.424 4.424 0 0 1 4.424 4.415h2.95c0-4.057-3.309-7.358-7.374-7.358Z"/>
  </g>
  <defs>
    <radialGradient id="a" cx="0" cy="0" r="1" gradientTransform="matrix(10.8393 116.865 -117.173 10.8108 99.993 100.271)" gradientUnits="userSpaceOnUse">
      <stop stop-color="#9029B4"/>
      <stop offset=".406" stop-color="#7100B8"/>
      <stop offset=".891" stop-color="#320051" stop-opacity="0"/>
      <stop offset="1" stop-opacity="0"/>
    </radialGradient>
    <filter id="b" width="96.086" height="95.895" x="52.727" y="54.785" color-interpolation-filters="sRGB" filterUnits="userSpaceOnUse">
      <feFlood flood-opacity="0" result="BackgroundImageFix"/>
      <feColorMatrix in="SourceAlpha" result="hardAlpha" values="0 0 0 0 0 0 0 0 0 0 0 0 0 0 0 0 0 0 127 0"/>
      <feOffset dy="1.986"/>
      <feGaussianBlur stdDeviation="1.164"/>
      <feComposite in2="hardAlpha" operator="out"/>
      <feColorMatrix values="0 0 0 0 0 0 0 0 0 0 0 0 0 0 0 0 0 0 0.25 0"/>
      <feBlend in2="BackgroundImageFix" result="effect1_dropShadow_2022_82"/>
      <feBlend in="SourceGraphic" in2="effect1_dropShadow_2022_82" result="shape"/>
    </filter>
  </defs>
</svg>
