<svg xmlns="http://www.w3.org/2000/svg" width="200" height="200" fill="currentColor" viewBox="0 0 200 200">
  <path fill="#F5F3F1" d="M100 200c55.228 0 100-44.772 100-100S155.228 0 100 0 0 44.772 0 100s44.772 100 100 100Z"/>
  <path fill="#324EFF" d="M164 141v-20.43c-7.102-.057-16.455.073-23.324 0-6.913-.817-16.431 2.247-15.281-7.355h24.128v-8.172c-4.399-.212-10.222.286-14.476 0-4.255-.286-10.818 2.019-9.652-4.086h24.128v-8.172h-24.128c-1.632-6.325 3.531-7.265 8.043-7.355 4.512-.09 11.183 0 15.281 0 4.749 0 11.183.409 15.281 0V65h-35.388c-5.946 0-10.021.556-13.608 3.334-3.587 2.787-6.643 5.091-8.115 9.733-1.471 4.642-.627 11.081-.796 16.352-.169 5.271.113 12.716 0 17.979s-.418 11.384 1.351 15.788c1.762 4.405 3.981 7.478 8.115 9.733 4.134 2.256 8.553 3.081 13.858 3.081H164Z"/>
  <path fill="#314DFF" d="M99.355 138.174H79.558v-35.711c-.561-4.946-.726-9.368-3.935-13.2-3.21-3.831-6.962-5.813-11.747-6.408-4.776-.594-10.757.57-14.221 3.914-3.457 3.353-5.412 6.367-6.336 11-.923 4.641 1.139 10.52 3.877 14.17 2.74 3.65 7.689 5.211 11.739 6.417V139c-23.716-1.305-42.285-27.655-33.879-50.43C33.462 65.787 61 55.5 82.5 69.5 97 81.5 99.355 88 99.355 106v32.174Z"/>
</svg>
