<svg xmlns="http://www.w3.org/2000/svg" width="200" height="200" fill="currentColor" viewBox="0 0 200 200">
  <g clip-path="url(#a)">
    <path fill="#220D3A" stroke="#141413" stroke-opacity=".1" d="M200 100C200 44.772 155.228 0 100 0S0 44.772 0 100s44.772 100 100 100 100-44.772 100-100Z"/>
    <path fill="#fff" d="M92.262 37.887c-4.865 4.483-9.137 9.395-11.548 14.818a26.636 26.636 0 0 0-1.836 16.755c.965 5.398 3.697 10.343 7.792 14.093 4.052 3.922 9.542 7.153 15.346 10.615 5.769 3.502 12.114 7.293 17.359 13.07 5.271 5.852 8.367 13.252 8.807 21.024.533 7.467-1.362 14.9-5.414 21.255-4.027 6.197-9.738 10.755-15.736 14.232a1.776 1.776 0 0 1-2.394-.593 1.663 1.663 0 0 1 .373-2.167c5.058-4.204 9.424-9.091 11.996-14.571a27.97 27.97 0 0 0 2.182-17.216c-.88-5.563-3.68-10.673-7.935-14.481-4.179-3.898-9.678-7.005-15.54-10.334-5.821-3.379-12.234-6.94-17.758-12.544a35.519 35.519 0 0 1-6.742-9.79 34.69 34.69 0 0 1-2.851-11.332c-.542-7.541 1.285-15.519 5.6-21.692 4.17-5.876 9.788-10.631 16.344-13.837.83-.428 1.861-.115 2.302.692.363.668.22 1.484-.347 1.995v.008Z"/>
    <path fill="#fff" d="M106.109 35.143a41.739 41.739 0 0 1 12.233 8.546 37.124 37.124 0 0 1 4.873 6.33 33.374 33.374 0 0 1 3.274 7.68 34.577 34.577 0 0 1 1.142 8.415c-.059 2.818-.77 16.483-8.511 23.06-2.039 1.392-4.839.914-6.268-1.072 0-.008-.017-.017-.026-.033a4.655 4.655 0 0 1-.228-4.797l.101-.18c2.073-3.817 10.71-18.643.855-35.01a71.645 71.645 0 0 0-8.993-10.434h-.009a1.604 1.604 0 0 1-.067-2.167 1.392 1.392 0 0 1 1.633-.355l-.009.017ZM90.484 163.866a41.746 41.746 0 0 1-12.232-8.547 37.068 37.068 0 0 1-4.873-6.329 33.352 33.352 0 0 1-3.274-7.681 34.142 34.142 0 0 1-1.134-8.423c.06-2.818.77-16.482 8.51-23.059 2.04-1.393 4.84-.915 6.27 1.071 0 .009.016.017.025.033a4.638 4.638 0 0 1 .228 4.797l-.101.181c-2.073 3.816-10.71 18.642-.855 35.01a71.647 71.647 0 0 0 8.993 10.433h.008c.584.61.61 1.541.068 2.168a1.394 1.394 0 0 1-1.633.354v-.008Z"/>
  </g>
  <defs>
    <clipPath id="a">
      <path fill="#fff" d="M0 0h200v200H0z"/>
    </clipPath>
  </defs>
</svg>
