<svg xmlns="http://www.w3.org/2000/svg" width="200" height="200" fill="currentColor" viewBox="0 0 200 200">
  <path fill="#8E5E0B" d="M97.139 0h5.595l.141.004c10.387.346 20.707 2.228 30.503 5.723-1.204.574-2.575.826-3.893.962-4.907-1.484-9.944-2.656-15.018-3.382-2.996-.352-6.004-.602-9.002-.92-1.924-.25-3.911-.117-5.855-.18-2.154.024-4.334-.045-6.48.19-6.017.255-11.858 1.298-17.702 2.71a97.05 97.05 0 0 0-19.082 7.11 115.993 115.993 0 0 0-8.047 4.512c-1.836 1.185-3.715 2.347-5.441 3.668-3.057 2.25-5.999 4.664-8.858 7.16-.99.96-2.05 1.845-3.033 2.814-6.182 6.065-11.488 12.983-15.865 20.451-3.036 5.221-5.532 10.698-7.536 16.391C5.822 72.328 4.455 77.58 3.56 82.91c-.598 2.833-.674 5.6-1.045 8.46-.174 2.302-.52 4.554-.452 6.872-.11 5.27.133 10.497.844 15.719.856 5.789 2.084 11.459 3.977 17.002.72 2.424 1.746 4.781 2.678 7.135.34.873.753 1.709 1.15 2.557 1.473 3.351 3.268 6.567 5.137 9.714 2.505 4.219 5.39 8.193 8.547 11.95a92.57 92.57 0 0 0 14.941 14.758c6.24 4.861 13.092 9.103 20.336 12.295 3.266 1.467 6.62 2.716 10.025 3.816 4.202 1.265 8.477 2.363 12.809 3.086.402.078.805.17 1.209.246.31.765.746 1.453 1.215 2.131-.266.037-.531.07-.8.097-20.726-3.31-40.284-13.289-55.032-28.234-6.012-5.988-11.184-12.759-15.463-20.086A99.965 99.965 0 0 1 .63 111.322c-.125-.884-.15-1.777-.295-2.658-.098-1.938-.297-3.861-.336-5.804v-5.592c.064-2.7.322-5.375.543-8.064.195-1.215.297-2.444.494-3.659C3.568 68.057 10.854 51.313 21.9 37.523c3.68-4.607 7.801-8.873 12.22-12.775A100.099 100.099 0 0 1 67.782 5.322C77.238 2.08 87.158.342 97.14 0Z"/>
  <path fill="#FFD274" d="M99.61 2.207c1.945.063 3.931-.07 5.855.18 2.998.318 6.006.568 9.002.92 5.074.726 10.111 1.898 15.018 3.383a94.768 94.768 0 0 1 21.378 9.634c3.653 2.28 7.18 4.743 10.542 7.432.432.355.847.777 1.328 1.06.732-.07 1.476-.615 2.082-1.01a85.147 85.147 0 0 1 5.619 5.177c8.795 8.638 15.885 18.988 20.918 30.234 4.989 11.178 7.914 23.25 8.551 35.472-.783-.04-1.562-.08-2.348-.056.095 1.662.225 3.31.173 4.977.05 3.298-.323 6.529-.634 9.802-.318 2.686-.444 5.335-.968 8.01a78.683 78.683 0 0 1-1.434 6.705c-1.92 8.061-4.975 15.859-8.966 23.119-2.261 4.159-4.909 8.115-7.737 11.907-.758-.967-1.77-1.622-2.613-2.501-.75-.757-1.463-1.536-2.298-2.209-.863-.704-1.578-1.521-2.37-2.298-.625-.619-1.338-1.129-1.956-1.756-.843-.852-1.672-1.717-2.564-2.522-.721-.65-1.305-1.366-2.073-1.961-1.704 2.271-3.409 4.534-5.313 6.647-3.437 3.808-7.152 7.545-11.337 10.528-3.537 2.618-7.281 4.972-11.203 6.972-1.08.582-2.208 1.068-3.297 1.634.661 1.29 1.578 2.46 2.4 3.674a186.019 186.019 0 0 0 4.133 6.203c1.182 1.934 2.473 3.799 3.725 5.687.227.321.322.329.709.298-5.184 2.574-10.597 4.797-16.16 6.407-3.641 1.132-7.455 1.908-11.203 2.591-2.254.377-4.524.691-6.803.876-1.364.157-2.736.146-4.099.302-1.694.072-3.387.068-5.078.148-2.015-.166-4.02.016-6.022-.232-3.617-.367-7.244-.666-10.852-1.121-.404-.076-.806-.168-1.209-.246-4.332-.723-8.607-1.821-12.808-3.086-.907-.74-1.58-1.861-2.274-2.805a311.961 311.961 0 0 1-20.26-30.908c-.136-.252-.168-.52-.207-.797 9.934 8.888 22.075 15.211 35.021 18.361 1.463.393 2.961.655 4.446.95 2.588.433 5.084.919 7.717 1.027 2.62.043 5.187.256 7.813.055 2.869-.061 5.734-.374 8.576-.759 5.232-.822 10.389-1.992 15.383-3.775.872-.306 1.746-.585 2.564-1.031-.451-.382-.906-.759-1.403-1.084.77-.292 1.532-.608 2.295-.91 6.483-2.678 12.657-6.168 18.22-10.444 6.961-5.33 13.07-11.831 17.882-19.161.723-1.097 1.446-2.188 2.112-3.319l.928.439c2.312-4.097 4.252-8.386 5.902-12.79 1.326-3.775 2.411-7.618 3.178-11.546.269-1.472.696-2.882.761-4.388.27-1.865.513-3.726.491-5.616.138-2.317.23-4.673.033-6.99-.187-5.602-1.002-11.2-2.37-16.638-1.08-4.51-2.652-8.79-4.458-13.053a82.856 82.856 0 0 0-11.526-18.766c-1.52-1.726-3.072-3.437-4.733-5.029-10.924-10.88-25.081-18.492-40.159-21.685-3.399-.672-6.891-1.332-10.35-1.52-3.376-.037-6.793-.166-10.159.102-8.42.591-16.795 2.457-24.62 5.634-3.868 1.494-7.594 3.364-11.165 5.467-.197-.422-.4-.834-.672-1.215-2.857-3.918-5.668-7.877-8.502-11.816-.609-.824-1.144-1.744-1.863-2.45a115.97 115.97 0 0 1 8.047-4.511 97.05 97.05 0 0 1 19.082-7.11c5.844-1.412 11.685-2.455 17.703-2.71 2.145-.235 4.325-.166 6.48-.19Z"/>
  <path fill="#BE883A" d="M133.377 5.727c11.477 4.044 22.149 10.226 31.438 18.08-.606.394-1.35.94-2.083 1.01-.48-.284-.896-.706-1.328-1.061-3.361-2.69-6.889-5.152-10.541-7.432a94.775 94.775 0 0 0-21.379-9.635c1.319-.136 2.69-.388 3.893-.962Z"/>
  <path fill="#FFDFB0" d="M48.299 16.729c.719.705 1.254 1.625 1.863 2.449 2.834 3.94 5.645 7.898 8.502 11.816.272.381.475.793.672 1.215-2.338 1.383-4.629 2.865-6.803 4.498-1.506 1.094-2.986 2.203-4.369 3.451-1.392 1.285-2.816 2.53-4.123 3.907a32.58 32.58 0 0 1-1.11-1.272c-.794-.959-1.773-1.717-2.564-2.682-.988-1.232-2.191-2.224-3.248-3.4-.951-1.068-2.045-1.996-2.98-3.074-.965-1.166-2.104-2.195-3.172-3.266.982-.969 2.043-1.853 3.033-2.814 2.86-2.496 5.8-4.91 8.858-7.16 1.726-1.32 3.605-2.483 5.44-3.668Z"/>
  <path fill="#653912" d="M105.28 21.006c3.459.187 6.95.848 10.35 1.52 15.078 3.193 29.235 10.804 40.159 21.685 1.661 1.592 3.213 3.303 4.733 5.03a82.816 82.816 0 0 1 11.525 18.765c1.807 4.264 3.379 8.543 4.459 13.052 1.368 5.438 2.182 11.037 2.37 16.64.197 2.316.105 4.672-.033 6.989.022 1.89-.222 3.751-.491 5.616-.258.828-.406 1.673-.557 2.527-.328-.123-.656-.243-.982-.365.056-1.139.236-2.25.383-3.379.199-2.109.439-4.228.465-6.348.103-4.18.027-8.353-.528-12.504a77.467 77.467 0 0 0-2.422-12.025c-4.189-13.654-12.076-26.13-22.711-35.676-3.174-2.867-6.57-5.498-10.181-7.79-2.239-1.483-4.557-2.833-7.01-3.93-9.289-4.47-19.444-7.045-29.731-7.653-2.992-.093-5.994-.117-8.986.012-5.668.36-11.325 1.258-16.795 2.8a81.016 81.016 0 0 0-9.26 3.434c-1.789.788-3.539 1.702-5.287 2.579-8.137 4.369-15.508 10.128-21.654 17.027-3.87 4.29-7.244 9.047-10.086 14.076-3.477 6.691-6.15 13.916-7.598 21.324-.77 3.65-1.217 7.375-1.469 11.096-.129 4.4-.17 8.705.329 13.087.39 3.48.966 6.962 1.828 10.357.869 3.766 2.23 7.427 3.73 10.982 2.58 5.914 5.795 11.521 9.713 16.654a79.435 79.435 0 0 0 24.71 21.389c4.468 2.265 9.089 4.198 13.892 5.633 1.488.482 3.015.793 4.517 1.228.142.733.217 1.439.198 2.188-.295.008-.588.012-.882.013-12.947-3.15-25.087-9.473-35.02-18.361-2.208-2.02-4.382-4.061-6.354-6.316-1.875-1.963-3.403-4.143-5.002-6.325a81.968 81.968 0 0 1-8.078-14.363c-.77-1.871-1.536-3.752-2.21-5.66a80.89 80.89 0 0 1-4.347-21.196c-.276-3.08-.172-6.22-.143-9.31a44.97 44.97 0 0 1 .754-6.953c2.2-14.252 8.334-27.813 17.475-38.953 1.562-1.928 3.271-3.723 4.988-5.537 1.307-1.377 2.73-2.622 4.123-3.907 1.383-1.248 2.864-2.357 4.37-3.45 2.173-1.634 4.464-3.116 6.802-4.499 3.57-2.104 7.297-3.973 11.164-5.467 7.826-3.177 16.201-5.043 24.621-5.634 3.366-.268 6.783-.14 10.159-.102Z"/>
  <path fill="#B17319" d="M105.078 23.16c10.287.607 20.442 3.184 29.731 7.652 2.453 1.098 4.771 2.448 7.01 3.93 3.611 2.293 7.007 4.924 10.181 7.791 10.635 9.545 18.522 22.022 22.711 35.676a77.465 77.465 0 0 1 2.422 12.025c.555 4.151.632 8.325.528 12.504-.026 2.12-.266 4.239-.465 6.348-.146 1.129-.327 2.24-.383 3.379-.84 4.605-1.902 9.358-3.574 13.74-1.016 2.746-2.109 5.457-3.391 8.092a41.321 41.321 0 0 1-2.266 4.291c-.665 1.131-1.388 2.222-2.111 3.318-.961-1.135-1.98-2.215-2.98-3.314.652-1.137 1.448-2.17 2.024-3.346a293.507 293.507 0 0 1 2.15-4.127c.878-1.884 1.6-3.847 2.435-5.749 1.057-2.865 1.802-5.794 2.635-8.724.717-3.177 1.127-6.373 1.463-9.611.345-2.641.197-5.152.226-7.816-.004-1.871.061-3.713-.185-5.576-.33-3.41-.768-6.913-1.541-10.255-.674-2.27-1.219-4.565-2-6.804-.44-1.563-1.163-2.996-1.737-4.508-.519-1.19-.943-2.392-1.559-3.515-.829-1.524-1.579-3.094-2.427-4.606-1.154-1.75-2.134-3.531-3.406-5.185-.602-.78-1.086-1.633-1.721-2.383-1.044-1.184-1.912-2.485-3.033-3.606-.959-1.261-2.163-2.264-3.196-3.455-.892-.998-1.993-1.765-2.913-2.742-.867-.918-1.913-1.586-2.843-2.432-1.233-1.115-2.691-1.994-4.007-3.02-1.278-.993-2.706-1.697-4.03-2.614-1.459-1-3.133-1.66-4.657-2.57-1.708-.968-3.602-1.653-5.411-2.407-3.18-1.488-6.81-2.271-10.167-3.285-1.326-.256-2.711-.695-4.057-.617-2.69-.395-5.373-.793-8.086-.997-.792-.043-1.551-.218-2.346-.212-2.342.021-4.69.004-7.031.008-3.483.29-6.915.597-10.354 1.25-1.334.265-2.662.472-3.955.916-2.984.847-6.127 1.613-8.942 2.933-1.732.72-3.542 1.36-5.167 2.303-.702-.553-1.206-1.229-1.838-1.875-.696-.719-1.153-1.53-2.065-1.98 1.748-.878 3.498-1.792 5.287-2.579a81.015 81.015 0 0 1 9.26-3.433c5.47-1.543 11.127-2.442 16.796-2.801 2.991-.13 5.993-.106 8.985-.012Z"/>
  <path fill="#FFD274" d="M97.07 28.438c2.342-.004 4.69.013 7.032-.008.795-.006 1.554.17 2.345.213 2.713.203 5.396.601 8.087.996 1.491.27 2.974.508 4.409 1.013 2.483.668 4.936 1.358 7.35 2.25 2.299 1.075 4.92 1.899 7.135 3.206 1.363.789 2.857 1.406 4.168 2.271 1.393.99 2.912 1.711 4.262 2.777 1.312 1.03 2.777 1.899 4 3.026.972.865 2.05 1.566 2.943 2.525.996 1.047 2.194 1.84 3.088 2.967.789.916 1.726 1.637 2.465 2.603.591.778 1.345 1.399 1.913 2.198.835 1.185 1.876 2.18 2.632 3.423 1.131 1.514 2.194 3.057 3.148 4.69 1.336 1.904 2.266 4.105 3.407 6.137.852 1.738 1.541 3.564 2.274 5.353.539 1.053.791 2.182 1.186 3.287.647 1.889 1.063 3.836 1.67 5.73.624 2.671 1.037 5.391 1.368 8.112.144 2.217.638 4.432.546 6.644-.011 2.018.016 4.04-.007 6.055-.43 4.141-.821 8.227-1.709 12.305-.174 1.061-.63 2.029-.83 3.084a67.975 67.975 0 0 1-1.325 4.397c-.238.783-.473 1.558-.84 2.295-.906 2.121-1.675 4.355-2.816 6.365-.635 1.246-1.293 2.478-1.941 3.719-.518.859-1.102 1.669-1.589 2.551-.172-.544-.378-.981-.761-1.409a26.2 26.2 0 0 1 .23-.402c.385-.633.838-1.204 1.18-1.863.77-1.508 1.551-3.011 2.349-4.501.909-1.978 1.672-4.035 2.536-6.031a80.132 80.132 0 0 0 1.994-6.634c.574-1.725.906-3.495 1.185-5.286.555-3.111.841-6.22 1.03-9.371a3054.95 3054.95 0 0 1 0-6.055c-.243-4.306-.758-8.634-1.689-12.851-.819-2.883-1.552-5.772-2.578-8.592-.868-1.986-1.613-4.04-2.536-6.004-.857-1.568-1.647-3.172-2.494-4.746-1.155-1.73-2.122-3.545-3.377-5.213-.789-.998-1.387-2.098-2.25-3.031-.687-.76-1.226-1.627-1.924-2.379-1.051-1.11-1.945-2.328-3.088-3.353-1.039-1.192-2.268-2.153-3.39-3.254-.9-.956-1.985-1.635-2.958-2.504-1.155-1.045-2.451-1.817-3.677-2.774-.856-.668-1.774-1.218-2.702-1.775-1.113-.643-2.109-1.44-3.278-1.988-1.715-.817-3.294-1.858-5.048-2.583-1.494-.666-3.037-1.2-4.517-1.9-2.85-1.098-5.77-1.785-8.68-2.658-4.435-1.016-8.944-1.555-13.483-1.813-3.128.028-6.214-.119-9.33.27-3.23.355-6.44.818-9.612 1.537-2.915.867-5.843 1.568-8.694 2.656-2.102.989-4.383 1.71-6.457 2.832-.295-.351-.588-.7-.906-1.033l.136-.074c1.625-.944 3.436-1.582 5.168-2.303 2.815-1.32 5.958-2.086 8.942-2.933 1.292-.444 2.62-.65 3.955-.916 3.44-.653 6.871-.96 10.354-1.25Z"/>
  <path fill="#653912" d="M118.591 30.256c3.357 1.014 6.987 1.797 10.167 3.285 1.809.754 3.703 1.44 5.411 2.406 1.524.91 3.198 1.57 4.657 2.57 1.324.919 2.752 1.622 4.03 2.616 1.316 1.025 2.774 1.904 4.007 3.02.93.845 1.976 1.513 2.843 2.431.92.977 2.021 1.744 2.913 2.742 1.033 1.192 2.237 2.194 3.196 3.455 1.121 1.121 1.989 2.422 3.033 3.606.635.75 1.119 1.603 1.721 2.383 1.272 1.654 2.252 3.435 3.406 5.185.848 1.512 1.598 3.082 2.427 4.606.616 1.123 1.039 2.326 1.559 3.515.574 1.512 1.297 2.946 1.737 4.508.78 2.239 1.326 4.535 2 6.804.773 3.342 1.211 6.844 1.541 10.255.246 1.863.181 3.705.185 5.576-.029 2.664.119 5.175-.226 7.816-.336 3.238-.746 6.434-1.463 9.611-.833 2.93-1.579 5.86-2.635 8.724-.836 1.902-1.557 3.865-2.435 5.749a304.547 304.547 0 0 0-2.151 4.127c-.575 1.176-1.371 2.209-2.023 3.346-1.026 1.701-2.254 3.248-3.376 4.881-.833.944-1.572 1.953-2.374 2.921-.959.94-1.706 2.054-2.698 2.96-.857.783-1.521 1.728-2.408 2.477a30.517 30.517 0 0 0-2.129 1.974c-.783.803-1.711 1.388-2.537 2.143-1.219 1.128-2.687 2.007-4.004 3.027-1.352 1.064-2.863 1.796-4.265 2.773-1.298.875-2.801 1.494-4.165 2.277-1.84 1.09-3.949 1.863-5.931 2.678-.646.271-1.266.596-1.932.824-.648.223-1.307.419-1.959.63l-.057-.274c.459-.174.924-.334 1.385-.502 2.513-1.147 5.182-1.99 7.518-3.375 1.319-.748 2.769-1.362 4.032-2.194.958-.693 2-1.239 2.991-1.884.877-.545 1.653-1.215 2.504-1.799.857-.63 1.783-1.217 2.559-1.938 1.031-.941 2.196-1.677 3.152-2.704.859-.899 1.883-1.635 2.723-2.546.897-1.136 2.056-1.988 2.921-3.144.424-.554.95-1.002 1.391-1.539.737-.955 1.47-1.897 2.262-2.809 1.108-1.619 2.321-3.152 3.347-4.827.487-.882 1.071-1.692 1.589-2.551.648-1.241 1.306-2.473 1.941-3.719 1.141-2.011 1.91-4.244 2.816-6.365.367-.737.602-1.512.841-2.295.498-1.447.926-2.92 1.324-4.397.2-1.055.656-2.023.83-3.084.888-4.078 1.279-8.164 1.709-12.305.024-2.015-.004-4.037.007-6.055.093-2.212-.402-4.427-.546-6.644-.331-2.721-.744-5.44-1.368-8.111-.607-1.895-1.023-3.842-1.669-5.73-.395-1.106-.647-2.235-1.187-3.288-.733-1.789-1.421-3.615-2.274-5.353-1.141-2.032-2.071-4.233-3.407-6.137-.953-1.633-2.017-3.176-3.148-4.69-.756-1.244-1.797-2.238-2.631-3.423-.568-.8-1.322-1.42-1.914-2.198-.739-.966-1.676-1.687-2.465-2.603-.894-1.127-2.092-1.92-3.088-2.967-.893-.959-1.971-1.66-2.943-2.525-1.223-1.127-2.688-1.996-4-3.026-1.35-1.066-2.869-1.787-4.262-2.777-1.311-.865-2.805-1.482-4.168-2.271-2.215-1.307-4.835-2.131-7.135-3.206-2.413-.892-4.867-1.582-7.35-2.25-1.435-.506-2.917-.744-4.409-1.013 1.346-.078 2.731.361 4.057.617Z"/>
  <path fill="#B17319" d="M103.515 29.652c4.54.258 9.048.797 13.483 1.813 2.91.873 5.83 1.56 8.68 2.658 1.481.7 3.024 1.234 4.518 1.9 1.754.725 3.332 1.766 5.047 2.582 1.17.55 2.166 1.346 3.279 1.989.928.556 1.845 1.107 2.701 1.775 1.227.957 2.522 1.729 3.677 2.774.974.869 2.058 1.548 2.958 2.504 1.123 1.101 2.351 2.062 3.39 3.253 1.143 1.026 2.037 2.245 3.089 3.354.697.752 1.236 1.62 1.923 2.379.864.933 1.461 2.033 2.25 3.031 1.256 1.668 2.223 3.483 3.377 5.213.848 1.574 1.637 3.178 2.494 4.746.924 1.963 1.669 4.018 2.536 6.004 1.027 2.82 1.759 5.709 2.578 8.591.931 4.218 1.447 8.546 1.689 12.852-.002 2.018-.002 4.037 0 6.055-.189 3.151-.475 6.26-1.03 9.371-.278 1.791-.611 3.561-1.185 5.285a79.28 79.28 0 0 1-1.994 6.635c-.864 1.996-1.627 4.053-2.536 6.031a252.4 252.4 0 0 0-2.348 4.501c-.343.659-.796 1.23-1.18 1.863-2.432-2.54-4.757-5.184-7.146-7.764-.635-.717-1.231-1.446-2-2.029.003-22.288.001-44.575.001-66.862 0-.894.036-1.754-.049-2.648-.211-1.278-.701-2.324-1.867-2.98-.818-.417-1.681-.463-2.584-.463-12.31.027-24.627-.022-36.936.025a29.23 29.23 0 0 0-.006.594 8.328 8.328 0 0 0-.224-.532c-.909.131-1.754.274-2.479.885-.797.81-1.548 1.662-2.396 2.426-.104-.291-.211-.584-.312-.877-.264-1.06-1.165-1.897-2.2-2.193a26.092 26.092 0 0 0-.681-.063l.07.34a14.25 14.25 0 0 0-.235-.502 19.02 19.02 0 0 0-2.648-.098c-4.684.006-9.367-.004-14.05.004-1.333-1.582-2.804-3.045-4.167-4.601-3.24-3.553-6.375-6.965-9.513-10.403-.54-.627-1.02-1.26-1.74-1.697 1.695-.969 3.466-1.682 5.277-2.4 1.082-.41 2.086-.963 3.201-1.291 1.95-.666 3.923-1.23 5.918-1.75 1.757-.606 3.624-.895 5.455-1.256a51.24 51.24 0 0 0 4.586-.754c3.115-.389 6.201-.242 9.329-.27Z"/>
  <path fill="#653912" d="M94.186 29.922a51.284 51.284 0 0 1-4.586.754c-1.83.361-3.698.65-5.455 1.256-1.995.52-3.967 1.084-5.917 1.75-1.116.328-2.12.88-3.202 1.29-1.81.72-3.582 1.432-5.278 2.401-1.511.865-3.07 1.504-4.468 2.506-1.266.836-2.6 1.512-3.805 2.455-1.213.951-2.541 1.74-3.68 2.764-1.01.894-2.123 1.625-3.072 2.59-.943.959-2.004 1.771-2.893 2.775-.74.838-1.593 1.52-2.283 2.398-.617.809-1.39 1.465-1.996 2.282-.832 1.195-1.879 2.195-2.639 3.447a50.172 50.172 0 0 0-3.365 5.049c-1.088 1.54-1.81 3.24-2.709 4.892-.974 1.705-1.652 3.592-2.402 5.406-1.25 2.829-2.086 5.863-2.883 8.844-.488 1.45-.744 3-1.014 4.504-.619 3.725-1.117 7.567-1.047 11.348.018 1.851-.035 3.707.032 5.559.215 3.933.783 7.855 1.6 11.708.822 2.929 1.57 5.856 2.622 8.715.85 1.953 1.582 3.971 2.489 5.898.828 1.53 1.6 3.087 2.414 4.622 1.324 2.064 2.506 4.197 4.025 6.135.713 1.109 1.522 2.086 2.37 3.091.878 1.262 2 2.291 2.954 3.491 1.397 1.411 2.733 2.865 4.235 4.168 1.031 1.078 2.213 1.949 3.357 2.896 1.213 1.108 2.594 1.938 3.887 2.944 1.248.968 2.625 1.656 3.926 2.532 1.488 1.037 3.195 1.716 4.767 2.645 2.34 1.35 4.975 2.049 7.34 3.305l-.219.189c-.82-.164-1.56-.512-2.31-.869-2.055-.859-4.283-1.65-6.203-2.779-1.287-.75-2.678-1.334-3.94-2.125-1.494-1.063-3.068-1.803-4.5-2.926-1.246-.976-2.527-1.729-3.683-2.774-.944-.852-1.979-1.499-2.854-2.411-.931-.969-2.017-1.745-2.916-2.749-.74-.826-1.602-1.532-2.293-2.394-.738-.957-1.644-1.748-2.336-2.745-.613-.88-1.408-1.601-1.992-2.501-.795-1.219-1.736-2.328-2.49-3.576-.617-.893-1.092-1.869-1.719-2.755-.633-.901-1.047-1.936-1.594-2.902-.64-1.324-1.43-2.544-1.947-3.927-.67-1.549-1.266-3.127-1.941-4.672-.657-1.934-1.282-3.883-1.791-5.861-.186-.938-.577-1.811-.762-2.749a76.345 76.345 0 0 1-1.43-9.566c-.053-1.377-.289-2.721-.224-4.102.054-2.34-.13-4.71.15-7.033.15-2.55.465-5.096.908-7.61a36.27 36.27 0 0 1 .838-4.081c.395-1.094.586-2.237.943-3.342.582-1.9 1.106-3.855 1.948-5.66.592-1.543 1.24-3.07 1.904-4.584.805-1.527 1.617-3.055 2.398-4.596.393-.76.94-1.414 1.35-2.166 1.168-2.053 2.61-3.892 3.955-5.826.83-.912 1.535-1.912 2.32-2.86 1.108-1.15 2.034-2.427 3.229-3.497 1.041-1.19 2.262-2.157 3.393-3.25.898-.961 1.98-1.633 2.953-2.508 1.086-.996 2.396-1.778 3.568-2.69 1.205-.957 2.502-1.642 3.787-2.457 1.674-1.22 3.625-1.968 5.412-3.04 2.075-1.124 4.356-1.845 6.457-2.833 2.852-1.088 5.78-1.789 8.694-2.656 3.172-.719 6.383-1.182 9.613-1.537Z"/>
  <path fill="#FFD274" d="M30.967 30.371c1.068 1.07 2.207 2.1 3.172 3.266.935 1.078 2.029 2.006 2.98 3.074 1.057 1.176 2.26 2.168 3.248 3.4.791.965 1.77 1.723 2.565 2.682.36.432.726.857 1.11 1.272-1.718 1.814-3.427 3.609-4.99 5.537-9.14 11.14-15.275 24.7-17.474 38.953a44.942 44.942 0 0 0-.754 6.953c-.03 3.09-.133 6.23.143 9.31a8.58 8.58 0 0 1-.547-1.025c-1.748-4.51-3.56-8.992-5.18-13.553-2.058-5.79-4.125-11.613-5.945-17.484-.617-1.832-1.225-3.678-1.729-5.543 2.004-5.693 4.5-11.17 7.536-16.39 4.377-7.47 9.683-14.388 15.865-20.452Z"/>
  <path fill="#E29E3C" d="M64.75 31.984c.912.451 1.37 1.262 2.064 1.98.633.647 1.137 1.323 1.838 1.876l-.136.074c-1.711.951-3.555 1.719-5.133 2.85-1.235.802-2.522 1.468-3.686 2.386-1.355 1.057-2.855 1.957-4.11 3.114-.937.83-1.974 1.511-2.833 2.435-.955 1.008-2.117 1.785-2.994 2.854-.537.64-1.15 1.199-1.74 1.789-.647.64-1.137 1.406-1.805 2.029l-.016.016c-1.014-1.469-2.027-2.953-3.103-4.375 6.146-6.899 13.517-12.659 21.654-17.028Z"/>
  <path fill="#FFF2DE" d="M68.516 35.914c.318.332.611.682.906 1.033-1.787 1.073-3.738 1.82-5.412 3.041-1.285.815-2.582 1.5-3.787 2.457-1.172.912-2.483 1.694-3.568 2.69-.973.875-2.055 1.547-2.954 2.508-1.13 1.093-2.351 2.06-3.392 3.25-1.195 1.07-2.121 2.347-3.229 3.498-.287-.34-.57-.688-.865-1.02.668-.623 1.158-1.389 1.805-2.03.59-.589 1.203-1.148 1.74-1.788.877-1.069 2.04-1.846 2.994-2.854.86-.924 1.897-1.605 2.834-2.435 1.254-1.157 2.754-2.057 4.11-3.114 1.164-.918 2.45-1.584 3.685-2.386 1.578-1.131 3.422-1.899 5.133-2.85Z"/>
  <path fill="#E29E3C" d="M69.748 37.373c.72.438 1.201 1.07 1.74 1.698 3.14 3.437 6.274 6.849 9.514 10.402 1.363 1.556 2.834 3.02 4.167 4.601-10.03-.01-20.061 0-30.09-.004-.936-.003-1.817-.062-2.737.172-.649.246-1.256.514-1.73 1.04-.477.519-.676 1.265-.874 1.93a6 6 0 0 0-.136.876 24.712 24.712 0 0 1-2.051-2.945c.605-.817 1.379-1.473 1.996-2.282.69-.878 1.543-1.56 2.283-2.398.889-1.004 1.95-1.816 2.893-2.775.949-.965 2.062-1.696 3.072-2.59 1.139-1.024 2.467-1.813 3.68-2.764 1.205-.943 2.539-1.62 3.804-2.455 1.399-1.002 2.957-1.64 4.47-2.506Z"/>
  <path fill="#B17319" d="M43.096 49.012c1.076 1.422 2.09 2.906 3.103 4.375-.789.803-1.36 1.765-2.119 2.601-.83.903-1.412 1.955-2.162 2.916-1.217 1.59-2.13 3.284-3.248 4.961-.947 1.676-1.78 3.416-2.705 5.106-.756 1.619-1.412 3.289-2.078 4.947-.668 1.383-1.059 2.904-1.545 4.367-.512 1.586-.85 3.215-1.373 4.797-.649 2.725-1.055 5.514-1.393 8.293-.146 1.772-.422 3.54-.39 5.305.013 2.69-.026 5.38.02 8.071.284 3.904.775 7.823 1.599 11.654.195 1 .607 1.933.806 2.935a81.488 81.488 0 0 0 1.801 5.845c.928 2.078 1.68 4.259 2.692 6.296 1.119 1.992 2.031 4.15 3.33 6.023.805 1.314 1.625 2.678 2.566 3.897.715.927 1.283 1.937 2.082 2.803.754.828 1.32 1.781 2.108 2.575.822.817 1.457 1.781 2.328 2.555.83.738 1.459 1.658 2.297 2.383 1.465 1.218 2.697 2.652 4.254 3.766 1.543 1.433 3.31 2.537 4.976 3.814 1.18.88 2.49 1.529 3.694 2.367 1.355.944 2.956 1.591 4.396 2.424 2.039 1.204 4.387 1.983 6.48 2.91.772.377 1.58.645 2.403.893.142-.444.215-.898.273-1.36l.22-.189c-2.366-1.256-5-1.955-7.34-3.305-1.573-.929-3.28-1.608-4.768-2.645-1.301-.876-2.678-1.564-3.926-2.532-1.293-1.006-2.674-1.836-3.887-2.944-1.145-.947-2.326-1.818-3.357-2.896-1.502-1.303-2.838-2.757-4.235-4.168-.955-1.2-2.076-2.229-2.955-3.491-.847-1.005-1.656-1.982-2.369-3.091-1.52-1.938-2.701-4.071-4.025-6.135-.815-1.535-1.586-3.092-2.414-4.622-.907-1.927-1.64-3.945-2.489-5.898-1.053-2.859-1.8-5.786-2.623-8.715-.816-3.853-1.384-7.775-1.6-11.708-.066-1.852-.013-3.708-.03-5.559-.071-3.781.427-7.623 1.046-11.348.27-1.504.526-3.054 1.014-4.504.797-2.98 1.633-6.015 2.883-8.844.75-1.814 1.428-3.7 2.402-5.406.898-1.652 1.621-3.351 2.709-4.892a50.173 50.173 0 0 1 3.365-5.05c.76-1.251 1.807-2.251 2.639-3.446a24.717 24.717 0 0 0 2.05 2.945c.03 9.543.014 19.088.009 28.631-.063 1.127.101 2.121.437 3.189.194.68.617 1.223 1.162 1.662 1.149.639 2.586.834 3.881.66.45-.047.902-.073 1.355-.075 3.712.021 7.422.002 11.133.009 1.057.017 2.041-.12 3.075.195-.56.288-1.012.704-1.46 1.139l.403.008c-.945.394-1.506 1.114-2.209 1.81-5.104 5.118-10.225 10.218-15.326 15.337-.584.618-1.414 1.148-1.826 1.892-.506 1.164-.68 2.402-.625 3.666.017 7.551.002 15.106.007 22.656.01 1.045-.09 2.044.147 3.074.094.567.236 1.121.498 1.635.49.674 1.143 1.194 1.94 1.456 1.238.191 2.413.118 3.658.127 7.357.002 14.713-.002 22.07.002 1.426.015 2.883.062 4.228-.51.8-.38 1.37-1.284 2.018-1.882 4.971-4.894 9.84-9.925 14.85-14.775 1.871 2.605 3.707 5.234 5.552 7.858.557.789 1.069 1.598 1.709 2.324.049 1.67-.194 3.129.389 4.729.356.855.989 1.548 1.878 1.856a8.503 8.503 0 0 0 2.544.407c4.869 6.949 9.719 13.94 14.567 20.903l-.368.144c-.365.133-.734.254-1.104.377.089.464.216.885.463 1.291.02.091.038.182.057.274.652-.211 1.311-.407 1.959-.63.901 1.327 1.895 2.6 2.697 3.985-.763.302-1.525.617-2.295.91-5.251 1.996-10.73 3.193-16.289 3.932-1.89.291-3.79.493-5.705.523-2.019.232-4.029.133-6.056.151-3.717-.159-7.413-.465-11.085-1.087-1.787-.346-3.533-.583-5.276-1.103-1.502-.435-3.03-.746-4.518-1.228-4.803-1.436-9.424-3.368-13.893-5.633a79.436 79.436 0 0 1-24.709-21.389c-3.918-5.133-7.133-10.74-9.713-16.654-1.5-3.555-2.861-7.217-3.73-10.983-.862-3.394-1.438-6.876-1.828-10.356-.498-4.382-.457-8.686-.328-13.087.252-3.72.699-7.446 1.468-11.096 1.448-7.408 4.121-14.633 7.598-21.324 2.842-5.03 6.217-9.785 10.086-14.076Z"/>
  <path fill="#FFD274" d="m46.2 53.387.015-.016c.295.332.578.68.865 1.02-.785.947-1.49 1.947-2.32 2.86-1.346 1.933-2.787 3.773-3.955 5.825-.41.752-.957 1.407-1.35 2.166-.781 1.541-1.594 3.069-2.398 4.596a105.6 105.6 0 0 0-1.905 4.584c-.842 1.805-1.365 3.76-1.947 5.66-.357 1.105-.549 2.248-.943 3.342a36.22 36.22 0 0 0-.838 4.08 66.397 66.397 0 0 0-.908 7.611c-.28 2.323-.096 4.693-.15 7.033-.065 1.381.171 2.725.224 4.102a76.326 76.326 0 0 0 1.43 9.566c.185.938.576 1.811.761 2.749.51 1.978 1.135 3.927 1.791 5.861.676 1.545 1.272 3.123 1.942 4.672.517 1.383 1.306 2.603 1.947 3.927.547.966.96 2.001 1.594 2.902.627.886 1.101 1.862 1.718 2.755.754 1.248 1.696 2.358 2.49 3.576.585.9 1.38 1.621 1.993 2.501.691.997 1.597 1.788 2.336 2.745.691.862 1.553 1.568 2.293 2.394.898 1.004 1.984 1.78 2.916 2.749.875.912 1.91 1.559 2.853 2.411 1.156 1.045 2.438 1.798 3.684 2.774 1.432 1.123 3.006 1.863 4.5 2.926 1.262.791 2.652 1.375 3.94 2.125 1.92 1.129 4.148 1.92 6.203 2.779.75.357 1.49.705 2.31.869-.059.462-.13.916-.273 1.36-.823-.248-1.631-.516-2.403-.893-2.093-.927-4.441-1.706-6.48-2.91-1.44-.833-3.041-1.48-4.397-2.424-1.203-.838-2.513-1.487-3.693-2.367-1.666-1.277-3.434-2.381-4.977-3.814-1.556-1.114-2.789-2.548-4.254-3.766-.837-.725-1.466-1.645-2.296-2.383-.871-.774-1.506-1.738-2.329-2.555-.787-.794-1.353-1.747-2.107-2.575-.799-.866-1.367-1.876-2.082-2.803-.941-1.219-1.762-2.583-2.566-3.897-1.3-1.873-2.211-4.031-3.33-6.023-1.012-2.037-1.764-4.218-2.692-6.296-.664-1.925-1.283-3.874-1.8-5.845-.2-1.002-.612-1.935-.807-2.935-.825-3.831-1.315-7.75-1.6-11.654-.045-2.691-.006-5.382-.02-8.07-.03-1.767.245-3.534.391-5.306.338-2.78.744-5.568 1.393-8.293.523-1.582.861-3.211 1.373-4.797.486-1.463.877-2.984 1.545-4.367.666-1.658 1.322-3.328 2.078-4.947.926-1.69 1.758-3.43 2.705-5.106 1.117-1.677 2.031-3.37 3.248-4.96.75-.962 1.332-2.014 2.162-2.917.758-.836 1.33-1.798 2.12-2.601Z"/>
  <path fill="#653912" d="M55.078 54.07c10.03.004 20.06-.005 30.09.004 4.684-.007 9.367.002 14.051-.003a19.041 19.041 0 0 1 2.648.097c.082.166.159.334.235.502.143.572.238 1.18.465 1.725.478.273 1.017.357 1.372.81.6.707.332 1.496.733 2.307.178-.961.205-1.953.24-2.926.102.293.209.586.313.877.848-.764 1.599-1.615 2.396-2.426.299.98.998 1.842 1.51 2.727a8.51 8.51 0 0 1 1.586-1.08c-.065-.682-.235-1.338-.393-2 0-.2.002-.397.006-.594 12.309-.047 24.626.002 36.935-.025.904 0 1.767.047 2.585.463-.414.726-.881 1.404-1.246 2.156.687.273 1.015.724 1.45 1.283.561-.125 1.102-.326 1.663-.46.084.896.048 1.755.048 2.65 0 22.287.002 44.573-.001 66.861.005 4.08.001 8.16.001 12.241-.001.97.054 1.886-.089 2.852-.662-.17-1.301-.408-1.948-.634.231-1.573.352-3.168.315-4.758-.004-3.321-.004-6.64-.002-9.961-.006-.835.059-1.717-.089-2.541-.055-.391-.472-.703-.731-.976-.684-.63-1.213-1.389-1.885-2.032-.015-20.949-.01-41.9-.004-62.85l-.126.016c-.958-.02-1.913-.03-2.87-.021-11.117-.002-22.238.004-33.356-.004-.484.01-.785-.002-1.132.373-3.42 3.48-6.916 6.889-10.329 10.379-.77-.471-1.128-1.2-1.774-1.807-.827-.81-1.573-1.7-2.434-2.465 1.488-1.502 2.992-2.99 4.48-4.494.504-.514 1.065-.916 1.526-1.463.015-.144.019-.289.009-.433-.387-.153-.902-.028-1.307.02-3.48-.081-6.965-.032-10.446-.036-.654-.629-1.221-1.365-1.909-1.955-.66-.188-1.434-.072-2.117-.096-9.883.002-19.807.006-29.69-.002-.802-.01-1.46.313-2.177.623-.362-.959-.852-1.851-1.338-2.752.92-.234 1.8-.175 2.736-.171Z"/>
  <path fill="#FFD274" d="M110.1 54.152c.08.174.156.352.224.532.158.662.328 1.318.393 2a8.543 8.543 0 0 0-1.586 1.08c-.512-.885-1.211-1.746-1.51-2.727.725-.611 1.57-.754 2.479-.885Zm-57.758.09c.486.9.977 1.793 1.338 2.752-.178.473-.326.969-.563 1.416a9.646 9.646 0 0 1-.67.053c-.818-.61-1.736-.97-2.709-1.252.198-.664.397-1.41.874-1.93.474-.525 1.082-.793 1.73-1.039Zm49.69.088c.226.018.455.04.681.063 1.035.297 1.936 1.133 2.2 2.193-.035.973-.063 1.965-.241 2.926-.4-.81-.133-1.6-.733-2.307-.355-.453-.894-.537-1.372-.81-.226-.545-.322-1.153-.465-1.725l-.07-.34Zm47.818.198c1.165.656 1.656 1.703 1.867 2.98-.561.133-1.102.334-1.663.459-.435-.559-.763-1.01-1.45-1.283.365-.752.832-1.43 1.246-2.156Z"/>
  <path fill="#B17319" d="M55.858 56.371c9.882.008 19.806.004 29.69.002.682.024 1.456-.092 2.116.096.688.59 1.254 1.326 1.909 1.955-1.602.045-3.204.02-4.808.025-9.931.004-19.868-.01-29.8.008-.295-.008-.59-.021-.885-.033.022.31.043.62.049.931-.125 1.958-.043 3.909-.069 5.872-.269-.55-.86-1.12-.859-1.743-.058-1.62.014-3.248.014-4.869-.256-.049-.514-.095-.768-.152.225-.01.448-.027.67-.053.236-.447.385-.943.563-1.416.717-.31 1.375-.633 2.178-.623Z"/>
  <path fill="#653912" d="M49.738 57.211c.973.281 1.89.643 2.71 1.252.253.057.51.104.767.152 0 1.621-.073 3.248-.014 4.87-.002.623.59 1.193.86 1.742-.014 6.38-.002 12.766-.006 19.148.011 1.391-.035 2.777.039 4.166l-.006.114c.586-.106 1.174-.188 1.771-.19 4.166.016 8.334.006 12.5.006.703.008 1.43-.053 2.125.049.565.426.909 1.195 1.291 1.779-5.5.02-11.004-.008-16.502.013-.566.026-1.037-.194-1.556-.37a6.143 6.143 0 0 1-.506-1.48c-1.047.501-2.088 1.009-3.164 1.446-.336-1.068-.5-2.062-.438-3.189.006-9.543.022-19.088-.008-28.631.032-.297.063-.588.137-.877Z"/>
  <path fill="#fff" d="M54.08 58.424c.295.012.59.025.885.033l.293.723-.502.717c-.209-.182-.418-.362-.627-.541a18.115 18.115 0 0 0-.049-.932Z"/>
  <path fill="#FFF2DE" d="M54.965 58.457c9.931-.017 19.869-.004 29.8-.008 1.604-.005 3.206.02 4.808-.025 3.481.004 6.966-.045 10.446.035a1.06 1.06 0 0 1-.487.285c-.415-.23-.821-.3-1.29-.287-3.384.04-6.771-.031-10.156.045-10.97.008-21.941-.014-32.912.012.125.265.25.531.377.795 10.842-.047 21.691-.004 32.535-.022.659-.002 1.314.014 1.97.022.528.894 1.259 1.586 1.976 2.322-10.561.01-21.12 0-31.68.004-1.032.01-2.014-.078-3.034.135.028 2.047.004 4.093.016 6.14-.955-.836-1.363-2.068-2.334-2.863-.025-1.652 0-3.305-.02-4.959l-.224-.191.502-.717-.293-.723Z"/>
  <path fill="#fff" d="M100.02 58.459c.404-.047.919-.172 1.306-.02.01.145.006.29-.009.434-.378.05-.704.139-1.045.297-.694.313-1.422.523-2.107.85l-.194-.71c.54-.14 1.048-.349 1.56-.566.178-.045.34-.139.489-.285Z"/>
  <path fill="#FFF2DE" d="M110.98 58.35a44.75 44.75 0 0 1-.028.732l-.04.174c-.271.084-.545.158-.818.232l-.246-.765c.347-.375.648-.364 1.132-.373Z"/>
  <path fill="#E29E3C" d="M110.98 58.35c11.118.008 22.239.002 33.356.004.957-.008 1.912.002 2.87.021-.515.34-1.01.68-1.594.889-8.838.07-17.708-.01-26.547.04-1.797-.029-3.596-.009-5.393-.015-.792-.008-1.618.053-2.407-.058l-.313-.149c.011-.244.021-.488.028-.732Z"/>
  <path fill="#BE883A" d="m147.206 58.375.126-.016c-.006 20.95-.011 41.901.004 62.85-.054 6.549.037 13.103-.045 19.648-.855.002-1.709-.037-2.564-.054-10.288.002-20.573.002-30.86 0-1.238-.015-2.476.029-3.715.048-.022-8.667 0-17.339-.007-26.007-.006-1.194.033-2.381-.043-3.573-.787.524-1.356 1.232-2.02 1.891-3.902 3.936-7.836 7.844-11.75 11.77-4.54 4.549-9.087 9.085-13.627 13.632-.754.76-1.531 1.487-2.228 2.299a169.82 169.82 0 0 0-.836-1.521c4.926-4.947 9.871-9.877 14.789-14.834.513-.519 1.043-1.026 1.565-1.539 4.413-4.445 8.876-8.857 13.278-13.305l1.389-.007.398.394c.018 9.604-.009 19.209.016 28.81.135.163.271.323.406.483-.402.379-.687.834-.963 1.307 1.248.058 2.491.023 3.739.029h29.492c.928.014 1.854.02 2.78-.061a19.566 19.566 0 0 0-.733-1.283c-.028-6.276.007-12.553-.019-18.828.019-13.643.011-27.288.004-40.928.005-5.955.002-11.908.002-17.861-.008-.85.091-1.63-.172-2.455.583-.21 1.079-.55 1.594-.889Z"/>
  <path fill="#E29E3C" d="M55.174 58.514c10.97-.026 21.941-.004 32.912-.012 3.385-.076 6.772-.006 10.157-.045.468-.014.874.057 1.289.287-.513.217-1.022.426-1.561.567a334.094 334.094 0 0 0-7.915-.002c-.656-.008-1.311-.024-1.97-.022-10.844.018-21.693-.025-32.535.022-.127-.264-.252-.53-.377-.795Zm54.674.209.245.765c-.532.647-1.122 1.233-1.724 1.815-2.906 2.914-5.824 5.816-8.724 8.738-8.006 8-16.067 16.08-24.073 24.063-.154.136-.308.27-.459.413a30.525 30.525 0 0 0-.916-.103c.1-.1.201-.199.3-.301 7.802-7.85 15.652-15.656 23.47-23.49.508-.517 1.037-1.014 1.552-1.521 3.413-3.49 6.909-6.899 10.329-10.38Z"/>
  <path fill="#BE883A" d="M101.317 58.873c-.461.547-1.022.95-1.526 1.463-1.488 1.504-2.992 2.992-4.48 4.494-.957.942-1.932 1.86-2.796 2.89-1.337 1.54-2.944 2.766-4.347 4.237-5.238 5.242-10.485 10.48-15.72 15.724-.259.251-.526.493-.792.735-.572-.644-.789-1.39-1.763-1.475l.46-.004.545-.007c5.735-5.73 11.467-11.461 17.195-17.196.913-.994 2.037-1.714 2.895-2.765.903-1.137 1.983-2.057 2.987-3.108.904-.906 1.812-1.808 2.71-2.722a6.06 6.06 0 0 1 1.48-1.12c.684-.326 1.413-.536 2.106-.849a3.501 3.501 0 0 1 1.046-.297Z"/>
  <path fill="#FFD274" d="M110.952 59.082c.103.049.208.1.313.148.788.112 1.615.051 2.407.06 1.797.005 3.595-.015 5.393.015 1.2 1.054 2.539 1.963 3.813 2.927-3.5.024-7.007-.029-10.505.026l-.117.318c3.7.027 7.4 0 11.1.014.83.748 1.754 1.353 2.642 2.025 1.856 1.399 3.682 2.832 5.556 4.21 2.47 1.966 5.061 3.775 7.537 5.74a170.891 170.891 0 0 1 4.194 3.193c.008 13.358.008 26.713 0 40.071-.629-.549-1.161-1.171-1.689-1.813-1.832-1.947-3.535-4.003-5.435-5.887-2.633-2.963-5.307-5.901-7.959-8.836-2.993-3.13-5.815-6.424-8.77-9.592-1.545-1.583-2.965-3.283-4.473-4.902-1.131-1.344-2.429-2.538-3.559-3.887-2.509-2.686-4.902-5.5-7.47-8.137-.645-.718-1.244-1.468-1.965-2.119 2.656-2.677 5.319-5.351 7.969-8.035.633-.646 1.291-1.226 1.816-1.972-.768.206-1.125.806-1.676 1.331-2.763 2.768-5.468 5.592-8.233 8.358-.782-.723-1.485-1.508-2.196-2.297 2.9-2.922 5.818-5.824 8.724-8.738.602-.582 1.192-1.168 1.725-1.815.273-.074.547-.148.819-.232l.039-.174Z"/>
  <path fill="#BE883A" d="M54.129 59.355c.209.18.418.36.627.542.074.062.148.127.225.19.02 1.655-.006 3.307.02 4.96-.04 6.639 0 13.275-.022 19.913-.01.671.01 1.337.064 2.005-.293.54-.629 1.052-.95 1.576-.073-1.389-.027-2.775-.038-4.166.004-6.382-.008-12.767.006-19.148.025-1.963-.057-3.914.068-5.872Z"/>
  <path fill="#FFD274" d="M90.056 59.309c2.64-.035 5.278-.026 7.915.002l.193.709a6.035 6.035 0 0 0-1.478 1.119c-.9.914-1.807 1.816-2.71 2.722-.39-.525-.716-1.03-1.347-1.29.256-.3.492-.616.729-.932a99.349 99.349 0 0 0-1.326-.008c-.717-.736-1.448-1.428-1.976-2.322Z"/>
  <path fill="#FFF2DE" d="M119.065 59.305c8.839-.051 17.709.029 26.547-.041.263.826.164 1.605.172 2.455 0 5.953.003 11.906-.002 17.861-.733-.486-1.42-1.03-2.126-1.555-.013-5.189.006-10.38-.009-15.572-1.01-.336-1.982-.201-3.022-.217-5.916-.004-11.832.002-17.748-.004-1.273-.964-2.612-1.873-3.812-2.927Z"/>
  <path fill="#B17319" d="M60.352 61.635c10.56-.004 21.119.006 31.68-.004.441 0 .885.002 1.326.008-.237.316-.473.633-.729.931-.766.864-1.634 1.604-2.479 2.385-2.326 2.293-4.636 4.6-6.978 6.88-3.99 3.82-7.854 7.78-11.844 11.603-.639.615-1.242 1.257-1.928 1.824-4.021-.084-8.045-.01-12.064-.04-.008-5.77-.002-11.542-.002-17.312-.012-2.046.012-4.093-.016-6.14 1.02-.213 2.002-.125 3.034-.135Z"/>
  <path fill="#FFF2DE" d="M57.666 61.783c.371.102.733.211 1.123.203 10.739-.017 21.486.002 32.226-.008.48-.001.963.008 1.444.024-.562.785-1.318 1.406-1.944 2.145-1.807 1.831-3.663 3.62-5.515 5.41-3.035 2.957-6.022 5.966-9.06 8.922a422.042 422.042 0 0 0-6.112 5.997c-.234.229-.424.368-.76.405-.615-1.012-1.347-1.938-2.004-2.922-2.644-3.734-5.261-7.492-7.9-11.23-.467-.694-.934-1.385-1.478-2.022-.026-2.308.01-4.617-.02-6.924Z"/>
  <path fill="#B17319" d="M112.374 62.258c3.497-.055 7.004-.002 10.504-.026 5.915.006 11.831 0 17.748.005 1.039.015 2.011-.12 3.021.216.016 5.192-.004 10.383.01 15.572-.01 13.436-.005 26.872-.003 40.305-.007 6.081.007 12.159-.007 18.238l.297.42c-.977.034-1.951.024-2.928.022-8.658.002-17.318 0-25.977 0-.504-.01-.978-.13-1.466-.229-.012-11.488.02-22.982-.016-34.469-.75.294-1.168.959-1.727 1.512-5.779 5.672-11.461 11.46-17.213 17.16-4.967 4.995-9.96 9.964-14.93 14.952-.359.348-.712.752-1.14 1.009-.445.114-.941.063-1.398.073-6.264-.028-12.531.015-18.795-.022a.887.887 0 0 1 .246-.288c.765-.112 1.564-.03 2.338-.048 5.883-.012 11.77.02 17.653-.015.732-.85 1.546-1.608 2.33-2.402 4.476-4.489 8.966-8.963 13.437-13.456 4.668-4.662 9.326-9.334 13.99-14.001 1.604-1.551 3.015-3.243 4.728-4.689.231-.192.635.282.848.378-.015 10.306 0 20.617-.007 30.923-.006 1.063.052 2.104-.073 3.164.168.067.336.131.506.196.82-.149 1.621-.1 2.447-.1 8.833.002 17.664-.004 26.496.002-.013-6.278.002-12.554-.008-18.831.008-13.358.008-26.713 0-40.071.015-5.059-.013-10.117.017-15.176-6.65.014-13.298 0-19.946.008-3.7-.014-7.4.014-11.1-.014l.118-.318Z"/>
  <path fill="#FFF2DE" d="M92.63 62.57c.63.26.956.766 1.345 1.291-1.004 1.051-2.084 1.971-2.986 3.108-.858 1.05-1.983 1.771-2.895 2.765-5.729 5.735-11.46 11.467-17.195 17.196l-.545.007c-.225-.615-.57-1.148-.953-1.675.685-.567 1.289-1.21 1.927-1.825 3.99-3.822 7.854-7.783 11.844-11.603 2.342-2.28 4.652-4.586 6.978-6.879.845-.781 1.713-1.521 2.48-2.385Z"/>
  <path fill="#B17319" d="M111.75 62.649c-.525.746-1.183 1.326-1.816 1.972-2.65 2.684-5.313 5.358-7.969 8.035l-.043.045a1084.074 1084.074 0 0 0-7.822 7.925C88.686 86.139 83.208 91.588 77.79 97.1c-5.754 5.911-11.633 11.701-17.396 17.603-.61.643-1.21 1.285-1.928 1.811-.035 5.757-.004 11.517-.016 17.275-.017.772.069 1.572-.05 2.336a2.456 2.456 0 0 1-.276.258c-.039-6.621-.014-13.252-.014-19.875C64.661 110 71.097 103.383 77.6 96.831c3.288-3.319 6.588-6.624 9.862-9.954 4.754-4.883 9.588-9.69 14.377-14.539 2.766-2.766 5.471-5.59 8.234-8.357.551-.526.908-1.126 1.676-1.332Z"/>
  <path fill="#FFF2DE" d="M123.356 62.59c6.648-.008 13.296.006 19.945-.008-.029 5.059-.002 10.117-.016 15.176a170.891 170.891 0 0 0-4.194-3.193c-2.476-1.965-5.067-3.774-7.537-5.74-1.874-1.378-3.7-2.811-5.556-4.21-.888-.671-1.812-1.277-2.642-2.025Z"/>
  <path fill="#B17319" d="M95.31 64.83c.862.766 1.609 1.654 2.435 2.465.646.607 1.005 1.336 1.775 1.807-.516.508-1.045 1.004-1.553 1.521-7.818 7.834-15.668 15.64-23.47 23.49-.237-.379-.471-.757-.704-1.14-.18 0-.36.002-.539.006.172-.084.344-.17.514-.26.123-.605.252-1.143-.047-1.727-.516-.642-1.176-.695-1.945-.693-.383-.584-.727-1.353-1.291-1.78-.696-.1-1.422-.04-2.125-.048-4.166 0-8.334.01-12.5-.006-.598.002-1.186.084-1.772.19l.006-.114c.32-.524.656-1.037.95-1.576 4.949-.05 9.9-.006 14.849-.024.975.084 1.191.83 1.764 1.475.265-.242.533-.484.79-.734 5.237-5.245 10.483-10.483 15.722-15.725 1.402-1.47 3.009-2.697 4.347-4.236.864-1.031 1.838-1.95 2.795-2.89Z"/>
  <path fill="#FFD274" d="M55 65.047c.97.795 1.38 2.027 2.334 2.863 0 5.77-.006 11.541.002 17.313 4.02.03 8.043-.045 12.065.039.383.527.728 1.06.953 1.675l-.461.004c-4.95.018-9.9-.025-14.85.024a20.805 20.805 0 0 1-.064-2.004C55 78.322 54.96 71.686 55 65.047Z"/>
  <path fill="#E29E3C" d="M7.567 67.213c.503 1.865 1.11 3.711 1.728 5.543 1.82 5.871 3.887 11.694 5.945 17.485 1.62 4.56 3.432 9.042 5.18 13.553.154.355.346.693.547 1.024a80.89 80.89 0 0 0 4.348 21.196c.673 1.908 1.44 3.789 2.209 5.66a81.955 81.955 0 0 0 8.078 14.363c1.6 2.182 3.127 4.362 5.002 6.325 1.972 2.255 4.146 4.296 6.353 6.316.04.277.07.544.207.797a311.997 311.997 0 0 0 20.26 30.908c.694.944 1.367 2.065 2.273 2.805-3.406-1.1-6.76-2.349-10.025-3.816-7.244-3.192-14.096-7.434-20.336-12.295a92.57 92.57 0 0 1-14.941-14.758c-3.157-3.757-6.041-7.731-8.547-11.95-1.87-3.147-3.664-6.363-5.137-9.714-.396-.848-.81-1.684-1.15-2.557-.932-2.354-1.957-4.711-2.678-7.135-1.893-5.543-3.121-11.213-3.977-17.002-.71-5.222-.955-10.449-.843-15.719-.069-2.318.277-4.57.45-6.872.372-2.86.448-5.627 1.046-8.46.896-5.33 2.263-10.582 4.008-15.697Z"/>
  <path fill="#FFD274" d="M57.685 68.707c.545.637 1.012 1.328 1.479 2.022 2.639 3.738 5.256 7.496 7.9 11.23.657.984 1.39 1.91 2.004 2.922-3.804-.022-7.611.01-11.416-.002.06-5.39-.004-10.783.033-16.172Z"/>
  <path fill="#FFF2DE" d="M99.645 70.041c.711.79 1.414 1.574 2.196 2.297-4.79 4.85-9.624 9.656-14.378 14.539-3.274 3.33-6.574 6.635-9.861 9.954-.778-.843-1.348-1.817-2.03-2.727C83.579 86.12 91.64 78.04 99.645 70.04Zm2.277 2.66.043-.045c.721.65 1.32 1.4 1.965 2.12 2.568 2.636 4.961 5.45 7.47 8.136 1.13 1.35 2.428 2.543 3.559 3.887 1.508 1.62 2.928 3.319 4.473 4.902 2.955 3.168 5.777 6.461 8.77 9.592 2.652 2.935 5.326 5.873 7.959 8.836 1.9 1.884 3.603 3.94 5.435 5.887.527.642 1.06 1.264 1.689 1.812.01 6.277-.005 12.554.008 18.832-8.832-.006-17.663 0-26.496-.002-.826 0-1.627-.049-2.447.1-.17-.065-.338-.129-.506-.196.125-1.06.066-2.101.073-3.164.007-10.306-.009-20.617.007-30.923-.213-.096-.617-.57-.848-.378-1.713 1.446-3.124 3.138-4.728 4.688-4.664 4.668-9.322 9.34-13.99 14.002a88.614 88.614 0 0 1-2.208-3.189 103.959 103.959 0 0 1-2.753-3.871c-2.639-3.739-5.278-7.471-7.895-11.225-1.263-1.786-2.546-3.547-3.71-5.402 5.416-5.512 10.894-10.961 16.308-16.475 2.59-2.658 5.205-5.291 7.822-7.924Z"/>
  <path fill="#FFD274" d="M143.656 78.025c.706.525 1.393 1.07 2.126 1.555.007 13.64.015 27.285-.004 40.928-.752-.69-1.331-1.528-2.124-2.178-.002-13.433-.007-26.87.002-40.305Z"/>
  <path fill="#FFDFB0" d="M53.211 88.461c.111.53.268.992.506 1.48-.79.596-1.613 1.203-2.508 1.63-.545-.44-.969-.983-1.162-1.663 1.076-.437 2.117-.945 3.164-1.447Z"/>
  <path fill="#E29E3C" d="M53.717 89.942c.52.176.99.396 1.556.37 5.499-.021 11.002.006 16.502-.013.77-.002 1.43.051 1.946.693-1.008.46-1.975 1.285-3.069 1.367-1.033-.316-2.017-.178-3.074-.195-3.71-.007-7.422.012-11.133-.01-.453.003-.906.03-1.355.076-1.295.174-2.733-.021-3.881-.66.894-.426 1.719-1.033 2.508-1.628Z"/>
  <path fill="#FFD274" d="M73.72 90.992c.3.584.17 1.122.048 1.727-.17.09-.342.176-.514.26-1.313-.034-2.33.705-3.658.527l-.403-.008c.448-.435.899-.851 1.46-1.139 1.093-.081 2.06-.908 3.068-1.367Z"/>
  <path fill="#653912" d="M73.254 92.979c.18-.004.36-.006.54-.006.232.383.466.761.702 1.14-.097.102-.199.202-.299.3-6.17 6.167-12.336 12.339-18.506 18.505-.503.506-.937 1.031-1.585 1.368-.08.906-.05 1.8-.051 2.706v21.29c.002.802-.03 1.616.035 2.408l.021.161c.967.064 1.95.04 2.92.042 6.577-.002 13.15 0 19.727 0 1.24-.002 2.479.014 3.72-.029.696-.813 1.474-1.54 2.228-2.3 4.539-4.547 9.087-9.083 13.626-13.632a30.744 30.744 0 0 0 1.61 2.23c-1.703 1.71-3.483 3.338-5.19 5.044-2.95 2.972-6.03 5.812-8.987 8.782-.45.461-.878 1.048-1.491 1.284-1.27.482-2.446.328-3.759.267-7.683.004-15.368-.004-23.052.004-.637.01-1.045-.135-1.553-.514a9.595 9.595 0 0 1-.28-.32c-.356-.719-.38-1.463-.44-2.246-.993.729-1.868 1.498-3.075 1.859-.12.206-.238.413-.351.619-.236-1.03-.137-2.028-.147-3.074-.005-7.55.01-15.105-.008-22.656-.054-1.264.12-2.501.625-3.666.413-.744 1.243-1.274 1.827-1.892 5.101-5.119 10.222-10.219 15.326-15.336.703-.697 1.264-1.417 2.209-1.811 1.328.178 2.346-.561 3.658-.527Z"/>
  <path fill="#FFD274" d="M75.573 94.104c.681.91 1.252 1.884 2.029 2.727-6.504 6.552-12.94 13.169-19.49 19.677 0 6.623-.026 13.254.013 19.875.1-.08.192-.166.276-.258.119-.764.033-1.564.05-2.336.012-5.758-.02-11.518.016-17.275.719-.526 1.319-1.168 1.928-1.811 5.764-5.902 11.642-11.692 17.396-17.603 1.165 1.855 2.448 3.616 3.711 5.402 2.617 3.754 5.256 7.487 7.895 11.225a103.959 103.959 0 0 0 2.753 3.871 88.614 88.614 0 0 0 2.208 3.189c-4.471 4.493-8.96 8.967-13.436 13.456-.785.794-1.599 1.553-2.331 2.402-5.884.035-11.77.003-17.653.015-.774.018-1.573-.064-2.338.048a.887.887 0 0 0-.246.288c6.264.037 12.531-.006 18.795.022.457-.009.953.041 1.398-.073.428-.257.781-.661 1.14-1.009 4.97-4.988 9.963-9.957 14.93-14.952.324.786.776 1.393 1.378 1.985-.522.513-1.052 1.02-1.565 1.539-4.918 4.957-9.863 9.887-14.79 14.834-8.169.006-16.35-.008-24.519.006-.2-.941-.138-1.872-.136-2.825-.002-6.38 0-12.759 0-19.14-.008-.715.04-1.441-.024-2.154-.002-.315-.287-.53-.488-.736l.465.269c.593-.607 1.052-1.319 1.664-1.908.861-.835 1.697-1.691 2.545-2.536.658-.654 1.418-1.179 2.062-1.847 4.62-4.664 9.313-9.262 13.905-13.954.15-.142.304-.277.459-.413Z"/>
  <path fill="#FFF2DE" d="M74.198 94.414c.306.03.61.064.916.103-4.592 4.692-9.286 9.29-13.905 13.953-.644.669-1.404 1.194-2.062 1.848-.848.845-1.684 1.701-2.545 2.536-.611.589-1.07 1.301-1.664 1.908-.157-.09-.31-.179-.465-.27l-.367-.206c.648-.337 1.082-.862 1.586-1.368 6.17-6.166 12.336-12.338 18.506-18.504Z"/>
  <path fill="#BE883A" d="M199.902 94.69c.017.816.063 1.63.098 2.447v5.783c-.168 4.242-.544 8.514-1.218 12.709-3.267 20.859-13.317 40.556-28.367 55.371-8.229 8.239-18.018 14.965-28.583 19.846-11.067 5.086-23.037 8.156-35.193 8.941-1.135.125-2.27.133-3.407.213h-6.697c-1.982-.095-3.949-.305-5.931-.368-2.146-.347-4.329-.497-6.474-.884.269-.028.534-.06.8-.097-.47-.678-.905-1.366-1.215-2.131 3.608.455 7.234.754 10.852 1.12 2.002.249 4.007.067 6.021.233 1.692-.08 3.385-.076 5.079-.149 1.363-.155 2.735-.144 4.098-.302 2.28-.184 4.55-.498 6.804-.875 3.748-.684 7.562-1.459 11.203-2.592 5.562-1.609 10.976-3.832 16.16-6.407 4.142-2.167 8.166-4.54 11.998-7.225 4.139-3.024 8.156-6.251 11.875-9.782 1.707-1.537 3.25-3.27 4.844-4.922 1.853-2.093 3.67-4.22 5.34-6.466 2.828-3.792 5.476-7.748 7.736-11.907 3.992-7.26 7.047-15.058 8.966-23.119a78.304 78.304 0 0 0 1.435-6.705c.524-2.676.65-5.324.968-8.01.31-3.273.684-6.504.633-9.802.053-1.667-.077-3.315-.172-4.977.786-.024 1.564.015 2.347.056Z"/>
  <path fill="#FFF2DE" d="M113.557 102.312c.036 11.486.004 22.981.016 34.469.488.098.962.219 1.466.228 8.658 0 17.319.003 25.976 0 .978.003 1.952.013 2.928-.021-.097-.14-.197-.28-.296-.42.013-6.079 0-12.157.007-18.238.794.65 1.372 1.489 2.124 2.178.027 6.275-.008 12.552.019 18.828-11.435.014-22.878-.004-34.315.008-.134-.16-.271-.32-.406-.483-.025-9.601.002-19.206-.015-28.81l-.399-.394-1.388.007c-4.403 4.448-8.866 8.86-13.28 13.305-.601-.592-1.053-1.199-1.377-1.985 5.752-5.7 11.434-11.488 17.213-17.16.559-.553.977-1.218 1.727-1.512Z"/>
  <path fill="#BE883A" d="M178.352 110.303c-.065 1.506-.492 2.916-.761 4.388-.767 3.928-1.852 7.77-3.178 11.546l-.389.152c-.264-.057-.524-.124-.785-.184 1.672-4.382 2.734-9.135 3.574-13.74.326.121.654.242.982.365.151-.854.299-1.699.557-2.527Z"/>
  <path fill="#B17319" d="M110.102 111.271c.076 1.192.037 2.379.043 3.573.007 8.668-.014 17.34.007 26.007 1.239-.019 2.478-.063 3.715-.048 10.287.002 20.572.002 30.86 0 .855.017 1.709.056 2.564.054.083-6.545-.009-13.099.045-19.648.672.642 1.201 1.402 1.885 2.032.26.273.676.585.731.976.148.824.083 1.705.089 2.541-.002 3.32-.002 6.64.002 9.961a28.281 28.281 0 0 1-.315 4.758c-.441.693-1.253 1.154-2.069 1.202-10.7.007-21.344-.082-32.033.013-1.503-.026-3.02.062-4.516-.061-.825-.074-1.373-.574-1.856-1.199-.244-1.065-.156-2.244-.172-3.346-.011-5.273-.006-10.547-.015-15.82-.004-.781.059-1.574-.01-2.352-.033-.586-.529-.978-.908-1.363-.938-.307-1.521.13-2.123.793-1 .941-2.002 1.877-2.969 2.853-1.676 1.686-3.447 3.27-5.116 4.965a30.743 30.743 0 0 1-1.609-2.23c3.914-3.926 7.848-7.834 11.75-11.77.664-.659 1.233-1.367 2.02-1.891Z"/>
  <path fill="#BE883A" d="m54.105 114.286.368.207c.2.206.486.421.488.736.065.713.016 1.439.023 2.154 0 6.381-.002 12.76 0 19.14-.002.953-.064 1.884.137 2.824l.047.284c-.348.363-.709.715-1.078 1.058-.065-.791-.033-1.605-.035-2.407v-21.29c.002-.906-.03-1.8.05-2.706Z"/>
  <path fill="#FFDFB0" d="M108.149 118.551c-.567.79-1.091 1.596-1.766 2.3-.157.047-.31.097-.466.144a26.8 26.8 0 0 0 .109-1.651c.601-.663 1.185-1.1 2.123-.793Z"/>
  <path fill="#653912" d="M108.149 118.551c.379.385.875.777.908 1.363.069.778.006 1.571.01 2.352.009 5.273.004 10.547.015 15.82.016 1.102-.072 2.281.172 3.346-.326.359-.654.886-1.115 1.072-.469.184-.976.278-1.463.401-.583-1.6-.34-3.059-.389-4.729.01-4.912.002-9.826.004-14.738.006-.846-.056-1.754.092-2.587.676-.704 1.199-1.509 1.766-2.3Z"/>
  <path fill="#E29E3C" d="M106.026 119.344a26.8 26.8 0 0 1-.109 1.651c.156-.047.309-.097.466-.144-.149.833-.086 1.741-.092 2.587-.002 4.911.006 9.826-.004 14.738-.64-.726-1.152-1.535-1.709-2.324-1.846-2.624-3.681-5.253-5.553-7.858-5.01 4.85-9.878 9.881-14.85 14.775-.647.598-1.216 1.502-2.017 1.882-1.346.572-2.802.525-4.228.51-7.358-.004-14.713 0-22.07-.002-1.245-.009-2.42.064-3.659-.127.229-.137.428-.271.569-.503.503-.744.835-1.658 1.14-2.5.508.379.916.523 1.553.514 7.684-.008 15.37 0 23.052-.004 1.313.061 2.489.215 3.758-.267.614-.236 1.042-.823 1.492-1.284 2.956-2.97 6.036-5.81 8.987-8.782 1.707-1.706 3.487-3.334 5.19-5.044 1.668-1.695 3.438-3.279 5.114-4.965.967-.976 1.97-1.912 2.97-2.853Zm67.213 6.861c.261.06.521.127.785.184l.389-.152c-1.651 4.403-3.59 8.692-5.903 12.79l-.928-.439a41.321 41.321 0 0 0 2.266-4.291c1.282-2.635 2.375-5.346 3.391-8.092Zm-21.475.813c.77.583 1.366 1.312 2 2.029 2.39 2.58 4.714 5.224 7.147 7.764-.079.133-.155.267-.231.402-.895 1.558-1.933 3.012-2.998 4.455-.841 1.35-1.974 2.452-2.895 3.747-1.226 1.321-2.314 2.745-3.638 3.973-1.094 1.269-2.432 2.249-3.588 3.45-.826.809-1.809 1.439-2.668 2.219-1.156 1.042-2.45 1.81-3.672 2.765-1.361 1.071-2.865 1.796-4.265 2.768-.893.613-1.917 1.088-2.878 1.588-1.135.57-2.185 1.254-3.355 1.754-1.664.768-3.4 1.363-5.058 2.139-4.848-6.963-9.698-13.954-14.567-20.903 11.664-.015 23.332-.002 34.996-.005 1.115-.006 2.426.091 3.48-.307 1.161-.484 1.867-1.534 2.102-2.745.143-.966.088-1.882.089-2.853 0-4.08.005-8.16-.001-12.24Z"/>
  <path fill="#FFF2DE" d="M160.68 137.213c.383.428.59.865.761 1.409-1.026 1.675-2.239 3.208-3.347 4.827-.792.912-1.525 1.854-2.262 2.809-.441.537-.967.985-1.391 1.539-.865 1.156-2.024 2.008-2.921 3.144-.84.911-1.864 1.647-2.723 2.546-.956 1.027-2.121 1.763-3.152 2.704-.776.721-1.702 1.308-2.559 1.938-.851.584-1.627 1.254-2.504 1.799-.991.645-2.033 1.191-2.991 1.884-1.263.832-2.713 1.446-4.032 2.194-2.336 1.385-5.005 2.228-7.518 3.375-.252-.387-.5-.775-.744-1.166l.368-.145c1.658-.775 3.394-1.37 5.058-2.138 1.17-.5 2.22-1.184 3.355-1.754.961-.5 1.985-.975 2.878-1.588 1.4-.973 2.904-1.697 4.265-2.768 1.222-.955 2.516-1.723 3.672-2.765.859-.78 1.842-1.41 2.668-2.219 1.156-1.201 2.494-2.181 3.588-3.45 1.324-1.228 2.412-2.652 3.638-3.973.921-1.295 2.054-2.397 2.895-3.747 1.065-1.443 2.103-2.897 2.998-4.455Z"/>
  <path fill="#E29E3C" d="M162.491 138.592c1 1.099 2.019 2.179 2.98 3.315-4.812 7.33-10.921 13.831-17.882 19.161-5.563 4.276-11.737 7.766-18.22 10.444-.802-1.385-1.796-2.658-2.697-3.985.667-.228 1.286-.553 1.932-.824 1.982-.815 4.092-1.587 5.931-2.678 1.364-.783 2.867-1.402 4.165-2.277 1.402-.977 2.913-1.709 4.265-2.773 1.317-1.02 2.785-1.899 4.004-3.027.826-.755 1.754-1.34 2.537-2.143.676-.7 1.393-1.344 2.129-1.974.887-.749 1.551-1.694 2.408-2.477.992-.906 1.739-2.02 2.698-2.96.802-.968 1.541-1.977 2.374-2.921 1.122-1.633 2.35-3.18 3.376-4.881Z"/>
  <path fill="#B17319" d="M55.121 139.347c8.168-.013 16.35 0 24.52-.005.28.506.56 1.012.836 1.521-1.24.043-2.48.028-3.719.03-6.576 0-13.15-.002-19.726 0-.971-.002-1.954.022-2.92-.042l-.022-.162c.37-.344.73-.695 1.078-1.058l-.047-.284Zm56.362-.003c11.436-.012 22.879.005 34.314-.008.262.418.504.846.733 1.283-.926.081-1.852.075-2.78.061h-29.492c-1.248-.006-2.491.029-3.738-.029.275-.473.56-.928.963-1.307Z"/>
  <path fill="#FFD274" d="M53.19 139.463c.06.783.084 1.527.44 2.246-1.048.776-2.278 1.162-3.368 1.867-.262-.514-.404-1.068-.498-1.635.113-.206.23-.413.351-.619 1.207-.361 2.082-1.13 3.075-1.859Z"/>
  <path fill="#FFDFB0" d="M109.254 141.432c.482.625 1.031 1.124 1.856 1.199 1.496.123 3.013.035 4.515.061 10.69-.095 21.334-.007 32.033-.013.817-.048 1.629-.509 2.07-1.202.647.226 1.286.464 1.948.634-.235 1.211-.941 2.26-2.102 2.745-1.055.398-2.365.301-3.48.307-11.664.003-23.332-.011-34.996.005a8.515 8.515 0 0 1-2.545-.407c-.889-.308-1.521-1.001-1.877-1.856.486-.123.994-.217 1.463-.401.461-.186.789-.713 1.115-1.072Zm-55.624.277c.09.11.185.215.28.32-.304.842-.636 1.756-1.14 2.5-.14.232-.34.366-.569.503-.796-.262-1.449-.782-1.939-1.456 1.09-.705 2.32-1.091 3.367-1.867Zm110.485 4.197c.768.595 1.352 1.311 2.073 1.961.892.805 1.721 1.67 2.564 2.521.617.628 1.33 1.138 1.956 1.757.792.777 1.507 1.594 2.37 2.298.835.673 1.548 1.452 2.298 2.209.843.879 1.855 1.533 2.613 2.501-1.67 2.246-3.487 4.373-5.34 6.466-1.594 1.652-3.137 3.385-4.844 4.922-3.718 3.531-7.736 6.758-11.875 9.782-3.832 2.685-7.856 5.058-11.998 7.225-.387.032-.482.024-.709-.297-1.252-1.888-2.543-3.753-3.725-5.687a187.06 187.06 0 0 1-4.133-6.203c-.822-1.214-1.739-2.384-2.4-3.674 1.089-.566 2.217-1.052 3.297-1.635 3.922-1.999 7.666-4.353 11.203-6.972 4.185-2.982 7.9-6.719 11.337-10.528 1.904-2.112 3.609-4.375 5.313-6.646Z"/>
  <path fill="#FFD274" d="M125.297 166.215c.244.391.492.779.744 1.166-.461.168-.926.328-1.385.502-.248-.406-.374-.827-.463-1.291.37-.123.739-.244 1.104-.377Zm-38.604.391a30.21 30.21 0 0 1 2.663.418c-.672.35-1.229.8-1.828 1.256-.393-.014-.785-.03-1.178-.045.037-.246.076-.491.121-.734l.222-.895Zm27.928.033c.02.086.039.174.057.26.059.32.104.643.146.966-1.04.262-2.251.12-3.211.593 1.152.106 2.182-.151 3.323-.237.025.448.053.893.088 1.338-1.02.07-2.028.226-3.046.308.006.123.013.245.018.368 1.043-.186 2.094-.284 3.141-.434.021.44.045.879.065 1.318-.524.043-1.046.099-1.567.157-1.268.095-2.523.286-3.792.359-.247-1.389-.104-2.793-.404-4.179.782-.312 1.554-.325 2.376-.43.935-.119 1.871-.254 2.806-.387Z"/>
  <path fill="#653912" d="M115.163 166.912c.345 1.551.552 3.178.713 4.76-1.45.161-2.901.303-4.35.475-.487.064-.95-.018-1.424-.112-.705.493-1.422.329-2.241.377-.17-.187-.339-.377-.503-.57.658-.035 1.314-.074 1.97-.102.035-1.43-.099-2.847-.105-4.277l.216-.007c.3 1.386.157 2.79.404 4.179 1.269-.073 2.524-.264 3.792-.359.506.009 1.065.086 1.559-.026.492-.463.203-1.242-.17-1.691-.035-.445-.063-.89-.088-1.338-1.141.086-2.17.343-3.323.237.96-.473 2.171-.331 3.211-.593a18.44 18.44 0 0 0-.146-.966l.485.013Zm-25.807.112.337.041c-.833.709-1.712 1.324-2.634 1.91a3.182 3.182 0 0 1-.857-.957c.093-.17.183-.344.27-.517-.046.243-.085.488-.122.734.393.015.785.031 1.178.045.6-.456 1.156-.906 1.828-1.256Z"/>
  <path fill="#FFD274" d="M89.693 167.064c.844.054 1.612.007 2.391.396-.3 1.333-.308 2.691-.563 4.033a40.717 40.717 0 0 0-2.177-.249c.09-.498.178-.998.244-1.5l-.458.265c-.552.299-1.073.759-1.665.962-.53.031-1.092-.1-1.617-.172.062-.375.113-.771.258-1.123.27-.28.63-.482.953-.701.921-.586 1.801-1.201 2.634-1.911Zm5.259.493c.302.48.605.961.911 1.441l.29.1c.033-.491.064-.979.103-1.467.721.029 1.438-.059 2.098.223-.285 1.361-.174 2.687-.23 4.066-.885-.022-1.768-.087-2.653-.136a5.697 5.697 0 0 0-.597-.755c-.2-.196-.407-.388-.61-.581-.021.441-.039.882-.056 1.323-.727-.054-1.45-.134-2.173-.213-.015-1.381.282-2.721.3-4.097.874-.018 1.743.042 2.617.096Zm11.607.031c.871-.132 1.781-.1 2.664-.125.005 1.43.14 2.848.105 4.278-.656.027-1.313.066-1.97.101-.067-.469-.08-.949-.113-1.422a10.59 10.59 0 0 0-.335.297c-.354.357-.656.843-1.086 1.114-.4.131-.881.062-1.3.071a6.574 6.574 0 0 0-.813-.847l-.522-.465c.004.456.013.91.017 1.366-.722.032-1.441.06-2.161.081.004-1.394.035-2.789.02-4.183.893-.067 1.779-.162 2.678-.172.452.551.894 1.092 1.468 1.523.424-.531.806-1.205 1.348-1.617Z"/>
  <path fill="#653912" d="m92.084 167.46.25.001c-.017 1.375-.315 2.716-.3 4.097l-.513-.065c.255-1.342.263-2.7.563-4.033Z"/>
  <path fill="#FFD274" d="M100.762 167.862c-.129 1.377-.076 2.773-.092 4.154-.723-.018-1.445-.053-2.168-.082.017-1.366.069-2.731.067-4.094.748-.195 1.445-.084 2.193.022Z"/>
  <path fill="#653912" d="m98.354 167.854.215-.014c.002 1.363-.05 2.728-.067 4.094a23.99 23.99 0 0 0-.379-.014c.057-1.379-.054-2.705.23-4.066Z"/>
  <path fill="#653912" d="m100.762 167.862.303-.008c.015 1.394-.016 2.789-.02 4.183.72-.021 1.44-.049 2.161-.082-.004-.455-.013-.91-.017-1.365l.522.465c-.035.502-.062 1.004-.09 1.505-.798.063-1.582.101-2.369-.077-.865.24-1.637.047-2.494-.061-.996.009-1.908.151-2.906-.111a5.715 5.715 0 0 1-.38-.527c.884.049 1.767.114 2.652.136.126.004.252.008.378.014.723.029 1.446.064 2.168.082.016-1.381-.037-2.777.092-4.154Zm14.262 1.697c.373.449.662 1.228.169 1.691-.494.112-1.052.035-1.558.026a54.305 54.305 0 0 1 1.567-.157c-.02-.439-.044-.878-.065-1.318-1.047.15-2.098.248-3.141.434-.005-.123-.012-.245-.018-.368 1.018-.082 2.026-.238 3.046-.308Zm-25.894.451c.4.188.171.655-.089.853-.396.295-.86.59-1.346.697-.683.006-1.404-.011-1.865-.585l.018-.176c.525.072 1.086.203 1.617.172.591-.203 1.113-.663 1.664-.961Zm5.134.438c.203.193.41.385.61.581-.149.399-.192 1.012-.513 1.305-.83.063-1.529-.244-2.316-.329-.765-.058-1.55.028-2.3-.253-.226-.095-.304-.304-.401-.508.729.06 1.453.15 2.178.249l.513.065c.723.079 1.445.159 2.173.213.017-.441.035-.882.056-1.323Zm12.646.269c.109.326.34.591.148.935-.32.508-.739.94-1.394.867-.588.011-.808-.177-1.141-.617.42-.009.901.06 1.301-.071.43-.271.732-.757 1.086-1.114Z"/>
  <path fill="#E29E3C" d="M127.074 172.422c.497.325.952.701 1.403 1.084-.819.446-1.692.725-2.564 1.031-4.994 1.783-10.151 2.953-15.383 3.775.265-.073.529-.161.793-.245-.008-.643-.229-1.162-.538-1.713 5.559-.739 11.038-1.936 16.289-3.932Z"/>
  <path fill="#BE883A" d="M82.662 174.838c1.744.52 3.49.758 5.277 1.103 3.672.622 7.368.928 11.085 1.087 2.027-.018 4.037.081 6.056-.151 1.915-.03 3.815-.232 5.705-.523.309.551.53 1.07.538 1.713-.264.084-.528.172-.793.245-2.842.385-5.707.698-8.576.759-2.626.2-5.194-.013-7.813-.056-2.633-.107-5.129-.593-7.717-1.026-1.485-.295-2.983-.557-4.446-.95.294-.001.587-.005.882-.013a9.944 9.944 0 0 0-.198-2.188Z"/>
</svg>
