<svg xmlns="http://www.w3.org/2000/svg" width="200" height="200" fill="currentColor" viewBox="0 0 200 200">
  <g clip-path="url(#a)">
    <path fill="#316BFF" d="M100 200c55.228 0 100-44.772 100-100S155.228 0 100 0 0 44.772 0 100s44.772 100 100 100Z"/>
    <path fill="#fff" fill-opacity=".3" d="M73.396 42.8c-.159 29.377-16.292 54.99-40.194 68.675l26.682 45.993c39.853-22.862 66.718-65.638 66.877-114.667H73.396Z"/>
    <path fill="#fff" fill-opacity=".8" d="M126.761 42.8c.159 29.377 16.292 54.99 40.194 68.675l-26.682 45.993C100.42 134.606 73.555 91.83 73.397 42.801h53.364Z"/>
    <path fill="#fff" fill-opacity=".5" d="M73.397 42.825c.095 29.725 10.016 57.133 26.682 79.212 16.665-22.08 26.587-49.487 26.682-79.212H73.397Z"/>
  </g>
  <defs>
    <clipPath id="a">
      <path fill="#fff" d="M0 0h200v200H0z"/>
    </clipPath>
  </defs>
</svg>
