<svg xmlns="http://www.w3.org/2000/svg" width="200" height="200" fill="currentColor" viewBox="0 0 200 200">
  <path fill="#04050F" d="M99.324 198.648c54.855 0 99.324-44.469 99.324-99.324S154.179 0 99.324 0 0 44.469 0 99.324s44.469 99.324 99.324 99.324Z"/>
  <path fill="#fff" d="m61.353 48.538-5.512 17.025 62.888-.046-5.524-17.025-51.852.046Zm74.207-.068-17.894.023 19.469 59.807 14.466-10.528-16.029-49.302h-.012Zm-33.494 90.585 14.489 10.505 41.915-30.483-5.549-17.024-50.843 36.99-.012.012Zm-45.534-6.763v.023L98.48 162.74l14.465-10.528-50.878-36.944-5.535 17.024Zm-2.069-62.49L38.47 119.104l14.489 10.505 19.398-59.818-17.894.023v-.012Zm22.374-.024L71.3 86.804l31.976-.024-5.535-17.002H76.825h.012Zm25.368-.02 9.913 30.401 14.466-10.528-6.462-19.873h-17.917Zm-.092 42.955 14.489 10.492 16.908-12.276v-.023l-5.547-17.024-25.85 18.831Zm-20.591 11.424 16.933 12.3 14.465-10.528-25.896-18.761-5.502 16.989ZM69.925 91.056l-6.45 19.896 14.488 10.505 9.857-30.401H69.926Z"/>
</svg>
