<svg xmlns="http://www.w3.org/2000/svg" width="200" height="207" fill="currentColor" viewBox="0 0 200 207">
  <path fill="#1C2925" d="M100 203.431c55.228 0 100-44.741 100-99.931S155.228 3.569 100 3.569 0 48.309 0 103.5c0 55.19 44.772 99.931 100 99.931Z"/>
  <path fill="#D7FE51" d="M112.369 56.112H87.622c-2.85 0-5.448 1.676-6.685 4.31L68.286 87.364c-1.584 3.37.81 7.279 4.458 7.279h17.073c2.375 0 4.54-1.396 5.572-3.592l4.606-9.81L123.6 131.5l-31.89-23.683a7.307 7.307 0 0 0-4.353-1.447H64.013c-2.851 0-5.448 1.676-6.685 4.309l-15.453 32.929c-1.583 3.37.81 7.279 4.459 7.279h17.073c2.374 0 4.538-1.397 5.571-3.593l12.547-26.715 34.566 26.988a15.58 15.58 0 0 0 9.585 3.32h27.988c3.648 0 6.042-3.909 4.458-7.279L119.054 60.42c-1.237-2.633-3.834-4.309-6.685-4.309Z"/>
</svg>
