<svg xmlns="http://www.w3.org/2000/svg" width="200" height="200" fill="currentColor" viewBox="0 0 200 200">
  <g clip-path="url(#a)">
    <path fill="url(#b)" d="M100 200c55.228 0 100-44.772 100-100S155.228 0 100 0 0 44.772 0 100s44.772 100 100 100Z"/>
    <path fill="#fff" d="M103.95 51.58c-2.122-3.702-3.186-5.553-4.572-6.173a4.656 4.656 0 0 0-3.803-.002c-1.388.62-2.452 2.468-4.58 6.167l-32.946 57.254c-2.127 3.699-3.192 5.548-3.033 7.065a4.705 4.705 0 0 0 1.9 3.312c1.227.897 3.354.899 7.605.901l11.832.007c1.573 0 2.36 0 3.064-.227a4.679 4.679 0 0 0 1.686-.975c.549-.498.944-1.181 1.732-2.551l12.102-21.034c.07-.122.148-.237.23-.343 1.231-1.59 3.748-1.474 4.793.346l14.319 24.956c.128.223.222.453.285.683.495 1.785-.823 3.688-2.8 3.685l-23.715-.016c-1.573 0-2.36 0-3.064.228a4.676 4.676 0 0 0-1.685.974c-.55.498-.945 1.182-1.732 2.551l-5.923 10.292c-2.127 3.698-3.193 5.547-3.034 7.064a4.704 4.704 0 0 0 1.9 3.312c1.227.897 3.354.899 7.606.901l65.359.043c4.251.002 6.376.004 7.605-.893a4.696 4.696 0 0 0 1.904-3.307c.158-1.517-.903-3.367-3.025-7.069l-50.01-87.152Z"/>
  </g>
  <defs>
    <linearGradient id="b" x1="185" x2="18.5" y1="49" y2="159" gradientUnits="userSpaceOnUse">
      <stop stop-color="#CC0FE0"/>
      <stop offset=".5" stop-color="#7E1BCC"/>
      <stop offset="1" stop-color="#1BA1F1"/>
    </linearGradient>
    <clipPath id="a">
      <path fill="#fff" d="M0 0h200v200H0z"/>
    </clipPath>
  </defs>
</svg>
