<svg xmlns="http://www.w3.org/2000/svg" width="200" height="200" fill="currentColor" viewBox="0 0 200 200">
  <g clip-path="url(#a)">
    <path fill="#3368EF" d="M100 200c55.228 0 100-44.772 100-100S155.228 0 100 0 0 44.772 0 100s44.772 100 100 100Z"/>
    <path fill="#fff" d="M45.06 65h54.282c.982 0 1.778.774 1.778 1.73v24.746c0 1.545-.926 2.947-2.367 3.59l-6.837 3.053a.916.916 0 0 0-.55.833c0 .355.209.675.538.827l6.899 3.191c1.415.654 2.317 2.043 2.317 3.569v26.729c0 .956-.796 1.73-1.778 1.73H45.06c-2.795 0-5.06-2.204-5.06-4.923V69.923C40 67.203 42.265 65 45.06 65Zm29.442 46.665c1.384 0 2.37-.182 2.958-.543.639-.364.958-1.037.958-2.022v-.156c0-1.037-.345-1.764-1.039-2.179-.639-.414-1.732-.621-3.277-.621h-10.12v5.521h10.52Zm-.479-18.9c2.452 0 3.678-.856 3.678-2.567v-.39c0-.985-.32-1.66-.958-2.021-.587-.415-1.572-.622-2.959-.622h-9.8v5.6h10.042-.003Zm31.697 13.146h22.37c0 1.764.32 2.982.959 3.657.693.674 1.678 1.01 2.958 1.01 2.185 0 3.278-1.218 3.278-3.656 0-1.193-.374-2.047-1.119-2.568-.694-.518-1.759-.778-3.198-.778h-12.311v-9.022l18.945-4.589H105.72c-.889 0-1.611-.702-1.611-1.568V66.31c0-.723.603-1.31 1.346-1.31h52.446c2.795 0 5.06 2.204 5.06 4.923v17.652c0 1.994-1.408 3.728-3.401 4.19l-20.758 4.813.959.157h19.811c2.445 0 4.428 1.93 4.428 4.308v29.034c0 2.719-2.265 4.923-5.06 4.923h-53.485c-.743 0-1.346-.587-1.346-1.31v-26.211c0-.866.722-1.568 1.611-1.568Z"/>
  </g>
  <defs>
    <clipPath id="a">
      <path fill="#fff" d="M0 0h200v200H0z"/>
    </clipPath>
  </defs>
</svg>
