<svg width="200" height="200" viewBox="0 0 200 200" fill="none"
  xmlns="http://www.w3.org/2000/svg">
  <g clip-path="url(#clip0_2027_1562)">
    <path d="M100 200C155.228 200 200 155.228 200 100C200 44.7715 155.228 0 100 0C44.7715 0 0 44.7715 0 100C0 155.228 44.7715 200 100 200Z" fill="#F6D268"/>
    <path d="M73.6937 152.302C70.8337 91.6658 96.2906 79.7034 154.574 69.3725C159.611 72.6413 161.1 68.7488 161.226 63.0858C161.347 57.592 156.51 51.8383 152.289 55.7089C29.5222 34.7006 17.806 132.73 65.067 159.801C68.5679 161.806 73.1177 159.871 73.6937 152.302Z" fill="#FFE817"/>
    <path d="M165.31 60.041C163.572 49.6003 156.51 51.838 152.29 55.7086C145.724 54.585 139.476 53.8019 133.537 53.3303C127.851 53.7296 126.325 60.1048 136.462 61.894C122.874 63.1045 127.789 75.1473 143.252 71.6424C146.83 70.8315 150.6 70.0769 154.575 69.3723C159.612 72.641 167.78 74.8883 165.31 60.041Z" fill="#B2D01D"/>
    <path d="M133.498 53.3377C128.385 53.7235 126.683 58.9209 133.879 61.2384C86.2449 61.7003 45.6967 94.9551 61.1475 137.661C66.6289 151.351 64.2878 153.486 53.8159 150.941C22.7506 118.153 38.3922 45.8035 133.498 53.3377Z" fill="#C87810" fill-opacity="0.5"/>
    <path d="M161.1 52.8694C157.604 59.4535 153.515 62.8864 151.896 62.6178C145.844 61.614 139.809 61.1883 133.881 61.2457C126.682 58.9297 128.382 53.7252 133.491 53.3357C139.441 53.8069 145.702 54.588 152.284 55.714C152.936 55.2449 153.57 54.7355 154.194 54.2469C156.405 52.7849 158.951 51.9739 161.1 52.8694Z" fill="#3F490A" fill-opacity="0.5"/>
    <path d="M47.7097 143.084C26.9203 110.177 43.0161 54.1805 117.296 52.8064C58.2862 76.6514 43.1426 96.2361 47.7097 143.084Z" fill="#A3560A"/>
    <path d="M75.0004 149.999C67.9737 97.6955 94.0048 79.3408 152.289 69.0101C157.325 72.2789 165.976 75.7813 165.976 60.8065C165.976 45.8318 156.509 51.8381 152.289 55.7085C29.5221 34.7 17.8061 132.729 65.0671 159.801C68.5679 161.806 74.4244 157.567 75.0004 149.999Z" stroke="black" stroke-width="2.3623" stroke-linejoin="round"/>
    <path d="M120.66 59.9792C120.711 60.8511 120.812 61.1935 121.084 61.6294" stroke="black" stroke-width="2.3623" stroke-linecap="round"/>
    <path d="M115.785 60.1807C115.836 61.0527 115.937 61.3949 116.21 61.8309" stroke="black" stroke-width="2.3623" stroke-linecap="round"/>
    <path d="M81.1195 77.0203C78.8943 77.945 77.0285 79.062 74.906 80.907" stroke="black" stroke-width="2.3623" stroke-linecap="round"/>
  </g>
  <defs>
    <clipPath id="clip0_2027_1562">
      <rect width="200" height="200" fill="white"/>
    </clipPath>
  </defs>
</svg>
