<svg width="200" height="200" viewBox="0 0 200 200" fill="none"
  xmlns="http://www.w3.org/2000/svg">
  <path d="M100 200C155.228 200 200 155.228 200 100C200 44.7715 155.228 0 100 0C44.7715 0 0 44.7715 0 100C0 155.228 44.7715 200 100 200Z" fill="#EEEEEE"/>
  <path d="M146.8 51.0062C146.784 51.9828 146.759 52.9594 146.692 53.9361C146.093 62.9047 142.499 71.6711 136.521 78.7293C134.228 81.5152 131.424 83.8771 128.789 86.371C112.894 101.161 96.9909 115.939 81.0962 130.732C76.5106 134.942 73.8832 140.876 73.8748 146.864C65.917 146.868 57.9592 146.872 50.0056 146.86C50.0223 146.012 50.0433 145.167 50.0809 144.323C50.6792 133.646 55.5786 123.238 63.6117 115.592C80.9623 99.4486 98.3255 83.3128 115.676 67.1653C120.279 62.9514 122.914 57.006 122.927 51.0062C130.885 51.0023 138.842 50.9945 146.8 51.0062Z" fill="black"/>
  <path d="M145.505 136.464C146.371 139.869 146.789 143.366 146.806 146.864C138.848 146.88 130.886 146.845 122.929 146.88C122.899 142.359 121.456 137.841 118.703 134.106C115.51 129.678 110.59 126.406 105.101 124.912C111.117 119.336 117.105 113.737 123.125 108.165C134.28 114.282 142.568 124.729 145.505 136.464Z" fill="black"/>
  <path d="M91.7093 72.9538C85.6973 78.5335 79.7057 84.1288 73.6851 89.7043C63.8403 84.2842 56.1838 75.5257 52.5438 65.4326C50.8535 60.7946 50.0167 55.8997 50 51.0049C57.962 51.001 65.9198 51.0049 73.8818 51.001C73.8943 56.1604 75.8189 61.2926 79.3209 65.3002C82.4756 68.9578 86.8729 71.6426 91.7093 72.9538Z" fill="black"/>
  <path d="M86.4622 51C86.4426 52.6197 86.8028 54.2415 87.5895 55.722C89.9743 60.718 96.6476 63.391 102.191 61.539C107.023 60.1495 110.358 55.6235 110.369 51H86.4622Z" fill="black"/>
  <path d="M110.371 146.868C110.378 145.844 110.224 144.816 109.891 143.817C109.468 142.432 108.753 141.129 107.795 140C104.313 135.701 97.3261 134.467 92.3852 137.269C88.6972 139.173 86.504 143.016 86.4631 146.868H110.371Z" fill="black"/>
</svg>
