<svg width="200" height="200" viewBox="0 0 200 200" fill="none"
  xmlns="http://www.w3.org/2000/svg">
  <path d="M100 200C155.228 200 200 155.228 200 100C200 44.7715 155.228 0 100 0C44.7715 0 0 44.7715 0 100C0 155.228 44.7715 200 100 200Z" fill="black"/>
  <path d="M114.292 130.102H73.5408V133.663H114.292V130.102Z" fill="white"/>
  <path d="M83.7378 152.275H53.1707V155.835H83.7378V152.275Z" fill="white"/>
  <path d="M63.3379 130.13H43V133.691H63.3379V130.13Z" fill="white"/>
  <path d="M114.307 119.819H83.74V123.38H114.307V119.819Z" fill="white"/>
  <path d="M73.5214 119.823H53.1987V123.384H73.5214V119.823Z" fill="white"/>
  <path d="M114.296 73.801H63.3457V77.3617H114.296V73.801Z" fill="white"/>
  <path d="M73.5127 61.9607H53.1748V65.5211H73.5127V61.9607Z" fill="white"/>
  <path d="M141.316 96.1755C141.316 96.1755 141.362 96.1152 141.376 96.0847C146.793 86.6255 148.196 75.6276 145.344 65.1124C142.493 54.5972 135.704 45.817 126.244 40.401C120.073 36.8706 113.073 35 105.997 35C105.997 35 105.997 35 105.981 35H63.3446V40.0993H106.117C112.092 40.1143 118.142 41.6381 123.709 44.8212C138.148 53.0886 144.605 69.9097 140.396 85.2377C141.573 80.2596 141.512 75.0244 140.124 69.9552C137.936 61.914 132.762 55.2006 125.52 51.0671C120.812 48.3666 115.456 46.9485 110.055 46.9335H73.5283V52.0328H110.1C114.476 52.0328 118.911 53.1491 122.985 55.4876C133.848 61.7184 138.51 74.5569 134.844 86.0223C137.122 77.3174 133.425 67.8129 125.248 63.1362C122.17 61.3709 118.67 60.4357 115.139 60.4357H83.6817V65.535H115.139C117.719 65.535 120.314 66.1987 122.713 67.5567C130.045 71.7505 132.595 81.0739 128.446 88.4213C124.01 86.7613 119.213 85.8564 114.204 85.8564H73.5127V90.9557H114.279C131.69 90.9859 146.159 103.478 149.282 119.982C146.174 106.404 133.998 96.2361 119.499 96.2361H63.3285V101.335H119.59C132.369 101.381 142.93 110.825 144.71 123.12C142.975 113.645 134.647 106.434 124.674 106.434H63.3588V111.533H124.674C133.108 111.533 139.958 118.383 139.958 126.816C139.958 135.249 133.123 142.098 124.689 142.098H53.1746V147.198H124.674C134.647 147.198 142.975 139.986 144.71 130.512C142.929 142.838 132.323 152.297 119.499 152.297H93.9104V157.396H119.499C133.455 157.396 145.238 147.997 148.889 135.204C145.072 150.788 131.041 162.344 114.294 162.389H63.3888V167.489H114.203C136.699 167.489 155 149.189 155 126.695C155 114.581 149.689 103.703 141.286 96.2205L141.315 96.1755H141.316Z" fill="white"/>
</svg>
