<svg width="200" height="200" viewBox="0 0 200 200" fill="none"
  xmlns="http://www.w3.org/2000/svg">
  <path d="M100 200C155.228 200 200 155.228 200 100C200 44.7715 155.228 0 100 0C44.7715 0 0 44.7715 0 100C0 155.228 44.7715 200 100 200Z" fill="white"/>
  <path d="M109.171 149.956C110.842 151.627 112.178 153.966 112.846 156.305L141.917 139.263C140.246 137.593 138.91 135.588 138.242 133.249L109.171 149.956ZM141.917 59.7366L112.846 43.0293C112.178 45.3683 110.842 47.3732 109.171 49.0439L138.242 66.0854C138.91 63.7464 140.246 61.4073 141.917 59.7366ZM61.0537 69.4269L60.0513 74.4391C66.7342 75.7756 73.4171 77.4464 79.7659 79.7854L80.7683 72.7683C74.0854 70.4293 67.4025 68.7586 60.7196 67.422L61.0537 69.4269ZM128.885 99.5C135.234 94.4878 141.249 88.8073 146.595 82.4586C144.256 81.4561 142.251 80.1195 140.915 78.4488C135.568 84.4634 129.554 90.1439 123.205 95.1561C114.511 88.8145 105.223 83.3311 95.4708 78.783L94.4683 86.1342C102.394 89.9624 109.993 94.4326 117.19 99.5C110.015 104.698 102.414 109.281 94.4683 113.2L95.4708 120.551C105.179 115.92 114.46 110.441 123.205 104.178C129.554 109.19 135.568 114.871 140.915 120.885C142.251 119.215 144.256 117.544 146.595 116.876C141.249 110.527 135.234 104.846 128.885 99.5ZM60.0513 124.895C60.9803 127.11 61.3255 129.526 61.0537 131.912C67.7366 130.576 74.0854 128.905 80.7683 126.566L79.7659 119.549C73.4171 121.888 66.7342 123.559 60.0513 124.895Z" fill="#0F100C"/>
  <path d="M89.7903 99.5C89.7903 83.7952 92.1293 68.0903 97.1415 53.0537C94.8025 52.7196 92.4635 51.7171 90.7927 50.0464C85.1122 66.0854 82.4391 82.7927 82.7732 99.5C82.7732 117.544 85.4464 134.92 90.7927 149.288C92.4635 147.617 94.8025 146.615 97.1415 146.281C92.1293 131.244 89.4561 115.539 89.7903 99.5Z" fill="#0F100C"/>
  <path d="M104.159 152.963C102.822 151.961 101.151 151.293 99.4805 151.293H99.1463C95.1366 151.627 91.461 154.968 91.1268 158.978V159.646C91.1268 161.862 92.0069 163.987 93.5736 165.553C95.1402 167.12 97.265 168 99.4805 168C101.696 168 103.821 167.12 105.387 165.553C106.954 163.987 107.834 161.862 107.834 159.646V158.978C107.5 156.639 106.163 154.3 104.159 152.963ZM95.8049 47.039L96.8073 47.3732H97.1415L98.1439 47.7073C99.735 47.9211 101.354 47.6897 102.822 47.039C107.166 45.0341 108.837 40.022 106.832 35.678C105.495 33.0049 102.488 31 99.1463 31C97.4756 31 95.8049 31.6683 94.4683 32.6707C92.4634 34.0073 91.1268 36.3463 91.1268 38.6854V39.3537C91.1268 41.0244 91.461 42.361 92.1293 43.6976C93.1317 45.0341 94.1341 46.3707 95.8049 47.039ZM147.932 77.1122L149.268 77.4463L149.602 77.7805H150.271C151.971 78.0596 153.715 77.827 155.283 77.1122C157.093 76.3483 158.576 74.9709 159.471 73.2221C160.366 71.4732 160.616 69.4648 160.177 67.5499C159.739 65.6349 158.639 63.9359 157.071 62.7514C155.504 61.5668 153.569 60.9726 151.607 61.0732C149.937 61.0732 148.266 61.7415 146.929 62.7439C144.924 64.0805 143.588 66.4195 143.254 68.7585V69.4268C143.254 71.0976 143.922 72.4341 144.59 73.7707C145.259 75.4415 146.595 76.4439 147.932 77.1122ZM154.949 122.222C153.946 121.554 152.61 121.22 151.607 121.22H150.271C149.69 121.376 149.129 121.6 148.6 121.888H147.932C146.595 122.556 145.259 123.893 144.256 125.229C143.588 126.566 143.254 128.237 143.254 129.573V130.241C143.34 132.399 144.258 134.438 145.815 135.934C147.373 137.429 149.448 138.263 151.607 138.261C156.285 138.261 159.961 134.251 159.961 129.573C159.961 126.566 157.956 123.559 155.283 122.222H154.949ZM47.3537 61.0732C45.1381 61.0732 43.0133 61.9533 41.4467 63.5199C39.8801 65.0865 39 67.2113 39 69.4268C39 71.6424 39.8801 73.7671 41.4467 75.3338C43.0133 76.9004 45.1381 77.7805 47.3537 77.7805C49.5692 77.7805 51.694 76.9004 53.2606 75.3338C54.8272 73.7671 55.7073 71.6424 55.7073 69.4268C55.7073 67.2113 54.8272 65.0865 53.2606 63.5199C51.694 61.9533 49.5692 61.0732 47.3537 61.0732ZM47.3537 121.22C42.6756 121.554 39 125.229 39 129.907C39 134.585 43.0098 138.261 47.6878 137.927C49.9033 137.883 52.0105 136.96 53.5458 135.362C55.0811 133.764 55.9187 131.622 55.8744 129.406C55.8301 127.191 54.9075 125.083 53.3095 123.548C51.7116 122.013 49.5692 121.175 47.3537 121.22Z" fill="#3AB16F"/>
</svg>
