<svg xmlns="http://www.w3.org/2000/svg" width="200" height="200" fill="currentColor" viewBox="0 0 200 200">
  <g clip-path="url(#a)">
    <path fill="#713FFE" d="M200 100C200 44.772 155.228 0 100 0S0 44.772 0 100s44.772 100 100 100 100-44.772 100-100Z"/>
    <path fill="#CAB3FF" d="M86.667 84.93 60 90v19.953l26.667 25.023L113.333 160 140 134.976V115l-26.667-5.047L139.9 85.029 140 65l-26.773-5-26.56 24.93Z"/>
    <path fill="#AB87FF" d="m86.667 84.93 26.56 55.07.106 20L140 134.976V115l-26.666-5.047L139.9 85.029 140 65l-26.773-5-26.56 24.93Z"/>
    <path fill="#fff" d="m86.667 64.93-.107.1L60 89.952l26.667 25.023L113.333 140 140 114.976l-26.667-25.023L139.9 65.029 113.227 40l-26.56 24.93Z"/>
  </g>
  <defs>
    <clipPath id="a">
      <path fill="#fff" d="M0 0h200v200H0z"/>
    </clipPath>
  </defs>
</svg>
