<svg xmlns="http://www.w3.org/2000/svg" width="200" height="200" fill="currentColor" viewBox="0 0 200 200">
  <path fill="#fff" d="M100 200c55.228 0 100-44.772 100-100S155.228 0 100 0 0 44.772 0 100s44.772 100 100 100Z"/>
  <path fill="url(#a)" d="M128.947 76.509c-13.686-13.654-35.438-13.654-48.979 0-13.541 13.801-13.397 36.264.144 50.065 13.541 13.801 35.581 13.948 49.123.147.23-.235 1.182-1.301 2.854-3.198L115.76 106.86c-1.679 1.987-2.565 3.028-2.659 3.124a11.669 11.669 0 0 1-16.71 0c-4.61-4.698-4.61-12.333-.145-16.884 4.466-4.552 11.957-4.552 16.566.146l43.665 44.471c-11.956 17.618-31.996 28.792-53.604 28.792-35.726 0-64.824-29.804-64.824-66.509s29.098-66.509 64.824-66.509c20.888 0 40.047 10.277 52.003 26.868-1.926 2.28-6.847 8-14.764 17.158l16.111 16.374 26.743-30.742C169.138 31.142 137.878 10 102.873 10 54.327 10 15 50.375 15 100s39.327 90 87.873 90c22.04 0 40.335-7.047 58.197-22.61 16.279-14.095 23.93-33.637 23.93-33.637l-56.053-57.244Z"/>
  <defs>
    <linearGradient id="a" x1="185" x2="15" y1="100" y2="100" gradientUnits="userSpaceOnUse">
      <stop stop-color="#22E6B8"/>
      <stop offset="1" stop-color="#00C1CE"/>
    </linearGradient>
  </defs>
</svg>
