<svg xmlns="http://www.w3.org/2000/svg" width="200" height="200" fill="currentColor" viewBox="0 0 200 200">
  <path fill="#292529" d="M89.35 5.75a22.417 22.417 0 0 1 21.3 0 22.408 22.408 0 0 0 13.467 2.525 22.39 22.39 0 0 1 19.858 7.692 22.396 22.396 0 0 0 11.642 7.208 22.426 22.426 0 0 1 15.75 14.35 22.385 22.385 0 0 0 8.25 10.933 22.405 22.405 0 0 1 9.5 19.067 22.247 22.247 0 0 0 3.75 13.167 22.446 22.446 0 0 1 1.958 21.216 22.412 22.412 0 0 0-1.267 13.642 22.404 22.404 0 0 1-5.833 20.483 22.416 22.416 0 0 0-6.1 12.259 22.405 22.405 0 0 1-12.833 17 22.45 22.45 0 0 0-10.125 9.233 22.415 22.415 0 0 1-18.109 11.208 22.444 22.444 0 0 0-12.775 4.95 22.402 22.402 0 0 1-20.933 3.917 22.411 22.411 0 0 0-13.7 0 22.42 22.42 0 0 1-20.942-3.917 22.416 22.416 0 0 0-12.766-4.95 22.399 22.399 0 0 1-18.108-11.208 22.41 22.41 0 0 0-10.126-9.233 22.412 22.412 0 0 1-12.833-17 22.413 22.413 0 0 0-6.108-12.25 22.408 22.408 0 0 1-5.834-20.5 22.41 22.41 0 0 0-1.258-13.634A22.406 22.406 0 0 1 7.142 80.7c2.591-3.892 3.9-8.5 3.75-13.167a22.408 22.408 0 0 1 9.492-19.083 22.309 22.309 0 0 0 8.25-10.917 22.408 22.408 0 0 1 15.75-14.358 22.407 22.407 0 0 0 11.641-7.208 22.409 22.409 0 0 1 19.858-7.692A22.408 22.408 0 0 0 89.35 5.75Z"/>
  <path fill="#393939" fill-rule="evenodd" d="M100.192 187.692c48.233 0 87.333-39.1 87.333-87.334 0-48.233-39.1-87.333-87.333-87.333-48.242 0-87.342 39.1-87.342 87.333 0 48.234 39.108 87.334 87.342 87.334Zm0 1.633c49.133 0 88.966-39.833 88.966-88.967 0-49.133-39.833-88.966-88.975-88.966-49.133 0-88.966 39.833-88.966 88.966 0 49.134 39.833 88.967 88.975 88.967Z" clip-rule="evenodd"/>
  <path fill="#FFB0C2" d="M120.225 120.333a26.332 26.332 0 0 1-23.308 14.117 26.418 26.418 0 0 1-26.367-26.467 26.417 26.417 0 0 1 26.367-26.466 26.331 26.331 0 0 1 23.3 14.108h27.449c-5.5-23.042-26.108-40.192-50.75-40.192-28.858 0-52.25 23.484-52.25 52.442 0 28.967 23.392 52.45 52.25 52.45 24.567 0 45.117-17.05 50.701-39.983h-27.392v-.009Z"/>
  <path fill="#CC91F0" d="M138.217 75.9a26.306 26.306 0 0 0 9.658-20.4 26.257 26.257 0 0 0-7.658-18.588 26.263 26.263 0 0 0-18.558-7.729A26.269 26.269 0 0 0 95.45 55.5v.017l1.459-.017c16.833 0 31.775 7.992 41.308 20.4Z"/>
  <path fill="#CC66B8" d="M121.675 81.833a26.05 26.05 0 0 0 16.567-5.916 51.966 51.966 0 0 0-42.775-20.375 26.252 26.252 0 0 0 26.216 26.291h-.008Z"/>
</svg>
