<svg xmlns="http://www.w3.org/2000/svg" width="200" height="200" fill="currentColor" viewBox="0 0 200 200">
  <g clip-path="url(#a)">
    <path fill="#CFF4D5" d="M100 200c55.228 0 100-44.772 100-100S155.228 0 100 0 0 44.772 0 100s44.772 100 100 100Z"/>
    <path fill="#000" fill-rule="evenodd" d="M157.252 30.19v10.364a4.197 4.197 0 0 1-4.196 4.19h-10.363a4.192 4.192 0 0 1-4.19-4.19V30.189a4.187 4.187 0 0 1 4.19-4.189h10.363a4.193 4.193 0 0 1 4.196 4.19ZM176 67.695V78.06a4.198 4.198 0 0 1-4.196 4.19H161.44a4.186 4.186 0 0 1-4.188-4.19V67.696a4.186 4.186 0 0 1 4.188-4.189h10.364a4.193 4.193 0 0 1 4.196 4.19Zm-33.463 1.454V58.785a4.19 4.19 0 0 0-4.189-4.19h-10.363a4.187 4.187 0 0 0-4.189 4.19V69.15a4.187 4.187 0 0 0 4.189 4.189h10.363a4.186 4.186 0 0 0 4.189-4.19Zm-18.593 31.863h14.559l-.028-.014h14.567a4.189 4.189 0 0 1 4.196 4.19v29.121a4.194 4.194 0 0 1-4.196 4.196h-10.364a4.189 4.189 0 0 0-4.196 4.19v10.364a4.186 4.186 0 0 1-4.188 4.189H123.93a4.188 4.188 0 0 0-4.196 4.19v10.365a4.188 4.188 0 0 1-4.189 4.196H67.671a4.193 4.193 0 0 1-4.189-4.196v-10.365a4.187 4.187 0 0 0-4.188-4.19H48.93a4.186 4.186 0 0 1-4.189-4.189v-10.364a4.187 4.187 0 0 0-4.189-4.19H30.19A4.192 4.192 0 0 1 26 134.31V86.432a4.186 4.186 0 0 1 4.189-4.19H40.58a4.187 4.187 0 0 0 4.19-4.19V67.696a4.186 4.186 0 0 1 4.188-4.189h10.364a4.187 4.187 0 0 0 4.188-4.19V48.96a4.187 4.187 0 0 1 4.19-4.189h29.118a4.186 4.186 0 0 1 4.189 4.19V78.08a4.186 4.186 0 0 0 4.189 4.19h10.363a4.188 4.188 0 0 1 4.196 4.189v10.364a4.186 4.186 0 0 0 4.189 4.189Zm0 37.515h14.559l-.021-.007v-14.575c0-2.316-1.88-4.19-4.195-4.19h-10.364a4.186 4.186 0 0 1-4.189-4.189v-10.364c0-2.316-1.88-4.19-4.196-4.19h-10.363a4.186 4.186 0 0 1-4.189-4.189V86.46a4.186 4.186 0 0 0-4.19-4.19H86.434a4.186 4.186 0 0 1-4.188-4.189V67.717a4.187 4.187 0 0 0-4.19-4.19H67.693a4.187 4.187 0 0 0-4.188 4.19V78.08a4.186 4.186 0 0 1-4.19 4.19H48.952a4.186 4.186 0 0 0-4.189 4.189v47.879a4.187 4.187 0 0 0 4.19 4.189h10.363a4.186 4.186 0 0 1 4.189 4.189v10.365a4.187 4.187 0 0 0 4.188 4.189h47.867a4.188 4.188 0 0 0 4.196-4.189v-10.358a4.188 4.188 0 0 1 4.189-4.196Z" clip-rule="evenodd"/>
  </g>
  <defs>
    <clipPath id="a">
      <path fill="#fff" d="M0 0h200v200H0z"/>
    </clipPath>
  </defs>
</svg>
