<svg xmlns="http://www.w3.org/2000/svg" width="200" height="200" fill="currentColor" viewBox="0 0 200 200">
  <g clip-path="url(#a)">
    <path fill="#F2CD16" d="M200 100C200 44.772 155.228 0 100 0S0 44.772 0 100s44.772 100 100 100 100-44.772 100-100Z"/>
    <path fill="#544003" fill-rule="evenodd" d="M83.186 152a15.336 15.336 0 0 1-14.618-10.697l-10.389-32.748h-6.388a15.335 15.335 0 0 1-14.618-10.697L31 78.4h23.154L41.942 60h115.716l-12.213 18.4H168.6l-6.173 19.458a15.335 15.335 0 0 1-14.618 10.697h-6.388l-10.389 32.748A15.336 15.336 0 0 1 116.413 152H83.186Zm-7.848-52.389c0 4.94 3.689 8.944 8.239 8.944 4.55 0 8.239-4.004 8.239-8.944 0-4.94-3.689-8.945-8.239-8.945-4.55 0-8.239 4.005-8.239 8.945Zm48.924 0c0 4.94-3.688 8.944-8.239 8.944-4.55 0-8.239-4.004-8.239-8.944 0-4.94 3.689-8.945 8.239-8.945 4.551 0 8.239 4.005 8.239 8.945Z" clip-rule="evenodd"/>
  </g>
  <defs>
    <clipPath id="a">
      <path fill="#fff" d="M0 0h200v200H0z"/>
    </clipPath>
  </defs>
</svg>
