<svg xmlns="http://www.w3.org/2000/svg" width="200" height="200" fill="currentColor" viewBox="0 0 200 200">
  <path fill="#73F2FD" d="M200 100C200 44.772 155.228 0 100 0S0 44.772 0 100s44.772 100 100 100 100-44.772 100-100Z"/>
  <g clip-path="url(#a)">
    <path fill="#000" d="M78.709 132.726 99.32 183l45.868-46.815h-34.78l-9.287-26.345-22.412 22.886Z"/>
    <path fill="#000" d="m134.432 75.865-26.298 26.82 8.624 24.45h69.18l-18.053-51.27h-33.453ZM20 75.865l18.053 51.27h33.453l26.25-26.772-8.623-24.498H20Z"/>
    <path fill="#000" d="M106.617 20 60.75 66.815h34.78l9.287 26.346 22.412-22.84L106.617 20Z"/>
  </g>
  <defs>
    <clipPath id="a">
      <path fill="#fff" d="M20 20h165.938v163H20z"/>
    </clipPath>
  </defs>
</svg>
