<svg xmlns="http://www.w3.org/2000/svg" width="200" height="200" fill="currentColor" viewBox="0 0 200 200">
  <path fill="#1D212C" d="M100 200c55.228 0 100-44.772 100-100S155.228 0 100 0 0 44.772 0 100s44.772 100 100 100Z"/>
  <path fill="url(#a)" d="M100 25c-41.42 0-75 33.576-75 75s33.576 75 75 75 75-33.576 75-75-33.576-75-75-75Zm0 108.839c-18.66 0-33.842-15.18-33.842-33.843 0-18.662 15.183-33.842 33.842-33.842s33.842 15.18 33.842 33.843c0 18.662-15.179 33.842-33.842 33.842ZM33.3 99.996c0-35.383 27.702-64.409 62.553-66.558v24.623c-21.326 2.084-37.995 20.063-37.995 41.935 0 21.873 16.669 39.852 37.995 41.936v24.623C61.003 164.406 33.3 135.384 33.3 99.996Zm70.847 66.559v-24.623c21.326-2.084 37.995-20.063 37.995-41.935 0-21.873-16.669-39.852-37.995-41.935V33.438c34.851 2.15 62.553 31.171 62.553 66.559 0 35.387-27.702 64.409-62.553 66.558Z"/>
  <defs>
    <linearGradient id="a" x1="46.97" x2="153.034" y1="153.03" y2="46.97" gradientUnits="userSpaceOnUse">
      <stop stop-color="#4C80E9"/>
      <stop offset="1" stop-color="#91D2F5"/>
    </linearGradient>
  </defs>
</svg>
