<svg xmlns="http://www.w3.org/2000/svg" width="200" height="200" fill="currentColor" viewBox="0 0 200 200">
  <path fill="#fff" d="M100 200c55.228 0 100-44.772 100-100S155.228 0 100 0 0 44.772 0 100s44.772 100 100 100Z"/>
  <path fill="url(#a)" d="m27.345 140.756-7.44-10.415 4.464-5.207 5.208-24.549 5.951-23.061V55.206l.744-9.67 2.976-8.928 2.231-2.975h5.952l80.343 5.207 21.574-3.72 7.439-1.487h4.463l2.976 2.975 1.488 8.927 1.488 17.11 1.488 24.55 4.463 18.597 4.464 16.366 3.719 8.183-1.488 3.72-4.463 3.719-39.428 31.989-66.209.744-42.403-29.757Z"/>
  <path fill="url(#b)" d="M102.854 189.481c2.975-3.72 14.856-9.299 14.856-9.299 31.244-8.927 52.818-33.477 52.818-33.477l5.207-8.926c0-.744 2.976-12.647-7.439-14.879-10.415-2.231-16.366 5.952-26.781 10.415-10.415 4.464-11.903 4.464-26.781-4.463 0 0-5.207-3.72-13.391-3.72h-.349c-8.183 0-13.39 3.72-13.39 3.72-14.88 8.927-16.367 8.927-26.782 4.463-10.415-4.463-16.366-12.646-26.78-10.415-10.416 2.232-7.44 14.135-7.44 14.879l5.207 8.926s21.574 24.55 52.819 33.477c0 0 11.158 4.463 14.134 8.183"/>
  <path fill="url(#c)" d="M66.4 55.577s-11.902 6.695-17.11-4.464l-.743-8.183s5.207 8.927 16.366 10.415c0 0-14.134-8.183-12.646-22.317l2.231-8.927 1.488 6.695 2.976 3.72s2.231-9.671 4.463-11.16c0 0 4.464 5.208 8.927 6.696 0 0-2.231-8.927 3.72-17.11 0 0 2.232 12.646 20.83 11.159h5.951s-7.44-2.232-9.671-5.208c0 0 9.671 2.976 27.525 2.232 0 0 17.854.744 20.086 17.854 0 0 2.975-1.488 1.488-6.695l-8.183-11.16s16.366 2.977 14.134 18.599l-10.415 17.854-1.488-5.208-2.975 1.488-2.232-4.463-1.488 4.463-5.951-5.951s3.719 5.207-10.415 2.232c-14.135-2.976 1.488 2.231 1.488 2.231s-11.903 2.976-25.294 0l-3.72-2.231s1.489 2.231 5.952 5.207c0 0-7.439.744-11.159-2.232 0 0-5.207-3.72-.743 2.976l-4.464-.744.744 1.488-8.927.744H66.4Z"/>
  <path fill="url(#d)" d="M35.159 54.087s-.744 9.671 3.72 29.013c0 0-5.208 14.134-5.952 32.732 0 0-2.232-12.647-2.976-25.293v-5.207s-2.232-8.183 2.976-14.135l2.232-5.207s-8.927 2.975-17.854-4.464l9.67.744-9.67-3.72s8.183.745 12.646-1.487l5.208-2.976Z"/>
  <path fill="url(#e)" d="M145.256 60.782s15.623-2.231 20.83.744l.744-1.488 4.463.744-2.231 1.488 6.695 3.72v2.232l-2.232 2.975-2.975 5.208 5.951-.744-2.976 3.72 3.72 1.487-3.72 2.232 3.72 3.72-8.927-2.976 5.207 6.695 5.952 10.415-4.464-1.488.744 5.951v5.952l-4.464-11.903s-2.975 14.878-5.207 19.342l.744-14.879.744-11.158s-6.695 1.487-9.671-3.72l5.951-2.232s-7.439-2.975-11.158-7.439h3.719l-6.695-4.463s-1.488-2.232 8.183-1.488c0 0-9.671-1.488-8.183-8.183 0 0-3.72-1.488-4.464-4.464Z"/>
  <path fill="#fff" d="M54.263 43.048s-7.945-6.07-10.92 2.113c-2.976 8.183.743 26.78 1.487 28.268-.208.142 5.46-8.89 16.961-15.34 1.235-.69-8.622-1.271-7.29-1.77l-5.207-5.95-.744-5.208s11.159 8.927 14.134 6.695l-8.421-8.808Zm91.739.625s9.522-8.13 12.996 1.488c1.882 5.207 1.138 14.134 1.138 14.134-16.366 1.488-13.39 2.976-13.39 2.976-3.497-3.199-5.103-4.092-10.065-5.951l4.857-6.696 4.464-5.95Z"/>
  <path fill="#000" d="M66.281 54.883c-3.816 1.57-8.607 2.165-12.282-.104-4.106-2.537-4.597-7.804-4.925-12.156l-1.874.506c3.883 7.603 12.319 10.787 20.353 11.65 1.168.126 1.295-1.644.268-1.972-1.92-.617-3.705-1.763-5.349-2.894-2.165-1.487-4.218-3.22-5.892-5.244-2.893-3.504-4.017-8.332-3.741-12.803.215-3.519 1.39-6.881 3.161-9.909l-1.874-.506c-.112 4.114 1.294 8.057 3.883 11.24.818 1.005 2.232-.423 1.42-1.42-2.253-2.767-3.384-6.271-3.295-9.82.03-1.004-1.376-1.354-1.874-.506-3.147 5.379-4.338 11.732-2.775 17.81.565 2.194 1.473 4.36 2.797 6.211 1.651 2.307 3.794 4.204 6.055 5.885 2.106 1.562 4.434 3.087 6.948 3.898l.268-1.971c-7.342-.796-15.072-3.713-18.62-10.66-.446-.871-1.95-.484-1.875.505.38 5.059 1.087 10.735 5.706 13.755 4.114 2.693 9.679 2.24 14.045.439 1.176-.484.663-2.433-.535-1.934h.007Z"/>
  <path fill="#000" d="M76.916 54.097c-4.553-2.96-8.8-6.613-12.156-10.89-3.25-4.145-5.215-8.995-4.136-14.306.595-2.931 1.956-5.654 3.883-7.938l-1.681-.446c.692 1.852 1.666 3.593 3.132 4.954 1.465 1.361 3.392 2.291 5.364 2.88 1.242.371 1.77-1.57.535-1.935-3.385-1.004-5.847-3.087-7.097-6.428-.238-.64-1.145-1.07-1.681-.446-3.675 4.352-5.535 10.058-4.479 15.72 1.057 5.66 5.327 10.607 9.485 14.476a57.769 57.769 0 0 0 7.804 6.1c1.086.706 2.098-1.034 1.012-1.734l.015-.007Z"/>
  <path fill="#000" d="M67.682 26.826c-.67 5.185 1.041 10.533 3.578 15.004 2.321 4.092 5.64 7.41 9.939 9.366 1.168.529 2.187-1.197 1.012-1.733-4.017-1.83-7.053-4.828-9.225-8.644-2.38-4.196-3.928-9.136-3.303-13.993.164-1.28-1.845-1.265-2.008 0h.007Z"/>
  <path fill="#000" d="M89.249 48.316c-5.245-2.016-8.95-6.547-11.762-11.233-1.532-2.552-3.065-5.267-4.002-8.102-1.012-3.057-.96-6.278-.216-9.388.863-3.585 2.5-6.91 4.322-10.095l-1.874-.506c-.067 4.218 1.926 8.34 5.267 10.921 3.809 2.946 8.756 3.184 13.375 3.214 5.089.03 10.237-.045 15.273.848 2.522.454 5.029 1.13 7.365 2.187 2.336 1.056 4.404 2.35 6.464 3.75 4.419 2.99 9.53 6.813 9.872 12.631.075 1.287 2.083 1.294 2.009 0-.298-4.984-3.556-8.89-7.343-11.843-3.786-2.953-8.168-5.825-12.855-7.41-4.686-1.584-9.894-2.008-14.908-2.127-5.014-.12-10.102.49-14.767-1.101-4.664-1.592-7.818-6.152-7.744-11.077.015-.997-1.376-1.361-1.874-.506-3.363 5.855-6.316 12.729-4.717 19.595.744 3.191 2.403 6.19 4.017 9.016 1.518 2.656 3.251 5.222 5.334 7.469 2.299 2.485 5.044 4.47 8.213 5.684 1.205.46 1.733-1.48.536-1.935l.015.008Z"/>
  <path fill="#000" d="M88.505 29.628c5.409 9.075 14.79 15.584 25.13 17.69a37.01 37.01 0 0 0 9.009.714c1.287-.06 1.294-2.068 0-2.009-10.058.462-20.078-3.57-27.175-10.682a34.351 34.351 0 0 1-5.223-6.718c-.662-1.108-2.395-.096-1.733 1.012l-.008-.008Z"/>
  <path fill="#000" d="M113.24 42.983c6.256 1.101 12.021 4.509 15.89 9.567.528.692 1.964.603 1.874-.506-.133-1.577.105-3.102.796-4.53h-1.733c.848 1.636 1.696 3.28 2.544 4.917.313.603 1.124.61 1.577.201l2.574-2.306-1.681-.447c.506 2.039.93 4.1 1.265 6.175.089.565.751.788 1.235.7.751-.142 1.205-.782 1.197-1.526-.014-1.294-2.023-1.294-2.008 0l.283-.409 1.234.7a75.279 75.279 0 0 0-1.264-6.175c-.194-.766-1.138-.93-1.682-.447l-2.573 2.307 1.577.2c-.848-1.636-1.696-3.28-2.545-4.917-.334-.64-1.413-.67-1.733 0-.841 1.748-1.227 3.608-1.064 5.55l1.875-.506c-4.181-5.475-10.281-9.291-17.088-10.49-1.264-.222-1.808 1.712-.535 1.935l-.015.007Z"/>
  <path fill="#000" d="M129.716 19.064c4.635 1.95 8.384 5.706 10.609 10.192 2.529 5.103 2.611 10.75 1.034 16.157-.99 3.4-2.507 6.599-4.174 9.716-.468.87.484 1.89 1.376 1.376.224-.126.447-.26.67-.387 1.123-.647.112-2.38-1.012-1.733-.223.127-.446.26-.669.387l1.376 1.376c3.102-5.817 5.87-12.245 5.52-18.977-.283-5.498-2.693-10.78-6.472-14.744-2.18-2.292-4.806-4.062-7.715-5.29-1.19-.498-1.711 1.444-.535 1.934l-.008-.007Z"/>
  <path fill="#000" d="M105.725 21.503c-4.091-.654-7.99-2.097-11.568-4.173-1.547-.9-3.094-1.89-4.352-3.005l-1.22 1.577c4.553 1.949 9.247 3.161 14.179 3.6 4.933.44 9.389.15 14.083.276 5.006.14 10.072 1.004 14.38 3.704 3.861 2.418 6.531 6.636 7.796 10.95 1.756 6.019-.141 11.926-2.663 17.423-.536 1.168 1.198 2.187 1.733 1.012 2.358-5.133 4.337-10.668 3.444-16.396-.721-4.62-3.035-9.158-6.382-12.423-7.573-7.38-18.658-6.078-28.306-6.339-5.974-.163-11.725-1.19-17.245-3.548-.952-.41-2.15.751-1.22 1.577 4.583 4.054 10.817 6.74 16.813 7.7 1.265.2 1.808-1.734.536-1.935h-.008Z"/>
  <path fill="#000" d="M129.933 18.701c5.549 1.6 11.657 3.489 15.243 8.354 3.712 5.037 2.388 11.278-.484 16.374-1.711 3.035-3.846 5.795-5.788 8.674-.721 1.078 1.012 2.083 1.734 1.011 3.682-5.467 8.131-10.771 8.808-17.586.617-6.248-3.05-11.5-8.258-14.603-3.318-1.971-7.045-3.11-10.727-4.173-1.242-.357-1.778 1.577-.536 1.934l.008.015Zm15.963 43.419c2.344-.438 4.665-1.033 7.03-1.338 2.656-.342 5.379.186 7.99.662 1.994.364 3.958.84 5.899 1.406 2.701.781 5.319 1.086 8.131 1.138l-.267-1.971a37.985 37.985 0 0 1-16.188 1.92c-1.138-.112-1.346 1.695-.268 1.97a33.178 33.178 0 0 0 16.247.023l-.773-1.838c-5.022 2.373-10.289 4.717-15.987 3.906-4.657-.662-8.897-3.192-11.226-7.35-.632-1.13-2.366-.12-1.733 1.012 2.566 4.582 7.275 7.506 12.423 8.272 6.286.93 11.97-1.473 17.534-4.106 1.057-.499.298-2.106-.773-1.838a31.035 31.035 0 0 1-15.184-.022l-.267 1.971a39.512 39.512 0 0 0 16.723-1.986c1.049-.365.907-1.95-.268-1.971-1.897-.038-3.816-.06-5.661-.521-.752-.186-1.488-.424-2.232-.633a58.913 58.913 0 0 0-6.398-1.458c-2.737-.46-5.467-.907-8.227-.528-2.381.328-4.709.908-7.06 1.347-1.272.238-.729 2.172.535 1.934Z"/>
  <path fill="#000" d="M147.392 65.976c1.28 2.053 2.626 4.136 4.583 5.602 2.172 1.629 4.984 1.993 7.618 2.239 5.155.49 11.181-.216 15.436-3.422 2.046-1.54 3.124-4.635.684-6.383-1.049-.751-2.053.99-1.011 1.734 1.101.788.029 2.313-.677 2.9-1.042.864-2.388 1.474-3.646 1.942-2.544.953-5.252 1.362-7.967 1.354-1.376 0-2.752-.096-4.106-.282-1.354-.186-2.887-.417-4.159-1.072-2.284-1.182-3.712-3.51-5.021-5.631-.685-1.094-2.418-.09-1.734 1.012v.007Z"/>
  <path fill="#000" d="M169.874 76.895a453.433 453.433 0 0 0-20.004-2.782c-.989-.112-1.368 1.443-.505 1.874a335.284 335.284 0 0 0 27.562 12.163c.863.335 1.517-.773 1.131-1.473a17.838 17.838 0 0 0-3.564-4.567l-.446 1.681c1.465-.513 2.931-1.026 4.396-1.547.871-.305 1.034-1.704 0-1.934-1.807-.41-3.622-.819-5.43-1.228l.446 1.681c1.659-1.458 3.318-2.908 4.97-4.366.825-.722-.082-1.83-.975-1.682-2.388.41-4.783.707-7.194.9l.707 1.712a15.667 15.667 0 0 0 3.794-7c.305-1.258-1.629-1.794-1.934-.536-.566 2.306-1.659 4.374-3.281 6.115-.55.587-.201 1.785.707 1.71a84.374 84.374 0 0 0 7.729-.974l-.974-1.681c-1.659 1.458-3.318 2.909-4.97 4.367-.558.49-.268 1.517.447 1.68 1.807.41 3.623.82 5.43 1.228v-1.934c-1.465.513-2.931 1.027-4.396 1.547-.677.239-1.034 1.131-.447 1.682a16.189 16.189 0 0 1 3.251 4.158l1.131-1.473a329.99 329.99 0 0 1-27.079-11.954l-.506 1.874c6.51.759 13.004 1.66 19.476 2.708 1.265.208 1.808-1.733.536-1.934l-.008-.015Zm-20.019-40.951c3.102-.789 6.442-1.473 9.656-1.377 1.466.045 2.589.514 3.288 1.853.699 1.339 1.094 2.886 1.428 4.337.737 3.191 1.005 6.48 1.228 9.738.223 3.258.32 6.836.283 10.25-.015 1.295 1.993 1.295 2.008 0 .045-3.786-.074-7.572-.364-11.351-.29-3.78-.625-7.335-1.659-10.854-.439-1.488-.945-3.14-1.994-4.322-.982-1.101-2.366-1.54-3.794-1.644-1.674-.127-3.4.119-5.051.342a50.173 50.173 0 0 0-5.557 1.079c-1.25.32-.722 2.254.535 1.934l-.007.015Z"/>
  <path fill="#000" d="M167.463 60.91c1.555-.06 3.11-.112 4.665-.172l-.506-1.875a23.753 23.753 0 0 1-2.515 1.578c-.461.252-.647.93-.357 1.376.305.468.878.625 1.377.357a22.67 22.67 0 0 0 2.514-1.577c.35-.253.61-.685.461-1.131-.134-.41-.513-.751-.967-.736-1.555.059-3.109.111-4.664.17-.521.023-1.027.447-1.004 1.005.022.528.438 1.026 1.004 1.004h-.008Zm-.821-17.58c1.049-.416 2.106-.833 3.155-1.25l-1.131-1.472a12.26 12.26 0 0 1-1.295 2.216c-.029.038-.052.075-.081.112-.112.149.089-.104.007-.008a5.169 5.169 0 0 0-.193.246c-.134.164-.268.32-.417.469-.298.327-.617.632-.952.915-.394.342-.38 1.07 0 1.42.424.387.997.372 1.421 0a12.655 12.655 0 0 0 3.243-4.359c.171-.38.186-.766-.082-1.116-.223-.29-.684-.505-1.056-.357-1.049.417-2.105.834-3.154 1.25-.253.097-.462.216-.603.461-.126.216-.178.536-.104.774.156.469.714.907 1.235.7h.007Zm.189 8.386 2.5-.9c.253-.09.461-.223.602-.461.127-.216.179-.536.104-.774-.074-.238-.23-.476-.461-.603-.23-.126-.52-.193-.773-.104l-2.5.9c-.253.09-.461.224-.603.462-.126.216-.178.535-.104.773.075.239.231.477.462.603.23.126.52.193.773.104ZM51.419 33.408c-2.18-.7-4.479-.968-6.748-1.16-1.495-.127-2.99-.053-4.292.765-2.946 1.845-3.63 6.019-4.278 9.128-1.844 8.853-2.417 17.869-1.182 26.848.67 4.85 1.822 9.611 3.22 14.29.373 1.236 2.307.707 1.935-.535-2.284-7.64-3.831-15.459-3.846-23.463-.008-4.292.38-8.577 1.086-12.803.372-2.217.788-4.448 1.354-6.62.38-1.451.826-3.014 1.763-4.219.855-1.108 2.068-1.502 3.437-1.443 2.35.104 4.776.424 7.023 1.146 1.234.394 1.763-1.54.535-1.934h-.007Z"/>
  <path fill="#000" d="M38.172 82.7c-1.607 2.09-2.328 4.657-2.842 7.202-.61 3.027-1.078 6.092-1.48 9.157-.826 6.286-1.302 12.602-1.778 18.925l1.971-.267a84.74 84.74 0 0 1-2.157-24.103c.067-1.295-1.942-1.287-2.009 0a86.811 86.811 0 0 0 2.232 24.631c.275 1.153 1.89.811 1.971-.268.454-6.078.915-12.156 1.69-18.196.386-3.028.855-6.056 1.442-9.046.491-2.492 1.124-4.97 2.7-7.015.79-1.027-.959-2.024-1.733-1.012l-.007-.007Z"/>
  <path fill="#000" d="M32.345 76.903c-.684 3.645.863 7.416 3.928 9.514.446.305 1.116.082 1.376-.357.29-.498.09-1.064-.357-1.376-2.291-1.57-3.504-4.59-3.005-7.246.096-.535-.149-1.086-.7-1.235-.49-.134-1.13.164-1.234.7h-.008Z"/>
  <path fill="#000" d="M34.197 67.137c-1.555 2.254-3.385 4.471-4.657 6.896-1.093 2.076-1.354 4.508-1.056 6.814.55 4.352 3.124 8.325 6.918 10.55 1.116.654 2.128-1.08 1.012-1.734-3.325-1.95-5.617-5.513-5.981-9.359-.2-2.09.134-4.158 1.25-5.958 1.316-2.128 2.834-4.144 4.255-6.197.736-1.064-1.004-2.068-1.733-1.012h-.008Z"/>
  <path fill="#000" d="M29.443 84.864a84.74 84.74 0 0 1-.074 11.166c-.164 2.216-.417 4.017-1.183 6.152a35.053 35.053 0 0 1-2.931 6.212c-1.041 1.718-2.321 3.6-4.173 4.523-1.16.572-.142 2.306 1.011 1.733 3.192-1.585 5.186-5.416 6.621-8.503.76-1.637 1.444-3.325 1.942-5.059.543-1.874.647-3.838.774-5.78.23-3.474.23-6.963.022-10.445-.075-1.286-2.083-1.294-2.009 0Zm129.541-5.624a55.203 55.203 0 0 0-7.053-1.294c-.863-.104-1.324 1.168-.707 1.71 7.135 6.376 15.764 10.936 25.063 13.19 1.257.305 1.793-1.629.536-1.934a56.27 56.27 0 0 1-24.178-12.676l-.706 1.71a51 51 0 0 1 6.516 1.22c1.25.32 1.786-1.62.536-1.933l-.007.007Zm11.418 18.887a334.684 334.684 0 0 0 5.245 20.094c1.517 5.14 3.161 10.809 7.878 13.941l.506-1.875a9.118 9.118 0 0 1-5.438-2.12c-.982-.826-2.411.587-1.421 1.421 1.956 1.651 4.292 2.588 6.859 2.707 1.056.052 1.287-1.353.506-1.874-4.501-2.983-5.848-8.92-7.261-13.778a335.687 335.687 0 0 1-4.94-19.051c-.29-1.257-2.224-.73-1.934.535Z"/>
  <path fill="#000" d="M166.724 88.808c-.714 9.62-.565 19.268-1.272 28.887-.089 1.175 1.637 1.302 1.971.267 1.064-3.288 2.269-6.546 3.184-9.879.915-3.332 1.414-6.769 1.764-10.221.126-1.287-1.883-1.28-2.009 0-.335 3.348-.841 6.658-1.748 9.901-.908 3.244-2.083 6.443-3.125 9.664l1.972.268c.714-9.619.565-19.268 1.272-28.886.096-1.287-1.912-1.287-2.009 0Zm5.635 2.885c2.336 3.556 4.679 7.112 7.015 10.668l1.577-1.22c-1.696-1.399-3.839-2.001-5.803-2.916-.803-.372-1.659.238-1.473 1.13.93 4.494 1.882 9.136.685 13.666-.328 1.25 1.607 1.786 1.934.536 1.287-4.895.312-9.887-.684-14.737l-1.473 1.13c1.77.819 3.868 1.34 5.393 2.604.818.677 2.254-.193 1.577-1.22-2.336-3.556-4.679-7.112-7.015-10.667-.707-1.08-2.448-.067-1.733 1.011v.015ZM34.71 53.359c-5.274 3.943-12.23 5.096-18.486 3.013-1.026-.343-1.577.974-.974 1.681 4.448 5.207 11.784 4.709 17.906 3.876l-.536-1.934c-2.41.729-4.85 1.413-7.372 1.554-3.005.164-5.944-.386-8.838-1.168-.952-.252-1.71.975-.974 1.682 5.058 4.835 12.572 6.695 19.297 4.716 1.235-.364.714-2.299-.535-1.934-6.041 1.77-12.788.149-17.341-4.203l-.975 1.681c3.05.818 6.205 1.413 9.374 1.235 2.707-.149 5.326-.84 7.907-1.63 1.273-.386.707-2.104-.535-1.933-5.43.744-12.007 1.264-15.95-3.363l-.974 1.681c6.702 2.232 14.372 1.012 20.033-3.22 1.027-.767.023-2.508-1.011-1.734h-.015Zm-4.823 48.862c-2.41 4.976-3.838 10.154-4.753 15.599-.432 2.589-.953 5.186-2.255 7.499a15.255 15.255 0 0 1-4.813 5.193c-.766.513-.558 1.941.506 1.874 2.537-.163 4.955-1.004 6.993-2.544 1.02-.766.022-2.514-1.012-1.733-1.755 1.324-3.779 2.127-5.973 2.269l.506 1.874c4.418-2.96 6.806-7.402 7.759-12.549.52-2.812.93-5.617 1.703-8.377a48.59 48.59 0 0 1 3.08-8.086c.558-1.161-1.168-2.18-1.733-1.012l-.008-.007Z"/>
  <path fill="#000" d="M25.857 133.799a8.009 8.009 0 0 1-1.258-.022c-.052 0-.104-.015-.156-.015.194.03-.126-.015 0 0-.104-.015-.2-.037-.305-.052a9.415 9.415 0 0 1-.64-.156c-.2-.06-.387-.134-.58-.201-.134-.045.156.074.03.015-.045-.023-.097-.045-.142-.067-.104-.052-.208-.097-.305-.156a4.607 4.607 0 0 1-.513-.32c-.022-.015-.2-.142-.082-.052a6.64 6.64 0 0 1-.298-.261l-.706 1.711c1.666-.141 3.355-.521 4.724-1.525.424-.312.677-.885.357-1.376-.268-.417-.922-.692-1.376-.357-.29.216-.603.409-.923.565-.074.037-.149.067-.223.104-.104.045-.097.045.015 0l-.112.045a6.13 6.13 0 0 1-.506.179 9.602 9.602 0 0 1-1.048.252l-.246.045c-.037 0-.312.06-.067.008-.193.037-.394.044-.588.059-.409.037-.75.223-.915.618-.148.357-.089.818.209 1.093 1.495 1.414 3.645 2.001 5.676 1.882.52-.03 1.026-.439 1.004-1.004-.022-.521-.446-1.042-1.004-1.004l-.023-.008Zm151.522-.559c1.369.216 2.753.395 4.129.514l-.506-1.875a37.042 37.042 0 0 1-2.403 1.146l-.156.067c.097-.045.119-.052.052-.023l-.535.224c-.372.148-.752.29-1.124.424-.491.178-.877.691-.699 1.234.156.484.707.893 1.235.7a36.76 36.76 0 0 0 4.649-2.039c.38-.193.596-.729.462-1.13-.149-.447-.506-.7-.967-.737a40.522 40.522 0 0 1-1.897-.201c-.142-.015-.283-.037-.432-.052-.29-.037.208.03-.074-.007-.09-.015-.171-.023-.261-.037-.312-.045-.625-.09-.944-.142-.276-.044-.521-.044-.774.104-.208.119-.409.358-.461.603-.112.484.148 1.146.699 1.235l.007-.008Zm-87.901 24.766c3.437 1.859 7.588 2.269 11.426 2.343 4.337.082 8.473-.625 12.625-1.838 1.234-.364.714-2.298-.536-1.934-3.898 1.138-7.744 1.823-11.821 1.771-3.563-.045-7.499-.35-10.69-2.076-1.138-.617-2.15 1.116-1.012 1.734h.008Zm-65.224-20.465c4.56 7.789 11.159 14.536 17.951 20.383 10.712 9.217 22.935 16.233 36.132 21.232 3.623 1.368 7.298 2.626 10.802 4.299 3.504 1.674 6.502 3.4 8.92 6.368.818 1.005 2.231-.424 1.42-1.421-4.129-5.066-10.608-7.431-16.552-9.663-7.194-2.7-14.246-5.542-20.949-9.344-10.482-5.936-20.13-13.502-28.18-22.481-2.886-3.221-5.623-6.643-7.818-10.385-.654-1.115-2.388-.104-1.733 1.012h.007Zm151.756-1.012c-4.501 7.678-11.025 14.298-17.735 20.064a113.972 113.972 0 0 1-15.585 11.24c-6.524 3.928-13.398 7.067-20.525 9.746-3.511 1.316-7.067 2.559-10.444 4.195-3.378 1.637-6.13 3.75-8.459 6.628-.803.997.603 2.426 1.421 1.421a22.385 22.385 0 0 1 7.499-6.04c2.961-1.488 6.137-2.634 9.262-3.794 7.134-2.663 14.075-5.646 20.673-9.478 10.318-5.988 19.855-13.561 27.785-22.488 2.894-3.259 5.647-6.71 7.849-10.482.654-1.116-1.079-2.127-1.734-1.012h-.007Z"/>
  <path fill="#000" d="M83.037 159.525c3.191-.424 6.338-1.124 9.455-1.927 2.953-.759 5.981-1.555 8.749-2.872 1.086-.52 1.368-2.075.803-3.05-.655-1.115-1.964-1.316-3.05-.803-.12.06-.246.112-.365.171-.364.179.328-.111.052-.022-.29.096-.572.223-.855.327-.603.223-1.213.424-1.83.618-1.547.491-3.11.922-4.68 1.324-1.569.401-3.146.773-4.73 1.108a72.04 72.04 0 0 1-2.12.417l-.901.156c-.2.03-1.198.171-.52.082-1.198.156-2.233.915-2.233 2.232 0 1.086 1.027 2.388 2.232 2.231l-.007.008Z"/>
  <path fill="#000" d="M120.709 155.06c-.536-.067.528.09-.037 0a53.699 53.699 0 0 1-.424-.067c-.342-.052-.677-.111-1.019-.171a68.863 68.863 0 0 1-2.076-.394 113.884 113.884 0 0 1-4.984-1.131 95.482 95.482 0 0 1-4.717-1.294 45.58 45.58 0 0 1-1.986-.647c-.268-.097-.535-.201-.811-.298-.111-.045-.61-.275-.037-.007-.126-.06-.253-.112-.379-.172-1.094-.505-2.403-.312-3.05.804-.566.96-.298 2.544.803 3.05 2.857 1.317 5.951 2.113 8.994 2.871 3.206.796 6.442 1.503 9.723 1.927 1.198.156 2.232-1.138 2.232-2.232 0-1.331-1.034-2.075-2.232-2.231v-.008Z"/>
  <path fill="#000" d="m103.068 153.029 6.963-8.927s3.095-5.951-1.547-8.183c0 0-.774-1.488-6.963-1.488h-.536c-6.19 0-6.963 1.488-6.963 1.488-4.642 2.232-1.547 8.183-1.547 8.183l6.963 8.927"/>
  <path fill="#fff" d="M99.81 137.764a2.418 2.418 0 0 0-.17-.439c-.09-.209-.231-.38-.38-.551a1.543 1.543 0 0 0-.156-.156 2.582 2.582 0 0 0-.394-.29c-.305-.179-.588-.238-.93-.283-.164-.022-.328 0-.484.023-.022 0-.037-.015-.06-.023-.275-.059-.624-.059-.862.112-.12.089-.253.178-.357.283-.112.104-.201.23-.29.357-.127.178-.209.386-.29.587-.075.201-.097.432-.12.647-.022.224.015.439.045.655.037.216.127.417.216.618.089.193.23.372.38.528.14.149.312.282.498.379.185.097.386.186.595.216.424.074.863.082 1.272-.067a2.69 2.69 0 0 0 .573-.275c.223-.164.379-.298.543-.514.29-.372.476-.863.431-1.339-.015-.156-.03-.32-.067-.468h.008Z"/>
  <path fill="#000" d="M156.327 88.822a13.69 13.69 0 0 0 10.423 5.676c1.294.06 1.287-1.949 0-2.008-3.392-.157-6.695-1.92-8.689-4.68-.32-.439-.871-.654-1.376-.357-.432.253-.677.93-.358 1.376v-.007Zm-86.575 36.31s-12.275-.372-12.275-7.067 8.927-6.695 15.25-5.579c5.178.915 9.671 2.975 9.671 5.951 0 4.464-3.72 6.695-12.646 6.695Zm63.052 0s12.461-.372 12.461-7.067-9.061-6.695-15.481-5.579c-5.26.915-9.812 2.975-9.812 5.951 0 4.464 3.771 6.695 12.832 6.695Z"/>
  <path fill="#fff" d="M65.954 114.456a.845.845 0 0 0-.201-.379.967.967 0 0 0-.312-.29l-.268-.112c-.045-.015-.09-.015-.134-.015a.85.85 0 0 0-.424-.097.94.94 0 0 0-.432.097c-.03.008-.06.03-.096.045-.082.03-.164.067-.246.104a1.46 1.46 0 0 0-.498.498 1.344 1.344 0 0 0-.134 1.049c.03.09.082.238.149.328a1.36 1.36 0 0 0 .498.476c.06.029.223.111.327.134.112.022.216.037.328.044h.081c.09-.007.216-.022.305-.044h.023c.119-.03.23-.082.335-.134.007 0 .022-.015.03-.023.044-.029.089-.067.126-.096.037-.03.09-.067.126-.097.008-.007.023-.015.03-.03.075-.082.141-.171.2-.26.068-.097.12-.253.157-.342a.373.373 0 0 0 .03-.097c.022-.127.052-.26.045-.387 0-.126-.023-.26-.052-.387l.007.015Zm65.468 0a.851.851 0 0 0-.201-.379.966.966 0 0 0-.313-.29l-.267-.112c-.045-.015-.09-.015-.134-.015a.852.852 0 0 0-.424-.097.941.941 0 0 0-.432.097c-.03.008-.059.03-.097.045-.081.03-.163.067-.245.104a1.456 1.456 0 0 0-.498.498 1.33 1.33 0 0 0-.186.692c0 .119.014.246.052.357.029.09.081.238.148.328.045.067.134.2.216.267.067.06.186.164.283.209.059.029.223.111.327.134.112.022.216.037.327.044h.082c.09-.007.216-.022.305-.044h.023c.119-.03.23-.082.334-.134.008 0 .023-.015.03-.023.045-.029.089-.067.127-.096.037-.03.089-.067.126-.097.008-.007.022-.015.03-.03.074-.082.141-.171.201-.26.067-.097.119-.253.156-.342a.394.394 0 0 0 .03-.097c.022-.127.052-.26.044-.387 0-.126-.022-.26-.052-.387l.008.015Zm-75.433-10.524s4.463-1.488 14.112 4.642c.759.483 1.503.974 2.343 1.309 2.425.952 7.142 2.023 10.333-2.232 0 0 3.72-6.695-5.951-9.67-9.671-2.976-18.598 3.719-20.83 5.951h-.007Zm82.991-7.226s-4.672-.558-12.884 7.387c-.648.625-1.28 1.257-2.031 1.748-2.188 1.421-6.584 3.414-10.571-.112 0 0-4.992-5.81 3.89-10.667 8.875-4.858 18.963-.09 21.604 1.644h-.008Z"/>
  <path fill="#000" d="M102.201 187.972c-.372-.684-.9-1.242-1.525-1.703-.201-.142-.551-.164-.774-.105-.23.067-.484.246-.603.462-.126.23-.186.513-.104.773.082.253.23.424.447.581-.023-.015-.045-.038-.075-.053.223.179.424.38.61.603.156.216.283.439.395.677.096.253.171.506.215.774 0 .067.015.134.015.208.022.521.447 1.027 1.004 1.004.521-.022 1.027-.439 1.005-1.004a5.123 5.123 0 0 0-.61-2.217Z"/>
  <path fill="#E6E6E6" d="M105.368 167.587c-.469-.603-1.384-.848-2.106-1.004a7.249 7.249 0 0 0-1.45-.164.937.937 0 0 0-.409-.089c-.804 0-1.63.126-2.373.409-.44.163-.856.379-1.109.796-.26.439-.29 1.011-.022 1.45.26.424.692.581 1.13.744.38.142.76.276 1.146.387.759.231 1.555.394 2.344.417.758.022 1.673-.067 2.321-.506.788-.536 1.145-1.644.52-2.448l.008.008Z"/>
  <defs>
    <linearGradient id="c" x1="98.494" x2="98.494" y1="57.57" y2="10.942" gradientUnits="userSpaceOnUse">
      <stop stop-color="#534741"/>
      <stop offset=".31" stop-color="#554943"/>
      <stop offset=".53" stop-color="#5F534A"/>
      <stop offset=".72" stop-color="#6E6256"/>
      <stop offset=".9" stop-color="#847967"/>
      <stop offset="1" stop-color="#958A74"/>
    </linearGradient>
    <linearGradient id="d" x1="28.091" x2="28.091" y1="115.832" y2="54.087" gradientUnits="userSpaceOnUse">
      <stop stop-color="#664A13"/>
      <stop offset=".27" stop-color="#674B15"/>
      <stop offset=".46" stop-color="#6B521F"/>
      <stop offset=".63" stop-color="#735C2E"/>
      <stop offset=".78" stop-color="#7E6B45"/>
      <stop offset=".92" stop-color="#8C7D61"/>
      <stop offset="1" stop-color="#958A74"/>
    </linearGradient>
    <linearGradient id="e" x1="162.366" x2="162.366" y1="118.808" y2="59.979" gradientUnits="userSpaceOnUse">
      <stop stop-color="#534741"/>
      <stop offset=".57" stop-color="#544842"/>
      <stop offset=".77" stop-color="#5B4E46"/>
      <stop offset=".91" stop-color="#67584F"/>
      <stop offset="1" stop-color="#736357"/>
    </linearGradient>
    <radialGradient id="a" cx="0" cy="0" r="1" gradientTransform="matrix(74.8308 0 0 74.8303 100.621 102.073)" gradientUnits="userSpaceOnUse">
      <stop stop-color="#FBF5CB"/>
      <stop offset=".06" stop-color="#FBEEC1"/>
      <stop offset=".35" stop-color="#FBD497"/>
      <stop offset=".62" stop-color="#FBC079"/>
      <stop offset=".84" stop-color="#FBB566"/>
      <stop offset="1" stop-color="#FCB160"/>
    </radialGradient>
    <radialGradient id="b" cx="0" cy="0" r="1" gradientTransform="matrix(58.048 0 0 58.0476 101.172 156.004)" gradientUnits="userSpaceOnUse">
      <stop stop-color="#fff"/>
      <stop offset=".48" stop-color="#FCFCFC"/>
      <stop offset=".76" stop-color="#F4F4F4"/>
      <stop offset=".99" stop-color="#E6E6E6"/>
      <stop offset="1" stop-color="#E6E6E6"/>
    </radialGradient>
  </defs>
</svg>
