<svg xmlns="http://www.w3.org/2000/svg" width="200" height="200" fill="currentColor" viewBox="0 0 200 200">
  <g clip-path="url(#a)">
    <mask id="b" width="200" height="200" x="0" y="0" maskUnits="userSpaceOnUse" style="mask-type:luminance">
      <path fill="#fff" d="M200 0H0v200h200V0Z"/>
    </mask>
    <g mask="url(#b)">
      <path fill="#0B53BF" d="M100 200c55.229 0 100-44.771 100-100C200 44.772 155.229 0 100 0 44.772 0 0 44.772 0 100c0 55.229 44.772 100 100 100Z"/>
      <path fill="#fff" stroke="#0B53BF" stroke-miterlimit="10" stroke-width=".03" d="M121.25 123.813c-4.375 1.75-9.125 2.75-13.687 2.75-9.036 0-17.555-3.848-21.626-13.125h19.876l3.875-9.375H83.624a42.792 42.792 0 0 1-.186-4.062c0-1.418.063-2.771.186-4.063H113l3.875-9.374H85.937c4.071-9.277 12.59-13.125 21.626-13.125 4.562 0 9.312 1 13.687 2.75l4-9.5c-5.375-2.813-11.437-4.188-17.5-4.188-14.632 0-29.424 8.18-34.778 24.063h-9.597v9.375h7.674a46.903 46.903 0 0 0-.174 4.062c0 1.392.06 2.746.174 4.062h-7.674v9.375h9.597c5.354 15.882 20.146 24.063 34.778 24.063 6.063 0 12.125-1.375 17.5-4.188l-4-9.5Z"/>
      <path fill="#fff" stroke="#0B53BF" stroke-miterlimit="10" stroke-width=".03" d="M37.5 100.001c0-28.313 18.813-52.188 44.5-59.938V27.188c-32.75 8-57 37.563-57 72.813s24.25 64.812 57 72.812v-12.875c-25.688-7.687-44.5-31.625-44.5-59.937ZM118 27.188v12.875c25.687 7.75 44.5 31.625 44.5 59.938 0 28.312-18.813 52.187-44.5 59.937v12.875c32.75-8 57-37.562 57-72.812s-24.25-64.813-57-72.813Z"/>
    </g>
  </g>
  <defs>
    <clipPath id="a">
      <path fill="#fff" d="M0 0h200v200H0z"/>
    </clipPath>
  </defs>
</svg>
