<svg xmlns="http://www.w3.org/2000/svg" width="200" height="165" fill="currentColor" viewBox="0 0 200 165">
  <path fill="#009393" fill-rule="evenodd" d="M43.558 0h115.198a7.68 7.68 0 0 1 6.658 3.852l33.562 58.339a7.683 7.683 0 0 1-1.259 9.297l-92.38 91.294a7.682 7.682 0 0 1-10.799 0L2.283 71.612a7.685 7.685 0 0 1-1.148-9.485L37.01 3.664A7.682 7.682 0 0 1 43.558 0Zm100.324 26.046v16.37h-32.816v11.349c23.048 1.213 40.339 6.194 40.467 12.164v12.447c-.129 5.97-17.419 10.952-40.467 12.165v27.852h-21.79V90.541C66.23 89.328 48.938 84.347 48.81 78.376V65.93c.128-5.97 17.419-10.951 40.466-12.164v-11.35H56.461V26.047h87.421ZM100.171 81.99c24.596 0 45.154-4.212 50.184-9.837-4.266-4.77-19.698-8.524-39.289-9.555V74.48c-3.511.184-7.156.282-10.895.282a207.7 207.7 0 0 1-10.895-.282V62.598c-19.59 1.03-35.023 4.785-39.289 9.555 5.031 5.625 25.589 9.837 50.184 9.837Z" clip-rule="evenodd"/>
</svg>
