<svg xmlns="http://www.w3.org/2000/svg" width="200" height="200" fill="currentColor" viewBox="0 0 200 200">
  <g clip-path="url(#a)">
    <path fill="#C4FF61" d="M200 100C200 44.772 155.228 0 100 0S0 44.772 0 100s44.772 100 100 100 100-44.772 100-100Z"/>
    <path fill="#000" fill-opacity=".4" d="M99.707 40.503v41.826l39.439 22.123-39.439-63.95Zm1.166 90.631v30.011l38.295-52.064-38.295 22.053Z"/>
    <path fill="#000" d="M99.531 81.978v43.764l39.828-21.289-39.828-22.475Z"/>
    <path fill="#000" d="M99.901 40.503v41.826l-39.827 22.123 39.828-63.95Zm-1.554 90.631v30.011l-38.295-52.064 38.295 22.053Z"/>
    <path fill="#000" fill-opacity=".4" d="M99.688 81.978v43.764L59.86 104.453l39.828-22.475Z"/>
  </g>
  <defs>
    <clipPath id="a">
      <path fill="#fff" d="M0 0h200v200H0z"/>
    </clipPath>
  </defs>
</svg>
