<svg xmlns="http://www.w3.org/2000/svg" width="200" height="200" fill="currentColor" viewBox="0 0 200 200">
  <g clip-path="url(#a)">
    <mask id="b" width="200" height="200" x="0" y="0" maskUnits="userSpaceOnUse" style="mask-type:luminance">
      <path fill="#fff" d="M200 0H0v200h200V0Z"/>
    </mask>
    <g mask="url(#b)">
      <path fill="url(#c)" d="M200 100C200 44.772 155.228 0 100 0S0 44.772 0 100s44.772 100 100 100 100-44.772 100-100Z"/>
      <path fill="#fff" d="M169.28 58.555a3.62 3.62 0 0 0-5.012-1.279l-93.062 56.522a31.423 31.423 0 0 1-3.715-14.87c0-17.453 14.165-31.602 31.64-31.602a31.529 31.529 0 0 1 19.816 6.973L99.149 87.874 150.6 58.203a2.31 2.31 0 0 0 .847-3.16 2.318 2.318 0 0 0-3.318-.75l-12.599 8.639c-9.284-9.367-22.16-15.17-36.399-15.17-28.293 0-51.228 22.908-51.228 51.167a50.9 50.9 0 0 0 6.548 25.045L28.358 139.82l26.79-14.648c8.946 14.928 25.294 24.924 43.983 24.924 28.293 0 51.228-22.908 51.228-51.167v-6.11c0-4.787 1.944-10.91 8.835-14.597a1.185 1.185 0 1 0-1.148-2.071l-61.09 35.229c6.819-2.895 12.031-4.656 18.942-6.042 14.394-2.888 14.76 3.966 9.202 11.697-3.723 5.177-12.132 13.491-25.963 13.491-11.28 0-21.175-5.893-26.78-14.766l95.528-52.23a3.61 3.61 0 0 0 1.395-4.975Z"/>
    </g>
  </g>
  <defs>
    <linearGradient id="c" x1="19.973" x2="147.266" y1="200" y2="0" gradientUnits="userSpaceOnUse">
      <stop offset=".023" stop-color="#E57536"/>
      <stop offset=".605"/>
    </linearGradient>
    <clipPath id="a">
      <path fill="#fff" d="M0 0h200v200H0z"/>
    </clipPath>
  </defs>
</svg>
