<svg xmlns="http://www.w3.org/2000/svg" width="200" height="200" fill="currentColor" viewBox="0 0 200 200">
  <path fill="#F1EFED" d="M200 100C200 44.772 155.228 0 100 0S0 44.772 0 100s44.772 100 100 100 100-44.772 100-100Z"/>
  <path fill="#473E5C" d="M124.435 65.588c-2.175 2.367-7.247 2.344-9.422.214-2.173-2.13-2.898-6.254 0-8.858 2.9-2.604 7.247-1.654 9.422.24 2.174 1.893 2.174 6.037 0 8.404Z"/>
  <path fill="#473E5C" d="M101.607 48.672c-2.373 2.835-3.294 4.487-5.085 9.006-2.321 5.857-4.408 12.325-5.256 16.328-.848 4.003.841 7.44 4.69 9.785 4.072 2.48 8.461 4.41 14.394 6.578 5.934 2.169 10.191 5.26 11.548 8.428 1.356 3.17 1.047 9.272-2.004 15.11-3.052 5.838-7.304 11.262-14.764 16.6-7.459 5.337-12.554 6.607-19.93 8.274-7.376 1.668-4.954 5.778-2.41 6.612 2.542.834 8.136 1.668 15.596 1.334 7.46-.333 14.909-2.168 23.724-6.505 8.816-4.336 17.462-11.842 22.048-21.85 4.587-10.007 6.416-24.127 1.102-33.025-3.089-5.17-4.671-6.415-5.688-9.673-1.017-3.259-.366-5.742 1.529-8.007 1.092-1.305 3.534-2.62 5.771-4.192 1.763-1.239 3.889-2.48 5.415-3.48 1.525-1 2.044-1.524 1.026-2.19l-.036-.025c-1.029-.675-3.057-2.005-6.585-3.29-3.57-1.298-4.242-1.477-5.591-1.583-1.35-.106-3.045 1.061-5.757 3.063-2.713 2.001-3.899 2.392-4.069 4.67-.17 2.278-.848 5.17-2.712 7.672-1.865 2.502-4.365 3.772-7.712 4.103-3.347.33-7.874-.682-10.099-3.246-2.225-2.565-3.122-4.028-3.122-7.665 0-3.636 1.437-6.202 3.347-8.036 1.91-1.835 1.819-2.502 1.819-3.336 0-.834-.443-3.67-.815-4.993-.371-1.323-1.704-1.531-3.879-.835-2.279.729-4.121 1.532-6.495 4.368Z"/>
  <path fill="#473E5C" d="M67.993 118.275c-1.098.283-1.869 2.12-4.025 5.794-2.157 3.674-4.18 6.359-8.04 10.457-3.86 4.098-6.286 5.793-12.427 9.467l-.158.095c-6.014 3.598-7.782 4.656-8.2 5.744-.42 1.098-.173 2.544 4.342 3.222 4.514.678 8.277.831 14.798-3.55 6.522-4.38 11.646-8.619 18.403-11.728 6.757-3.109 8.872-2.914 16.44-5.087 7.57-2.174 14.469-6.439 19.23-11.623 4.761-5.183 7.141-10.408 8.106-13.376.964-2.968 1.101-6.924-1.474-8.903-2.461-1.89-3.79-2.458-9.221-4.437-5.776-2.104-7.693-2.631-11.949-5.93-4.01-3.107-3.772-3.85-6.291-4.18-2.52-.33-4.43 3.345-5.28 5.184-.64 1.384-.75 3.827.945 6.127 1.694 2.3 3.269 4.831 7.909 7.401 4.64 2.569 6.802 2.981 9.965 3.494 3.164.514 4.399 1.244 3.549 2.708-.85 1.463-2.551 2.174-5.442 2.174-2.89 0-6.972-1.297-11.053-3.638-2.878-1.65-4.931-3.511-6.431-5.351-1.458-1.787-2.333-2.047-3.685-2.047-1.352 0-2.464.836-4.08 3.177-1.618 2.341-2.808 4.877-2.978 6.25-.17 1.374-.323 2.905 2.228 4.745 2.55 1.839 4.754 2.839 7.645 3.34 2.89.502 5.09 1.382 2.973 3.262-2.117 1.881-4.684 1.464-6.725.962-2.04-.501-5.001-2.057-6.121-2.764-1.12-.706-1.854-1.272-2.953-.989Zm64.09-66.02c1.534-.93 3.23-2.152 3.23-3.006 0-.855-.864-1.88-4.491-4.102-3.626-2.221-8.634-4.744-11.916-5.127-3.281-.382-1.86 4.7-1.473 6.71.386 2.01.502 3.576 1.866 3.738 1.363.162 2.386.325 3.579.65s2.728 1.026 4.432 2c1.705.975 3.239.068 4.773-.863Z"/>
</svg>
