<svg xmlns="http://www.w3.org/2000/svg" width="200" height="200" fill="currentColor" viewBox="0 0 200 200">
  <g clip-path="url(#a)">
    <path fill="#28D358" d="M100 200c55.228 0 100-44.772 100-100S155.228 0 100 0 0 44.772 0 100s44.772 100 100 100Z"/>
    <path fill="#fff" d="M63.227 86.947c0 8.993 7.286 16.28 16.28 16.28 8.993 0 16.28-7.287 16.28-16.28 0-8.994-7.287-16.28-16.28-16.28-8.994 0-16.28 7.286-16.28 16.28Zm41.033 0c0 8.993 7.287 16.28 16.28 16.28 8.993 0 16.28-7.287 16.28-16.28 0-8.994-7.287-16.28-16.28-16.28-8.993 0-16.28 7.286-16.28 16.28Z"/>
    <path fill="#fff" d="M177.153 163.627V108.14H156.22c-4.233 27.987-27.32 48.373-56.22 48.373-31.933 0-57.447-24.886-57.447-57.426 0-32.54 25.514-57.894 57.454-57.894 27.84 0 50.786 19.274 56.226 45.767h20.934C171.44 49.293 138.573 20.447 100 20.447c-42.62 0-77.167 35.213-77.167 78.633 0 43.42 34.547 78.633 77.167 78.633 26.82 0 45.52-12.42 56.993-31.98.274.08.554.14.814.22v35.654a100.293 100.293 0 0 0 19.346-17.987v.007Z"/>
  </g>
  <defs>
    <clipPath id="a">
      <path fill="#fff" d="M0 0h200v200H0z"/>
    </clipPath>
  </defs>
</svg>
