<svg xmlns="http://www.w3.org/2000/svg" width="202" height="203" fill="currentColor" viewBox="0 0 202 203">
  <g filter="url(#a)">
    <path fill="#000" d="M101 201c55.228 0 100-44.772 100-100S156.228 1 101 1 1 45.772 1 101s44.772 100 100 100Z"/>
  </g>
  <path fill="#DBB358" d="M101 201c55.228 0 100-44.772 100-100S156.228 1 101 1 1 45.772 1 101s44.772 100 100 100Z"/>
  <path fill="url(#b)" d="M101 201c55.228 0 100-44.772 100-100S156.228 1 101 1 1 45.772 1 101s44.772 100 100 100Z" style="mix-blend-mode:soft-light"/>
  <path fill="#000" d="M145.569 64.151a4.731 4.731 0 0 1 3.453 8.029 4.73 4.73 0 0 1-3.325 1.43H60.902v55.047h79.946v-23.604h-53.7a4.726 4.726 0 0 1-4.73-4.601v-.128a4.732 4.732 0 0 1 4.602-4.73h58.557a4.726 4.726 0 0 1 4.73 4.602v33.199a4.726 4.726 0 0 1-4.602 4.729h-89.54a4.73 4.73 0 0 1-4.73-4.602V68.889a4.718 4.718 0 0 1 4.601-4.72h89.533v-.018Z"/>
  <path fill="#000" d="M100.867 7.4C49.1 7.4 7.133 49.367 7.133 101.133c0 51.767 41.967 93.734 93.734 93.734 51.766 0 93.733-41.967 93.733-93.734 0-51.766-41.967-93.733-93.733-93.733Zm0 9.458c46.542 0 84.274 37.732 84.274 84.275 0 46.543-37.732 84.275-84.274 84.275-46.543 0-84.275-37.732-84.275-84.275 0-46.543 37.732-84.275 84.275-84.275Z"/>
  <path fill="#000" d="M114.586 36.389a4.725 4.725 0 0 1 4.729 4.601v27.89a4.726 4.726 0 0 1-4.601 4.73H87.131a4.73 4.73 0 0 1-4.72-4.602v-27.89a4.73 4.73 0 1 1 9.458-.128v23.161h17.988V41.118a4.726 4.726 0 0 1 4.601-4.729h.128Zm0 92.268a4.725 4.725 0 0 1 4.729 4.601v27.89a4.73 4.73 0 0 1-9.458.128v-23.161h-17.98v23.033a4.73 4.73 0 0 1-4.61 4.729h-.128a4.728 4.728 0 0 1-4.729-4.601v-27.89a4.726 4.726 0 0 1 4.602-4.729h27.574Z"/>
  <defs>
    <linearGradient id="b" x1="10001" x2="10001" y1="1" y2="20001" gradientUnits="userSpaceOnUse">
      <stop stop-color="#fff" stop-opacity=".5"/>
      <stop offset="1" stop-opacity=".5"/>
    </linearGradient>
    <filter id="a" width="202" height="202" x="0" y=".5" color-interpolation-filters="sRGB" filterUnits="userSpaceOnUse">
      <feFlood flood-opacity="0" result="BackgroundImageFix"/>
      <feColorMatrix in="SourceAlpha" result="hardAlpha" values="0 0 0 0 0 0 0 0 0 0 0 0 0 0 0 0 0 0 127 0"/>
      <feOffset dy=".5"/>
      <feGaussianBlur stdDeviation=".5"/>
      <feComposite in2="hardAlpha" operator="out"/>
      <feColorMatrix values="0 0 0 0 0 0 0 0 0 0 0 0 0 0 0 0 0 0 0.199474 0"/>
      <feBlend in2="BackgroundImageFix" result="effect1_dropShadow_2033_1938"/>
      <feBlend in="SourceGraphic" in2="effect1_dropShadow_2033_1938" result="shape"/>
    </filter>
  </defs>
</svg>
