<svg xmlns="http://www.w3.org/2000/svg" width="200" height="200" fill="currentColor" viewBox="0 0 200 200">
  <path fill="#7540EF" d="M100 200c55.228 0 100-44.772 100-100S155.228 0 100 0 0 44.772 0 100s44.772 100 100 100Z"/>
  <path fill="#fff" fill-rule="evenodd" d="M70.79 36.873c10.048-4.709 20.478-6.871 30.781-6.871 26.583 0 52.022 14.505 64.36 39.19h-22.64c-5.343-6.999-12.466-12.47-20.733-16.033-26.457-11.324-57.238.51-68.686 26.212-5.469 12.343-5.723 25.957-.89 38.554 4.96 12.851 14.882 23.031 27.729 28.629 26.329 11.325 57.237-.509 68.685-26.212l.127-.254-15.137-20.231 14.628-19.723h20.606l-14.628 19.977 15.009 20.359c-2.925 9.289-7.632 17.814-14.118 25.194-6.614 7.38-14.628 13.36-23.659 17.559-35.614 16.541-78.352 1.781-95.268-33.083-8.141-16.796-9.159-35.627-2.926-53.186 6.36-17.814 19.46-32.065 36.76-40.081Zm45.035 43.123h20.479l-14.373 19.85 14.373 19.722h-20.479l-14.881-19.722 14.881-19.85Z" clip-rule="evenodd"/>
</svg>
