<svg xmlns="http://www.w3.org/2000/svg" width="200" height="200" fill="currentColor" viewBox="0 0 200 200">
  <g clip-path="url(#a)">
    <path fill="#005BAC" d="M100 200c55.228 0 100-44.772 100-100S155.228 0 100 0 0 44.772 0 100s44.772 100 100 100Z"/>
    <path fill="#fff" d="M164.341 95.336v-.042c0-.277-.238-.359-.488-.359h-63.802c-3.446 0-6.175 2.742-6.175 6.139 0 3.306 2.729 6.051 6.175 6.051h37.971c-4.575 11.945-19.846 20.773-37.971 20.773-21.768 0-39.393-12.592-39.393-28.08 0-15.475 17.625-28.074 39.393-28.074 11.824 0 22.468 3.771 29.691 9.73l.038.042c.08.025.185.025.311.025h26.067c.263 0 .437-.21.437-.437 0-.13 0-.262-.092-.316v-.038c-11.187-11.818-32.28-19.84-56.452-19.84-35.825 0-64.798 17.425-64.798 38.907 0 21.49 28.973 38.961 64.798 38.961 35.725 0 64.745-17.471 64.745-38.96 0-1.563-.144-3.04-.455-4.482Z"/>
  </g>
  <defs>
    <clipPath id="a">
      <path fill="#fff" d="M0 0h200v200H0z"/>
    </clipPath>
  </defs>
</svg>
