<svg xmlns="http://www.w3.org/2000/svg" width="200" height="200" fill="currentColor" viewBox="0 0 200 200">
  <g clip-path="url(#a)">
    <path fill="#00B359" d="M100 200c55.228 0 100-44.772 100-100S155.228 0 100 0 0 44.772 0 100s44.772 100 100 100Z"/>
    <mask id="b" width="150" height="102" x="25" y="48" maskUnits="userSpaceOnUse" style="mask-type:luminance">
      <path fill="#fff" d="M175 48.305H25v101.641h150V48.306Z"/>
    </mask>
    <g mask="url(#b)">
      <path fill="#fff" d="m173.153 94.642-22.236-22.237L128.68 50.17a6.378 6.378 0 0 0-3.887-1.832c-.206-.016-.397-.032-.605-.032a6.33 6.33 0 0 0-4.491 1.864l-10.72 10.72 17.808 17.808-2.278 2.278c-3.695 3.695-9.7 3.695-13.412 0L80.114 49.978a6.284 6.284 0 0 0-2.644-1.45 7.277 7.277 0 0 0-.574-.127h-.031a6.642 6.642 0 0 0-.558-.064h-.064c-.175 0-.35-.016-.525 0h-.096c-.16 0-.319 0-.494.032-.047 0-.095 0-.143.016-.143.016-.303.048-.446.064-.064 0-.112.031-.175.047-.128.032-.271.064-.398.096-.08.016-.144.048-.223.08-.112.047-.24.08-.35.127-.08.032-.176.08-.256.111-.095.048-.207.096-.302.144a2.765 2.765 0 0 0-.287.175l-.24.143-.334.24c-.063.047-.127.079-.175.127-.16.127-.318.27-.478.43L49.085 72.405l-22.22 22.237a6.19 6.19 0 0 0-1.45 2.245 6.358 6.358 0 0 0 1.45 6.739l44.472 44.472a6.531 6.531 0 0 0 1.832 1.29c.16.064.303.128.462.191a6.41 6.41 0 0 0 4.428-.016c.144-.047.271-.111.414-.175a6.361 6.361 0 0 0 1.179-.701l.032-.031.048-.032a6.16 6.16 0 0 0 .589-.526l10.704-10.704-17.808-17.808 2.278-2.278c3.695-3.696 9.7-3.696 13.412 0l30.981 30.981a6.28 6.28 0 0 0 2.644 1.45c.191.048.382.095.573.128h.033l.381.047h1.195c.079 0 .144 0 .223-.016h.096c.095 0 .191-.031.286-.048.08 0 .144-.032.224-.048a.295.295 0 0 0 .111-.031c.079-.016.175-.049.254-.064.065-.016.145-.048.208-.064l.143-.047c.08-.033.159-.049.224-.08.063-.032.127-.048.19-.08.064-.032.112-.048.175-.079.065-.032.144-.065.208-.096.063-.032.127-.064.175-.096.063-.032.127-.079.207-.127.064-.032.111-.064.175-.096.064-.031.112-.08.175-.111.08-.064.16-.112.24-.175.047-.032.079-.064.127-.096.191-.143.366-.303.525-.478l44.473-44.473a6.36 6.36 0 0 0 1.848-4.476 6.332 6.332 0 0 0-1.863-4.491h.015Z"/>
    </g>
    <path fill="#fff" d="m66.831 93.642-.099.096a9.06 9.06 0 0 0-.027 12.999l.098.097c3.657 3.597 9.599 3.609 13.271.027l.1-.096a9.059 9.059 0 0 0 .027-13l-.098-.097c-3.657-3.596-9.6-3.609-13.272-.026Z"/>
    <path fill="#fff" d="m72.851 55-9.754 9.636.065.059L37.14 90.388v-.04l-9.642 9.513.036.035-.036.04 9.536 9.496 35.505 35.569s8.393-10.986.141-19.208L46.694 99.884l26.004-25.711 13.129 13.101c11.19 11.167 19.171-.246 19.171-.246L72.851 55.001Zm99.524 45.107.124-.118-45.106-44.988s-8.287 10.75-.439 18.573l26.635 26.568-26.072 25.791-12.199-12.155c-8.735-8.716-20.319-.823-20.319-.823l32.145 32.046 9.784-9.681 35.512-35.131-.065-.082Z"/>
    <path fill="#fff" d="m120.314 93.748-.098.095a9.059 9.059 0 0 0-.029 12.999l.1.098c3.656 3.597 9.598 3.609 13.27.027l.1-.097a9.058 9.058 0 0 0 .027-12.998l-.098-.098c-3.658-3.597-9.599-3.609-13.272-.026Z"/>
  </g>
  <defs>
    <clipPath id="a">
      <path fill="#fff" d="M0 0h200v200H0z"/>
    </clipPath>
  </defs>
</svg>
