<svg xmlns="http://www.w3.org/2000/svg" width="200" height="200" fill="currentColor" viewBox="0 0 200 200">
  <g clip-path="url(#a)">
    <path fill="#DCE581" d="M100 200c55.228 0 100-44.772 100-100S155.228 0 100 0 0 44.772 0 100s44.772 100 100 100Z"/>
    <path fill="#000" d="M181.992 99.496c0-6.492-2.525-12.597-7.12-17.184-4.487-4.488-10.427-6.987-16.755-7.095 4.224-4.372 6.839-10.312 6.839-16.862 0-13.405-10.906-24.311-24.311-24.311-6.542 0-12.482 2.615-16.862 6.839-.108-6.328-2.607-12.268-7.095-16.755-4.595-4.604-10.7-7.128-17.192-7.128-6.492 0-12.597 2.524-17.192 7.12-4.488 4.487-6.988 10.427-7.103 16.754-4.372-4.224-10.312-6.83-16.854-6.83-13.406 0-24.312 10.906-24.312 24.311 0 6.542 2.616 12.482 6.84 16.862-6.328.108-12.268 2.607-16.756 7.095C19.524 86.899 17 93.004 17 99.496c0 6.492 2.524 12.597 7.12 17.192 4.487 4.488 10.427 6.987 16.754 7.103-4.224 4.372-6.83 10.312-6.83 16.854 0 13.405 10.906 24.311 24.311 24.311 6.542 0 12.482-2.615 16.854-6.83.107 6.327 2.607 12.267 7.103 16.755 4.496 4.487 10.7 7.119 17.192 7.119 6.493 0 12.597-2.533 17.184-7.119 4.488-4.488 6.987-10.428 7.095-16.764 4.372 4.224 10.312 6.839 16.862 6.839 13.405 0 24.311-10.906 24.311-24.311 0-6.542-2.615-12.482-6.83-16.854 6.327-.107 12.267-2.607 16.755-7.103 4.595-4.595 7.119-10.7 7.119-17.192h-.008Zm-65.659 16.837v23.817l-16.837-16.838-16.837 16.838v-23.817H58.85l16.838-16.837L58.85 82.659h23.81V58.85l16.837 16.838 16.837-16.838v23.81h23.809l-16.838 16.837 16.838 16.837h-23.809Zm8.687-57.978c0-8.612 7.012-15.624 15.625-15.624 8.612 0 15.625 7.012 15.625 15.624 0 8.613-7.013 15.625-15.625 15.625H125.02V58.355ZM88.45 30.257a15.577 15.577 0 0 1 11.046-4.57c4.001 0 8.002 1.526 11.046 4.57 6.088 6.096 6.088 16.004 0 22.1L99.496 63.405 88.45 52.358a15.512 15.512 0 0 1-4.579-11.046c0-4.175 1.625-8.093 4.579-11.047v-.008ZM58.355 42.722c8.613 0 15.625 7.012 15.625 15.625v15.625H58.355c-8.612 0-15.624-7.012-15.624-15.625s7.012-15.625 15.624-15.625ZM30.257 88.45a15.577 15.577 0 0 1 11.046-4.57c4.001 0 8.002 1.526 11.047 4.57l11.046 11.046-11.047 11.046a15.515 15.515 0 0 1-11.046 4.579 15.515 15.515 0 0 1-11.046-4.579c-6.088-6.096-6.088-16.004 0-22.1v.008Zm43.715 52.195c0 8.612-7.012 15.625-15.625 15.625s-15.625-7.013-15.625-15.625c0-8.613 7.012-15.625 15.625-15.625h15.625v15.625Zm36.57 28.09c-6.096 6.096-16.004 6.088-22.1 0-6.089-6.097-6.089-16.005 0-22.101l11.046-11.046 11.046 11.046a15.513 15.513 0 0 1 4.578 11.046c0 4.175-1.625 8.101-4.578 11.046l.008.009Zm41.141-17.044c-2.954 2.945-6.872 4.579-11.046 4.579-8.613 0-15.625-7.013-15.625-15.625V125.02h15.625c4.174 0 8.092 1.625 11.046 4.579a15.513 15.513 0 0 1 4.578 11.046 15.5 15.5 0 0 1-4.578 11.046Zm17.043-41.141a15.508 15.508 0 0 1-11.046 4.579 15.496 15.496 0 0 1-11.046-4.579l-11.046-11.046 11.046-11.046c6.096-6.096 16.004-6.088 22.101 0 6.088 6.096 6.088 16.004 0 22.101l-.009-.009Z"/>
  </g>
  <defs>
    <clipPath id="a">
      <path fill="#fff" d="M0 0h200v200H0z"/>
    </clipPath>
  </defs>
</svg>
