<svg xmlns="http://www.w3.org/2000/svg" width="200" height="200" fill="currentColor" viewBox="0 0 200 200">
  <path fill="#5BB3E5" d="M200 100C200 44.772 155.228 0 100 0S0 44.772 0 100s44.772 100 100 100 100-44.772 100-100Z"/>
  <path fill="#705ED7" d="m112.784.304-5.505 34.58c9.471 1.87 14.944 5.516 20.627 11.629 6.005 6.454 10.207 7.175 11.628 16.279H125.58c-1.302-4.742-8.889-6.684-12.796-9.304-3.789-2.742-8.821-4.117-15.096-4.117-6.985 0-12.372 1.562-16.16 4.679-3.789 3.117-9.954 7.246-7.111 15.717 0 4.116 4.624 11.458 7.11 13.954 2.487 2.496 5.499 3.279 9.169 4.65 3.67 1.25 9.835 2.908 16.583 4.654 8.761 1.992 15.062 4.604 20.627 6.975 5.564 2.246 5.395 4.313 9.301 9.304 3.907 4.988 6.977 10 6.977 18.604 0 6.109 3.23 11.492.389 16.855-2.723 5.362-6.808 9.85-12.254 13.466-5.446 3.617-11.958 6.113-19.535 7.484v32.97c49.191-6.275 87.214-48.291 87.214-99.187 0-50.9-38.023-92.913-87.214-99.192Z"/>
  <path fill="#fff" fill-rule="evenodd" d="M63.418 154.246c6.866 6.608 15.687 10.725 26.46 12.346v32.904a101.675 101.675 0 0 0 22.91-.304v-32.975c7.577-1.371 14.088-3.863 19.535-7.48 5.445-3.616 9.53-8.108 12.253-13.47 2.842-5.363 4.262-11.096 4.262-17.209 0-8.604-1.953-15.4-5.86-20.387-3.907-4.992-8.643-8.604-14.208-10.85-5.564-2.371-12.727-4.554-21.488-6.546-6.748-1.746-11.957-3.246-15.628-4.492-3.67-1.37-6.748-3.304-9.234-5.8-2.487-2.491-3.73-5.796-3.73-9.912 0-4.738 1.895-8.667 5.683-11.783 3.789-3.121 9.175-4.68 16.161-4.68 6.275 0 11.306 1.375 15.095 4.117 3.907 2.62 6.511 6.296 7.814 11.038h22.731c-1.42-9.105-4.65-16.367-10.655-22.821-5.683-6.113-13.26-10.105-22.731-11.975V.808a101.574 101.574 0 0 0-22.91-.304v32.904C79.341 35.03 70.936 39.083 64.66 45.567c-6.274 6.358-9.412 14.529-9.412 24.504 0 9.229 2.072 16.462 6.216 21.7 4.144 5.237 9.057 9.041 14.74 11.408 6.672 2.783 12.964 4.367 21.844 6.363 6.511 1.495 11.543 2.866 15.095 4.112 3.552 1.125 6.452 2.871 8.702 5.238 2.368 2.245 3.551 5.3 3.551 9.166 0 3.617-.658 6.442-2.663 9.542-1.776 2.742-4.559 4.925-8.347 6.546-3.789 1.496-8.584 2.246-14.385 2.246-6.985 0-12.727-1.559-17.226-4.679-4.5-3.242-7.46-7.792-8.88-13.655H51.164c1.42 10.85 5.505 19.579 12.254 26.188Z" clip-rule="evenodd"/>
</svg>
