<svg xmlns="http://www.w3.org/2000/svg" width="200" height="200" fill="currentColor" viewBox="0 0 200 200">
  <path fill="#ECEFF0" d="M90.91 7.521c3.31-1.912 4.967-2.868 6.727-3.242a11.366 11.366 0 0 1 4.726 0c1.76.374 3.416 1.33 6.728 3.242l66.452 38.367c3.312 1.912 4.968 2.868 6.172 4.206a11.356 11.356 0 0 1 2.363 4.092c.556 1.711.556 3.623.556 7.448v76.732c0 3.825 0 5.737-.556 7.448a11.361 11.361 0 0 1-2.363 4.093c-1.204 1.337-2.86 2.293-6.172 4.205l-66.452 38.367c-3.312 1.912-4.968 2.868-6.728 3.242a11.369 11.369 0 0 1-4.726 0c-1.76-.374-3.416-1.33-6.728-3.242l-66.452-38.367c-3.312-1.912-4.968-2.868-6.172-4.205a11.367 11.367 0 0 1-2.363-4.093c-.556-1.711-.556-3.623-.556-7.448V61.634c0-3.825 0-5.737.556-7.448a11.362 11.362 0 0 1 2.363-4.093c1.204-1.337 2.86-2.293 6.172-4.205L90.909 7.52Z"/>
  <path fill="#000" d="M36.967 99.752v-4.368h13.104v2.604c0 1.932.672 2.604 2.688 2.604h15.792c2.016 0 2.688-.672 2.688-2.604v-2.52c0-1.932-.672-2.436-2.688-2.688l-20.58-2.016c-6.804-.588-10.164-3.948-10.164-10.08v-5.208c0-6.468 3.78-10.164 10.164-10.164h25.536c6.384 0 10.164 3.78 10.164 10.248v3.864H70.567v-2.1c0-1.932-.672-2.604-2.688-2.604H54.103c-2.016 0-2.688.672-2.688 2.604v1.008c0 1.932.672 2.436 2.688 2.688l20.58 2.016c6.804.588 10.164 3.948 10.164 10.08v6.72c0 6.468-3.78 10.164-10.164 10.164H47.131c-6.384 0-10.164-3.78-10.164-10.248Zm54.469 0v-4.368h13.104v2.604c0 1.932.672 2.604 2.688 2.604h15.792c2.016 0 2.688-.672 2.688-2.604v-2.52c0-1.932-.672-2.436-2.688-2.688l-20.58-2.016c-6.804-.588-10.164-3.948-10.164-10.08v-5.208c0-6.468 3.78-10.164 10.164-10.164h25.536c6.384 0 10.164 3.78 10.164 10.248v3.864h-13.104v-2.1c0-1.932-.672-2.604-2.688-2.604h-13.776c-2.016 0-2.688.672-2.688 2.604v1.008c0 1.932.672 2.436 2.688 2.688l20.58 2.016c6.804.588 10.164 3.948 10.164 10.08v6.72c0 6.468-3.78 10.164-10.164 10.164H101.6c-6.384 0-10.164-3.78-10.164-10.248Z"/>
  <path fill="#FF4F20" d="M162.005 61.112h-13.86V51.2h13.86v9.912Zm0 48.888h-13.86V65.312h13.86V110Z"/>
  <path fill="#F7931A" d="m66.165 136.97 7.56-11.97h4.32v21h-4.8v-12.66l-5.85 9h-2.7l-5.85-9V146h-4.8v-21h4.53l7.59 11.97ZM104.21 146h-5.73l-1.53-3.87H86.84L85.31 146h-5.46l9.3-21h5.79l9.27 21Zm-12.33-16.53-3.51 8.82h7.05l-3.54-8.82Zm12.697 10.71v-9.36c0-3.99 1.86-5.82 5.82-5.82h9.66c3.96 0 5.82 1.83 5.82 5.82v1.41h-5.16v-.51c0-1.8-.63-2.46-2.46-2.46h-6.06c-1.83 0-2.46.66-2.46 2.46v7.68c0 1.8.63 2.46 2.46 2.46h6.24c1.83 0 2.46-.66 2.46-2.46v-1.2h-5.4v-3.9h10.38v5.88c0 3.99-1.86 5.82-5.82 5.82h-9.66c-3.96 0-5.82-1.83-5.82-5.82Zm23.661-10.8V125h19.44v3.78l-7.32 8.19c-.57.63-.93 1.23-1.11 1.8-.18.57-.27 1.38-.27 2.43v4.8h-5.1v-4.65c0-1.65.15-2.94.48-3.84.3-.9.93-1.86 1.86-2.91l4.77-5.22h-12.75Z"/>
</svg>
