<svg xmlns="http://www.w3.org/2000/svg" width="200" height="200" fill="currentColor" viewBox="0 0 200 200">
  <g clip-path="url(#a)">
    <path fill="#DC2626" d="M200 100C200 44.772 155.228 0 100 0S0 44.772 0 100s44.772 100 100 100 100-44.772 100-100Z"/>
    <path fill="#FFFDF7" d="m159.097 98.055-17.896-6.061c-6.577-2.217-11.457-7.794-12.843-14.584l-7.546-37.304a2.072 2.072 0 0 0-2.007-1.629c-.97 0-1.8.693-2.008 1.629l-7.546 37.304c-1.384 6.79-6.266 12.367-12.843 14.584l-17.895 6.061a2.05 2.05 0 0 0 0 3.879l17.895 6.062c6.577 2.217 11.459 7.794 12.843 14.583l7.546 37.271a2.074 2.074 0 0 0 2.008 1.628c.969 0 1.8-.694 2.007-1.628l7.546-37.271c1.386-6.789 6.266-12.366 12.843-14.583l17.896-6.062a2.05 2.05 0 0 0 1.384-1.94 2.05 2.05 0 0 0-1.384-1.939ZM62.944 63.868l6.3 2.148a6.875 6.875 0 0 1 4.535 5.16l2.665 13.163c.07.347.346.589.692.589.347 0 .624-.242.693-.589l2.665-13.162a6.93 6.93 0 0 1 4.534-5.161l6.3-2.148a.754.754 0 0 0 .486-.693.754.754 0 0 0-.486-.692l-6.3-2.148a6.874 6.874 0 0 1-4.534-5.161L77.83 42.011c-.07-.346-.346-.588-.692-.588-.347 0-.624.242-.693.588L73.78 55.174a6.93 6.93 0 0 1-4.535 5.161l-6.3 2.148a.753.753 0 0 0-.485.692c0 .312.208.59.485.693Zm14.702 64.667L69.2 125.66a9.093 9.093 0 0 1-6.058-6.893l-3.565-17.631a.96.96 0 0 0-.934-.761c-.45 0-.866.311-.935.761l-3.566 17.631c-.657 3.221-2.977 5.855-6.057 6.893l-8.446 2.875c-.381.139-.658.486-.658.901 0 .416.277.797.658.9l8.446 2.875a9.096 9.096 0 0 1 6.057 6.894l3.566 17.63c.104.45.485.763.934.763.45 0 .866-.313.935-.763l3.566-17.63c.657-3.222 2.976-5.854 6.057-6.894l8.446-2.875c.381-.138.658-.484.658-.9 0-.415-.277-.797-.658-.901Z"/>
  </g>
  <defs>
    <clipPath id="a">
      <path fill="#fff" d="M0 0h200v200H0z"/>
    </clipPath>
  </defs>
</svg>
