<svg xmlns="http://www.w3.org/2000/svg" width="200" height="200" fill="currentColor" viewBox="0 0 200 200">
  <path fill="url(#a)" fill-rule="evenodd" d="m133.731 106.082-.153-35.22a6.817 6.817 0 0 0-2.01-4.812 6.809 6.809 0 0 0-4.819-2.01 6.802 6.802 0 0 0-4.817 2.01 6.797 6.797 0 0 0-2.011 4.816v58.27a19.894 19.894 0 0 1-5.853 14.09 19.904 19.904 0 0 1-14.097 5.853c-5.3 0-10.347-2.106-14.095-5.853a19.888 19.888 0 0 1-5.855-14.09v-58.27a6.79 6.79 0 0 0-2.01-4.816 6.802 6.802 0 0 0-4.818-2.01 6.801 6.801 0 0 0-4.816 2.01 6.827 6.827 0 0 0-2.011 4.812l-.153 35.22a19.906 19.906 0 0 1-5.702 11.632 19.896 19.896 0 0 1-28.19 0 19.907 19.907 0 0 1-5.704-11.636l-.163-9.686-18.01-.003H0l.067-1.375c1.22-24.826 11.596-48.151 29.175-65.724C48.062 10.476 73.358 0 99.972 0c26.615 0 51.912 10.476 70.731 29.29 12.315 12.312 21.241 27.635 25.81 44.442l.449 1.653h-13.617l-.282-.926c-4.163-13.548-11.617-25.876-21.639-35.894-16.352-16.347-38.327-25.447-61.451-25.447-23.126 0-45.1 9.1-61.452 25.447-12.023 12.02-20.28 27.275-23.689 43.934l-.159.774h24.915v20.349c0 1.815.729 3.534 2.01 4.815a6.792 6.792 0 0 0 4.818 2.011 6.8 6.8 0 0 0 4.817-2.011 6.797 6.797 0 0 0 2.01-4.815V70.864a19.89 19.89 0 0 1 5.856-14.09 19.897 19.897 0 0 1 28.19 0 19.89 19.89 0 0 1 5.856 14.09v58.271c0 1.815.729 3.534 2.01 4.815a6.804 6.804 0 0 0 4.818 2.01 6.806 6.806 0 0 0 4.817-2.01 6.796 6.796 0 0 0 2.011-4.815v-58.27a19.885 19.885 0 0 1 5.855-14.09 19.902 19.902 0 0 1 14.096-5.854 19.899 19.899 0 0 1 14.094 5.853 19.888 19.888 0 0 1 5.855 14.09v32.758a6.8 6.8 0 0 0 2.011 4.815 6.794 6.794 0 0 0 4.818 2.011 6.8 6.8 0 0 0 4.816-2.011 6.79 6.79 0 0 0 2.013-4.815v-20.35h24.911l-.002-.008h13.343l.174 1.105A101.04 101.04 0 0 1 200 100c0 26.608-10.478 51.896-29.297 70.711C151.884 189.525 126.588 200 99.973 200c-26.615 0-51.911-10.475-70.731-29.289C11.83 153.303 1.472 130.235.104 105.65l-.079-1.382h13.136l.077 1.226c1.32 21.149 10.299 40.96 25.282 55.941 16.351 16.346 38.327 25.446 61.452 25.446 23.124 0 45.1-9.1 61.451-25.446 16.351-16.349 25.453-38.317 25.453-61.435 0-.994-.016-1.99-.05-2.983l-.021-.625h-13.316l-.162 9.686a19.923 19.923 0 0 1-5.704 11.636 19.899 19.899 0 0 1-28.191 0 19.918 19.918 0 0 1-5.702-11.632h.001Z" clip-rule="evenodd"/>
  <defs>
    <linearGradient id="a" x1="42.161" x2="155.529" y1="171.141" y2="33.186" gradientUnits="userSpaceOnUse">
      <stop stop-color="#E78B1F"/>
      <stop offset="1" stop-color="#FFDB45"/>
    </linearGradient>
  </defs>
</svg>
