<svg xmlns="http://www.w3.org/2000/svg" width="200" height="200" fill="currentColor" viewBox="0 0 200 200">
  <g clip-path="url(#a)">
    <path fill="#53B585" d="M100 200c55.228 0 100-44.772 100-100S155.228 0 100 0 0 44.772 0 100s44.772 100 100 100Z"/>
    <path fill="#0B2232" d="M170.297 131.866a14.933 14.933 0 0 0 4.699-10.513 14.916 14.916 0 0 0-4.189-10.725 14.95 14.95 0 0 0-4.835-3.34 14.955 14.955 0 0 0-5.751-1.222 14.947 14.947 0 0 0-5.778 1.086 14.944 14.944 0 0 0-4.913 3.225 14.92 14.92 0 0 0-4.441 10.442 14.922 14.922 0 0 0 4.192 10.544 14.973 14.973 0 0 0 21.016.503ZM68.292 170.437a14.975 14.975 0 0 0 21.155.373 14.927 14.927 0 0 0 4.568-10.483 14.926 14.926 0 0 0-4.195-10.638 14.975 14.975 0 0 0-21.155-.372 14.922 14.922 0 0 0-.373 21.12ZM29.853 67.83a14.932 14.932 0 0 0-4.846 10.553 14.91 14.91 0 0 0 4.19 10.829 14.957 14.957 0 0 0 10.695 4.559 14.977 14.977 0 0 0 10.732-4.467 14.918 14.918 0 0 0 4.288-10.4 14.918 14.918 0 0 0-4.198-10.436 14.97 14.97 0 0 0-20.861-.638Zm102.622-37.947a14.956 14.956 0 0 0-10.573-4.875 14.977 14.977 0 0 0-10.87 4.174 14.916 14.916 0 0 0-4.576 10.692 14.92 14.92 0 0 0 4.495 10.727 14.97 14.97 0 0 0 21.021.248 14.922 14.922 0 0 0 4.567-10.387 14.918 14.918 0 0 0-4.064-10.594v.015Z"/>
    <path fill="#0B2232" d="M164.521 75.969a14.202 14.202 0 0 0 4.101-10.793v-.111c-.675-12.282-15.583-17.968-24.291-9.278l-14.091 14.32c-4.51 4.504-14.937 5.21-20.294-.156l-33.71-34.053a14.226 14.226 0 0 0-10.233-4.32c-12.675 0-19.035 15.318-10.065 24.272l14.21 13.696c5.17 5.615 4.608 15.507 0 20.096L36.016 123.8a14.216 14.216 0 0 0-4.171 9.885v.32c-.15 12.746 15.284 19.237 24.313 10.219l14.188-14.228c4.939-4.931 15.209-4.983 20.38.179l33.55 33.707a14.245 14.245 0 0 0 10.494 4.16h.044c12.481-.372 18.479-15.452 9.652-24.264l-13.551-13.681c-5.029-5.02-5.405-14.712-.034-20.074l33.64-34.053Zm-53.207 35.184a15.733 15.733 0 0 1-11.144 4.23 15.734 15.734 0 0 1-10.914-4.792 15.685 15.685 0 0 1-4.408-11.06 15.685 15.685 0 0 1 4.632-10.968 15.728 15.728 0 0 1 11.251-4.57 15.744 15.744 0 0 1 11.155 4.798 15.694 15.694 0 0 1 4.404 11.3 15.695 15.695 0 0 1-4.976 11.062Z"/>
  </g>
  <defs>
    <clipPath id="a">
      <path fill="#fff" d="M0 0h200v200H0z"/>
    </clipPath>
  </defs>
</svg>
