<svg xmlns="http://www.w3.org/2000/svg" width="200" height="200" fill="currentColor" viewBox="0 0 200 200">
  <g clip-path="url(#a)">
    <path fill="#0074F0" d="M100.334 199.665c55.044-.184 99.517-44.956 99.332-100-.184-55.044-44.956-99.516-100-99.332C44.622.518.15 45.29.334 100.333c.185 55.044 44.956 99.517 100 99.332Z"/>
    <path fill="#fff" d="M162.298 161.898c34.172-34.401 34.001-90.025-.4-124.197C127.497 3.528 71.873 3.699 37.7 38.1l124.598 123.798Z" opacity=".2"/>
    <path fill="#fff" d="M95.93 60.637a40.012 40.012 0 0 1 4.07-.206c21.846 0 39.556 17.71 39.556 39.555 0 17.036-10.769 31.556-25.871 37.125l-13.422 18.875c30.808-.143 55.737-25.16 55.737-56 0-28.96-21.982-52.784-50.17-55.7l-9.9 16.351Z"/>
    <path fill="#fff" d="M98.73 44C68.387 44.676 44 69.483 44 99.986c0 28.537 21.346 52.089 48.942 55.56l11.56-16.258c-1.478.168-2.98.254-4.502.254-21.846 0-39.555-17.71-39.555-39.556 0-17.506 11.372-32.356 27.132-37.565L98.729 44Z"/>
    <path fill="url(#b)" d="M113.685 137.11c15.102-5.568 25.871-20.089 25.871-37.124h16.445c0 30.84-24.93 55.857-55.737 55.999l13.421-18.875Z"/>
    <path fill="url(#c)" d="M98.73 44C68.387 44.676 44 69.483 44 99.986c0 0 16.445.236 16.445 0 0-17.506 11.372-32.356 27.132-37.565L98.729 44Z"/>
    <path fill="#fff" d="m99.9 145.765 28.117-39.597-28.118 16.595-28.103-16.595L99.9 145.765Z"/>
    <path fill="#0074F0" d="m99.9 145.765 28.118-39.597-28.119 16.595v23.002Z" opacity=".1"/>
    <path fill="url(#d)" d="m99.814 117.507 28.258-16.624L99.814 54.21l-28.258 46.673 28.258 16.624Z"/>
    <path fill="#fff" d="m99.814 117.507 28.258-16.624L99.814 54.21l-28.258 46.673 28.258 16.624Z"/>
    <path fill="#0074F0" d="m99.813 117.506-28.257-16.623L99.813 54.21v63.296Z" opacity=".1"/>
    <path fill="#0074F0" d="M99.813 117.507V87.634l-28.257 13.248 28.257 16.625Zm.001 0V87.634l28.258 13.248-28.258 16.625Z" opacity=".1"/>
  </g>
  <defs>
    <linearGradient id="b" x1="63.13" x2="124.804" y1="170.153" y2="129.753" gradientUnits="userSpaceOnUse">
      <stop stop-color="#1A82FF" stop-opacity=".5"/>
      <stop offset="1" stop-color="#fff"/>
    </linearGradient>
    <linearGradient id="c" x1="130.222" x2="71.213" y1="18.223" y2="60.86" gradientUnits="userSpaceOnUse">
      <stop stop-color="#1A82FF" stop-opacity=".5"/>
      <stop offset="1" stop-color="#fff"/>
    </linearGradient>
    <linearGradient id="d" x1="39.696" x2="89.202" y1="71.111" y2="101.322" gradientUnits="userSpaceOnUse">
      <stop stop-color="#1C313F"/>
      <stop offset="1" stop-color="#fff"/>
    </linearGradient>
    <clipPath id="a">
      <path fill="#fff" d="M0 0h200v200H0z"/>
    </clipPath>
  </defs>
</svg>
