<svg xmlns="http://www.w3.org/2000/svg" width="200" height="200" fill="currentColor" viewBox="0 0 200 200">
  <g clip-path="url(#a)">
    <path fill="#1A1A1A" d="M0 32c0-11.201 0-16.802 2.18-21.08a20 20 0 0 1 8.74-8.74C15.198 0 20.8 0 32 0h136c11.201 0 16.801 0 21.08 2.18a20.003 20.003 0 0 1 8.74 8.74C200 15.198 200 20.8 200 32v136c0 11.201 0 16.801-2.18 21.08a20.007 20.007 0 0 1-8.74 8.74C184.801 200 179.201 200 168 200H32c-11.201 0-16.802 0-21.08-2.18a20.003 20.003 0 0 1-8.74-8.74C0 184.801 0 179.201 0 168V32Z"/>
    <path fill="#CDFA50" d="M46.667 122.222h22.222v33.333H46.667v-33.333Zm88.889-55.555h22.222V100h-22.222V66.667Z"/>
    <path fill="#CDFA50" d="M68.889 100h66.667v22.222H68.889V100ZM46.667 44.444h88.889v22.223H68.889V100l-22.222-.278V44.444Z"/>
  </g>
  <defs>
    <clipPath id="a">
      <path fill="#fff" d="M0 0h200v200H0z"/>
    </clipPath>
  </defs>
</svg>
