<svg width="200" height="200" viewBox="0 0 200 200" fill="none"
  xmlns="http://www.w3.org/2000/svg">
  <path d="M98.7375 188.388C148.25 188.388 188.388 148.25 188.388 98.7373C188.388 49.2245 148.25 9.08643 98.7375 9.08643C49.2247 9.08643 9.08667 49.2245 9.08667 98.7373C9.08667 148.25 49.2247 188.388 98.7375 188.388Z" fill="#C1FF72"/>
  <path d="M187.5 12.5L187.499 12.5C180.596 5.59643 169.403 5.59643 162.5 12.5L141.071 33.9285C134.167 40.8321 134.167 52.025 141.071 58.9285C147.975 65.8321 159.167 65.8321 166.071 58.9285L187.5 37.5C194.403 30.5964 194.403 19.4036 187.5 12.5Z" fill="#121212"/>
  <path d="M187.499 12.5L187.5 12.5C194.403 19.4036 194.403 30.5964 187.5 37.5L166.071 58.9285C159.167 65.8321 147.975 65.8321 141.071 58.9285L141.071 58.9285C134.167 52.025 134.167 40.8321 141.071 33.9285L162.5 12.5C169.403 5.59643 180.596 5.59643 187.499 12.5Z" stroke="#C1FF72" stroke-width="7.3904"/>
  <path d="M58.9289 141.072L58.9289 141.072C52.0254 134.168 40.8325 134.168 33.929 141.072L12.5005 162.5C5.59693 169.404 5.59694 180.596 12.5005 187.5C19.404 194.404 30.5969 194.404 37.5004 187.5L58.929 166.072C65.8325 159.168 65.8325 147.975 58.9289 141.072Z" fill="#121212"/>
  <path d="M58.9289 141.072L58.9289 141.072C65.8325 147.975 65.8325 159.168 58.9289 166.072L37.5004 187.5C30.5969 194.404 19.404 194.404 12.5005 187.5L12.5005 187.5C5.59693 180.596 5.59693 169.404 12.5005 162.5L33.929 141.072C40.8325 134.168 52.0254 134.168 58.9289 141.072Z" stroke="#C1FF72" stroke-width="7.3904"/>
  <path d="M187.5 187.5L187.5 187.5C194.404 180.596 194.404 169.403 187.5 162.5L166.072 141.071C159.168 134.168 147.975 134.168 141.072 141.071C134.168 147.975 134.168 159.168 141.072 166.071L162.5 187.5C169.404 194.403 180.596 194.403 187.5 187.5Z" fill="#121212"/>
  <path d="M187.5 187.5L187.5 187.5C180.596 194.403 169.404 194.403 162.5 187.5L141.072 166.071C134.168 159.168 134.168 147.975 141.072 141.071L141.072 141.071C147.975 134.168 159.168 134.168 166.072 141.071L187.5 162.5C194.404 169.403 194.404 180.596 187.5 187.5Z" stroke="#C1FF72" stroke-width="7.3904"/>
  <path d="M58.9285 58.9287L58.9285 58.9287C65.832 52.0251 65.832 40.8323 58.9285 33.9287L37.5 12.5002C30.5964 5.59663 19.4036 5.59663 12.5 12.5002C5.59649 19.4038 5.59649 30.5966 12.5 37.5002L33.9285 58.9287C40.8321 65.8323 52.0249 65.8323 58.9285 58.9287Z" fill="#121212"/>
  <path d="M58.9285 58.9287L58.9285 58.9287C52.0249 65.8323 40.8321 65.8323 33.9285 58.9287L12.5 37.5002C5.59649 30.5966 5.59649 19.4038 12.5 12.5002L12.5001 12.5002C19.4036 5.59662 30.5964 5.59663 37.5 12.5002L58.9285 33.9287C65.832 40.8323 65.832 52.0251 58.9285 58.9287Z" stroke="#C1FF72" stroke-width="7.3904"/>
  <path d="M67.8256 86.1102C67.8256 71.4656 79.3583 59.5938 93.5844 59.5938C104.862 59.5938 114.441 67.0514 117.932 77.4356C130.802 78.9105 140.809 90.1462 140.809 103.788C140.809 118.433 129.276 130.304 115.05 130.304H76.4119C64.5569 130.304 54.9463 120.411 54.9463 108.207C54.9463 99.1192 60.2729 91.3195 67.8851 87.9237C67.8457 87.324 67.8256 86.7194 67.8256 86.1102Z" fill="#121212"/>
</svg>
