<svg xmlns="http://www.w3.org/2000/svg" width="200" height="200" fill="currentColor" viewBox="0 0 200 200">
  <g clip-path="url(#a)">
    <path fill="#fff" d="M100 200c55.228 0 100-44.772 100-100S155.228 0 100 0 0 44.772 0 100s44.772 100 100 100Z"/>
    <mask id="b" width="134" height="134" x="33" y="33" maskUnits="userSpaceOnUse" style="mask-type:luminance">
      <path fill="#fff" d="M33.333 33.333h133.334v133.334H33.333V33.333Z"/>
    </mask>
    <g mask="url(#b)">
      <path fill="url(#c)" d="m141.011 49.422-72.778 51.5a43.526 43.526 0 0 1-6.589-23.2c0-24.522 20.045-44.389 44.823-44.389a44.777 44.777 0 0 1 34.544 16.09Z"/>
      <path fill="url(#d)" d="M141.889 87.122a43.638 43.638 0 0 0-6.589-23.205L99 89.583l-36.478 25.784-1.933 1.378.089 49.922s47.983-32.084 63.111-43.861c11.244-8.789 18.1-21.089 18.1-35.684Z"/>
    </g>
  </g>
  <defs>
    <linearGradient id="c" x1="118.65" x2="72.7" y1="35.111" y2="89.078" gradientUnits="userSpaceOnUse">
      <stop stop-color="#E2D177"/>
      <stop offset="1" stop-color="#EE448A"/>
    </linearGradient>
    <linearGradient id="d" x1="134.533" x2="65.667" y1="86.267" y2="140.767" gradientUnits="userSpaceOnUse">
      <stop stop-color="#E2D177"/>
      <stop offset="1" stop-color="#EE448A"/>
    </linearGradient>
    <clipPath id="a">
      <path fill="#fff" d="M0 0h200v200H0z"/>
    </clipPath>
  </defs>
</svg>
