<svg xmlns="http://www.w3.org/2000/svg" width="200" height="200" fill="currentColor" viewBox="0 0 200 200">
  <g clip-path="url(#a)">
    <path fill="#0071F3" d="M99.881 200c55.279 0 99.882-44.759 99.882-99.882C200 44.758 155.16 0 99.881 0 44.84 0 0 44.758 0 99.882 0 155.241 44.84 200 99.881 200Z"/>
    <path fill="#fff" d="M115.777 40.047H80.664c-3.796 0-7.354 2.827-7.829 6.832l-2.372 16.019v.235H58.6c-3.084 0-5.694 2.591-5.694 5.654 0 3.298 2.61 5.653 5.694 5.89h9.965l-1.661 11.07v.943H55.042c-3.085 0-5.694 2.591-5.694 5.654 0 3.062 2.61 5.654 5.694 5.654h9.964l-5.457 34.393-1.66 11.543-.95 6.125c-.711 4.947 2.848 9.187 7.83 9.187H91.34c3.796 0 7.118-2.827 7.83-6.831l4.982-31.567h12.337c22.301 0 40.569-18.374 40.095-40.754-.238-22.85-18.743-40.047-40.807-40.047ZM80.19 74.205l35.587.236c3.084 0 5.931 2.59 5.931 5.889 0 3.298-2.609 5.89-5.931 5.89H78.292l1.898-12.015Zm35.824 34.393h-14.709c-3.796 0-7.118 2.827-7.83 6.832l-4.981 31.566H68.802l7.592-49.47h39.383c9.49 0 17.319-7.773 17.319-17.196 0-9.423-7.829-17.197-17.319-17.197l-33.69-.236L83.75 51.59h32.74c16.133 0 28.944 13.192 28.707 29.21-.475 15.549-13.523 27.798-29.182 27.798Z"/>
  </g>
  <defs>
    <clipPath id="a">
      <path fill="#fff" d="M0 0h200v200H0z"/>
    </clipPath>
  </defs>
</svg>
