<svg xmlns="http://www.w3.org/2000/svg" width="200" height="200" fill="currentColor" viewBox="0 0 200 200">
  <g clip-path="url(#a)">
    <path fill="#C4FF61" d="M200 100C200 44.772 155.228 0 100 0S0 44.772 0 100s44.772 100 100 100 100-44.772 100-100Z"/>
    <path fill="#000" fill-opacity=".7" d="M99.816 41.605 72.636 82.35l3.367 2.047 23.813-35.431v-7.361Zm27.188 40.822-27.18-40.899v7.361l24.082 36.094 3.098-2.556ZM99.803 52.163 80.938 80.435v7.363l18.865-28.273v-7.362Zm18.886 28.325L99.824 52.11v7.363L118.69 87.85v-7.363Z"/>
    <path fill="#000" fill-opacity=".7" d="m99.824 91.003 18.865-10.471v7.351L99.824 98.355v-7.352ZM80.938 80.478l18.865 10.579v7.351L80.938 87.83v-7.352Z"/>
    <path fill="#000" fill-opacity=".7" d="m99.824 97.584 27.18-15.085v7.348l-27.18 15.086v-7.349ZM72.637 82.422l27.18 15.239v7.348L72.636 89.77v-7.348Z"/>
    <path fill="#000" fill-rule="evenodd" d="m99.816 42.306 27.18 40.872-27.18 15.151-27.18-15.232 27.18-40.791ZM80.951 81.169 99.816 52.87l18.865 28.356-18.865 10.512L80.951 81.17Z" clip-rule="evenodd"/>
    <path fill="#000" fill-opacity=".7" d="m66.797 94 .863-1.293v7.372l-.863 1.292V94Zm64.863-1.295.863 1.297v7.372l-.863-1.298v-7.37Z"/>
    <path fill="#000" d="m67.656 92.705 31.996 17.78v7.347l-31.996-17.78v-7.347Z"/>
    <path fill="#000" fill-opacity=".7" d="m99.648 110.396 31.996-17.602v7.347l-31.996 17.602v-7.347Zm-38.984 3.57c.002-6.892 2.013-13.821 6.129-19.95v7.369c-4.116 6.129-6.127 13.057-6.129 19.95v-7.369ZM132.5 93.999c4.131 6.159 6.148 13.108 6.146 20.007v7.354c-.001-6.895-2.018-13.838-6.146-19.992v-7.369Z"/>
    <path fill="#000" d="M60.664 113.979v.015c.002 9.582 3.89 19.092 11.408 26.282v7.366c-7.521-7.193-11.41-16.709-11.408-26.296v-7.367Zm77.988.052c-.002 9.579-3.896 19.064-11.425 26.209v7.366c7.529-7.145 11.423-16.63 11.425-26.209v-7.366Z"/>
    <path fill="#000" d="M127.231 140.421c-15.246 14.341-39.94 14.273-55.16-.152v7.311c15.22 14.426 39.914 14.494 55.16.153v-7.312Z"/>
    <path fill="#000" d="M99.652 110.502 67.656 92.725l-.863 1.287c-4.116 6.11-6.127 13.018-6.129 19.889-.002 9.56 3.887 19.05 11.408 26.223 15.22 14.493 39.915 14.562 55.16.153 7.53-7.125 11.424-16.584 11.426-26.136.001-6.879-2.016-13.806-6.147-19.946l-.863-1.293-31.996 17.6Z"/>
    <path fill="#000" d="M101.152 123.77c-16.8-11.532-29.943-11.556-40.351-7.581v7.327c10.408-3.975 23.55-3.952 40.351 7.58v-7.326Z"/>
    <path fill="#000" fill-opacity=".7" d="M134.897 129.997c-6.179 4.735-15.974 5.938-33.745-6.271v7.333c17.771 12.21 27.566 11.006 33.745 6.271v-7.333Z"/>
    <path fill="#000" d="M72.132 140.167c-6.91-6.608-10.754-15.177-11.331-23.961v7.366c.577 8.784 4.42 17.353 11.331 23.961v-7.366Zm62.757-10.21a37.017 37.017 0 0 1-7.604 10.191v7.364a36.998 36.998 0 0 0 7.604-10.19v-7.365Z"/>
    <path fill="#000" d="M127.309 140.306c-15.246 14.344-39.94 14.277-55.16-.15v7.313c15.22 14.427 39.914 14.494 55.16.15v-7.313Z"/>
    <path fill="#fff" fill-opacity=".1" fill-rule="evenodd" d="M134.896 130.05c-6.179 4.735-15.974 5.938-33.744-6.271-16.8-11.543-29.943-11.567-40.351-7.587.577 8.744 4.42 17.276 11.331 23.855 15.22 14.467 39.915 14.534 55.16.15 3.197-3.02 5.738-6.459 7.604-10.147Z" clip-rule="evenodd"/>
  </g>
  <defs>
    <clipPath id="a">
      <path fill="#fff" d="M0 0h200v200H0z"/>
    </clipPath>
  </defs>
</svg>
