<svg xmlns="http://www.w3.org/2000/svg" width="200" height="200" fill="currentColor" viewBox="0 0 200 200">
  <path fill="url(#a)" d="M100 198c54.124 0 98-43.876 98-98S154.124 2 100 2 2 45.876 2 100s43.876 98 98 98Z"/>
  <path fill="url(#b)" d="M100 12.087c-48.55 0-87.913 39.35-87.913 87.913 0 44.275 32.738 80.912 75.35 87 1.65.25 3.325.437 5.025.575 1.663.15 3.338.237 5.025.287.838.025 1.675.038 2.513.038.837 0 1.675 0 2.512-.038a73.9 73.9 0 0 0 5.025-.287 83.35 83.35 0 0 0 5.025-.563c42.6-6.087 75.35-42.725 75.35-87.012 0-48.563-39.362-87.913-87.912-87.913Z"/>
  <path fill="#fff" d="M138.412 101.075 100 37.462l-38.413 63.613L100 123.7l38.412-22.625Zm-76.825 8.287L100 163.475l38.412-54.113L100 132.1l-38.413-22.738Z"/>
  <defs>
    <linearGradient id="a" x1="169.3" x2="30.7" y1="30.7" y2="169.287" gradientUnits="userSpaceOnUse">
      <stop stop-color="#F2681D"/>
      <stop offset="1" stop-color="#F89863"/>
    </linearGradient>
    <linearGradient id="b" x1="37.843" x2="162.161" y1="162.158" y2="37.84" gradientUnits="userSpaceOnUse">
      <stop stop-color="#F2681D"/>
      <stop offset="1" stop-color="#F89863"/>
    </linearGradient>
  </defs>
</svg>
