<svg xmlns="http://www.w3.org/2000/svg" width="200" height="200" fill="currentColor" viewBox="0 0 200 200">
  <path fill="url(#a)" d="M100 198c54.124 0 98-43.876 98-98S154.124 2 100 2 2 45.876 2 100s43.876 98 98 98Z"/>
  <path fill="url(#b)" d="M100 12.087c-48.55 0-87.913 39.35-87.913 87.913 0 44.275 32.738 80.912 75.35 87 1.65.25 3.325.437 5.025.575 1.663.15 3.338.237 5.025.287.838.025 1.675.038 2.513.038.837 0 1.675 0 2.512-.038a73.9 73.9 0 0 0 5.025-.287 83.35 83.35 0 0 0 5.025-.563c42.6-6.087 75.35-42.725 75.35-87.012 0-48.563-39.362-87.913-87.912-87.913Z"/>
  <path fill="#fff" d="m74.6 136.063-31.2 31.2a77.822 77.822 0 0 0 3.95 3.15l30.8-30.8-3.55-3.55ZM60.388 121.85 29.6 152.638a76.895 76.895 0 0 0 3.15 3.962l31.2-31.187-3.55-3.55-.012-.013Zm14.1.113-38.4 38.4a81.773 81.773 0 0 0 1.75 1.8c.587.587 1.2 1.175 1.8 1.75l38.4-38.4-3.55-3.55Zm69.55-65.988c-5.663-1.55-12.825-.475-20.25 2.875-6.563 2.95-13.325 7.675-19.425 13.937a70.784 70.784 0 0 0-7.288 8.75L85.088 83l-13.363 17.288 12.563 3.25c-.713 2.862-1.05 5.625-1 8.187l-3.163 4.113 4.063 4.062 4.1-3.15c2.575.05 5.325-.287 8.187-1l3.25 12.563 17.263-13.35 1.45-12a71.37 71.37 0 0 0 8.787-7.313c6.263-6.113 11-12.888 13.95-19.463 3.338-7.412 4.4-14.575 2.863-20.224v.012Zm-23.925 35c-3.775 3.775-9.313 4.363-12.375 1.3-3.05-3.05-2.475-8.6 1.3-12.375 3.762-3.763 9.312-4.35 12.362-1.288 3.05 3.05 2.475 8.6-1.287 12.363Z"/>
  <defs>
    <linearGradient id="a" x1="169.3" x2="30.712" y1="30.7" y2="169.287" gradientUnits="userSpaceOnUse">
      <stop stop-color="#F2681D"/>
      <stop offset="1" stop-color="#F89863"/>
    </linearGradient>
    <linearGradient id="b" x1="37.845" x2="162.164" y1="162.156" y2="37.838" gradientUnits="userSpaceOnUse">
      <stop stop-color="#F2681D"/>
      <stop offset="1" stop-color="#F89863"/>
    </linearGradient>
  </defs>
</svg>
