<svg xmlns="http://www.w3.org/2000/svg" width="200" height="200" fill="currentColor" viewBox="0 0 200 200">
  <path fill="#fff" d="M198.039 100c0 54.145-43.894 98.039-98.04 98.039-54.145 0-98.038-43.894-98.038-98.04C1.96 45.855 45.854 1.962 100 1.962c54.145 0 98.039 43.893 98.039 98.039Z"/>
  <path fill="#000" d="M40.929 78.013c-12.277 32.558 4.656 69.343 37.674 81.18 1.27.847 2.54 2.537 2.54 3.806v5.92c0 .846 0 1.268-.424 1.691-.423 1.691-2.116 2.536-3.81 1.691-23.704-7.611-41.907-25.792-49.526-49.469-12.7-40.167 9.313-82.872 49.526-95.556.424-.422 1.27-.422 1.694-.422 1.693.422 2.54 1.69 2.54 3.382v5.919c0 2.114-.847 3.383-2.54 4.228-17.355 6.342-31.324 19.872-37.674 37.63Zm78.735-49.046c.422-1.691 2.116-2.537 3.81-1.691 23.281 7.61 41.906 25.792 49.526 49.892 12.7 40.167-9.313 82.872-49.526 95.557-.424.421-1.27.421-1.694.421-1.694-.421-2.54-1.69-2.54-3.381v-5.92c0-2.115.846-3.383 2.54-4.228 17.355-6.342 31.324-19.872 37.674-37.631 12.276-32.557-4.656-69.341-37.674-81.18-1.27-.846-2.54-2.536-2.54-4.228v-5.92c0-.846 0-1.268.424-1.69Z"/>
  <path fill="#000" d="m73.438 115.901 13.097-9.145c2.895 4.273 6.48 6.893 10.8 7.95v-9.651c-1.839-.551-3.355-1.011-4.504-1.425a75.172 75.172 0 0 1-4.274-1.654c-3.355-1.379-5.147-2.482-7.537-4.55-3.492-2.895-5.147-6.663-5.33-12.27 0-3.538 1.01-6.755 3.079-9.605 2.021-2.849 4.641-5.055 7.904-6.617 3.263-1.563 6.801-2.482 10.662-2.758v-7.352h6.02v7.444c8.639.965 15.533 5.47 20.725 13.511l-12.453 8.64c-2.022-3.309-4.78-5.515-8.272-6.618v9.375c5.744 1.655 9.605 3.125 13.603 5.377 1.975 1.15 3.63 2.344 4.871 3.676 2.482 2.666 4.045 6.435 4.045 10.893 0 5.744-2.758 10.661-7.078 13.74-4.319 3.125-9.743 4.963-15.441 5.377v7.261h-6.02v-7.307c-10.524-.966-18.888-6.02-23.897-14.292Zm33.409-2.39c1.747-1.425 1.655-3.492.184-4.734-.735-.597-1.976-1.24-3.676-1.838v8.042c1.424-.275 2.62-.781 3.492-1.47Zm-9.512-24.265v-7.858c-2.344.505-3.907 1.746-3.907 3.722 0 1.609 1.287 2.987 3.907 4.136Z"/>
</svg>
