<svg xmlns="http://www.w3.org/2000/svg" width="200" height="200" fill="currentColor" viewBox="0 0 200 200">
  <g clip-path="url(#a)">
    <path fill="#fff" d="M100 200c-13.498 0-26.593-2.646-38.926-7.86-11.91-5.038-22.6-12.249-31.786-21.428-9.18-9.18-16.39-19.876-21.428-31.786C2.646 126.593 0 113.497 0 100c0-13.498 2.646-26.593 7.86-38.926 5.038-11.91 12.249-22.6 21.428-31.786 9.18-9.18 19.876-16.39 31.786-21.428C73.407 2.646 86.502 0 100 0c13.497 0 26.593 2.646 38.926 7.86 11.91 5.038 22.599 12.249 31.786 21.428 9.179 9.18 16.39 19.876 21.428 31.786C197.354 73.407 200 86.502 200 100c0 13.497-2.646 26.593-7.86 38.926-5.038 11.91-12.249 22.599-21.428 31.786-9.18 9.179-19.876 16.39-31.786 21.428C126.593 197.354 113.497 200 100 200Z"/>
    <path fill="#000" d="M100 194.701c52.302 0 94.701-42.399 94.701-94.701 0-52.302-42.399-94.701-94.701-94.701C47.698 5.299 5.299 47.698 5.299 100c0 52.302 42.399 94.701 94.701 94.701Z"/>
    <path fill="#fff" d="M149.884 100a49.613 49.613 0 0 0-8.269-27.475l15.487-15.487-13.928-13.928-15.445 15.445a49.561 49.561 0 0 0-27.722-8.439c-10.252 0-19.586 3.048-27.475 8.27L57.038 42.898 43.11 56.826l15.445 15.445a49.56 49.56 0 0 0-8.438 27.722c0 10.252 3.048 19.586 8.269 27.475l-15.494 15.487 13.927 13.928 15.445-15.445a49.56 49.56 0 0 0 27.722 8.438c10.252 0 19.587-3.048 27.475-8.269l15.494 15.495 13.928-13.928-15.445-15.445a49.562 49.562 0 0 0 8.439-27.722l.007-.007Zm-80.06 0c0-16.644 13.539-30.184 30.183-30.184 16.645 0 30.184 13.54 30.184 30.184 0 16.644-13.539 30.184-30.184 30.184-16.644 0-30.184-13.54-30.184-30.184Z"/>
    <path fill="#fff" d="M101.079 96.493c-7.535-2.314-7.535-3.598-7.535-4.628 0-1.432 2.166-3.422 6.244-3.422 2.413 0 6.463.6 6.463 4.628h7.338c0-7.161-5.546-11.966-13.8-11.966-8.82 0-13.583 5.539-13.583 10.753 0 7.119 6.251 9.652 12.68 11.628 7.535 2.314 7.584 3.612 7.584 4.642 0 1.432-2.166 3.422-6.244 3.422-2.413 0-6.463-.6-6.463-4.628h-7.338c0 7.161 5.546 11.966 13.801 11.966 8.819 0 13.582-5.539 13.582-10.76 0-7.126-6.294-9.666-12.722-11.642l-.007.007Z"/>
  </g>
  <defs>
    <clipPath id="a">
      <path fill="#fff" d="M0 0h200v200H0z"/>
    </clipPath>
  </defs>
</svg>
