<svg xmlns="http://www.w3.org/2000/svg" width="200" height="200" fill="currentColor" viewBox="0 0 200 200">
  <g clip-path="url(#a)">
    <path fill="#451834" d="M76.923 15.385h76.923V0H46.154v15.385h30.769Zm-30.769 0H30.769v15.384h15.385V15.385Z"/>
    <path fill="#A1472A" d="M61.538 15.385H46.154v15.384h15.384V15.385Z"/>
    <path fill="#FFE84F" d="M123.077 15.385H61.539v15.384h92.307V15.385h-30.769Z"/>
    <path fill="#451834" d="M169.231 15.385h-15.385v15.384h15.385V15.385ZM30.77 30.769H15.384v15.385h15.384V30.769Z"/>
    <path fill="#A1472A" d="M46.154 30.769H30.769v15.385h15.385V30.769Z"/>
    <path fill="#FFE84F" d="M61.538 30.769H46.154v15.385h15.384V30.769Z"/>
    <path fill="#A1472A" d="M153.846 30.769h-15.384v15.385h15.384V30.769Z"/>
    <path fill="#FFE84F" d="M169.231 30.769h-15.385v15.385h15.385V30.769Z"/>
    <path fill="#451834" d="M184.615 30.769h-15.384v15.385h15.384V30.769Z"/>
    <path fill="#A1472A" d="M153.846 61.538v92.308h15.385V46.154h-15.385v15.384Z"/>
    <path fill="#451834" d="M184.615 46.154v107.692H200V46.154h-15.385Z"/>
    <path fill="#A1472A" d="M138.462 107.692V61.539h-30.77v15.384H92.308V61.54h-30.77v76.923h15.385v-30.77h15.385v15.385h15.384v-15.385h15.385v30.77h15.385v-30.77Z"/>
    <path fill="#451834" d="M15.385 123.077V46.154H0v107.692h15.385v-30.769Z"/>
    <path fill="#FFE84F" d="M46.154 123.077V46.154H30.769v107.692h15.385v-30.769Z"/>
    <path fill="#E39400" d="M153.846 123.077V46.154h-15.385V30.769H61.538v15.385H46.154v107.692h15.384v15.385h76.923v-15.385h15.385v-30.769Zm-30.769 15.384v-30.769h-15.385v15.385H92.308v-15.385H76.923v30.769H61.538V61.538h30.77v15.385h15.384V61.538h30.769v76.923h-15.384Z"/>
    <path fill="#FFE84F" d="M184.615 123.077V46.154h-15.384v107.692h15.384v-30.769Z"/>
    <path fill="#A1472A" d="M30.77 138.461V46.154H15.384v107.692h15.384v-15.385Z"/>
    <path fill="#451834" d="M30.77 153.846H15.384v15.385h15.384v-15.385Z"/>
    <path fill="#A1472A" d="M46.154 153.846H30.769v15.385h15.385v-15.385Z"/>
    <path fill="#FFE84F" d="M61.538 153.846H46.154v15.385h15.384v-15.385Z"/>
    <path fill="#A1472A" d="M153.846 153.846h-15.384v15.385h15.384v-15.385Z"/>
    <path fill="#FFE84F" d="M169.231 153.846h-15.385v15.385h15.385v-15.385Z"/>
    <path fill="#451834" d="M184.615 153.846h-15.384v15.385h15.384v-15.385ZM46.154 169.231H30.769v15.385h15.385v-15.385Z"/>
    <path fill="#A1472A" d="M61.538 169.231H46.154v15.385h15.384v-15.385Z"/>
    <path fill="#FFE84F" d="M138.462 169.231H61.539v15.385h92.307v-15.385h-15.384Z"/>
    <path fill="#451834" d="M169.231 169.231h-15.385v15.385h15.385v-15.385Zm-46.154 15.384H46.154V200h107.692v-15.385h-30.769Z"/>
  </g>
  <defs>
    <clipPath id="a">
      <path fill="#fff" d="M0 0h200v200H0z"/>
    </clipPath>
  </defs>
</svg>
