<svg xmlns="http://www.w3.org/2000/svg" width="142" height="200" fill="currentColor" viewBox="0 0 142 200">
  <path fill="#2DB1FF" d="m40.664 158.173 25.226-31.095a6.597 6.597 0 0 1 5.113-2.436 6.585 6.585 0 0 1 5.113 2.436l25.223 31.095a6.579 6.579 0 0 1 0 8.296l-25.223 31.096A6.593 6.593 0 0 1 71.003 200a6.594 6.594 0 0 1-5.113-2.435l-25.228-31.098a6.583 6.583 0 0 1 0-8.296l.002.002Z" opacity=".62"/>
  <path fill="#2DB1FF" d="m79.855 82.135 25.221-31.094a6.601 6.601 0 0 1 5.114-2.435 6.58 6.58 0 0 1 5.114 2.435l25.224 31.091a6.581 6.581 0 0 1 0 8.298l-25.221 31.096a6.596 6.596 0 0 1-5.113 2.436 6.583 6.583 0 0 1-5.113-2.436L79.853 90.433a6.58 6.58 0 0 1 .002-8.298Zm-78.384 0L26.697 51.04a6.597 6.597 0 0 1 5.113-2.435 6.58 6.58 0 0 1 5.113 2.435l25.226 31.091a6.582 6.582 0 0 1 0 8.298L36.92 121.526a6.596 6.596 0 0 1-5.113 2.436 6.585 6.585 0 0 1-5.113-2.436L1.47 90.433a6.582 6.582 0 0 1 0-8.298Zm39.194-48.602L65.89 2.435A6.598 6.598 0 0 1 71.003 0a6.581 6.581 0 0 1 5.113 2.435l25.223 31.096a6.578 6.578 0 0 1 0 8.296L76.116 72.923a6.597 6.597 0 0 1-5.113 2.435 6.58 6.58 0 0 1-5.113-2.435L40.662 41.832a6.582 6.582 0 0 1 .003-8.299Z"/>
</svg>
