<svg xmlns="http://www.w3.org/2000/svg" width="200" height="203" fill="currentColor" viewBox="0 0 200 203">
  <path fill="#041115" d="M99.632 202.017c55.025 0 99.631-44.534 99.631-99.468 0-54.936-44.606-99.469-99.631-99.469S0 47.614 0 102.55c0 54.934 44.607 99.468 99.632 99.468Z"/>
  <path fill="#FC6521" fill-rule="evenodd" d="M99.631 180.883c43.333 0 78.46-35.07 78.46-78.332 0-43.26-35.127-78.33-78.46-78.33-43.332 0-78.46 35.07-78.46 78.33 0 43.262 35.128 78.332 78.46 78.332Zm0 8.703c48.147 0 87.178-38.967 87.178-87.035s-39.031-87.034-87.178-87.034-87.177 38.966-87.177 87.034c0 48.068 39.03 87.035 87.177 87.035Z" clip-rule="evenodd"/>
  <path fill="#fff" d="M128.85 72.824c-4.435-10.286-14.651-12.467-27.164-10.34l-4.013-15.886-9.477 2.504 3.96 15.832c-2.482.647-5.042 1.185-7.577 1.912l-3.96-15.751-9.476 2.504 4.013 15.886c-2.033.592-19.113 5.062-19.113 5.062l2.614 10.34s6.969-1.993 6.89-1.832c3.853-1.023 5.675.943 6.52 2.8L83.1 129.394c.132 1.265-.079 3.42-2.745 4.146.158.081-6.89 1.804-6.89 1.804l1.03 12.063s16.92-4.416 19.138-4.981L97.7 158.5l9.477-2.504-4.066-16.182a315.317 315.317 0 0 0 7.603-1.912l4.039 16.102 9.477-2.504-4.065-16.048c14.598-3.608 24.893-13.005 22.781-27.356-1.346-8.643-10.612-15.751-18.32-16.56 4.752-4.28 7.154-10.527 4.224-18.712Zm-4.567 37.884c1.874 14.216-17.476 15.966-23.891 17.663l-5.57-21.271c6.441-1.697 26.293-8.913 29.461 3.608Zm-11.668-28.945c2.006 12.628-14.572 14.109-19.905 15.509l-5.068-19.306c5.359-1.373 20.907-7.916 24.973 3.797Z"/>
</svg>
