<svg xmlns="http://www.w3.org/2000/svg" width="200" height="200" fill="currentColor" viewBox="0 0 200 200">
  <g clip-path="url(#a)">
    <mask id="b" width="200" height="200" x="0" y="0" maskUnits="userSpaceOnUse" style="mask-type:luminance">
      <path fill="#fff" d="M200 0H0v200h200V0Z"/>
    </mask>
    <g mask="url(#b)">
      <path fill="#2775CA" d="M100 0c55.417 0 100 44.583 100 100 0 12.288-2.203 24.039-6.219 34.894-7.52-12.356-21.118-20.606-36.64-20.606-23.667.001-42.852 19.185-42.853 42.853 0 15.524 8.253 29.12 20.612 36.64C124.044 197.798 112.29 200 100 200 44.583 200 0 155.417 0 100S44.583 0 100 0Z"/>
      <path fill="#fff" d="M78.956 27.93c1.666.416 2.496 1.666 2.496 3.332v5.835c0 2.082-.83 3.33-2.496 4.163-17.083 6.25-30.835 19.585-37.085 37.085-12.084 32.084 4.585 68.332 37.085 79.999 1.25.833 2.496 2.504 2.496 3.754v5.834c0 .832.002 1.251-.415 1.667-.416 1.664-2.082 2.496-3.747 1.666-23.333-7.5-41.255-25.422-48.755-48.755-12.498-39.582 9.173-81.666 48.755-94.165.417-.415 1.25-.415 1.666-.415Zm40.405 2.075c.417-1.666 2.088-2.5 3.754-1.666 22.916 7.5 41.249 25.42 48.749 49.17 4.249 13.456 4.535 27.198 1.526 39.972a42.581 42.581 0 0 0-12.653-3.04c7.285-30.12-9.211-61.969-39.288-72.766-1.25-.834-2.503-2.502-2.503-4.169v-5.835c0-.832-.001-1.25.415-1.666Z"/>
      <path fill="#fff" d="M127.904 114.781c0-14.583-8.751-19.584-26.251-21.667-12.5-1.666-15-5-15-10.833 0-5.835 4.168-9.584 12.5-9.584 7.5 0 11.668 2.5 13.751 8.75.417 1.25 1.667 2.084 2.917 2.084h6.665c1.667 0 2.918-1.25 2.918-2.917v-.416c-1.667-9.167-9.167-16.25-18.75-17.084v-10c0-1.667-1.251-2.917-3.333-3.334h-6.25c-1.668 0-2.918 1.25-3.335 3.334v9.584c-12.5 1.666-20.415 10-20.415 20.416 0 13.75 8.332 19.167 25.832 21.25 11.668 2.084 15.418 4.584 15.418 11.25 0 6.667-5.835 11.25-13.75 11.25-10.835 0-14.585-4.583-15.835-10.833-.415-1.667-1.665-2.5-2.915-2.5h-7.085c-1.665 0-2.916 1.25-2.916 2.917v.416c1.667 10.417 8.333 17.917 22.083 20v10c0 1.667 1.25 2.917 3.333 3.334h6.25c1.667 0 2.917-1.25 3.335-3.334v-10c12.5-2.083 20.833-10.833 20.833-22.083Z"/>
      <path fill="url(#c)" d="M157.143 189.286c17.752 0 32.143-14.391 32.143-32.143 0-17.752-14.391-32.143-32.143-32.143C139.391 125 125 139.391 125 157.143c0 17.752 14.391 32.143 32.143 32.143Z"/>
      <path fill="#fff" d="M163.406 160.117h17.266c.664 0 .798-.905.194-1.181l-17.459-7.952v-17.333c0-.647-.865-.859-1.164-.285l-7.177 13.82-7.954-3.654c-.761-.306-1.228.313-.97.845l4.743 9.784h-17.266c-.664 0-.798.905-.194 1.18l17.459 7.952v17.334c0 .647.865.859 1.164.285l7.178-13.82 7.953 3.653c.761.307 1.228-.312.97-.844l-4.743-9.784Z"/>
    </g>
  </g>
  <defs>
    <linearGradient id="c" x1="193.634" x2="122.834" y1="153.333" y2="152.118" gradientUnits="userSpaceOnUse">
      <stop stop-color="#FFCD4D"/>
      <stop offset="1" stop-color="#FA43BD"/>
    </linearGradient>
    <clipPath id="a">
      <path fill="#fff" d="M0 0h200v200H0z"/>
    </clipPath>
  </defs>
</svg>
