<svg xmlns="http://www.w3.org/2000/svg" width="200" height="200" fill="currentColor" viewBox="0 0 200 200">
  <g clip-path="url(#a)">
    <mask id="b" width="200" height="200" x="0" y="0" maskUnits="userSpaceOnUse" style="mask-type:luminance">
      <path fill="#fff" d="M0 0h200v200H0V0Z"/>
    </mask>
    <g mask="url(#b)">
      <mask id="d" width="200" height="200" x="0" y="0" maskUnits="userSpaceOnUse" style="mask-type:alpha">
        <path fill="url(#c)" d="M100 200c55.228 0 100-44.772 100-100S155.228 0 100 0 0 44.772 0 100s44.772 100 100 100Z"/>
      </mask>
      <g mask="url(#d)">
        <path fill="#34EDB3" d="M100 200c55.228 0 100-44.772 100-100S155.228 0 100 0 0 44.772 0 100s44.772 100 100 100Z"/>
        <path fill="#fff" d="M100 186.667c47.865 0 86.667-38.802 86.667-86.667S147.865 13.333 100 13.333 13.333 52.135 13.333 100 52.135 186.667 100 186.667Z"/>
      </g>
      <path fill="#06061B" d="M100 176.667c42.342 0 76.667-34.325 76.667-76.667S142.342 23.333 100 23.333 23.333 57.658 23.333 100 57.658 176.667 100 176.667Z"/>
      <path fill="#06061B" d="M100 176.667c42.342 0 76.667-34.325 76.667-76.667S142.342 23.333 100 23.333 23.333 57.658 23.333 100 57.658 176.667 100 176.667Z"/>
      <path fill="#fff" d="M97.433 134.6a31.435 31.435 0 0 1-9.4-2.2 26.174 26.174 0 0 1-7.6-4.9 23.33 23.33 0 0 1-5.095-6.9 20 20 0 0 1-2-8.5h12.295c.134 3.267 1.267 6 3.4 8.2 2.2 2.133 5 3.367 8.4 3.7v-19.8l-4.7-.7c-5.4-.733-9.7-2.767-12.9-6.1-3.133-3.333-4.7-7.567-4.7-12.7 0-2.667.6-5.167 1.8-7.5a20.477 20.477 0 0 1 4.905-6.3 25.239 25.239 0 0 1 7.095-4.5 28.569 28.569 0 0 1 8.5-2.1V55h7.3v9.5c3 .4 5.767 1.2 8.3 2.4a22.842 22.842 0 0 1 6.6 4.4 20.21 20.21 0 0 1 4.4 6.2c1.134 2.333 1.769 4.833 1.905 7.5h-12.305a9.425 9.425 0 0 0-2.7-6.2 12.235 12.235 0 0 0-6.2-3.7v18.3l3.4.5a28.568 28.568 0 0 1 7.2 2.1c2.27 1 4.238 2.3 5.905 3.9 1.727 1.6 3.06 3.533 4 5.8 1 2.2 1.499 4.7 1.495 7.5a19.528 19.528 0 0 1-6.3 14.6 24.739 24.739 0 0 1-7 4.5 30.456 30.456 0 0 1-8.7 2.2v10.3h-7.3v-10.2Zm7.3-10.7c3.137-.533 5.57-1.667 7.3-3.4 1.734-1.8 2.6-4.067 2.6-6.8 0-2.533-.833-4.4-2.5-5.6a13.335 13.335 0 0 0-5.7-2.5l-1.7-.3v18.6Zm-7.3-49.1a14.094 14.094 0 0 0-7.2 3.1c-1.933 1.6-2.9 3.767-2.9 6.5 0 2.333.635 4.1 1.905 5.3 1.334 1.133 3.065 1.867 5.195 2.2l3 .5V74.8Z"/>
    </g>
  </g>
  <defs>
    <linearGradient id="c" x1="100" x2="100" y1="0" y2="292.424" gradientUnits="userSpaceOnUse">
      <stop stop-color="#08021E"/>
      <stop offset="1" stop-color="#1F0777"/>
    </linearGradient>
    <clipPath id="a">
      <path fill="#fff" d="M0 0h200v200H0z"/>
    </clipPath>
  </defs>
</svg>
