<svg width="204" height="204" viewBox="0 0 204 204" fill="none"
  xmlns="http://www.w3.org/2000/svg">
  <path d="M202 102C202 46.7715 157.228 2 102 2C46.7715 2 2 46.7715 2 102C2 157.228 46.7715 202 102 202C157.228 202 202 157.228 202 102Z" fill="url(#paint0_linear_2037_2401)"/>
  <path d="M202 102C202 46.7715 157.228 2 102 2C46.7715 2 2 46.7715 2 102C2 157.228 46.7715 202 102 202C157.228 202 202 157.228 202 102Z" stroke="url(#paint1_linear_2037_2401)" stroke-width="2.18182"/>
  <mask id="mask0_2037_2401" style="mask-type:alpha" maskUnits="userSpaceOnUse" x="57" y="34" width="90" height="136">
    <path fill-rule="evenodd" clip-rule="evenodd" d="M58.4562 106.089L57.6533 107.41L59.8654 110.512C59.1871 109.065 58.7436 107.538 58.4562 106.089ZM61.0779 101.772C69.6713 106.078 81.8218 104.814 97.529 97.9823C114.032 90.8039 127.553 89.9333 138.093 95.3703C138.755 95.7117 139.364 96.0736 139.926 96.4527L102.191 34.0754L61.0779 101.772ZM146.005 106.502C146.066 107.017 146.103 107.525 146.12 108.022L146.555 107.41L146.005 106.502ZM142.905 112.548C130.99 103.489 118.026 104.07 100.278 111.789C86.0738 117.968 74.7784 119.592 66.3911 116.662C64.904 116.143 63.676 115.37 62.6632 114.434L102.191 169.849L142.905 112.548Z" fill="white"/>
  </mask>
  <g mask="url(#mask0_2037_2401)">
    <path d="M102.199 33.9031L100.892 36.9526V102.049H102.199L150.099 95.3903L102.199 33.9031Z" fill="#7591F2"/>
    <path d="M102.19 33.5569L60.2476 103.06L102.19 127.82V84.0202V33.5569Z" fill="white"/>
    <path d="M102.097 111.073L101.581 136.416V168.517L102.097 170.022L145.955 108.103L126.323 93.5745L102.097 111.073Z" fill="#7591F2"/>
    <path d="M102.19 170.021V111.073H60.2476L102.19 170.021Z" fill="white"/>
  </g>
  <defs>
    <linearGradient id="paint0_linear_2037_2401" x1="102" y1="5.77355" x2="102" y2="205.774" gradientUnits="userSpaceOnUse">
      <stop stop-color="#2041CA"/>
      <stop offset="1" stop-color="#3068EF"/>
    </linearGradient>
    <linearGradient id="paint1_linear_2037_2401" x1="102" y1="205.884" x2="102" y2="-1.66078" gradientUnits="userSpaceOnUse">
      <stop stop-color="#CFDFFF"/>
      <stop offset="1" stop-color="#7CACFF"/>
    </linearGradient>
  </defs>
</svg>
