<svg xmlns="http://www.w3.org/2000/svg" width="200" height="200" fill="currentColor" viewBox="0 0 200 200">
  <path fill="#000" d="M100 200c55.228 0 100-44.772 100-100S155.228 0 100 0 0 44.772 0 100s44.772 100 100 100Z"/>
  <path stroke="url(#a)" stroke-width="3" d="M102.218 55.18 50.18 101.563h103.077l-51.039 46.385" opacity=".7"/>
  <path fill="#000" d="M101.718 72.359c9.488 0 17.18-7.692 17.18-17.18S111.206 38 101.718 38s-17.18 7.691-17.18 17.18c0 9.487 7.692 17.179 17.18 17.179Z"/>
  <path fill="url(#b)" d="M101.718 72.359c9.488 0 17.18-7.692 17.18-17.18S111.206 38 101.718 38s-17.18 7.691-17.18 17.18c0 9.487 7.692 17.179 17.18 17.179Z"/>
  <path fill="#000" d="M50.18 117.026c9.487 0 17.179-7.692 17.179-17.18s-7.692-17.18-17.18-17.18S33 90.359 33 99.847s7.691 17.18 17.18 17.18Z"/>
  <path fill="url(#c)" d="M50.18 117.026c9.487 0 17.179-7.692 17.179-17.18s-7.692-17.18-17.18-17.18S33 90.359 33 99.847s7.691 17.18 17.18 17.18Z"/>
  <path fill="#000" d="M101.718 161.692c9.488 0 17.18-7.691 17.18-17.179s-7.692-17.18-17.18-17.18-17.18 7.692-17.18 17.18 7.692 17.179 17.18 17.179Z"/>
  <path fill="url(#d)" d="M101.718 161.692c9.488 0 17.18-7.691 17.18-17.179s-7.692-17.18-17.18-17.18-17.18 7.692-17.18 17.18 7.692 17.179 17.18 17.179Z"/>
  <path fill="#000" d="M149.821 117.026c9.487 0 17.179-7.692 17.179-17.18s-7.692-17.18-17.179-17.18c-9.488 0-17.18 7.692-17.18 17.18s7.692 17.18 17.18 17.18Z"/>
  <path fill="url(#e)" d="M149.821 117.026c9.487 0 17.179-7.692 17.179-17.18s-7.692-17.18-17.179-17.18c-9.488 0-17.18 7.692-17.18 17.18s7.692 17.18 17.18 17.18Z"/>
  <defs>
    <radialGradient id="a" cx="0" cy="0" r="1" gradientTransform="matrix(257.338 0 0 326.396 -73.114 146.008)" gradientUnits="userSpaceOnUse">
      <stop stop-color="#F0F"/>
      <stop offset="1" stop-color="#AC8FFF"/>
    </radialGradient>
    <radialGradient id="b" cx="0" cy="0" r="1" gradientTransform="matrix(85.7792 0 0 120.887 43.44 71.64)" gradientUnits="userSpaceOnUse">
      <stop stop-color="#F0F"/>
      <stop offset="1" stop-color="#AC8FFF"/>
    </radialGradient>
    <radialGradient id="c" cx="0" cy="0" r="1" gradientTransform="matrix(85.7792 0 0 120.887 -8.098 116.307)" gradientUnits="userSpaceOnUse">
      <stop stop-color="#F0F"/>
      <stop offset="1" stop-color="#AC8FFF"/>
    </radialGradient>
    <radialGradient id="d" cx="0" cy="0" r="1" gradientTransform="matrix(85.7792 0 0 120.887 43.44 160.974)" gradientUnits="userSpaceOnUse">
      <stop stop-color="#F0F"/>
      <stop offset="1" stop-color="#AC8FFF"/>
    </radialGradient>
    <radialGradient id="e" cx="0" cy="0" r="1" gradientTransform="matrix(85.7792 0 0 120.887 91.543 116.307)" gradientUnits="userSpaceOnUse">
      <stop stop-color="#F0F"/>
      <stop offset="1" stop-color="#AC8FFF"/>
    </radialGradient>
  </defs>
</svg>
