<svg xmlns="http://www.w3.org/2000/svg" width="200" height="200" fill="currentColor" viewBox="0 0 200 200">
  <g clip-path="url(#a)">
    <path fill="#FC7A4A" d="M200 100C200 44.772 155.228 0 100 0S0 44.772 0 100s44.772 100 100 100 100-44.772 100-100Z"/>
    <path fill="#fff" d="M51.014 89.914c21.39-.61 72.405-2.9 83.79-19.107 8.655-12.315-10.448-25.14-19.528-29.775-9.079-4.648-21.71-6.724-21.71-6.724 25.419 2.806 65.603 16.428 53.095 41.194-11.2 22.167-69.598 25.181-95.66 25.181V89.908h.014v.006Zm.002 55.19v-10.53c32.338-1.051 75.575-2.081 97.989-22.922.608 18.36-25.246 26.642-45.033 30.094-17.127 2.987-35.385 3.837-52.95 3.358h-.006Z"/>
    <path fill="#fff" d="M148.007 89.153c-17.751 17.741-52.044 22.985-97.006 22.985v10.624c47.282 0 96.869-7.031 97.006-33.609Z"/>
  </g>
  <defs>
    <clipPath id="a">
      <path fill="#fff" d="M0 0h200v200H0z"/>
    </clipPath>
  </defs>
</svg>
