<svg xmlns="http://www.w3.org/2000/svg" width="200" height="200" fill="currentColor" viewBox="0 0 200 200">
  <g clip-path="url(#a)">
    <path fill="#E81899" d="M100 200c55.228 0 100-44.772 100-100S155.228 0 100 0 0 44.772 0 100s44.772 100 100 100Z"/>
    <path fill="#fff" d="M163.718 129.946 140.87 98.905a14.504 14.504 0 0 0-10.071-5.84 2.824 2.824 0 0 1-2.132-1.4 2.834 2.834 0 0 1-.144-2.554 14.481 14.481 0 0 0-.024-11.639l-15.456-35.305a14.39 14.39 0 0 0-13.19-8.623 14.402 14.402 0 0 0-13.19 8.623L71.205 77.472a14.519 14.519 0 0 0-.024 11.639 2.861 2.861 0 0 1-.143 2.554 2.842 2.842 0 0 1-2.132 1.4 14.502 14.502 0 0 0-10.071 5.84l-22.848 31.041a14.41 14.41 0 0 0-.875 15.735 14.424 14.424 0 0 0 14.065 7.112l38.304-4.264a14.479 14.479 0 0 0 10.088-5.799 2.842 2.842 0 0 1 2.283-1.153 2.85 2.85 0 0 1 2.283 1.153 14.48 14.48 0 0 0 10.088 5.799l38.304 4.264a14.4 14.4 0 0 0 13.191-22.847Zm-82.52-48.042 15.48-35.345a3.483 3.483 0 0 1 3.183-2.084c1.377 0 2.625.82 3.182 2.084l15.482 35.345a3.605 3.605 0 0 1-3.31 5.052H84.499a3.615 3.615 0 0 1-3.022-1.63 3.612 3.612 0 0 1-.287-3.422h.008Zm7.947 53.809a3.607 3.607 0 0 1-2.824 1.957l-38.345 4.265a3.487 3.487 0 0 1-3.397-1.711 3.466 3.466 0 0 1 .215-3.795l22.871-31.073a3.6 3.6 0 0 1 3.103-1.464 3.598 3.598 0 0 1 2.927 1.797l.024.04 15.314 26.524.024.04a3.593 3.593 0 0 1 .096 3.429l-.009-.008.001-.001Zm13.858-11.996a3.645 3.645 0 0 1-3.15 1.822 3.648 3.648 0 0 1-3.151-1.814l-11.766-20.373a3.62 3.62 0 0 1 0-3.636 3.647 3.647 0 0 1 3.15-1.821h23.524a3.633 3.633 0 0 1 3.151 5.449l-11.758 20.373Zm52.131 16.507a3.488 3.488 0 0 1-3.397 1.719l-38.344-4.265a3.607 3.607 0 0 1-2.73-5.386l.024-.04 15.314-26.523.024-.04a3.6 3.6 0 0 1 2.928-1.798 3.62 3.62 0 0 1 3.102 1.464l22.872 31.074a3.478 3.478 0 0 1 .214 3.794h-.008l.001.001Z"/>
  </g>
  <defs>
    <clipPath id="a">
      <path fill="#fff" d="M0 0h200v200H0z"/>
    </clipPath>
  </defs>
</svg>
