<svg xmlns="http://www.w3.org/2000/svg" width="200" height="200" fill="currentColor" viewBox="0 0 200 200">
  <path fill="#fff" d="M100 200c55.228 0 100-44.772 100-100S155.228 0 100 0 0 44.772 0 100s44.772 100 100 100Z"/>
  <path fill="#2A72E5" d="M21.495 84.165a96.774 96.774 0 0 0-1.516 5.375 8.121 8.121 0 0 1 1.506-3.093 8.086 8.086 0 0 1 2.65-2.188 21.583 21.583 0 0 1 7.58-6.18 21.5 21.5 0 0 1 9.52-2.19v-.063c-12.282-3.541-16.093.514-17.159 2.42a42.08 42.08 0 0 0-2.578 5.904m12.723-18.929-1.813 1.74c2.078-1.71 5.505-1.314 10.78 1.256a23 23 0 0 1 4.304-5.54c-2.502-1.82-5.036-3.425-6.646-2.675a57.392 57.392 0 0 0-6.632 5.22M59.466 50.95c-1.875.692-4.373 1.616-6.23 2.377a22.698 22.698 0 0 1 2.607 3.36 61.491 61.491 0 0 1 8.703-3.895c-.505-2.104-.628-3.156 0-3.421-1.534.47-3.587 1.048-5.106 1.58M89.92 45.2c-2.854.233-6.654.59-9.5.925-1.487.364-2.143.902-2.88 3.151 3.88-.74 7.798-1.264 11.734-1.572A6.419 6.419 0 0 1 94.377 45l-4.457.2Zm31.694 1.726c-2.669-.408-6.23-.917-8.909-1.234-2.68-.32-5.386.326-7.636 1.82 4.089.212 8.164.642 12.209 1.288a15.246 15.246 0 0 1 9.579-.84c-1.573-.313-3.662-.772-5.243-1.034Zm28.598 9.069c-1.98-.92-4.623-2.129-6.632-2.966a20.374 20.374 0 0 0-12.492-1.023 75.736 75.736 0 0 1 9.547 3.684 23.228 23.228 0 0 1 15.593 3.661c-1.795-1.037-4.182-2.442-6.027-3.355m28.388 29.837a45.625 45.625 0 0 0-5.479-10.824l-1.414-1.955a27.152 27.152 0 0 0-9.361-8.356 27.038 27.038 0 0 0-12.105-3.24 30.667 30.667 0 0 1 5.471 5.38c14.428 2.049 24.36 14.78 25.299 32.436a45.235 45.235 0 0 0-2.411-13.441Z"/>
  <path fill="#2A72E5" d="M157.968 139.928a62.58 62.58 0 0 0 7.817-6.009c.921-.899 2.176-2.085 3.043-3.028 17.995-20.931 9.819-51.136-9.504-56.614.208.957.32 1.933.334 2.912v.52c-.02.96-.133 1.916-.338 2.854 20.668 9.364 18.641 46.736-3.292 60.584l1.94-1.204"/>
  <path fill="#2A72E5" d="M130.94 150.934c2.691-.699 6.266-1.7 8.935-2.519 26.469-9.983 30.678-50.743 15.826-60.548a29.636 29.636 0 0 1-5.467 5.212c12.564 13.907-.312 53.196-23.891 58.838l4.597-.983Z"/>
  <path fill="#2A72E5" d="M100.149 154.188c2.495-.022 5.823-.059 8.318-.157 21.977-2.278 37.619-42.79 32.176-55.467a72.882 72.882 0 0 1-9.547 3.407c-.05 16.203-21.781 52.41-37.365 52.002 1.925.069 4.493.211 6.418.215Zm-31.876-4.175c2.455.593 5.736 1.354 8.206 1.86 9.17.677 32.271-30.572 40.788-47.089-4.061.527-8.148.836-12.241.928-6.657 6.486-24.222 26.886-27.673 30.911-8.891 10.358-12.195 12.324-13.398 12.149l4.318 1.241Zm-26.789-11.701a73.57 73.57 0 0 0 8.311 4.833l.236.116c.493-2.635 22.347-28.84 39.218-38.215a108.78 108.78 0 0 1-11.708-1.915c-20.157 7.756-40.734 31.483-37.191 34.394l1.134.787Zm-14.586-14.177c.953 1.288 2.24 2.999 3.263 4.222-4.54-6.944 14.602-24.928 34.41-29.117-3-1.16-5.91-2.546-8.702-4.145-18.228 1.987-35.574 14.955-32.006 23.919.873 1.572 2.045 3.665 3.053 5.125m-7.912-25.437v.877c.08 1.522.206 3.545.362 5.056-.49-9.864 14.431-16.236 28.13-15.785a23.938 23.938 0 0 1-4.307-5.674c-11.582-1.493-17.913 1.507-21.187 4.28a24.087 24.087 0 0 0-2.998 11.246Z"/>
</svg>
