<svg xmlns="http://www.w3.org/2000/svg" width="200" height="200" fill="currentColor" viewBox="0 0 200 200">
  <g clip-path="url(#a)">
    <path fill="#000" d="M100.1 200c55.228 0 100-44.772 100-100S155.328 0 100.1 0C44.871 0 .1 44.772.1 100s44.771 100 100 100Z"/>
    <path fill="#fff" d="M86.673 67.484H99.71l-29.534 65.08H57.138l29.535-65.08Zm26.084 0H99.719l29.534 65.08h13.038l-29.534-65.08ZM99.605 99.627l13.016 33.05H86.589l13.016-33.05Z"/>
    <path fill="#fff" d="M171.386 110.044c-5.029 34.788-34.967 61.516-71.148 61.516s-66.12-26.728-71.148-61.516H17.878c5.105 40.944 40.032 72.627 82.36 72.627 42.327 0 77.254-31.683 82.36-72.627h-11.212ZM29.09 89.293c5.028-34.788 34.967-61.515 71.148-61.515s66.119 26.727 71.148 61.515h11.212c-5.106-40.944-40.033-72.627-82.36-72.627-42.328 0-77.255 31.683-82.36 72.627H29.09Z"/>
  </g>
  <defs>
    <clipPath id="a">
      <path fill="#fff" d="M0 0h200v200H0z"/>
    </clipPath>
  </defs>
</svg>
