<svg xmlns="http://www.w3.org/2000/svg" width="200" height="200" fill="currentColor" viewBox="0 0 200 200">
  <g clip-path="url(#a)">
    <path fill="#314012" d="M99.89 199.015c55.137 0 99.834-44.468 99.834-99.322S155.027.372 99.89.372.056 44.839.056 99.693s44.697 99.322 99.834 99.322Z"/>
    <path fill="#C7E36C" fill-rule="evenodd" d="M174.11 105.079c-2.874 38.201-34.948 68.307-74.093 68.307-41.037 0-74.303-33.086-74.303-73.899S58.98 25.59 100.017 25.59c39.08 0 71.114 30.007 74.079 68.119h-35.525c7.755-17.048 8.224-32.537-.257-39.614-12.523-10.451-39.822 1.4-60.974 26.47-21.151 25.07-28.145 53.866-15.622 64.317 12.524 10.451 39.823-1.399 60.975-26.47a116.24 116.24 0 0 0 9.741-13.332h41.676Z" clip-rule="evenodd"/>
    <path fill="#C7E36C" d="M105.598 105.079h29.712l-11.474 14.947-18.238-7.283v-7.664Z"/>
  </g>
  <defs>
    <clipPath id="a">
      <path fill="#fff" d="M0 0h200v200H0z"/>
    </clipPath>
  </defs>
</svg>
