<svg xmlns="http://www.w3.org/2000/svg" width="200" height="200" fill="currentColor" viewBox="0 0 200 200">
  <g clip-path="url(#a)">
    <path fill="#039" stroke="#FC0" stroke-miterlimit="10" stroke-width=".444" d="M100 0c55.227 0 100 44.772 100 100 0 55.227-44.773 100-100 100C44.772 200 0 155.227 0 100 0 44.772 44.772 0 100 0Z"/>
    <path fill="#FC0" stroke="#1A4BC6" stroke-width=".011" d="M139.532 90.785c-.304-16.039-22.228-35.278-22.228-35.278s8.829 14.95 9.967 20.66c-9.599-11.549-27.395-17.869-27.395-17.869s19.369 18.987 20.965 22.541c-15.293-11.117-44.202-14.674-44.202-14.674s32.832 15.31 35.483 18.862C88.23 74.88 63.378 80 63.378 80s32.317 6 38 10.187c-22.593-2.9-46.84 7.07-46.84 7.07s33.592-1.285 38.77.237c-19.512-.605-41.928 16.259-41.928 16.259s22.202-6.126 33.19-7.776c-21.468 8.884-35.588 27.699-35.588 27.699s17.44-11.582 24.385-13.359c-1.39 3.933-5.717 12.089.344 13.359 4.85 1.015 16.987-2.2 19.598-3.046.758 1.903 1.577 3.046 6.062 3.046 3.915 0 7.535-1.693 8.966-3.046 1.389 1.903 3.37 3.046 6.187 3.046 3.409 0 5.095-.761 6.315-1.776 1.137 1.015 2.274 1.535 5.683 1.302 5.684-.389 5.935-7.013 6.441-12.722.506-5.71 6.189-12.182 12.756-15.482 6.567-3.3 6.567-9.263 2.526-7.74-5.304 1.268 1.768 4.06-5.304 7.105-11.999 6.598-16.796 13.959-19.449 20.557-2.651 6.598-10.609 4.187-10.609 2.793 0-1.396 4.295-7.487 0-8.376-4.642-.961-10.103 3.172-18.312 6.472-4.8 1.93-16.356 5.076-15.787 2.793 4.2-16.878 23.616-21.572 34.983-25.505-7.704-1.397-21.848 0-21.848 0s15.983-4.53 22.928-4.53c-7.83-3.047-19.082-5.317-19.082-5.317s17.137 1.257 22.609 1.933c-4.168-2.918-16.998-9.666-16.998-9.666s18.321 5.018 20.846 6.286c-.807-2.842-11.866-13.214-11.866-13.214s15.156 8.937 17.553 11.602c-.505-3.68-7.072-15.308-7.072-15.308s10.817 10.82 13.091 14.502c.505-4.187-2.887-15.468-2.887-15.468s5.839 11.92 8.491 16.868ZM100.2 12.248l2.918 8.987 9.302-.011-7.552 5.583 2.885 8.94-7.585-5.537-7.518 5.538 2.865-9.004-7.532-5.519 9.356-.027 2.861-8.95Z"/>
    <path fill="#FC0" d="m138.093 22.24 2.918 8.986 9.302-.01-7.552 5.582 2.885 8.941-7.585-5.537-7.518 5.537 2.865-9.003-7.532-5.519 9.356-.028 2.861-8.95Zm27.761 28.149 2.919 8.987 9.301-.011-7.551 5.583 2.883 8.94-7.585-5.536-7.518 5.537 2.865-9.004-7.532-5.519 9.355-.027 2.863-8.95Zm10.296 37.794 2.919 8.988 9.301-.012-7.551 5.583 2.885 8.941-7.585-5.537-7.519 5.537 2.865-9.003-7.531-5.519 9.355-.028 2.861-8.95Zm-10.18 37.857 2.919 8.987 9.302-.011-7.552 5.583 2.885 8.941-7.585-5.537-7.519 5.537 2.865-9.004-7.532-5.518 9.356-.028 2.861-8.95Zm-27.885 27.74 2.919 8.987 9.302-.011-7.552 5.583 2.885 8.941-7.585-5.537-7.519 5.537 2.865-9.004-7.532-5.519 9.356-.027 2.861-8.95ZM100.2 163.847l2.918 8.987 9.302-.011-7.552 5.583 2.885 8.941-7.585-5.537-7.518 5.537 2.865-9.004-7.532-5.518 9.356-.028 2.861-8.95Zm-37.948-10.211 2.919 8.986 9.302-.01-7.552 5.583 2.885 8.941-7.585-5.538-7.519 5.538 2.865-9.004-7.531-5.519 9.355-.027 2.861-8.95ZM34.51 126.04l2.92 8.987 9.301-.011-7.552 5.583 2.886 8.941-7.586-5.537-7.518 5.537 2.865-9.004-7.532-5.518 9.356-.028 2.86-8.95ZM24.299 88.23l2.918 8.987 9.302-.012-7.552 5.584 2.885 8.94-7.585-5.536-7.518 5.536 2.864-9.003-7.531-5.518 9.356-.028 2.86-8.95Zm10.14-38.099 2.918 8.987 9.302-.01-7.552 5.583 2.885 8.94-7.585-5.537-7.518 5.537 2.864-9.003-7.531-5.519 9.355-.028 2.862-8.95ZM62.18 22.465l2.919 8.987 9.301-.01-7.552 5.583 2.886 8.94-7.585-5.537-7.519 5.537 2.865-9.003-7.532-5.519 9.356-.028 2.861-8.95Z"/>
  </g>
  <defs>
    <clipPath id="a">
      <path fill="#fff" d="M0 0h200v200H0z"/>
    </clipPath>
  </defs>
</svg>
