<svg xmlns="http://www.w3.org/2000/svg" width="200" height="200" fill="currentColor" viewBox="0 0 200 200">
  <path fill="#F0B90B" d="M0 100c0 55.228 44.772 100 100 100s100-44.772 100-100S155.228 0 100 0 0 44.772 0 100Z"/>
  <path fill="#fff" fill-rule="evenodd" d="M33.413 37.73a91.351 91.351 0 0 0-24.722 62.626 91.313 91.313 0 0 0 22.575 60.245l5.93-5.925A83.003 83.003 0 0 1 17.27 100.6c0-21.914 8.457-41.85 22.29-56.729l-6.146-6.14ZM157.33 161.642a83.042 83.042 0 0 1-56.724 22.289c-21.638 0-41.344-8.25-56.157-21.764l-5.892 5.887a91.334 91.334 0 0 0 61.801 23.963c24.216 0 46.238-9.389 62.625-24.727l-5.653-5.648Zm12.854-1.894-5.672-5.672a83 83 0 0 0 19.425-53.485c0-21.633-8.241-41.345-21.76-56.157l5.883-5.883a91.34 91.34 0 0 1 23.968 61.801c0 22.655-8.222 43.402-21.844 59.396ZM47.12 36.69l-6.16-6.16a91.305 91.305 0 0 1 59.397-21.844 91.315 91.315 0 0 1 60.249 22.58l-5.925 5.92a83.005 83.005 0 0 0-54.076-19.922A83.003 83.003 0 0 0 47.12 36.69Z" clip-rule="evenodd"/>
  <path fill="#868686" d="M99.902 41.706v42.872L64.3 100.75l35.602-59.044Z"/>
  <path fill="#363636" d="M99.902 84.578v37.233L64.3 100.745l35.602-16.167Z"/>
  <path fill="#868686" d="M99.902 129.208v28.931L64.3 108.146l35.602 21.062Z"/>
  <path fill="#312706" d="M99.902 41.706v42.872l35.602 16.172-35.602-59.044Z"/>
  <path fill="#130F03" d="M99.902 84.578v37.233l35.602-21.066-35.602-16.167Z"/>
  <path fill="#312807" d="M99.902 129.208v28.931l35.602-49.993-35.602 21.062Z"/>
</svg>
