<svg xmlns="http://www.w3.org/2000/svg" width="200" height="200" fill="currentColor" viewBox="0 0 200 200">
  <path fill="url(#a)" d="M100.448 199.895c54.923 0 99.447-44.524 99.447-99.447C199.895 45.524 155.371 1 100.448 1 45.524 1 1 45.524 1 100.448c0 54.923 44.524 99.447 99.448 99.447Z"/>
  <path fill="#EABC4B" fill-rule="evenodd" d="M100 0C44.772 0 0 44.772 0 100s44.772 100 100 100 100-44.772 100-100S155.228 0 100 0Zm.905 83.688a10.129 10.129 0 0 1 4.177 3.194l12.708 16.537L143.903 40A83.406 83.406 0 0 1 160 54.09l-30.119 73.2a10.037 10.037 0 0 1-3.195 4.153 10.222 10.222 0 0 1-4.878 2.005 10.268 10.268 0 0 1-5.237-.688 10.129 10.129 0 0 1-4.177-3.194l-12.707-16.544-16.773 40.741a10.045 10.045 0 0 1-3.525 4.397 10.237 10.237 0 0 1-5.365 1.84h-.511a10.24 10.24 0 0 1-5.228-1.446 10.06 10.06 0 0 1-3.722-3.901l-23.5-43.804a9.89 9.89 0 0 1-.576-7.527 10.042 10.042 0 0 1 4.915-5.785 10.263 10.263 0 0 1 7.611-.753 10.119 10.119 0 0 1 5.981 4.707l13.309 24.82 15.292-37.153a10.037 10.037 0 0 1 3.195-4.153A10.222 10.222 0 0 1 95.668 83a10.268 10.268 0 0 1 5.237.688Z" clip-rule="evenodd"/>
  <defs>
    <radialGradient id="a" cx="0" cy="0" r="1" gradientTransform="rotate(38.32 -28.345 44.875) scale(218.302)" gradientUnits="userSpaceOnUse">
      <stop stop-color="#0A0A0A"/>
      <stop offset="1" stop-color="#373737"/>
    </radialGradient>
  </defs>
</svg>
