<svg xmlns="http://www.w3.org/2000/svg" width="200" height="200" fill="currentColor" viewBox="0 0 200 200">
  <g clip-path="url(#a)">
    <path fill="#000" d="M100 200c55.229 0 100-44.771 100-100C200 44.772 155.229 0 100 0 44.772 0 0 44.772 0 100c0 55.229 44.772 100 100 100Z"/>
    <path fill="#EC7041" d="m144.08 39.777-21.888 35.02L99.172 38 76.177 74.797l-21.92-35.014L25 86.578 75.294 167l23.868-38.194L123.05 167l50.3-80.419-29.27-46.804ZM75.3 149.778 35.778 86.581l18.476-29.583 39.529 63.204-18.496 29.576h.013Zm87.285-63.197-39.526 63.21-18.511-29.583 39.535-63.21 18.502 29.58v.003Zm-63.41 25.013L81.56 83.411l17.605-28.18 17.631 28.18-17.63 28.183h.009Z"/>
  </g>
  <defs>
    <clipPath id="a">
      <path fill="#fff" d="M0 0h200v200H0z"/>
    </clipPath>
  </defs>
</svg>
