<svg xmlns="http://www.w3.org/2000/svg" width="200" height="200" fill="currentColor" viewBox="0 0 200 200">
  <g clip-path="url(#a)">
    <path fill="url(#b)" d="M56.942 29.719c16.327-40.181 72.697-39.418 87.999 1.192 4.6 12.226 14.134 21.973 26.028 26.668 39.256 15.348 38.541 72.497-1.144 86.773-12.084 4.337-21.833 13.87-26.743 25.953-16.398 40.348-73.102 39.323-88.142-1.549-4.648-12.035-14.11-21.687-25.909-26.287-39.256-15.348-38.541-72.497 1.144-86.773 12.085-4.337 21.833-13.87 26.743-25.953l.024-.024Z"/>
    <path fill="url(#c)" d="M58.086 30.648c15.898-39.109 70.767-38.37 85.64 1.144 4.457 11.916 13.752 21.401 25.336 25.953 38.208 14.943 37.493 70.544-1.096 84.462-11.775 4.218-21.237 13.489-26.028 25.262-15.97 39.275-71.148 38.274-85.782-1.502-4.505-11.725-13.73-21.091-25.218-25.595-38.207-14.943-37.492-70.544 1.097-84.462 11.774-4.218 21.237-13.489 26.027-25.262h.024Z"/>
    <path fill="#FFE8AE" d="M33.798 57.96c11.775-4.218 21.237-13.489 26.028-25.262 13.49-33.175 54.94-37.679 76.32-14.228-20.784-25.715-64.212-21.902-78.06 12.178-4.79 11.773-14.253 21.044-26.028 25.262C.286 67.374-5.84 107.054 14.301 129.076c-17.996-22.33-11.322-60.01 19.497-71.115Z"/>
    <path fill="#FFEDC0" d="M57.943 164.013c-4.147-11.63-13.252-20.972-24.812-25.715C.525 124.976-3.91 84.032 19.116 62.917-6.15 83.46-2.384 126.335 31.08 140.014c11.56 4.767 20.689 14.109 24.812 25.739 11.25 31.387 50.245 37.417 71.887 17.517-21.952 17.779-58.968 11.201-69.884-19.233l.047-.024Z"/>
    <path fill="#826711" d="M166.226 140.157c-11.775 4.219-21.237 13.489-26.028 25.263-13.467 33.174-54.94 37.678-76.32 14.227 20.784 25.715 64.212 21.878 78.06-12.178 4.791-11.773 14.253-21.044 26.028-25.262 31.772-11.439 37.874-51.144 17.733-73.141 17.995 22.355 11.345 60.009-19.473 71.115v-.024Z"/>
    <path fill="#FEE7A2" d="M167.346 141.635c-11.989 4.29-21.642 13.727-26.528 25.691-13.729 33.723-55.989 38.322-77.774 14.49 21.19 26.144 65.451 22.26 79.561-12.393 4.887-11.963 14.54-21.401 26.529-25.691 32.368-11.654 38.589-52.002 18.067-74.404 18.353 22.736 11.56 61.034-19.855 72.331v-.024Z" opacity=".3"/>
    <path fill="#000" d="M79.418 123.641H63.854v-49.19h15.564v49.19Zm27.792 0H91.646v-49.19h31.652c12.466 0 20.689 6.03 20.689 17.541s-8.223 17.541-20.689 17.541h-16.112v14.108h.024Zm15.278-27.002c4.028 0 6.173-1.858 6.173-4.647 0-2.788-2.121-4.647-6.173-4.647H107.21v9.318h15.278v-.023Z"/>
  </g>
  <defs>
    <linearGradient id="b" x1="19.092" x2="180.923" y1="53.289" y2="146.728" gradientUnits="userSpaceOnUse">
      <stop stop-color="#FEE089"/>
      <stop offset=".6" stop-color="#6A5300"/>
    </linearGradient>
    <linearGradient id="c" x1="50.745" x2="167.928" y1="49.809" y2="166.982" gradientUnits="userSpaceOnUse">
      <stop stop-color="#F7DC8F"/>
      <stop offset="1" stop-color="#CCA831"/>
    </linearGradient>
    <clipPath id="a">
      <path fill="#fff" d="M0 0h200v200H0z"/>
    </clipPath>
  </defs>
</svg>
