<svg xmlns="http://www.w3.org/2000/svg" width="200" height="200" fill="currentColor" viewBox="0 0 200 200">
  <path fill="#FCF65A" d="M200 100C200 44.772 155.228 0 100 0S0 44.772 0 100s44.772 100 100 100 100-44.772 100-100Z"/>
  <path fill="#000" d="m116.934 66.17-.858 2.354s-21.232 58.34-21.35 58.659a33.429 33.429 0 0 1-8.75 13.083 33.24 33.24 0 0 1-22.593 8.814c-3.57 0-7.01-.561-10.234-1.598a33.252 33.252 0 0 1-9.291-4.709 33.122 33.122 0 0 1-3.083-2.517c.003 0 .003-.002.003-.002a19.475 19.475 0 0 0 4.042-.128c7.178-.976 13.105-5.885 15.55-12.489.02-.052.04-.107.058-.161l15.018-41.26a29.688 29.688 0 0 1 1.756-3.879c5.189-9.624 15.362-16.167 27.063-16.167h12.669Z"/>
  <path fill="#000" d="m168 50-.867 2.383-27.082 74.41-.139.385c-4.678 12.778-16.947 21.897-31.344 21.897a33.185 33.185 0 0 1-19.523-6.307 32.64 32.64 0 0 1-3.07-2.505 19.15 19.15 0 0 0 4.04-.163c7.119-1.028 12.987-5.93 15.405-12.504.002.002.005 0 .005 0l19.461-53.475 1.322-3.626.257-.707a30.368 30.368 0 0 1 1.657-3.623C133.14 56.838 142.84 50.402 154.074 50H168ZM65.808 82.428l-9.256 25.432-9.175 25.207a12.793 12.793 0 0 1-6.609 7.19h-.004c-6.302-5.803-10.36-14.005-10.736-23.155-.018-.46-.028-.926-.028-1.392 0-3.985.697-7.805 1.978-11.345C36.623 91.521 48.925 82.34 63.371 82.34c.82 0 1.633.031 2.437.088Z"/>
</svg>
