<svg xmlns="http://www.w3.org/2000/svg" width="200" height="200" fill="currentColor" viewBox="0 0 200 200">
  <path fill="#5EF1A0" d="M100 0C44.773 0 0 44.773 0 100s44.773 100 100 100 100-44.773 100-100S155.227 0 100 0Zm60.98 70.187c-1.147.313-1.913.6-2.7 1.02-1.767.926-4.067 2.82-5.093 4.233-.874 1.193-1.474 2.087-1.814 2.687-.293.6-.846 1.733-1.673 3.4L122.667 143.8c-1.527 3.313-2.094 4.547-4.694 4.733-2.92.214-5.133-1.42-6.52-4.733l-10.466-22.307-10.567 22.28c-1.527 3.314-3.833 4.507-6.427 4.7-2.92.214-5.766-1.353-7.153-4.673L47.513 81.287c-2.273-4.774-3.426-7.267-4.446-9.087-1.227-2.2-1.014-2.32-3.654-2.467-.893 0-1.76-.56-1.76-1.513 0-.953.62-1.453 1.2-1.553 3.22-.294 14.714-.294 15.68-.294h10.82c.84 0 1.347.474 1.28 1.387-.1 1.3-1.08 1.56-1.493 1.56-1.273 0-2.46-.22-3.107 1.433-.646 1.654 1.16 5.54 2.954 9.16l23.666 49.747.88 1.42 8.2-16.527L82.12 81.28c-2.273-4.773-3.427-7.267-4.447-9.087-1.226-2.2-1.013-2.32-3.653-2.466-.893 0-1.76-.56-1.76-1.514 0-.953.62-1.453 1.2-1.553 3.22-.293 14.713-.293 15.68-.293h10.82c.84 0 1.347.473 1.28 1.386-.1 1.3-1.08 1.56-1.493 1.56-1.274 0-2.46-.22-3.107 1.434-.647 1.653 1.16 5.54 2.953 9.16l7.367 16.033L114.373 81c1.887-3.34 3.207-8.133 1.907-9.8-1.067-1.367-3.667-.88-7.753-1.02-.8-.027-1.407-.973-1.454-1.967 0-.993.8-1.6 1.454-1.7 9.06-.146 10.62-.146 12.073-.146.773 0 2.187 0 9.753.146.414 0 1.36.707 1.36 1.7 0 .994-.933 1.854-1.36 1.967-1.146.313-1.92.593-2.7 1.02-1.353.727-1.86 1.08-2.553 1.667-.593.573-2.147 2.486-3.633 5.526l-1.527 3.094-9.967 21.026 12.467 27.147 22.953-50.1c1.887-3.34 3.007-7.3 1.494-8.353-1.514-1.054-4.68-.454-7.754-1.02-.786-.147-1.406-.974-1.453-1.967 0-.993.8-1.6 1.453-1.7 9.06-.147 10.62-.147 12.074-.147.773 0 2.186 0 9.753.147.413 0 1.36.707 1.36 1.7s-.933 1.853-1.36 1.967h.02Z"/>
</svg>
