<svg xmlns="http://www.w3.org/2000/svg" width="200" height="200" fill="currentColor" viewBox="0 0 200 200">
  <g clip-path="url(#a)">
    <mask id="b" width="200" height="200" x="0" y="0" maskUnits="userSpaceOnUse" style="mask-type:luminance">
      <path fill="#fff" d="M200 0H0v200h200V0Z"/>
    </mask>
    <g mask="url(#b)">
      <path fill="#0E3FC7" d="M99.997 199.993c55.227 0 99.996-44.769 99.996-99.996S155.224 0 99.997 0 0 44.77 0 99.997s44.77 99.996 99.997 99.996Z"/>
      <path fill="#fff" d="M39.54 52.195c.596 0 1.157-.269 1.543-.725 14.08-16.881 35.26-27.647 58.913-27.647s44.832 10.766 58.913 27.647c.38.456.947.725 1.543.725h4.374a.774.774 0 0 0 .62-1.24c-15.01-19.775-38.763-32.57-65.45-32.57-26.688 0-50.434 12.795-65.45 32.57a.774.774 0 0 0 .62 1.24h4.373Zm121.734 95.657c-.608 0-1.181.28-1.561.754-14.069 17.443-35.617 28.617-59.72 28.617-24.104 0-45.646-11.174-59.72-28.617a2.004 2.004 0 0 0-1.562-.754h-4.297c-.632 0-1.006.719-.632 1.228 14.964 20.348 39.067 33.575 66.205 33.575 27.138 0 51.241-13.232 66.204-33.575.375-.509 0-1.228-.631-1.228h-4.298.012Zm-65.412-30.281c-2.765 0-5.496-.502-8.198-1.514-2.701-1.006-5.11-2.409-7.221-4.199l4.683-6.098c2.082 1.689 4 2.906 5.76 3.637 1.76.731 3.626 1.099 5.614 1.099 1.298 0 2.409-.129 3.315-.392.912-.257 1.608-.643 2.099-1.146a2.485 2.485 0 0 0 .731-1.783c0-.942-.356-1.673-1.076-2.199-.713-.52-1.935-.93-3.66-1.222l-7.514-1.316c-2.766-.485-4.9-1.543-6.391-3.17-1.497-1.625-2.246-3.689-2.246-6.197 0-2.21.562-4.117 1.684-5.713 1.123-1.597 2.731-2.813 4.83-3.66 2.1-.849 4.596-1.27 7.491-1.27 2.538 0 5.093.433 7.66 1.293 2.567.86 4.801 2.058 6.684 3.584l-4.444 6.198c-3.515-2.701-7.011-4.052-10.49-4.052-1.14 0-2.123.123-2.954.368-.83.246-1.461.585-1.906 1.024-.438.438-.66.97-.66 1.584 0 .848.315 1.497.953 1.953.637.457 1.666.813 3.099 1.076l7.075 1.17c3.286.52 5.783 1.608 7.491 3.269 1.707 1.66 2.561 3.806 2.561 6.443 0 2.31-.603 4.304-1.807 5.977-1.205 1.678-2.93 2.97-5.175 3.882-2.245.912-4.912 1.369-8.005 1.369l.017.005Z"/>
      <path fill="#fff" d="M84.286 65.865h-8.321c-5.69 0-11 2.86-14.133 7.608l-9.257 14.034-13.864-19.712a4.553 4.553 0 0 0-3.73-1.936H23.957c-1.743 0-2.766 1.965-1.76 3.392l20.641 29.301-15.262 22.156c-2.94 4.216-4.678 6.959-6.911 9.035a25.574 25.574 0 0 1-2.947 2.362c-.924.637-.48 2.082.643 2.082h8.32c5.69 0 11-2.86 14.134-7.608l10.49-15.911 15.244 21.595a4.562 4.562 0 0 0 3.725 1.93H81.31c1.743 0 2.766-1.965 1.76-3.392L61.102 99.623 75.07 79.35c2.94-4.217 4.677-6.959 6.91-9.035a25.497 25.497 0 0 1 2.948-2.362c.924-.638.48-2.082-.643-2.082v-.006Zm48.476 51.76c-2.573 0-4.964-.45-7.175-1.339-2.21-.894-4.157-2.146-5.83-3.76a17.218 17.218 0 0 1-3.906-5.613c-.929-2.129-1.391-4.433-1.391-6.906 0-2.474.462-4.777 1.391-6.906.93-2.128 2.211-4 3.854-5.613 1.643-1.609 3.573-2.86 5.783-3.76 2.21-.895 4.59-1.345 7.128-1.345 2.894 0 5.631.596 8.198 1.783 2.567 1.187 4.666 2.825 6.298 4.906l-5.906 5.322c-1.105-1.433-2.386-2.503-3.83-3.223-1.45-.713-3.035-1.075-4.76-1.075-1.368 0-2.625.251-3.783.754a9.382 9.382 0 0 0-3.023 2.076 9.139 9.139 0 0 0-2 3.122c-.474 1.205-.708 2.52-.708 3.953 0 1.433.246 2.76.731 3.976a9.29 9.29 0 0 0 2.076 3.175 9.761 9.761 0 0 0 3.123 2.1c1.187.503 2.479.754 3.882.754 1.404 0 2.544-.228 3.637-.684a8.238 8.238 0 0 0 2.807-1.906 6.985 6.985 0 0 0 1.661-2.784h-9.222v-7.274H150.1v2.438c0 2.573-.433 4.936-1.292 7.099-.86 2.164-2.065 4.052-3.614 5.661-1.544 1.608-3.374 2.853-5.491 3.736-2.117.877-4.426 1.316-6.929 1.316l-.012.017Zm22.739-.534V82.93h13.859c2.538 0 4.893.438 7.075 1.315 2.182.877 4.093 2.1 5.737 3.66a16.954 16.954 0 0 1 3.853 5.468c.93 2.082 1.392 4.327 1.392 6.737 0 2.409-.462 4.59-1.392 6.636a16.876 16.876 0 0 1-3.853 5.392 18.24 18.24 0 0 1-5.737 3.637c-2.182.877-4.537 1.316-7.075 1.316h-13.859Zm8.391-7.421h5.27c1.331 0 2.578-.245 3.73-.731a9.46 9.46 0 0 0 3.051-2.052 9.532 9.532 0 0 0 2.054-3.053c.485-1.152.73-2.397.73-3.73 0-1.334-.245-2.644-.73-3.83a9.242 9.242 0 0 0-2.054-3.1 9.891 9.891 0 0 0-3.051-2.076 9.259 9.259 0 0 0-3.73-.754h-5.27v19.326Z"/>
    </g>
  </g>
  <defs>
    <clipPath id="a">
      <path fill="#fff" d="M0 0h200v200H0z"/>
    </clipPath>
  </defs>
</svg>
