<svg xmlns="http://www.w3.org/2000/svg" width="200" height="200" fill="currentColor" viewBox="0 0 200 200">
  <path fill="#235642" d="M100 200c55.229 0 100-44.771 100-100C200 44.772 155.229 0 100 0 44.772 0 0 44.772 0 100c0 55.229 44.772 100 100 100Z"/>
  <path fill="#fff" d="M126.146 120.807v12.747H73.56c.726-8.389 3.433-14.292 12.795-22.592l39.791-33.947v29.789h14.324V52H59.016v27.318h14.318V66.324h43.272l-39.597 33.788-.095.09C60.32 114.894 59 126.752 59 140.724v7.159h81.465v-27.071h-14.324l.005-.005Z"/>
</svg>
