<svg xmlns="http://www.w3.org/2000/svg" width="200" height="200" fill="currentColor" viewBox="0 0 200 200">
  <g clip-path="url(#a)">
    <path fill="#D62825" d="M100 200c55.228 0 100-44.772 100-100S155.228 0 100 0 0 44.772 0 100s44.772 100 100 100Z"/>
    <path fill="#fff" d="m84.792 126.875-9.375 3.958 89.791-66.25H61.875c-8.333 0-15.208 6.876-15.208 15.209 0 3.75 1.458 6.25 1.458 6.25 18.958-14.792 47.083-14.584 62.5-14.584L120 67.5l-89.792 66.458h117.5c8.334 0 15.209-6.875 15.209-15.208 0-8.958-3.542-13.75-3.542-13.75-15.417 18.958-45.625 21.875-74.583 21.875Z"/>
  </g>
  <defs>
    <clipPath id="a">
      <path fill="#fff" d="M0 0h200v200H0z"/>
    </clipPath>
  </defs>
</svg>
