<svg xmlns="http://www.w3.org/2000/svg" width="200" height="200" fill="currentColor" viewBox="0 0 200 200">
	<g clip-path="url(#a)">
		<path fill="url(#b)" d="M100 199.2c54.787 0 99.2-44.413 99.2-99.2C199.2 45.213 154.787.8 100 .8 45.213.8.8 45.213.8 100c0 54.787 44.413 99.2 99.2 99.2Z"/>
		<path fill="#fff" d="m143.4 139.52-33.56-81.08c-1.88-4.2-4.72-6.24-8.4-6.24h-2.96c-3.72 0-6.52 2.04-8.4 6.24l-14.6 35.32H64.44c-3.28.04-6 2.68-6 6v.08c.04 3.28 2.72 6 6 6h5.92l-13.92 33.68c-.24.76-.4 1.52-.4 2.32 0 1.88.6 3.36 1.64 4.52 1.04 1.16 2.56 1.72 4.44 1.72 1.24-.04 2.44-.4 3.44-1.16 1.08-.76 1.8-1.8 2.4-3.04l15.36-38.04h10.64c3.28-.04 6-2.68 6-6v-.16c-.04-3.28-2.72-6-6-6h-5.68L100 64.52l31.92 79.36c.6 1.24 1.32 2.32 2.4 3.04 1 .76 2.24 1.12 3.44 1.16 1.88 0 3.36-.56 4.44-1.72 1.08-1.16 1.64-2.64 1.64-4.52 0-.8-.12-1.6-.44-2.32Z"/>
	</g>
	<defs>
		<linearGradient id="b" x1="173.971" x2="26.356" y1="37.769" y2="161.968" gradientUnits="userSpaceOnUse">
			<stop stop-color="#B6509E"/>
			<stop offset="1" stop-color="#2EBAC6"/>
		</linearGradient>
		<clipPath id="a">
			<path fill="#fff" d="M0 0h200v200H0z"/>
		</clipPath>
	</defs>
</svg>
