<svg xmlns="http://www.w3.org/2000/svg" width="200" height="200" fill="currentColor" viewBox="0 0 200 200">
	<path fill="url(#a)" d="M14.64 50.558 99.803 1.2c9.555 5.228 75.746 43.642 85.431 49.255.061.83.195 1.801.195 2.771.003 26.22-.146 95.326-.221 96.299l-85.305 49.237-85.177-49.354c-.455-1.928-.53-96.189-.086-98.85Zm81.533-37.885c-.803.282-69.531 40.383-69.531 40.383L78.28 82.484s11.825-20.633 16.96-29.422c.608-1.04.934-2.04.932-3.234-.023-11.654.097-36.246 0-37.155Zm-73.78 46.921.278 80.365s27.26-15.666 32.175-18.299c2.865-1.534 1.726-1.172 3.321-4.066 4.687-8.502 15.396-27.37 15.706-28.16l-51.48-29.84Zm154.683.313-51.01 30.056s11.506 20.234 16.633 29.206c.559.977 1.281 1.676 2.232 2.223 4.174 2.4 32.439 18.555 32.439 18.555l-.294-80.04ZM104.15 12.673s-.274 25.618-.218 37.421c.005 1.022.322 2.12.773 3.046.803 1.646 17.393 29.47 17.393 29.47l51-29.812-68.948-40.125ZM96.78 187v-37.172l-37.324-21.61-32.766 18.87L96.78 187Zm7.013-37.046L103.612 187l69.832-40.006s-21.939-12.832-32.662-18.83c-5.954 2.831-36.989 21.79-36.989 21.79Zm-6.999-9.149v-34.4s-20.013 11.237-29.281 16.854c.306.485 29.281 17.546 29.281 17.546Zm35.31-17.328-28.006-17.072.15 34.4 27.856-17.328ZM95.675 69.024 84.962 86.588l10.713 6.217v-23.78Zm-25.07 43.245 20.77-12.715-9.91-5.755-10.86 18.47Zm58.634-.385L118.44 93.812l-10.435 5.964 21.234 12.108Zm-25.073-42.86c-.104.574-.016 23.314.2 23.832 2.972-1.702 9.724-5.913 10.376-6.474-3.356-5.84-10.206-17.215-10.576-17.358Z"/>
	<defs>
		<linearGradient id="a" x1="14.344" x2="185.429" y1="99.981" y2="99.981" gradientUnits="userSpaceOnUse">
			<stop stop-color="#1EFCAE"/>
			<stop offset="1" stop-color="#40FFF9"/>
		</linearGradient>
	</defs>
</svg>
