<svg xmlns="http://www.w3.org/2000/svg" width="200" height="173" fill="currentColor" viewBox="0 0 200 173">
	<g clip-path="url(#a)">
		<path fill="#020041" d="M100.28 0c9.08 15.364 17.84 30.919 26.83 46.333 1.3 2.001 1.68 4.402 1.65 6.752v55.496c-12.34-4.371-26.09-5.131-38.61-1.03-6.7 2.061-12.75 5.712-18.48 9.673.02-21.756.02-43.523 0-65.289 0-1.59.05-3.24 1.03-4.581C81.93 31.599 91.13 15.814 100.28 0ZM0 172.62c16.84-29.059 33.73-58.087 50.68-87.105.32 29.068.12 58.156.11 87.225-16.92-.15-33.86 0-50.79-.12Zm149.48-86.955c17.15 28.918 33.64 58.237 50.52 87.325-16.86.06-33.71-.1-50.56 0-.06-29.118-.15-58.227.04-87.325Zm-48.63 38.681c9.47-1.61 19.33.51 27.57 5.372.24 14.394-.17 28.798.39 43.172-18.35.07-36.71-.06-55.06-.13-1.91-7.602-2.8-15.705-.66-23.367 3.4-12.763 14.7-23.016 27.76-25.047Z"/>
	</g>
	<defs>
		<clipPath id="a">
			<path fill="#fff" d="M0 0h200v173H0z"/>
		</clipPath>
	</defs>
</svg>
