<svg width="200" height="200" viewBox="0 0 200 200" fill="none" xmlns="http://www.w3.org/2000/svg">
<g clip-path="url(#clip0_171_196)">
<rect width="200" height="200" rx="100" fill="#6CF9D8"/>
<path fill-rule="evenodd" clip-rule="evenodd" d="M43.4472 52.6228L53.1927 42.8772L92.1381 81.8231C89.775 82.83 87.5606 84.2975 85.6325 86.2256C84.1393 87.7188 82.9218 89.3838 81.9812 91.1569L43.4472 52.6228ZM81.2475 108.998L42.8711 147.374L52.6166 157.12L90.6025 119.134C88.815 118.191 87.1368 116.966 85.6325 115.463C83.7156 113.546 82.2537 111.346 81.2475 108.998ZM109.938 119.114L147.399 156.575L157.145 146.829L119.272 108.956C118.265 111.32 116.797 113.534 114.869 115.463C113.376 116.956 111.711 118.173 109.938 119.114ZM118.541 91.1956L156.569 53.1676L146.823 43.4221L108.405 81.8406C110.752 82.8475 112.952 84.3088 114.869 86.2256C116.373 87.73 117.597 89.4081 118.541 91.1956Z" fill="#2D2E33"/>
</g>
<defs>
<clipPath id="clip0_171_196">
<rect width="200" height="200" rx="100" fill="white"/>
</clipPath>
</defs>
</svg>
