<svg xmlns="http://www.w3.org/2000/svg" width="200" height="200" fill="currentColor" viewBox="0 0 200 200">
  <g clip-path="url(#a)">
    <mask id="b" width="200" height="200" x="0" y="0" maskUnits="userSpaceOnUse" style="mask-type:luminance">
      <path fill="#fff" d="M200 100C200 44.772 155.228 0 100 0S0 44.772 0 100s44.772 100 100 100 100-44.772 100-100Z"/>
    </mask>
    <g mask="url(#b)">
      <path fill="#6CF9D8" d="M200 100C200 44.772 155.228 0 100 0S0 44.772 0 100s44.772 100 100 100 100-44.772 100-100Z"/>
      <path fill="#2D2E33" fill-rule="evenodd" d="m43.447 52.623 9.746-9.746 38.945 38.946a20.615 20.615 0 0 0-6.506 4.403 20.662 20.662 0 0 0-3.65 4.93L43.446 52.624Zm37.8 56.375-38.376 38.376 9.746 9.746 37.986-37.986a20.681 20.681 0 0 1-4.97-3.671 20.613 20.613 0 0 1-4.385-6.465Zm28.691 10.116 37.461 37.461 9.746-9.746-37.873-37.873a20.626 20.626 0 0 1-4.403 6.507 20.674 20.674 0 0 1-4.931 3.651Zm8.603-27.918 38.028-38.028-9.746-9.746-38.418 38.419a20.634 20.634 0 0 1 6.464 4.385 20.687 20.687 0 0 1 3.672 4.97Z" clip-rule="evenodd"/>
    </g>
  </g>
  <defs>
    <clipPath id="a">
      <path fill="#fff" d="M0 0h200v200H0z"/>
    </clipPath>
  </defs>
</svg>
