<svg xmlns="http://www.w3.org/2000/svg" width="200" height="200" fill="currentColor" viewBox="0 0 200 200">
	<g clip-path="url(#a)">
		<path fill="#000" d="M100 200c55.228 0 100-44.772 100-100S155.228 0 100 0 0 44.772 0 100s44.772 100 100 100Z"/>
		<path fill="#fff" d="M148.425 74.375c-2.6-4.05-5.8-7.2-9.6-9.45-3.8-2.25-8.825-3.4-15.1-3.4-5.5 0-10.075.925-13.725 2.75-3.65 1.85-6.675 4.45-9.075 7.8a20.814 20.814 0 0 0-4.55-4.825c-1.775-1.4-3.75-2.525-5.85-3.4-2.125-.875-4.275-1.5-6.5-1.95a32.562 32.562 0 0 0-6.5-.65c-3.475 0-6.875.425-10.275 1.275-3.35.875-6.375 2.25-9.025 4.125-2.625 1.9-4.8 4.3-6.475 7.3-1.4 2.475-2.275 5.3-2.65 8.55l11.825 2.125c.325-4.65 1.975-7.975 5-10.05 3.05-2.075 6.875-3.1 11.5-3.1S85.75 72.6 88.6 74.85c2.875 2.25 4.275 5.85 4.275 10.775v7.8c-3.95 0-7.85.025-11.7.075-3.85.05-7.775.1-11.7.2-3.1 0-6.075.55-8.9 1.6-2.85 1.05-5.35 2.525-7.5 4.4-2.175 1.875-3.9 4.15-5.15 6.85-1.25 2.7-1.9 5.675-1.9 8.95 0 3.275.575 6.2 1.675 8.75s2.625 4.8 4.55 6.725c2.425 2.425 5.3 4.275 8.675 5.575 3.4 1.275 7.2 1.95 11.425 1.95 6.45 0 11.85-1.25 16.175-3.75 4.325-2.5 7.7-5.875 10.1-10.1 2.2 4.625 5.625 8.125 10.25 10.475 4.625 2.375 9.825 3.55 15.6 3.55 4.325 0 7.925-.475 10.775-1.45 2.825-.975 5.625-2.575 8.3-4.775 2.8-2.325 4.925-4.875 6.425-7.675 1.2-2.225 2.075-4.75 2.625-7.575l-11.7-2.1c-1.05 4.625-3.175 7.975-6.35 10.1s-6.425 3.175-10.1 3.175-6.75-.7-9.275-2.1c-2.525-1.4-4.525-3.225-6.075-5.5-1.55-2.25-2.65-4.85-3.325-7.8-.65-2.95-1-5.925-1-9.025v-.575l49.425-.15v-3.75c0-5.4-.4-10.1-1.15-14.1-.925-3.925-2.425-7.6-4.625-11ZM93.1 104.75c0 3.4-.3 6.525-.875 9.4-.55 2.9-2.25 5.75-5.05 8.525-1.925 1.95-4.225 3.3-6.925 4.125a27.781 27.781 0 0 1-8.225 1.225c-3.825 0-7.1-1.075-9.75-3.25-2.65-2.175-3.975-5.275-3.975-9.325 0-4.05 1.375-7.15 4.125-9.325 2.725-2.175 6-3.25 9.75-3.25l20.9-.15v2.025h.025Zm48.45-10.975v.05h-36.7c0-3.4.525-6.525 1.525-9.4 1-2.875 2.525-5.375 4.55-7.5a17.44 17.44 0 0 1 5.35-3.9c2.025-.975 4.45-1.45 7.225-1.45 3.275 0 5.95.55 8.075 1.65 2.1 1.1 3.825 2.525 5.2 4.25 1.65 2.025 2.825 4.375 3.55 7.15.725 2.7 1.125 5.775 1.225 9.15Z"/>
		<path fill="#fff" d="M181.4 65.6c-4.45-10.525-10.825-19.975-18.925-28.075-8.1-8.1-17.55-14.475-28.075-18.925-10.9-4.6-22.475-6.95-34.4-6.95-11.925 0-23.5 2.35-34.4 6.95-10.525 4.45-19.975 10.825-28.075 18.925-8.1 8.1-14.475 17.55-18.925 28.075-4.6 10.9-6.95 22.475-6.95 34.4 0 11.925 2.325 23.5 6.95 34.4 4.45 10.525 10.825 19.975 18.925 28.075 8.1 8.1 17.55 14.475 28.075 18.925 10.9 4.6 22.475 6.95 34.4 6.95 11.925 0 23.5-2.325 34.4-6.95 10.525-4.45 19.975-10.825 28.075-18.925 8.1-8.1 14.475-17.55 18.925-28.075 4.6-10.9 6.95-22.475 6.95-34.4 0-11.925-2.35-23.5-6.95-34.4Zm-24.95 90.85c-15.075 15.075-35.125 23.375-56.45 23.375-21.325 0-41.375-8.3-56.45-23.375-15.075-15.075-23.4-35.125-23.4-56.45 0-21.325 8.3-41.375 23.4-56.45 15.1-15.075 35.125-23.4 56.45-23.4 21.325 0 41.375 8.3 56.45 23.4 15.075 15.075 23.375 35.125 23.375 56.45 0 21.325-8.275 41.375-23.375 56.45Z"/>
	</g>
	<defs>
		<clipPath id="a">
			<path fill="#fff" d="M0 0h200v200H0z"/>
		</clipPath>
	</defs>
</svg>
