<svg xmlns="http://www.w3.org/2000/svg" width="200" height="200" fill="currentColor" viewBox="0 0 200 200">
  <g clip-path="url(#a)">
    <path fill="#6916FF" d="M100 200c55.228 0 100-44.772 100-100S155.228 0 100 0 0 44.772 0 100s44.772 100 100 100Z"/>
    <path fill="#fff" fill-opacity=".5" d="M107.15 40.15a1.75 1.75 0 0 1-.506-2.269 1.805 1.805 0 0 1 1.95 0 35.19 35.19 0 0 1 11.718 7.95A23.19 23.19 0 0 1 125 51.894a40.57 40.57 0 0 1 3.125 7.2 28.09 28.09 0 0 1 1.175 7.95c-.394 2.656-.781 15.531-8.206 21.594a4.464 4.464 0 0 1-5.863-1.138 3.92 3.92 0 0 1-.387-4.544A31.551 31.551 0 0 0 115.625 50a68.688 68.688 0 0 0-8.475-9.85ZM95.625 156.287c.781.757.781 1.513.394 1.894-.388.381-1.175.756-1.563.375a35.177 35.177 0 0 1-11.719-7.95 23.18 23.18 0 0 1-4.687-6.062 40.38 40.38 0 0 1-3.125-7.194 28.016 28.016 0 0 1-1.175-7.956c.394-2.65.781-15.532 8.206-21.594a4.465 4.465 0 0 1 5.856 1.137 3.37 3.37 0 0 1 0 4.55 31.547 31.547 0 0 0-.78 32.95 67.686 67.686 0 0 0 8.593 9.85Z"/>
    <path fill="#fff" d="M129.338 125.037a34.205 34.205 0 0 0-8.207-19.693 67.579 67.579 0 0 0-16.406-12.125 90.413 90.413 0 0 1-14.844-10.263A25.2 25.2 0 0 1 82.463 69.7a26.52 26.52 0 0 1 1.912-15.5A41.825 41.825 0 0 1 95.35 40.187a1.625 1.625 0 0 0 .394-1.893 1.512 1.512 0 0 0-2.344-.375 34.857 34.857 0 0 0-15.238 12.875 31.313 31.313 0 0 0-5.506 20.456 32.809 32.809 0 0 0 2.738 10.606 37.498 37.498 0 0 0 6.25 9.094 67.364 67.364 0 0 0 16.793 11.737 83.052 83.052 0 0 1 14.844 9.85 22.52 22.52 0 0 1 7.425 13.638 26.347 26.347 0 0 1-1.956 16.287 38.313 38.313 0 0 1-11.331 13.638 1.282 1.282 0 0 0-.622.858 1.286 1.286 0 0 0 .228 1.036c.219.4.625.687 1.081.756.457.069.932-.063 1.269-.375a48.754 48.754 0 0 0 14.844-13.263 32.34 32.34 0 0 0 5.119-20.075Z"/>
  </g>
  <defs>
    <clipPath id="a">
      <path fill="#fff" d="M0 0h200v200H0z"/>
    </clipPath>
  </defs>
</svg>
