<svg xmlns="http://www.w3.org/2000/svg" width="200" height="204" fill="currentColor" viewBox="0 0 200 204">
  <g clip-path="url(#a)">
    <mask id="b" width="200" height="204" x="0" y="0" maskUnits="userSpaceOnUse" style="mask-type:luminance">
      <path fill="#fff" d="M200 0H0v204h200V0Z"/>
    </mask>
    <g mask="url(#b)">
      <path fill="#fff" d="M200 0H0v204h200V0Z"/>
      <path fill="#202723" fill-rule="evenodd" d="M1.644 62.896c-2.21 1.758-2.21 5.16 0 6.975l11.56 9.245c1.644 1.304 3.968 1.304 5.555 0l65.797-53.538c1.02-.85 1.644-2.099 1.644-3.46V4.48c0-3.743-4.307-5.785-7.198-3.46L1.644 62.897Zm19.892 53.991c-1.644 1.305-3.967 1.305-5.554 0L5.384 108.38c-2.21-1.758-2.21-5.161 0-6.919l73.675-59.89c2.89-2.382 7.254-.283 7.254 3.46v17.127c0 1.361-.623 2.61-1.643 3.46l-63.134 51.269ZM8.104 139.289c-2.21 1.815-2.21 5.161 0 6.919l70.898 56.771c2.89 2.325 7.198.284 7.198-3.459V85.07c0-3.742-4.364-5.84-7.254-3.459L8.104 139.29Zm87.05 58.756c0 3.97 4.818 5.955 7.595 3.119l96.004-96.073a4.418 4.418 0 0 0 0-6.295L102.749 2.779c-2.777-2.78-7.595-.794-7.595 3.12v192.146Z" clip-rule="evenodd"/>
    </g>
  </g>
  <defs>
    <clipPath id="a">
      <path fill="#fff" d="M0 0h200v204H0z"/>
    </clipPath>
  </defs>
</svg>
