<svg xmlns="http://www.w3.org/2000/svg" width="200" height="200" fill="currentColor" viewBox="0 0 200 200">
	<g clip-path="url(#a)">
		<path fill="#000" d="M2.2 200c-.16-2.76-.16-5.56-.04-8.32.92-.28 1.88-.48 2.84-.6 2.8-.48 5.56-1.16 8.24-1.96.76-.24 1.48-.48 2.2-.8 3.56-1.4 6.72-3.68 9.12-6.68 1.68-2.08 3.12-4.32 4.36-6.72 1.76-3.24 3.32-6.6 4.68-10.04 2.76-6.92 5.56-13.88 8.28-20.8 9.44-23.88 18.88-47.8 28.32-71.68 8.96-22.72 17.72-45.48 26.36-68.32.16-.48.36-.92.56-1.4 3.16-.88 6.32-1.8 9.56-2.68.2.48.36.88.52 1.28l10.92 30.6c12.44 34.76 24.92 69.52 37.72 104.16 3.48 9.48 7.04 18.92 10.6 28.36a97.19 97.19 0 0 0 4.92 11.28 64.79 64.79 0 0 0 2.68 4.56c2.96 4.6 7.56 7.92 12.88 9.32 2.84.76 5.76 1.32 8.68 1.72l2.08.32c.28.92.12 1.84.16 2.72.04.88 0 1.88 0 2.84.04.92 0 1.84-.04 2.72-.28.04-.52.12-.76.12h-73.28a1.98 1.98 0 0 1-.16-.52v-7.52c.04-.12.04-.24.08-.32.6-.16 1.24-.28 1.84-.36 3-.4 6-1 8.92-1.76 1.2-.32 2.36-.76 3.48-1.2.56-.24 1.12-.48 1.64-.8 2.88-1.64 4.04-4.16 3.8-7.4-.12-1.48-.4-2.92-.76-4.36-.56-2.24-1.4-4.4-2.16-6.56-15.2-42.36-30.2-84.8-45.04-127.28-.16-.48-.2-.96-.68-1.4-.16.08-.36.16-.48.32-.12.2-.2.44-.28.68-7.24 20.88-15 41.6-22.68 62.36-5.68 15.36-11.36 30.72-16.68 46.2-2.12 6.2-4.16 12.44-6.16 18.72-.76 2.4-1.36 4.84-1.72 7.32-.28 1.68-.32 3.36-.16 5.04.24 2.2 1.4 4.2 3.2 5.48 1.16.84 2.44 1.48 3.84 1.96 2.16.76 4.4 1.32 6.68 1.72 2.52.48 5.04.8 7.52 1.2.16.04.32.08.52.12.08.2.12.36.12.56v7.28c0 .16-.04.28-.08.44-.24.04-.44.08-.68.12h-1L2.2 200Z"/>
	</g>
	<defs>
		<clipPath id="a">
			<path fill="#fff" d="M0 0h200v200H0z"/>
		</clipPath>
	</defs>
</svg>
