<svg xmlns="http://www.w3.org/2000/svg" width="200" height="200" fill="currentColor" viewBox="0 0 200 200">
	<path fill="#2A8BCB" d="M184.6 119.92v29.6l-74.96 43.92v-21.12l56.76-33.24v-19.16h18.2Z"/>
	<path fill="#35ADDD" d="M92.36 172.88V194l-75.92-44.48v-29.6h18.2v19.16l57.72 33.8Zm17.28-36.08v56.64l-9.12 5.32-8.16-4.76v-57.2h17.28Z"/>
	<path fill="#2A8BCB" d="M101 78.44c12.52 0 22.64 10.16 22.64 22.64s-10.16 22.64-22.64 22.64-22.64-10.16-22.64-22.64S88.48 78.44 101 78.44Zm0-18.2c-22.52 0-40.88 18.32-40.88 40.88C60.12 123.68 78.44 142 101 142c22.56 0 40.88-18.32 40.88-40.88 0-22.56-18.36-40.88-40.88-40.88Z"/>
	<path fill="#35ADDD" d="M34.64 81.56V61.44l65.88-38.56 65.88 38.56v20.12h18.2V51L100.52 1.76 16.44 51v30.56h18.2Z"/>
	<path fill="#2A8BCB" d="M34.64 81.56 16.44 51l18.2 10.44v20.12Zm65.88-58.68V1.76L34.64 61.44l65.88-38.56Z"/>
	<path fill="#3D4599" d="M166.4 61.44 100.52 1.76v21.12l65.88 38.56ZM184.6 51l-18.2 30.56h18.2V51Z"/>
	<path fill="#2A8BCB" d="M100.52 1.76 184.6 51l-18.2 10.44-65.88-59.68ZM16.44 119.92l18.2 19.16-18.2 10.44v-29.6Z"/>
	<path fill="#3D4599" d="M166.4 119.92h18.2l-18.2 19.16v-19.16Z"/>
	<path fill="#3D4599" d="m166.4 139.08-56.76 54.36 74.96-43.92-18.2-10.44Z"/>
	<path fill="#2A8BCB" d="m34.64 139.08 57.72 33.8V194l-57.72-54.92Z"/>
	<path fill="#35ADDD" d="m184.6 119.92-18.2 19.16 18.2 10.44v-29.6Z"/>
</svg>
