<svg xmlns="http://www.w3.org/2000/svg" width="200" height="200" fill="currentColor" viewBox="0 0 200 200">
	<g clip-path="url(#a)">
		<path fill="#000" d="M200 0H0v200h200V0Z"/>
		<path fill="url(#b)" fill-rule="evenodd" d="M25.44 166H55.6L83.28 61.12l-59.04 102.8c-.8.8 0 2.08 1.28 2.08h-.08Z" clip-rule="evenodd"/>
		<path fill="url(#c)" fill-rule="evenodd" d="M160.88 138.32 55.2 166h119.36c1.28 0 2.08-1.28 1.28-2.08l-14.88-25.6h-.08Z" clip-rule="evenodd"/>
		<path fill="url(#d)" fill-rule="evenodd" d="m144.8 122.24 16.08 16.08-60.24-103.68c-.4-.8-2.08-.8-2.48 0l-15.28 26.4 61.92 61.12v.08Z" clip-rule="evenodd"/>
		<path fill="url(#e)" fill-rule="evenodd" d="M77.12 160.16v-76.8L55.2 166l21.92-5.84Z" clip-rule="evenodd"/>
		<path fill="url(#f)" fill-rule="evenodd" d="m77.12 83.36 67.68 38.88-61.92-61.2-5.76 22.32Z" clip-rule="evenodd"/>
		<path fill="url(#g)" fill-rule="evenodd" d="m77.12 160.16 83.76-21.84-16.08-16.08-67.68 37.92Z" clip-rule="evenodd"/>
		<path fill="url(#h)" fill-rule="evenodd" d="m77.12 160.16 14.4-8.24-14.4-52v60.24Z" clip-rule="evenodd"/>
		<path fill="url(#i)" fill-rule="evenodd" d="m144.8 122.24-14.48-8.32-38.8 38 53.28-29.68Z" clip-rule="evenodd"/>
		<path fill="url(#j)" fill-rule="evenodd" d="M77.12 83.44v16.48l53.76 14.32-53.76-30.8Z" clip-rule="evenodd"/>
		<path fill="url(#k)" fill-rule="evenodd" d="M80.4 111.04h38.8L77.12 99.92l3.28 11.12Z" clip-rule="evenodd"/>
		<path fill="url(#l)" fill-rule="evenodd" d="m80 111.04 11.52 40.88 8.24-7.84-15.28-26-4.48-7.04Z" clip-rule="evenodd"/>
		<path fill="url(#m)" fill-rule="evenodd" d="m119.2 111.04-19.44 33.04 30.56-30.16-11.12-2.88Z" clip-rule="evenodd"/>
		<path fill="url(#n)" fill-rule="evenodd" d="M110.96 111.04H80l4.48 7.44 26.48-7.44Z" clip-rule="evenodd"/>
		<path fill="url(#o)" fill-rule="evenodd" d="m103.92 137.44-19.44-18.96 15.28 26 4.16-7.04Z" clip-rule="evenodd"/>
		<path fill="url(#p)" fill-rule="evenodd" d="M119.2 111.04h-8.24l-7.04 26 15.28-26Z" clip-rule="evenodd"/>
		<path fill="url(#q)" fill-rule="evenodd" d="M25.44 166H55.6L82.88 61.04 24.16 163.92c-.8.8 0 2.08 1.28 2.08Z" clip-rule="evenodd"/>
		<path fill="url(#r)" fill-rule="evenodd" d="M160.88 138.32 55.2 166h119.36c1.28 0 2.08-1.28 1.28-2.08l-14.88-25.6h-.08Z" clip-rule="evenodd"/>
		<path fill="url(#s)" fill-rule="evenodd" d="m144.8 122.24 16.08 16.08-60.24-103.68c-.4-.8-2.08-.8-2.48 0l-15.28 26.4 61.92 61.12v.08Z" clip-rule="evenodd"/>
		<path fill="url(#t)" fill-rule="evenodd" d="M77.12 160.16v-76.8L55.2 166l21.92-5.84Z" clip-rule="evenodd"/>
		<path fill="url(#u)" fill-rule="evenodd" d="m77.12 160.16 83.76-21.84-16.08-16.08-67.68 37.92Z" clip-rule="evenodd"/>
		<path fill="url(#v)" fill-rule="evenodd" d="m77.12 160.16 14.4-8.24-14.4-52v60.24Z" clip-rule="evenodd"/>
		<path fill="url(#w)" fill-rule="evenodd" d="m144.8 122.24-14.48-8.32-38.8 38 53.28-29.68Z" clip-rule="evenodd"/>
		<path fill="url(#x)" fill-rule="evenodd" d="m80 111.04 11.52 40.88 8.24-7.84-15.28-26-4.48-7.04Z" clip-rule="evenodd"/>
		<path fill="url(#y)" fill-rule="evenodd" d="m119.2 111.04-19.44 33.04 30.56-30.16-11.12-2.88Z" clip-rule="evenodd"/>
		<path fill="url(#z)" fill-rule="evenodd" d="m103.92 137.44-19.44-18.96 15.28 25.6 4.16-6.64Z" clip-rule="evenodd"/>
		<path fill="url(#A)" fill-rule="evenodd" d="M119.2 111.04h-8.24l-7.04 26 15.28-26Z" clip-rule="evenodd"/>
	</g>
	<defs>
		<linearGradient id="b" x1="59.023" x2="48.616" y1="165.522" y2="64.568" gradientUnits="userSpaceOnUse">
			<stop stop-color="#C3C4C3"/>
			<stop offset=".09" stop-color="#D8D8D8"/>
			<stop offset=".212" stop-color="#E9EAE9"/>
			<stop offset=".349" stop-color="#F6F6F6"/>
			<stop offset=".549" stop-color="#FDFDFD"/>
			<stop offset="1" stop-color="#fff"/>
		</linearGradient>
		<linearGradient id="c" x1="155.638" x2="150.919" y1="138.157" y2="200.16" gradientUnits="userSpaceOnUse">
			<stop stop-color="#C3C4C3"/>
			<stop offset=".09" stop-color="#D8D8D8"/>
			<stop offset=".212" stop-color="#E9EAE9"/>
			<stop offset=".349" stop-color="#F6F6F6"/>
			<stop offset=".549" stop-color="#FDFDFD"/>
			<stop offset="1" stop-color="#fff"/>
		</linearGradient>
		<linearGradient id="d" x1="82.826" x2="179.813" y1="64.557" y2="89.238" gradientUnits="userSpaceOnUse">
			<stop stop-color="#C3C4C3"/>
			<stop offset=".09" stop-color="#D8D8D8"/>
			<stop offset=".212" stop-color="#E9EAE9"/>
			<stop offset=".349" stop-color="#F6F6F6"/>
			<stop offset=".549" stop-color="#FDFDFD"/>
			<stop offset="1" stop-color="#fff"/>
		</linearGradient>
		<linearGradient id="e" x1="70.304" x2="27.834" y1="164.407" y2="135.764" gradientUnits="userSpaceOnUse">
			<stop stop-color="#B7B8B8"/>
			<stop offset=".11" stop-color="#C9CACA"/>
			<stop offset=".302" stop-color="#E1E1E1"/>
			<stop offset=".502" stop-color="#F2F2F2"/>
			<stop offset=".729" stop-color="#FCFCFC"/>
			<stop offset="1" stop-color="#fff"/>
		</linearGradient>
		<linearGradient id="f" x1="76.722" x2="151.137" y1="75.095" y2="108.265" gradientUnits="userSpaceOnUse">
			<stop stop-color="#B7B8B8"/>
			<stop offset=".11" stop-color="#C9CACA"/>
			<stop offset=".302" stop-color="#E1E1E1"/>
			<stop offset=".502" stop-color="#F2F2F2"/>
			<stop offset=".729" stop-color="#FCFCFC"/>
			<stop offset="1" stop-color="#fff"/>
		</linearGradient>
		<linearGradient id="g" x1="151.471" x2="134.391" y1="125.483" y2="186.452" gradientUnits="userSpaceOnUse">
			<stop stop-color="#B7B8B8"/>
			<stop offset=".11" stop-color="#C9CACA"/>
			<stop offset=".302" stop-color="#E1E1E1"/>
			<stop offset=".502" stop-color="#F2F2F2"/>
			<stop offset=".729" stop-color="#FCFCFC"/>
			<stop offset="1" stop-color="#fff"/>
		</linearGradient>
		<linearGradient id="h" x1="84.703" x2="58.499" y1="158.741" y2="148.163" gradientUnits="userSpaceOnUse">
			<stop stop-color="#B7B8B8"/>
			<stop offset=".212" stop-color="#CECECE"/>
			<stop offset=".522" stop-color="#E9E9E9"/>
			<stop offset=".788" stop-color="#F9F9F9"/>
			<stop offset="1" stop-color="#fff"/>
		</linearGradient>
		<linearGradient id="i" x1="138.216" x2="113.919" y1="116.137" y2="166.017" gradientUnits="userSpaceOnUse">
			<stop stop-color="#B7B8B8"/>
			<stop offset=".212" stop-color="#CECECE"/>
			<stop offset=".522" stop-color="#E9E9E9"/>
			<stop offset=".788" stop-color="#F9F9F9"/>
			<stop offset="1" stop-color="#fff"/>
		</linearGradient>
		<linearGradient id="j" x1="74.912" x2="132.672" y1="91.467" y2="106.107" gradientUnits="userSpaceOnUse">
			<stop stop-color="#B7B8B8"/>
			<stop offset=".212" stop-color="#CECECE"/>
			<stop offset=".522" stop-color="#E9E9E9"/>
			<stop offset=".788" stop-color="#F9F9F9"/>
			<stop offset="1" stop-color="#fff"/>
		</linearGradient>
		<linearGradient id="k" x1="76.558" x2="119.438" y1="105.307" y2="108.667" gradientUnits="userSpaceOnUse">
			<stop stop-color="#ABACAC"/>
			<stop offset=".18" stop-color="#BDBDBD"/>
			<stop offset=".729" stop-color="#EDEDED"/>
			<stop offset="1" stop-color="#fff"/>
		</linearGradient>
		<linearGradient id="l" x1="96.445" x2="67.924" y1="149.838" y2="134.584" gradientUnits="userSpaceOnUse">
			<stop stop-color="#ABACAC"/>
			<stop offset=".18" stop-color="#BDBDBD"/>
			<stop offset=".729" stop-color="#EDEDED"/>
			<stop offset="1" stop-color="#fff"/>
		</linearGradient>
		<linearGradient id="m" x1="125.75" x2="99.904" y1="110.999" y2="144.055" gradientUnits="userSpaceOnUse">
			<stop stop-color="#ABACAC"/>
			<stop offset=".18" stop-color="#BDBDBD"/>
			<stop offset=".729" stop-color="#EDEDED"/>
			<stop offset="1" stop-color="#fff"/>
		</linearGradient>
		<linearGradient id="n" x1="82.052" x2="109.092" y1="116.085" y2="105.925" gradientUnits="userSpaceOnUse">
			<stop stop-color="#9FA0A0"/>
			<stop offset=".169" stop-color="#A5A6A6"/>
			<stop offset=".4" stop-color="#B6B6B6"/>
			<stop offset=".659" stop-color="#D1D1D1"/>
			<stop offset=".941" stop-color="#F6F6F6"/>
			<stop offset="1" stop-color="#fff"/>
		</linearGradient>
		<linearGradient id="o" x1="102.842" x2="81.162" y1="140.54" y2="122.22" gradientUnits="userSpaceOnUse">
			<stop stop-color="#9FA0A0"/>
			<stop offset=".169" stop-color="#A5A6A6"/>
			<stop offset=".4" stop-color="#B6B6B6"/>
			<stop offset=".659" stop-color="#D1D1D1"/>
			<stop offset=".941" stop-color="#F6F6F6"/>
			<stop offset="1" stop-color="#fff"/>
		</linearGradient>
		<linearGradient id="p" x1="113.918" x2="101.743" y1="110.986" y2="134.27" gradientUnits="userSpaceOnUse">
			<stop stop-color="#9FA0A0"/>
			<stop offset=".169" stop-color="#A5A6A6"/>
			<stop offset=".4" stop-color="#B6B6B6"/>
			<stop offset=".659" stop-color="#D1D1D1"/>
			<stop offset=".941" stop-color="#F6F6F6"/>
			<stop offset="1" stop-color="#fff"/>
		</linearGradient>
		<linearGradient id="q" x1="58.784" x2="48.384" y1="165.53" y2="64.57" gradientUnits="userSpaceOnUse">
			<stop stop-color="#C3C4C3"/>
			<stop offset=".09" stop-color="#D8D8D8"/>
			<stop offset=".212" stop-color="#E9EAE9"/>
			<stop offset=".349" stop-color="#F6F6F6"/>
			<stop offset=".549" stop-color="#FDFDFD"/>
			<stop offset="1" stop-color="#fff"/>
		</linearGradient>
		<linearGradient id="r" x1="155.638" x2="150.919" y1="138.157" y2="200.16" gradientUnits="userSpaceOnUse">
			<stop stop-color="#C3C4C3"/>
			<stop offset=".09" stop-color="#D8D8D8"/>
			<stop offset=".212" stop-color="#E9EAE9"/>
			<stop offset=".349" stop-color="#F6F6F6"/>
			<stop offset=".549" stop-color="#FDFDFD"/>
			<stop offset="1" stop-color="#fff"/>
		</linearGradient>
		<linearGradient id="s" x1="82.826" x2="179.813" y1="64.557" y2="89.238" gradientUnits="userSpaceOnUse">
			<stop stop-color="#C3C4C3"/>
			<stop offset=".09" stop-color="#D8D8D8"/>
			<stop offset=".212" stop-color="#E9EAE9"/>
			<stop offset=".349" stop-color="#F6F6F6"/>
			<stop offset=".549" stop-color="#FDFDFD"/>
			<stop offset="1" stop-color="#fff"/>
		</linearGradient>
		<linearGradient id="t" x1="70.304" x2="27.834" y1="164.407" y2="135.764" gradientUnits="userSpaceOnUse">
			<stop stop-color="#B7B8B8"/>
			<stop offset=".11" stop-color="#C9CACA"/>
			<stop offset=".302" stop-color="#E1E1E1"/>
			<stop offset=".502" stop-color="#F2F2F2"/>
			<stop offset=".729" stop-color="#FCFCFC"/>
			<stop offset="1" stop-color="#fff"/>
		</linearGradient>
		<linearGradient id="u" x1="151.471" x2="134.391" y1="125.483" y2="186.452" gradientUnits="userSpaceOnUse">
			<stop stop-color="#B7B8B8"/>
			<stop offset=".11" stop-color="#C9CACA"/>
			<stop offset=".302" stop-color="#E1E1E1"/>
			<stop offset=".502" stop-color="#F2F2F2"/>
			<stop offset=".729" stop-color="#FCFCFC"/>
			<stop offset="1" stop-color="#fff"/>
		</linearGradient>
		<linearGradient id="v" x1="84.703" x2="58.499" y1="158.741" y2="148.163" gradientUnits="userSpaceOnUse">
			<stop stop-color="#B7B8B8"/>
			<stop offset=".212" stop-color="#CECECE"/>
			<stop offset=".522" stop-color="#E9E9E9"/>
			<stop offset=".788" stop-color="#F9F9F9"/>
			<stop offset="1" stop-color="#fff"/>
		</linearGradient>
		<linearGradient id="w" x1="138.216" x2="113.919" y1="116.137" y2="166.017" gradientUnits="userSpaceOnUse">
			<stop stop-color="#B7B8B8"/>
			<stop offset=".212" stop-color="#CECECE"/>
			<stop offset=".522" stop-color="#E9E9E9"/>
			<stop offset=".788" stop-color="#F9F9F9"/>
			<stop offset="1" stop-color="#fff"/>
		</linearGradient>
		<linearGradient id="x" x1="96.445" x2="67.924" y1="149.838" y2="134.584" gradientUnits="userSpaceOnUse">
			<stop stop-color="#ABACAC"/>
			<stop offset=".18" stop-color="#BDBDBD"/>
			<stop offset=".729" stop-color="#EDEDED"/>
			<stop offset="1" stop-color="#fff"/>
		</linearGradient>
		<linearGradient id="y" x1="125.75" x2="99.904" y1="110.999" y2="144.055" gradientUnits="userSpaceOnUse">
			<stop stop-color="#ABACAC"/>
			<stop offset=".18" stop-color="#BDBDBD"/>
			<stop offset=".729" stop-color="#EDEDED"/>
			<stop offset="1" stop-color="#fff"/>
		</linearGradient>
		<linearGradient id="z" x1="102.862" x2="81.182" y1="140.198" y2="122.198" gradientUnits="userSpaceOnUse">
			<stop stop-color="#9FA0A0"/>
			<stop offset=".169" stop-color="#A5A6A6"/>
			<stop offset=".4" stop-color="#B6B6B6"/>
			<stop offset=".659" stop-color="#D1D1D1"/>
			<stop offset=".941" stop-color="#F6F6F6"/>
			<stop offset="1" stop-color="#fff"/>
		</linearGradient>
		<linearGradient id="A" x1="113.918" x2="101.743" y1="110.986" y2="134.27" gradientUnits="userSpaceOnUse">
			<stop stop-color="#9FA0A0"/>
			<stop offset=".169" stop-color="#A5A6A6"/>
			<stop offset=".4" stop-color="#B6B6B6"/>
			<stop offset=".659" stop-color="#D1D1D1"/>
			<stop offset=".941" stop-color="#F6F6F6"/>
			<stop offset="1" stop-color="#fff"/>
		</linearGradient>
		<clipPath id="a">
			<path fill="#fff" d="M0 0h200v200H0z"/>
		</clipPath>
	</defs>
</svg>
