<svg xmlns="http://www.w3.org/2000/svg" width="200" height="200" fill="currentColor" viewBox="0 0 200 200">
  <g clip-path="url(#a)">
    <path fill="#fff" d="M200 0H0v200h200V0Z"/>
    <path fill="#000" d="M141.48 113.2C129 115.68 114.8 117 100 117c-14.8 0-29-1.32-41.48-3.8-33.48 5.28-56.68 16.76-56.68 30.04 0 18.32 43.96 33.12 98.16 33.12 54.2 0 98.16-14.84 98.16-33.12 0-13.28-23.2-24.76-56.68-30.04ZM99.92 54.64c32.342 0 58.56-8.596 58.56-19.2s-26.218-19.2-58.56-19.2-58.56 8.596-58.56 19.2 26.218 19.2 58.56 19.2Zm26.04 4.4c-8.32 1.28-17.28 1.92-26.04 1.92-8.72 0-17.64-.64-25.96-1.92-30.32 3.56-52.08 13.2-52.08 24.48 0 14.36 34.96 25.96 78.12 25.96 43.16 0 78.12-11.64 78.12-25.96 0-11.28-21.8-20.92-52.16-24.48Z"/>
  </g>
  <defs>
    <clipPath id="a">
      <path fill="#fff" d="M0 0h200v200H0z"/>
    </clipPath>
  </defs>
</svg>
