<svg xmlns="http://www.w3.org/2000/svg" width="200" height="200" fill="currentColor" viewBox="0 0 200 200">
	<path fill="url(#a)" d="M100.2 197.72c-53.68 0-97.2-43.52-97.2-97.2v-62.6C3 18.8 18.48 3.32 37.6 3.32h62.6c53.68 0 97.2 43.52 97.2 97.2s-43.52 97.2-97.2 97.2Z"/>
	<path fill="#fff" d="M100.92 160.32c-11.84 0-24-3.92-34.28-11.04-9.4-6.52-16.6-15.28-19.72-24-1.84-5.2.84-10.92 6.04-12.76 5.2-1.84 10.92.84 12.76 6.04 3.2 8.92 17.52 21.8 35.16 21.8 15.4 0 36.76-12.28 36.76-35.4 0-12.2-3.84-22.68-10.8-29.56-6.56-6.48-15.92-9.84-27.16-9.72-23.6.24-33.8 23.36-34.2 24.36-1.84 4.4-6.52 6.88-11.16 5.92-4.68-.92-8-5.04-8-9.8V43.2c0-5.52 4.48-10 10-10s10 4.48 10 10v14.28c8.12-6.44 19.04-11.64 33.24-11.8 16.64-.2 31 5.2 41.4 15.52 10.76 10.68 16.72 26.2 16.72 43.76 0 15.84-6.64 30.32-18.76 40.8-10.68 9.24-24.52 14.56-38 14.56Z"/>
	<path fill="#fff" d="M100.28 117.88c8.284 0 15-6.716 15-15 0-8.284-6.716-15-15-15-8.284 0-15 6.716-15 15 0 8.284 6.716 15 15 15Z"/>
	<defs>
		<linearGradient id="a" x1="13.439" x2="193.727" y1="13.14" y2="194.67" gradientUnits="userSpaceOnUse">
			<stop stop-color="#945BF7"/>
			<stop offset=".503" stop-color="#009BFF"/>
			<stop offset="1" stop-color="#00E0DE"/>
		</linearGradient>
	</defs>
</svg>
