<svg xmlns="http://www.w3.org/2000/svg" width="200" height="200" fill="currentColor" viewBox="0 0 200 200">
	<path fill="#D9B432" d="M163.48 1.6H36.52C16.28 1.6 0 17.56 0 37.44v124.64c0 19.88 16.28 35.84 36.52 35.84h126.96c19.96 0 36.52-15.96 36.52-35.84V37.44c0-19.88-16.28-35.84-36.52-35.84Zm-30.8 49.04c14.84 0 26.8 11.76 26.8 26.32 0 4.48-1.16 8.68-3.16 12.6-3.44-2.52-7.12-4.76-11.12-6.16 1.12-1.96 1.72-4.2 1.72-6.44 0-7.56-6.28-13.72-14-13.72s-14 6.16-14 13.72c0 2.24.56 4.48 1.72 6.44-4 1.4-8 3.36-11.12 6.16-2.28-3.92-3.16-8.12-3.16-12.6-.52-14.56 11.48-26.32 26.32-26.32Zm-65.36 98.32c-14.84 0-26.8-11.76-26.8-26.32h12.84c0 7.56 6.28 13.72 14 13.72s14-6.16 14-13.72H94.2c-.04 14.56-12.04 26.32-26.88 26.32Zm0-37c-17.12 0-31.08-13.72-31.08-30.52 0-16.8 14-30.8 31.08-30.8s31.4 13.72 31.4 30.8c-.28 16.8-14.28 30.52-31.4 30.52Zm65.36 37c-17.12 0-31.4-13.72-31.4-30.52 0-17.08 14-30.8 31.4-30.8 17.12 0 31.08 13.72 31.08 30.8 0 16.76-13.96 30.52-31.08 30.52Zm18.52-30.84c0 10.08-8.28 17.92-18.56 17.92s-18.56-8.12-18.56-17.92c0-10.08 8.28-18.2 18.56-18.2 10.32.28 18.56 8.4 18.56 18.2ZM85.6 81.44c0 10.08-8.28 18.2-18.56 18.2s-18.56-8.12-18.56-18.2 8.28-18.2 18.56-18.2c10.56 0 18.56 8.12 18.56 18.2Z"/>
</svg>
