<svg xmlns="http://www.w3.org/2000/svg" width="200" height="200" fill="currentColor" viewBox="0 0 200 200">
	<path fill="#0380FF" d="M94.08 194.2 20.2 149.84c-2-1.2-3.24-3.4-3.24-5.72V58.24l14.4 8.72V136c0 2.36 1.24 4.52 3.24 5.72L94 177.44l.08 16.76Zm88.76-146.48-41.68-25.36-14.2 8.2 42.64 25.96a8.625 8.625 0 0 1 4.12 7.36v47.96l14.4-8.08v-46.6c.04-3.84-2-7.44-5.28-9.44Z"/>
	<path fill="#0380FF" d="M173.76 135.24c0 2.56-1.36 4.96-3.56 6.28l-48.48 28.88c-1.92 1.12-4.32-.24-4.32-2.44V90.24L51.04 51.36c-1.76-1.04-1.72-3.56 0-4.56l47.28-27.48c3.2-1.84 7.12-1.8 10.28.12l10.2 6.2 14.2-8.2L109.64 3.2a11.662 11.662 0 0 0-11.96-.12L18.56 49.04 103 98.48v99.84l81.56-48.6a7.352 7.352 0 0 0 3.56-6.28v-29.6l-14.4 7.72v13.68h.04Z"/>
</svg>
