<svg xmlns="http://www.w3.org/2000/svg" width="200" height="200" fill="currentColor" viewBox="0 0 200 200">
	<g clip-path="url(#a)">
		<path fill="#EDF0F2" d="M100.04 200.16c55.273 0 100.08-44.807 100.08-100.08C200.12 44.807 155.313 0 100.04 0 44.767 0-.04 44.807-.04 100.08c0 55.273 44.807 100.08 100.08 100.08Z"/>
		<path fill="url(#b)" d="M163.56 177.36a100.135 100.135 0 0 1-53.64 22.28c-26.4 2.6-52.76-5.36-73.28-22.2-20.56-16.8-33.56-41.12-36.16-67.52-1.96-19.68 2-39.52 11.32-57 9.32-17.44 23.6-31.72 41.04-41.08A100.263 100.263 0 0 1 109.8.48a99.976 99.976 0 0 1 53.68 22.2l-20.2 24.64c-10.44-8.56-23.16-13.84-36.6-15.12-13.44-1.28-26.96 1.4-38.84 7.76a68.3 68.3 0 0 0-35.72 66.88c1.8 18 10.64 34.56 24.64 46.04A68.084 68.084 0 0 0 106.72 168a68.221 68.221 0 0 0 36.6-15.16l20.24 24.52Z"/>
		<path fill="#fff" d="M100.32 188.36c48.6 0 88.04-39.4 88.04-88.04 0-48.6-39.4-88.04-88.04-88.04-48.6 0-88.04 39.4-88.04 88.04 0 48.6 39.44 88.04 88.04 88.04Z"/>
		<path fill="#AAB8C1" d="m100.92 115.56 25.88-15-30.76-15.84 4.88 30.84Z"/>
		<path fill="#AAB8C1" d="m75.04 100.52 25.88 15V87.8l-25.88 12.72Z"/>
		<path fill="#283947" d="m100.92 58.36-25.88 42.16 33.92-15.08-8.04-27.08Z"/>
		<path fill="#657786" d="M100.92 58.36v30.6l25.88 11.56-25.88-42.16Z"/>
		<path fill="#283947" d="m100.92 141.16 3.36-18.92-29.2-16.88 25.84 35.8Z"/>
		<path fill="#657786" d="M100.92 120.36v20.8l25.88-35.8-25.88 15Z"/>
	</g>
	<defs>
		<linearGradient id="b" x1="71.849" x2="103.225" y1="10.999" y2="184.958" gradientUnits="userSpaceOnUse">
			<stop stop-color="#27D3A2"/>
			<stop offset="1" stop-color="#9388FD"/>
		</linearGradient>
		<clipPath id="a">
			<path fill="#fff" d="M0 0h200v200H0z"/>
		</clipPath>
	</defs>
</svg>
