<svg xmlns="http://www.w3.org/2000/svg" width="200" height="200" fill="currentColor" viewBox="0 0 200 200">
  <g clip-path="url(#a)">
    <path fill="#fff" d="M200 0H0v200h200V0Z"/>
    <path fill="url(#b)" d="M4.72 83.24C1.44 83.24 0 84.68 0 87.6v75.04c0 3.28 1.44 4.36 4.72 4.36 36.08.36 80.16-31.68 116.6-56.84V23.48C85.24 48.28 40.08 83.6 4.72 83.24Z"/>
    <path fill="url(#c)" d="M194.56 117.12c3.28 0 4.72-1.44 4.72-4.36V37.72c0-3.28-1.44-4.36-4.72-4.36C158.12 33 114.4 65.04 77.96 90.2v86.36c36.08-24.84 81.28-60.16 116.6-59.44Z"/>
    <path fill="#194AAD" d="M121.32 110.2V60.64C106.4 70.12 91.44 80.32 77.6 89.8v49.56c15.32-9.48 29.88-19.68 43.72-29.16Z"/>
  </g>
  <defs>
    <linearGradient id="b" x1="71.763" x2="50.522" y1="156.361" y2="35.98" gradientUnits="userSpaceOnUse">
      <stop offset=".1" stop-color="#194AAD"/>
      <stop offset=".5" stop-color="#248FCB"/>
      <stop offset=".8" stop-color="#2BBFDF"/>
    </linearGradient>
    <linearGradient id="c" x1="152.107" x2="124.018" y1="25.395" y2="184.677" gradientUnits="userSpaceOnUse">
      <stop offset=".1" stop-color="#194AAD"/>
      <stop offset=".5" stop-color="#248FCB"/>
      <stop offset=".8" stop-color="#2BBFDF"/>
    </linearGradient>
    <clipPath id="a">
      <path fill="#fff" d="M0 0h200v200H0z"/>
    </clipPath>
  </defs>
</svg>
