<svg xmlns="http://www.w3.org/2000/svg" width="200" height="200" fill="currentColor" viewBox="0 0 200 200">
  <g clip-path="url(#a)">
    <path fill="#fff" d="M220-20H-20v240h240V-20Z"/>
    <path fill="#fff" d="M220-20H-20v240h240V-20Z"/>
    <path fill="#00F6FF" d="M220-20H-20v240h240V-20Z"/>
    <mask id="b" width="66" height="72" x="76" y="107" maskUnits="userSpaceOnUse" style="mask-type:luminance">
      <path fill="#fff" d="M76.79 107.901h64.692v71.044H76.79v-71.044Z"/>
    </mask>
    <g mask="url(#b)">
      <path fill="#000" d="m76.87 130.182 19.966 48.654 44.431-45.306h-33.691l-8.996-25.496-21.71 22.148Z"/>
    </g>
    <path fill="#000" d="m130.848 75.155-25.475 25.955 8.354 23.661h67.014l-17.488-49.616h-32.405ZM20 75.155l17.487 49.616h32.406L95.32 98.863l-8.353-23.708H20Z"/>
    <path fill="#000" d="m103.904 21.09-44.43 45.307h33.69l8.997 25.495 21.71-22.102-19.967-48.7Z"/>
  </g>
  <defs>
    <clipPath id="a">
      <path fill="#fff" d="M0 0h200v200H0z"/>
    </clipPath>
  </defs>
</svg>
