<svg xmlns="http://www.w3.org/2000/svg" width="200" height="200" fill="currentColor" viewBox="0 0 200 200">
	<path fill="#20A549" d="M195.924 79.207h-24.83c-7.795-22.825-22.571-39.286-45.345-47.967-15.091-5.752-30.5-5.87-45.93-1.238-31.322 9.402-53.247 40.353-51.554 72.69 1.808 34.525 25.961 62.742 58.906 69.22 34.685 6.82 72.135-13.374 83.945-51.08h24.766c-7.413 38.441-45.181 78.941-99.28 76.698-51.31-2.128-92.292-44.876-92.694-96.776C3.506 48.82 43.13 7.389 91.902 2.837c54.2-5.059 95.764 34.605 104.022 76.37Zm-71.686 1.68c-2.946-9.548-12.099-16.309-22.515-16.382-10.542-.073-19.912 6.614-22.915 16.187-2.654 8.46-.314 19.228 13.915 27.029v27.591h17.672v-27.668c13.672-7.448 16.511-18.111 13.843-26.757Z"/>
</svg>
