<svg xmlns="http://www.w3.org/2000/svg" width="200" height="200" fill="currentColor" viewBox="0 0 200 200">
	<path fill="#1682FE" d="M127.44 39h-13.92v21h13.92V39ZM87.4 0H73.48v21H87.4V0Z"/>
	<path fill="#60D8A4" d="M47.4 20H33.48v21H47.4V20Z"/>
	<path fill="#F4BB3B" d="M27.56 100H13.48v60h14.08v-60Z"/>
	<path fill="#60D8A4" d="M27.56 40H13.48v60h14.08V40Z"/>
	<path fill="#1682FE" d="M147.4 59h-13.92v21h13.92V59Z"/>
	<path fill="#FF5A5A" d="M147.4 120h-13.92v21h13.92v-21Zm-20 20h-13.92v21h13.92v-21Zm-40 39H73.48v21H87.4v-21Z"/>
	<path fill="#F4BB3B" d="M47.4 159H33.48v21H47.4v-21Z"/>
	<path fill="#3A3A3A" d="M186.52 80V40h-20V20h-40V0h-40v20h-40v20h-20v120h20v20h40v20h40v-20h40v-20h20v-40h-40v20h-20v20h-40v-20h-20V60h20V40h40v20h20v20h40Z"/>
</svg>
