<svg width="200" height="200" viewBox="0 0 200 200" fill="none" xmlns="http://www.w3.org/2000/svg">
<rect width="200" height="200" fill="white"/>
<path d="M86.68 101.48V24.44C86.68 17.68 92.16 12.2 98.92 12.2C105.68 12.2 111.16 17.68 111.16 24.44V60.16C115.2 57.24 118.88 53.8 122.12 50V24.44C122.12 11.64 111.72 1.23999 98.92 1.23999C86.12 1.23999 75.72 11.64 75.72 24.44V81.76C75.72 90.08 80.08 97.4 86.68 101.48Z" fill="black"/>
<path d="M91.0801 89.88L157.8 51.36C163.64 47.96 171.16 50 174.52 55.84C177.88 61.6801 175.88 69.2 170.04 72.56L139.12 90.4C143.68 92.44 148.48 93.92 153.4 94.8L175.52 82.0401C186.64 75.6401 190.4 61.44 184 50.36C177.6 39.24 163.4 35.48 152.32 41.88L102.68 70.56C95.4801 74.72 91.3201 82.16 91.0801 89.88Z" fill="black"/>
<path d="M175.52 116.96L125.88 88.28C118.68 84.12 110.16 84.28 103.36 87.92L170.08 126.44C175.92 129.84 177.96 137.32 174.56 143.16C171.16 149 163.68 151.04 157.84 147.64L126.92 129.8C127.44 134.76 128.56 139.68 130.24 144.36L152.36 157.12C163.48 163.52 177.64 159.72 184.04 148.64C190.4 137.56 186.64 123.36 175.52 116.96Z" fill="black"/>
<path d="M111.16 97.52V174.56C111.16 181.32 105.68 186.8 98.92 186.8C92.16 186.8 86.68 181.32 86.68 174.56V138.84C82.64 141.76 78.96 145.2 75.72 149V174.52C75.72 187.32 86.12 197.72 98.92 197.72C111.72 197.72 122.12 187.32 122.12 174.52V117.24C122.12 108.92 117.76 101.64 111.16 97.52Z" fill="black"/>
<path d="M106.76 109.16L40.04 147.68C34.2 151.08 26.68 149.04 23.32 143.2C19.92 137.36 21.96 129.84 27.8 126.48L58.72 108.64C54.16 106.6 49.36 105.12 44.44 104.24L22.32 117C11.2 123.4 7.44001 137.6 13.84 148.68C20.24 159.8 34.44 163.56 45.52 157.16L95.16 128.48C102.36 124.32 106.52 116.88 106.76 109.16Z" fill="black"/>
<path d="M22.32 82.08L72 110.76C79.2 114.92 87.72 114.76 94.52 111.12L27.8 72.6C21.96 69.2 19.92 61.72 23.32 55.88C26.72 50.04 34.2 48 40.04 51.4L70.96 69.24C70.44 64.28 69.32 59.36 67.64 54.68L45.52 41.92C34.4 35.52 20.24 39.32 13.84 50.4C7.39996 61.48 11.2 75.64 22.32 82.08Z" fill="black"/>
</svg>
