<svg xmlns="http://www.w3.org/2000/svg" width="200" height="200" fill="currentColor" viewBox="0 0 200 200">
  <g clip-path="url(#a)">
    <path fill="#fff" d="M200 0H0v200h200V0Z"/>
    <path fill="#000" d="M86.68 101.48V24.44c0-6.76 5.48-12.24 12.24-12.24s12.24 5.48 12.24 12.24v35.72c4.04-2.92 7.72-6.36 10.96-10.16V24.44c0-12.8-10.4-23.2-23.2-23.2-12.8 0-23.2 10.4-23.2 23.2v57.32c0 8.32 4.36 15.64 10.96 19.72Z"/>
    <path fill="#000" d="m91.08 89.88 66.72-38.52c5.84-3.4 13.36-1.36 16.72 4.48 3.36 5.84 1.36 13.36-4.48 16.72L139.12 90.4c4.56 2.04 9.36 3.52 14.28 4.4l22.12-12.76c11.12-6.4 14.88-20.6 8.48-31.68-6.4-11.12-20.6-14.88-31.68-8.48l-49.64 28.68a23.16 23.16 0 0 0-11.6 19.32Z"/>
    <path fill="#000" d="m175.52 116.96-49.64-28.68c-7.2-4.16-15.72-4-22.52-.36l66.72 38.52c5.84 3.4 7.88 10.88 4.48 16.72-3.4 5.84-10.88 7.88-16.72 4.48l-30.92-17.84c.52 4.96 1.64 9.88 3.32 14.56l22.12 12.76c11.12 6.4 25.28 2.6 31.68-8.48 6.36-11.08 2.6-25.28-8.52-31.68Z"/>
    <path fill="#000" d="M111.16 97.52v77.04c0 6.76-5.48 12.24-12.24 12.24s-12.24-5.48-12.24-12.24v-35.72c-4.04 2.92-7.72 6.36-10.96 10.16v25.52c0 12.8 10.4 23.2 23.2 23.2 12.8 0 23.2-10.4 23.2-23.2v-57.28c0-8.32-4.36-15.6-10.96-19.72Z"/>
    <path fill="#000" d="m106.76 109.16-66.72 38.52c-5.84 3.4-13.36 1.36-16.72-4.48-3.4-5.84-1.36-13.36 4.48-16.72l30.92-17.84a61.505 61.505 0 0 0-14.28-4.4L22.32 117c-11.12 6.4-14.88 20.6-8.48 31.68 6.4 11.12 20.6 14.88 31.68 8.48l49.64-28.68a23.16 23.16 0 0 0 11.6-19.32Z"/>
    <path fill="#000" d="M22.32 82.08 72 110.76c7.2 4.16 15.72 4 22.52.36L27.8 72.6c-5.84-3.4-7.88-10.88-4.48-16.72 3.4-5.84 10.88-7.88 16.72-4.48l30.92 17.84c-.52-4.96-1.64-9.88-3.32-14.56L45.52 41.92c-11.12-6.4-25.28-2.6-31.68 8.48-6.44 11.08-2.64 25.24 8.48 31.68Z"/>
  </g>
  <defs>
    <clipPath id="a">
      <path fill="#fff" d="M0 0h200v200H0z"/>
    </clipPath>
  </defs>
</svg>
