<svg xmlns="http://www.w3.org/2000/svg" width="200" height="200" fill="currentColor" viewBox="0 0 200 200">
	<g clip-path="url(#a)">
		<path fill="#00EDBE" d="M98.667 0C43.667.667-.667 46 0 101.333.667 156.667 46 200.667 101.333 200 156 199.333 200 155 200 100 199.667 44.333 154.333-.333 98.667 0Z"/>
		<path fill="#141BEB" d="M139.013 62.987c-.333-5 1-10 3.667-14.334H61.013c-3 0-5.666 2.334-5.666 5.667v17.333c0 3 2.666 5.667 5.666 5.667h81.667c-3-4.333-4-9.333-3.667-14.333ZM42.347 100.32c.333 5-1 10-3.667 14.333h81.667c3 0 5.666-2.333 5.666-5.666V91.653c0-3-2.666-5.666-5.666-5.666H38.68c2.667 4.333 4 9.333 3.667 14.333Zm96.666 37.333c-.333-5 1-10 3.667-14.333H61.013c-3 0-5.666 2.333-5.666 5.666v17.334c0 3 2.666 5.666 5.666 5.666h81.667c-3-4.333-4-9.333-3.667-14.333Z"/>
	</g>
	<defs>
		<clipPath id="a">
			<path fill="#fff" d="M0 0h200v200H0z"/>
		</clipPath>
	</defs>
</svg>
