<svg xmlns="http://www.w3.org/2000/svg" width="200" height="196" fill="currentColor" viewBox="0 0 200 196">
	<path fill="#2B5EBA" d="M156.544 57.209c22.512 0 40.76 18.24 40.76 40.743 0 22.503-18.248 40.744-40.76 40.744-22.512 0-40.76-18.241-40.76-40.744s18.248-40.743 40.76-40.743ZM105.032 2.623c10.856 0 19.656 8.796 19.656 19.648s-8.8 19.648-19.656 19.648c-10.856 0-19.656-8.796-19.656-19.648s8.808-19.648 19.656-19.648Zm0 151.458c10.856 0 19.656 8.797 19.656 19.648 0 10.852-8.8 19.648-19.656 19.648-10.856 0-19.656-8.796-19.656-19.648 0-10.851 8.808-19.648 19.656-19.648Zm-9-26.709a11.81 11.81 0 0 0 3.68.584c6.776 0 12.296-5.518 12.296-12.291 0-6.773-5.52-12.291-12.296-12.291-4.36 0-8.136 2.223-10.36 5.614v.096a5.423 5.423 0 0 0-.872 1.647c-13.552 23.902-40.76 7.933-40.76 7.933-4.456-2.615-9.584-4.159-15.2-4.159-16.36 0-29.624 13.259-29.624 29.612 0 16.354 13.264 29.612 29.624 29.612 11.424 0 21.4-6.485 26.24-15.969v-.096c.872-1.648 1.552-3.391 2.128-5.23 14.136-32.419 35.144-25.062 35.144-25.062Zm-6.976-43.454c.584 1.063 1.352 2.127 2.224 2.999 4.84 4.838 12.584 4.838 17.328 0 4.84-4.838 4.84-12.58 0-17.321-3.096-3.095-7.36-4.159-11.232-3.287h-.096a6.548 6.548 0 0 0-1.84.584c-26.528 7.357-34.464-23.23-34.464-23.23a29.337 29.337 0 0 0-7.744-13.643C41.616 18.4 22.936 18.4 11.408 29.916-.12 41.43-.208 60.208 11.408 71.723c8.136 8.133 19.656 10.547 29.92 7.26h.096c1.744-.583 3.488-1.35 5.232-2.222 32.816-12.97 42.4 7.157 42.4 7.157Z"/>
</svg>
