<svg xmlns="http://www.w3.org/2000/svg" width="200" height="200" fill="currentColor" viewBox="0 0 200 200">
	<g clip-path="url(#a)">
		<path fill="#111" stroke="#111" stroke-width="7.057" d="M100 1.794c54.229 0 98.206 43.977 98.206 98.206 0 54.229-43.977 98.206-98.206 98.206-54.229 0-98.206-43.977-98.206-98.206C1.794 45.771 45.77 1.794 100 1.794Z"/>
		<path fill="url(#b)" fill-opacity=".7" d="M100 0C44.746 0 0 44.746 0 100c0 55.202 44.746 100 100 100 55.202 0 100-44.746 100-100S155.202 0 100 0Z"/>
		<path stroke="url(#c)" stroke-width="7.146" d="M100 1.845c54.229 0 98.155 43.926 98.155 98.155S154.229 198.155 100 198.155 1.845 154.229 1.845 100 45.771 1.845 100 1.845Z"/>
		<path fill="#fff" fill-rule="evenodd" d="M78.114 53.511H75.96l-1.384 1.64-35.623 41.876L36.392 100l2.562 2.973 35.674 41.876 1.384 1.64h70.99v-31.266h-9.227v22.04H88.262l29.626-34.239 2.614-3.024-2.614-3.024-29.626-34.239h49.513v22.04h9.227V53.511H78.114Zm.051 11.687L48.539 100l29.626 34.803L108.252 100 78.165 65.198Z" clip-rule="evenodd"/>
	</g>
	<defs>
		<radialGradient id="b" cx="0" cy="0" r="1" gradientTransform="scale(148.411 210.842) rotate(90 .268 .407)" gradientUnits="userSpaceOnUse">
			<stop offset=".031" stop-color="#3A3A3A"/>
			<stop offset="1" stop-color="#1C1C1C"/>
		</radialGradient>
		<linearGradient id="c" x1="99.999" x2="99.999" y1="-1.887" y2="201.885" gradientUnits="userSpaceOnUse">
			<stop stop-color="#fff"/>
			<stop offset="1" stop-color="#111"/>
		</linearGradient>
		<clipPath id="a">
			<path fill="#fff" d="M0 0h200v200H0z"/>
		</clipPath>
	</defs>
</svg>
