<svg xmlns="http://www.w3.org/2000/svg" width="200" height="200" fill="currentColor" viewBox="0 0 200 200">
	<path fill="url(#a)" d="M99.832 193.952c52.618 0 95.274-42.656 95.274-95.274 0-52.619-42.656-95.274-95.274-95.274S4.558 46.059 4.558 98.678c0 52.618 42.656 95.274 95.274 95.274Z"/>
	<path fill="url(#b)" d="M103.443 176.565c38.562 0 69.823-29.285 69.823-65.411 0-36.126-31.261-65.412-69.823-65.412s-69.822 29.286-69.822 65.412c0 36.126 31.26 65.411 69.822 65.411Z"/>
	<path fill="url(#c)" d="M100.492 195.248c41.633 0 75.383-31.618 75.383-70.621 0-39.002-33.75-70.62-75.383-70.62-41.632 0-75.382 31.618-75.382 70.62 0 39.003 33.75 70.621 75.382 70.621Z"/>
	<path fill="url(#d)" d="M79.37 163.991c-.345-.037-8.485-.931-12.716-3.349-.72-.412-17.724-10.224-24.52-22.456-5.728-10.313-15.432-28.942-16.045-37.84-.558-8.088-.12-25.408 2.74-31.126.2-.398.445-.943.757-1.634 1.865-4.132 5.747-12.73 13.453-20.324 9.553-9.413 21.805-14.197 36.415-14.22.096 0 10.634-.13 22.49-.13 6.964 0 13.016.044 17.985.131 15.779.277 28.383 1.611 34.383 2.67l1.034.18c4.205.729 5.779 1.002 6.119 4.064.291 2.623 2.633 21.653 2.657 21.845l.063.513-14.537 8.825h15.62l1.54 29.247-16.975 12.394h15.327l-5.241 31.136-29.136 16.521-51.343 3.561-.07-.008Z"/>
	<path fill="#692CC2" d="M101.944 33.712c5.994 0 12.359.033 17.971.131 16.833.295 29.237 1.772 34.258 2.658 5.02.886 6.202.886 6.497 3.544.295 2.658 2.658 21.854 2.658 21.854L146.79 71.94h17.719l1.477 28.056-18.606 13.585h16.834l-5.02 29.828-28.647 16.243-51.091 3.544s-8.27-.886-12.404-3.249c-4.134-2.362-18.31-11.517-24.217-22.149-5.906-10.632-15.357-28.942-15.947-37.507-.591-8.564 0-25.398 2.658-30.714 2.658-5.316 13.289-35.678 49.91-35.734-.001 0 10.5-.131 22.488-.131Zm0-1.6c-11.86 0-22.404.13-22.509.131-14.81.022-27.25 4.884-36.957 14.449-7.813 7.699-11.736 16.389-13.621 20.565a51.634 51.634 0 0 1-.743 1.605c-2.924 5.849-3.386 23.373-2.823 31.539.624 9.052 10.383 27.803 16.145 38.174 6.902 12.424 24.093 22.345 24.822 22.761 4.374 2.5 12.676 3.413 13.027 3.451l.14.015.141-.01 51.091-3.544.363-.025.316-.179 28.646-16.243.663-.376.126-.75 5.021-29.828.314-1.866h-13.822l14.645-10.693.7-.511-.046-.865-1.477-28.056-.079-1.516h-13.519l11.65-7.073.884-.537-.126-1.027c-.024-.192-2.365-19.217-2.656-21.835-.406-3.659-2.536-4.028-6.778-4.763-.324-.056-.668-.115-1.031-.18-6.028-1.063-18.682-2.404-34.508-2.682a1056.47 1056.47 0 0 0-17.999-.131Z"/>
	<path fill="#fff" d="M27.766 100.357s.8 10.401 5.066 20.001c4.267 9.601 14.687 24.783 18.401 28.801 5.528 5.98 16.269 12.987 22.936 13.787 6.667.8 24.888-.47 29.013-.528 2.68-.037 24.431-2.233 27.364-2.766 2.934-.533 27.947-14.855 28.647-16.243.573-1.136.891-5.291.891-5.291l-20.377 4.69-61.385 2.901c-2.01.081-5-.25-7.364-.454-2.974-.258-5.818-.819-9.272-1.91-3.703-1.169-8.336-3.563-12.119-6.433-5.321-4.037-11.702-10.376-15.4-19.487-2.349-5.785-6.401-17.068-6.401-17.068Z"/>
	<path fill="url(#e)" d="m57.306 72.236 7.383-10.042s-.295-2.658 13.585-2.953c13.88-.295 81.805 2.068 81.805 2.068l-13.881 10.927H57.306Z"/>
	<path fill="url(#f)" d="m162.442 100.292-17.425 13.289-77.08 2.363s-6.792-5.611-7.974-7.826c-1.181-2.215-2.658-5.169-2.658-5.169s80.329-.59 88.007-.885c7.679-.296 17.13-1.772 17.13-1.772Z"/>
	<path fill="url(#g)" d="M153.582 144.295s-22.445 13.29-24.217 13.881c-1.772.591-44.528 3.543-48.73 3.544-5.42.001-12.108-1.772-16.538-5.021-4.43-3.248-11.222-9.745-12.699-12.403-1.477-2.658-5.61-7.383-5.61-7.383s10.04 6.497 17.128 8.564c7.088 2.067 22.024 1.599 28.817 1.304 6.793-.295 61.849-2.486 61.849-2.486Z"/>
	<path fill="#fff" d="M145.245 27.093s-15.753-4.726-25.88-4.5c-10.128.225-23.18 1.125-29.932 3.375-6.752 2.25-9.452 3.6-9.452 3.6s4.276 5.177 3.826 10.128c-.45 4.951-5.401 10.802-11.252 12.378-5.852 1.575-11.703 2.475-16.204 1.575-4.501-.9-14.853-6.752-14.853-6.752l-7.877-5.626s7.877-10.803 20.93-17.104c13.052-6.301 26.33-11.702 42.984-11.702 16.654 0 28.581 3.826 35.558 7.201 6.976 3.376 12.152 7.427 12.152 7.427Z"/>
	<path fill="url(#h)" d="M33.62 41.271s-5.99 7.583-7.51 10.926c-1.52 3.342-6.534 13.066-7.446 22.639-.911 9.572-1.063 16.99 0 22.018 1.064 5.027 2.887 12.017 2.887 12.017s6.23-25.678 7.141-31.908c.912-6.23 5.318-19.448 9.117-24.006 3.798-4.559 7.293-10.028 7.293-10.028L33.621 41.27Z"/>
	<path fill="url(#i)" d="M45.102 42.928s-6.644 8.673-8.076 11.078c-1.433 2.405-7.362 11.91-7.726 16.727-.364 4.818-1.368 15.042-1.368 15.042s10.636-19.144 13.523-22.487C44.342 59.945 52.7 48.854 52.7 48.854l-7.597-5.926Z"/>
	<defs>
		<linearGradient id="b" x1="106.526" x2="100.93" y1="176.669" y2="57.739" gradientUnits="userSpaceOnUse">
			<stop stop-color="#21FFE3"/>
			<stop offset="1" stop-color="#8549DF"/>
		</linearGradient>
		<linearGradient id="d" x1="35.528" x2="157.484" y1="53.16" y2="124.844" gradientUnits="userSpaceOnUse">
			<stop stop-color="#21FFE3"/>
			<stop offset="1" stop-color="#F8FFFB"/>
		</linearGradient>
		<linearGradient id="e" x1="57.306" x2="160.079" y1="65.726" y2="65.726" gradientUnits="userSpaceOnUse">
			<stop stop-color="#692CC2"/>
			<stop offset=".519" stop-color="#3E5BDE"/>
			<stop offset="1" stop-color="#229EE7"/>
		</linearGradient>
		<linearGradient id="f" x1="57.305" x2="162.441" y1="108.118" y2="108.118" gradientUnits="userSpaceOnUse">
			<stop stop-color="#692CC2"/>
			<stop offset=".519" stop-color="#3E5BDE"/>
			<stop offset="1" stop-color="#229EE7"/>
		</linearGradient>
		<linearGradient id="g" x1="45.788" x2="153.582" y1="149.316" y2="149.316" gradientUnits="userSpaceOnUse">
			<stop stop-color="#677CF4"/>
			<stop offset=".276" stop-color="#374CD7"/>
			<stop offset=".363" stop-color="#3752D8"/>
			<stop offset=".475" stop-color="#3562DB"/>
			<stop offset=".6" stop-color="#337CE1"/>
			<stop offset=".735" stop-color="#30A1E9"/>
			<stop offset=".877" stop-color="#2DD0F2"/>
			<stop offset="1" stop-color="#29FFFC"/>
		</linearGradient>
		<linearGradient id="h" x1="32.521" x2="14.241" y1="57.873" y2="104.405" gradientUnits="userSpaceOnUse">
			<stop stop-color="#F8FFFB"/>
			<stop offset="1" stop-color="#F8FFFB" stop-opacity="0"/>
		</linearGradient>
		<linearGradient id="i" x1="40.82" x2="37.772" y1="60.398" y2="102.209" gradientUnits="userSpaceOnUse">
			<stop stop-color="#F8FFFB"/>
			<stop offset="1" stop-color="#F8FFFB" stop-opacity="0"/>
		</linearGradient>
		<radialGradient id="a" cx="0" cy="0" r="1" gradientTransform="translate(54.359 39.912) scale(102.848)" gradientUnits="userSpaceOnUse">
			<stop stop-color="#21FFE3"/>
			<stop offset="1" stop-color="#8549DF"/>
		</radialGradient>
		<radialGradient id="c" cx="0" cy="0" r="1" gradientTransform="translate(100.492 124.627) scale(89.1448)" gradientUnits="userSpaceOnUse">
			<stop stop-color="#21FFE3"/>
			<stop offset=".192" stop-color="#23FCE3" stop-opacity=".808"/>
			<stop offset=".342" stop-color="#28F2E3" stop-opacity=".658"/>
			<stop offset=".478" stop-color="#31E1E2" stop-opacity=".522"/>
			<stop offset=".606" stop-color="#3ECAE2" stop-opacity=".394"/>
			<stop offset=".728" stop-color="#4FACE1" stop-opacity=".272"/>
			<stop offset=".846" stop-color="#6386E0" stop-opacity=".154"/>
			<stop offset=".958" stop-color="#7B5BDF" stop-opacity=".042"/>
			<stop offset="1" stop-color="#8549DF" stop-opacity="0"/>
		</radialGradient>
	</defs>
</svg>
