<svg xmlns="http://www.w3.org/2000/svg" width="200" height="200" fill="currentColor" viewBox="0 0 200 200">
	<g clip-path="url(#a)">
		<path fill="url(#b)" fill-rule="evenodd" d="M100.152 200C44.84 200 0 155.16 0 99.848S44.84-.296 100.152-.296c7.472 0 14.648.896 21.528 2.392-14.648 5.08-27.504 12.856-38.264 23.016-10.76 10.16-19.44 22.424-24.52 36.472H37.368l-10.464 23.92h26.008c-.296 3.288-.6 6.576-.6 9.864 0 5.384.6 10.76 1.496 15.848H34.376l-8.968 23.92H61.28c5.384 11.36 12.856 21.528 22.12 30.192 14.648 13.752 33.48 23.616 54.712 27.208a100.061 100.061 0 0 1-37.96 7.464Zm51.72-185.952C181.168 30.792 200 66.664 200 100.152c0 29.296-13.152 56.8-34.976 76.232-24.816 5.08-47.536-6.872-65.472-24.816-3.584-3.584-6.576-9.568-9.568-14.352-.296-.6-.896-1.192-1.192-1.792h58.296l8.672-23.016H78.328c-.896-3.888-1.496-8.072-1.792-12.256 0-1.496-.296-2.992-.296-4.488v-.592c0-3.584.296-7.176.6-10.464h89.688l9.264-22.72h-90.88c3.888-7.472 8.672-17.04 14.648-23.016 14.352-14.352 31.992-25.712 52.016-24.816h.296v-.008Z" clip-rule="evenodd"/>
	</g>
	<defs>
		<linearGradient id="b" x1="33.069" x2="166.999" y1="174.216" y2="25.637" gradientUnits="userSpaceOnUse">
			<stop stop-color="#15BCFF"/>
			<stop offset=".361" stop-color="#219BF6"/>
			<stop offset=".502" stop-color="#2D79ED"/>
			<stop offset=".722" stop-color="#725DED"/>
			<stop offset="1" stop-color="#B741EE"/>
		</linearGradient>
		<clipPath id="a">
			<path fill="#fff" d="M0 0h200v200H0z"/>
		</clipPath>
	</defs>
</svg>
