<svg xmlns="http://www.w3.org/2000/svg" width="200" height="200" fill="currentColor" viewBox="0 0 200 200">
	<path fill="#DD2664" d="M71.456 9.485C74.3 12.03 100.081 45.19 101.86 48.672c-17.173-.35-31.549 5.764-42.439 18.93-10.843 13.11-14.03 28.304-10.712 45.477 12.123-9.168 23.535-18.582 35.623-27.666l26.631 34.068c-6.068 4.987-12.158 9.544-18.132 14.244-5.907 4.648-11.81 9.301-17.738 13.969l37.003 47.292c-9.687 2.857-32.271 1.433-49.284-5.901-25.027-10.789-42.832-28.825-52.451-54.291C-8.826 84 17.172 26.674 71.456 9.484Zm28.467 149.048c6.255 8.045 12.545 16.064 18.832 24.086 2.383 3.041 4.788 6.064 7.187 9.092.79.997 1.556 1.731 3.083 1.179 6.805-2.462 13.467-5.221 19.695-8.942 12.898-7.705 23.584-17.769 31.722-30.399 8.847-13.731 14.314-28.713 15.216-45.107.392-7.104.476-14.241-.559-21.36-1.565-10.77-4.73-20.973-9.76-30.627-9.118-17.5-22.409-30.936-39.577-40.519-12.637-7.052-26.359-10.599-40.728-11.598-6.306-.439-12.632-.016-18.924.669-.267.029-.515.232-1.08.5 6.317 8.113 12.545 16.12 18.783 24.12 6.256 8.024 12.521 16.04 18.935 24.256L86.78 81.997c9.32 12.237 18.678 23.976 28.01 35.823 5.979-4.679 11.669-9.145 17.373-13.593 5.725-4.464 11.31-9.115 17.355-13.397 2.48 11.08.879 26.187-7.149 37.935-11.151 16.318-26.889 23.625-47.163 23.239 1.873 2.602 3.23 4.616 4.717 6.529Zm5.384-1.623c41.28-5.088 58.743-46.447 46.973-75.052l-36.678 28.598-21.45-27.412c5.946-4.946 12.019-9.492 17.966-14.192 5.911-4.67 11.892-9.254 18.033-14.024L95.033 9.801c1.634-.133 2.914-.332 4.193-.327 14.689.05 28.65 3.248 41.769 9.89 9.644 4.883 18.06 11.398 25.443 19.307 8.748 9.372 15.218 20.071 19.406 32.184 2.131 6.165 3.466 12.473 4.306 18.946.82 6.32.839 12.663.346 18.928-.91 11.541-4.052 22.554-9.29 32.957-7.274 14.446-17.689 26.074-31.014 35.142-6.431 4.377-13.399 7.684-21.132 10.393l-23.753-30.311Z"/>
</svg>
