<svg xmlns="http://www.w3.org/2000/svg" width="200" height="200" fill="currentColor" viewBox="0 0 200 200">
	<path fill="#181818" fill-rule="evenodd" stroke="#fff" d="M39.394 3.03h121.212c20 0 36.364 16.364 36.364 36.364v121.212c0 20-16.364 36.364-36.364 36.364H39.394c-20 0-36.364-16.364-36.364-36.364V39.394c0-20 16.364-36.364 36.364-36.364Z" clip-rule="evenodd"/>
	<path fill="#fff" d="M53.333 93.03h-13.94v-8.485h13.94v-7.878c0-4.849 1.212-9.091 4.243-12.728 3.03-4.242 6.666-6.06 11.515-7.272 3.636-.607 7.273-.607 11.515-.607 3.636.607 7.879 1.819 11.515 3.03h.606l-2.424 7.88c-.606 0-1.212-.606-1.818-.606-4.243-2.425-9.697-2.425-14.546-1.819-6.06 1.212-9.697 4.849-10.303 10.91-.606 1.818-.606 4.242-.606 6.06v3.03h24.243v7.88H63.03v50.302h-9.697V93.03Z"/>
	<path fill="#F7D509" d="M131.515 118.485c2.424-4.243 4.849-9.091 7.273-13.333.606-1.819 1.818-3.637 2.424-5.455h-9.091s-4.242 9.091-6.06 13.333c-1.819-4.242-6.667-13.333-6.667-13.333h-9.697s7.273 12.727 10.303 18.182c-3.03 5.454-10.303 18.182-10.303 18.182h9.697s4.242-9.091 6.667-12.728c1.818 4.243 6.06 12.728 6.06 12.728h9.091c-.606-1.212-7.273-13.334-9.697-17.576Zm-25.454 21.212c-1.819 1.212-3.031 2.424-4.849 3.636-13.333-12.121-15.151-36.363 0-50.909 1.818 1.819 3.636 3.03 4.849 4.243-.606.606-.606 1.212-1.213 1.212-3.03 4.242-5.454 8.485-6.06 13.333-.606 3.031-.606 6.061-.606 9.697 0 3.637 1.212 7.273 2.424 10.303 1.212 3.03 3.03 5.455 5.455 8.485Zm38.787 0c1.819 1.212 3.031 2.424 4.849 3.636 13.333-12.121 15.151-36.363 0-50.909-1.818 1.212-3.03 2.425-4.849 4.243.607.606.607 1.212 1.213 1.818 3.03 3.636 5.454 7.879 6.666 13.333.606 3.031.606 6.061.606 9.697 0 3.637-1.212 7.273-2.424 10.303-1.818 2.424-3.636 4.849-6.061 7.879Z"/>
</svg>
