<svg xmlns="http://www.w3.org/2000/svg" width="200" height="200" fill="currentColor" viewBox="0 0 200 200">
	<g clip-path="url(#a)">
		<path fill="#fff" d="M100 200c-13.498 0-26.593-2.646-38.926-7.86-11.91-5.038-22.6-12.249-31.786-21.428-9.18-9.18-16.39-19.876-21.428-31.786C2.646 126.593 0 113.497 0 100c0-13.498 2.646-26.593 7.86-38.926 5.038-11.91 12.249-22.6 21.428-31.786 9.187-9.18 19.876-16.39 31.786-21.428C73.407 2.646 86.502 0 100 0c13.497 0 26.593 2.646 38.926 7.86 11.91 5.038 22.599 12.249 31.786 21.428 9.179 9.18 16.39 19.876 21.428 31.786C197.354 73.407 200 86.502 200 100c0 13.497-2.646 26.593-7.86 38.926-5.038 11.91-12.249 22.599-21.428 31.786-9.18 9.179-19.876 16.39-31.786 21.428C126.593 197.361 113.497 200 100 200Z"/>
		<path fill="#000" d="M100 194.701c52.302 0 94.701-42.399 94.701-94.701 0-52.302-42.399-94.701-94.701-94.701C47.698 5.299 5.299 47.698 5.299 100c0 52.302 42.399 94.701 94.701 94.701Z"/>
		<path fill="#fff" d="M138.46 122.98c0-8.756-3.64-15.946-10.816-21.386-5.306-4.021-12.721-7.316-24.751-11.013-21.654-6.654-21.654-10.485-21.654-13.569 0-4.261 6.308-10.167 18.14-10.167 7.006 0 18.761 1.764 18.761 13.59h19.7c0-5.575-1.249-10.775-3.613-15.311l15.805-15.805-13.928-13.928-16.108 16.115c-5.842-2.864-12.835-4.353-20.61-4.353-7.246 0-13.907 1.397-19.65 4.085l-15.84-15.84-13.928 13.928 15.029 15.029c-2.244 3.923-3.45 8.255-3.45 12.665 0 8.756 3.64 15.945 10.816 21.385 5.306 4.022 12.7 7.31 24.73 11.007 21.654 6.647 21.668 10.492 21.668 13.575 0 4.262-6.308 10.167-18.14 10.167-7.006 0-18.761-1.763-18.761-13.589h-19.7c0 5.595 1.256 10.81 3.634 15.36l-15.833 15.833 13.928 13.928 16.165-16.164c5.835 2.85 12.806 4.332 20.56 4.332 7.225 0 13.864-1.39 19.593-4.057l15.897 15.896 13.928-13.928-15.057-15.056c2.265-3.952 3.485-8.291 3.485-12.729Z"/>
	</g>
	<defs>
		<clipPath id="a">
			<path fill="#fff" d="M0 0h200v200H0z"/>
		</clipPath>
	</defs>
</svg>
