<svg xmlns="http://www.w3.org/2000/svg" width="200" height="200" fill="currentColor" viewBox="0 0 200 200">
	<path fill="#55C8E6" d="M130.56 16.88c14.04 0 27.24 5.48 37.2 15.4 9.92 9.92 15.4 23.12 15.4 37.2 0 14.04-5.48 27.24-15.4 37.2-9.92 9.92-23.12 15.4-37.2 15.4h-52.6V69.44c0-14.04 5.48-27.24 15.4-37.2 9.92-9.92 23.12-15.36 37.2-15.36Zm0-15.92c-37.84 0-68.48 30.68-68.48 68.48v54.24H16.44v14.24H130.6c37.84 0 68.48-30.68 68.48-68.48-.04-37.8-30.72-68.48-68.52-68.48Z"/>
	<path fill="#55C8E6" d="M122.24 78.12v52.6c0 14.04-5.48 27.24-15.4 37.2-9.92 9.92-23.12 15.4-37.2 15.4-14.04 0-27.24-5.48-37.2-15.4-9.92-9.92-15.4-23.12-15.4-37.2 0-14.04 5.48-27.24 15.4-37.2 9.92-9.92 23.12-15.4 37.2-15.4h52.6Zm61.48-15.92H69.68C31.84 62.2 1.2 92.88 1.2 130.72c0 37.8 30.64 68.48 68.48 68.48s68.48-30.68 68.48-68.48V76.44h45.56V62.2Z"/>
</svg>
