<svg xmlns="http://www.w3.org/2000/svg" width="200" height="200" fill="currentColor" viewBox="0 0 200 200">
	<g clip-path="url(#a)">
		<path fill="#1EEFA4" fill-rule="evenodd" d="M100 0c55.04 0 100 45.04 100 100 0 55.04-45.04 100-100 100C44.96 200 0 154.96 0 100 0 44.96 45.04 0 100 0Z" clip-rule="evenodd"/>
		<path fill="#000" d="M110.72 122.4c0-5.36 4.32-9.76 9.76-9.76h3.92c5.36 0 9.68 4.32 9.68 9.76v3.92c0 5.36-4.32 9.76-9.76 9.76h-3.92c-5.36 0-9.68-4.32-9.68-9.76v-3.92Zm9.76-44.72c-5.36 0-9.68 4.32-9.68 9.76v3.92c0 5.36 4.32 9.76 9.76 9.76h3.92c5.36 0 9.68-4.32 9.68-9.76v-3.92c0-5.36-4.32-9.76-9.76-9.76h-3.92Z"/>
		<path fill="#000" fill-rule="evenodd" d="M75.68 36.8c-21.52 0-38.88 17.44-38.88 38.88v48.64c0 21.52 17.44 38.88 38.88 38.88h48.64c21.52 0 38.88-17.44 38.88-38.88V75.68c0-21.52-17.44-38.88-38.88-38.88H75.68Zm48.64 15.52H75.68c-12.88 0-23.36 10.48-23.36 23.36v48.64c0 12.88 10.48 23.36 23.36 23.36h48.64c12.88 0 23.36-10.48 23.36-23.36V75.68c0-12.88-10.48-23.36-23.36-23.36Z" clip-rule="evenodd"/>
	</g>
	<defs>
		<clipPath id="a">
			<path fill="#fff" d="M0 0h200v200H0z"/>
		</clipPath>
	</defs>
</svg>
