<svg xmlns="http://www.w3.org/2000/svg" width="200" height="200" fill="currentColor" viewBox="0 0 200 200">
	<path fill="#000" d="m100 2.301-84.612 48.85v97.699L100 197.699l84.613-48.85V51.151L100 2.3Zm1.73 158.244-64.944-37.041.263-18.014 64.643 37.004 31.175-17.975-20.909-12.071-7.822 4.512-14.665-8.423 7.86-4.551-10.267-5.941-6.205 3.61-14.704-8.424 6.243-3.61-33.13-19.14 62.424-36.027 58.891 33.582-15.795 9.175-43.096-24.706L70.517 70.48l17.45 10.078 8.912-5.19 14.703 8.424-8.988 5.19 10.267 5.941 7.295-4.25 14.704 8.424-7.371 4.287 36.553 21.097-62.312 36.064Z"/>
</svg>
