<svg xmlns="http://www.w3.org/2000/svg" width="200" height="200" fill="currentColor" viewBox="0 0 200 200">
	<path fill="#32DFC5" d="M119.744 51.637 80.256 29.62l39.488-22.016v44.032Z"/>
	<path fill="#67E9D1" d="M75.49 69.61 36.005 47.594 75.49 25.58v44.03Z"/>
	<path fill="#0BDBB5" d="M69.238 111.071 29.752 89.055 69.238 67.04v44.031Z"/>
	<path fill="#72EBD6" d="M40.77 150.229 1.282 128.213l39.486-22.015v44.031Z"/>
	<path fill="#99EFE9" d="m111.846 180.831-39.487-22.016 39.487-22.015v44.031Z"/>
	<path fill="#1DD7D6" d="m198.717 139.699-39.487-22.016 39.487-22.016V139.7Z"/>
	<path fill="#00D4CD" d="M198.717 95.667 159.23 73.652l39.487-22.016v44.031Z"/>
	<path fill="#00D6C2" d="m159.23 73.652-39.486-22.016 39.486-22.015v44.03Z"/>
	<path fill="#67E7DC" d="m119.744 139.699-39.488-22.016 39.488-22.016V139.7Z"/>
	<path fill="#6AE6D9" d="M114.977 92.795 75.49 70.779l39.487-22.016v44.032Z"/>
	<path fill="#99F1DD" d="m21.026 49.791 39.487 22.016-39.487 22.016V49.79ZM40.77 95.174l39.486 22.016-39.486 22.015V95.174Z"/>
	<path fill="#0BDABB" d="m75.49 43.379 39.487 22.015L75.49 87.41V43.38Z"/>
	<path fill="#1BDAC7" d="m66.935 128.213 39.487 22.016-39.487 22.016v-44.032Z"/>
	<path fill="#4DE3DE" d="m120.571 147.957 39.487 22.016-39.487 22.015v-44.031Z"/>
	<path fill="#00D3D3" d="m159.23 117.683 39.487 22.016-39.487 22.016v-44.032Z"/>
	<path fill="#34DED6" d="m159.23 73.652 39.487 22.016-39.487 22.015V73.652Z"/>
	<path fill="#19DACD" d="m159.23 29.62 39.487 22.016-39.487 22.016V29.62Z"/>
	<path fill="#34DFD0" d="m119.744 51.636 39.486 22.016-39.486 22.015v-44.03Z"/>
	<path fill="#00D7BC" d="m119.744 7.605 39.486 22.016-39.486 22.016V7.605Z"/>
	<path fill="#34DFD3" d="m119.744 95.668 39.486 22.015-39.486 22.016V95.667Z"/>
	<path fill="#0DD8CB" d="m159.23 117.683-39.486-22.016 39.486-22.015v44.031Z"/>
	<path fill="#4BE2DC" d="m159.23 161.715-39.486-22.016 39.486-22.016v44.032Z"/>
</svg>
