<svg xmlns="http://www.w3.org/2000/svg" width="200" height="200" fill="currentColor" viewBox="0 0 200 200">
	<path fill="#094B89" d="M198.92 100.12c0 51.48-39.44 93.76-89.76 98.28-.48.04-.64-.64-.2-.8 4.6-1.8 11.52-5.24 19.76-11.4 7.6-5.68 11.96-12.32 14.44-17.56 1.04-2.2-1.6-4.32-3.48-2.76-3.64 2.96-9 6.64-16.36 10.32-16.68 8.32-27.36 3.88-32.36 1.8s-18.04-13.88-10.56-41.36c6.56-24.16 28.16-34.52 35.52-37.44 1.08-.44 1.32-1.84.4-2.6-1.56-1.32-3.68-3.16-5.12-4.56-2.52-2.48-13.32-12.92-13.32-37.48 0-24.6 16-36.8 25.16-36.8s15.68 8.88 15.68 23.04c0 12.92-8.8 21.6-10.36 23.04-.12.12-.16.32-.08.52 3 5.88 6.8 8.12 12.12 8.12 6.6 0 16.92-11.64 16.92-26.96 0-19.6-10.24-32.2-10.24-32.2l.08-.04c31.8 16.32 51.76 48.6 51.76 86.84Z"/>
	<path fill="#388CE0" d="M96.12 1.52c.48 0 .68.6.28.88-4.32 2.68-8.84 5.72-12.52 8.68-10.44 8.4-18.56 27.12-18.56 42.08 0 16.24 6.92 30.04 9.52 34.68.48.8.12 1.88-.76 2.24-2.08.88-6.24 3.16-13.84 8.8-15.08 11.16-22.76 32.6-23.36 50.52-.44 13.52 5.36 25.36 10.04 32.68.28.44-.24.92-.64.64-26.96-17.64-44.72-48.04-44.72-82.6C1.56 47 43.52 3.68 96.12 1.52Z"/>
	<path fill="#fff" d="M128.12 64.04c3.04 6.08 6.84 8.4 12.28 8.4 6.6 0 16.92-11.64 16.92-26.96 0-19.6-10.24-32.2-10.24-32.2l-1.76-.96-.12-.08c-13.48-6.92-28.76-10.8-44.92-10.8-.8 0-1.56 0-2.36.04-4.76 2.88-9.92 6.28-14.04 9.6-10.44 8.4-18.56 27.12-18.56 42.08 0 16.24 6.92 30.04 9.52 34.68.48.8.12 1.88-.76 2.24-2.08.88-6.24 3.16-13.84 8.8-15.08 11.16-22.76 32.6-23.36 50.52-.48 14.72 6.44 27.48 11.24 34.52A97.136 97.136 0 0 0 64.16 192c10.88 4.28 22.68 6.68 35.04 6.8h1.08c1.96 0 3.92-.04 5.88-.16 4.24-1.4 12.4-4.8 22.64-12.44 7.6-5.68 11.96-12.32 14.44-17.56 1.04-2.2-1.6-4.32-3.48-2.76-3.64 2.96-9 6.64-16.36 10.32-16.68 8.32-27.36 3.88-32.36 1.8S73 164.12 80.48 136.64c6.56-24.16 28.16-34.52 35.52-37.44 1.08-.44 1.32-1.84.4-2.6-1.56-1.32-3.68-3.16-5.12-4.56-2.52-2.48-13.32-12.92-13.32-37.48 0-24.6 16-36.8 25.16-36.8s15.68 8.88 15.68 23.04c-.08 14.16-10.68 23.24-10.68 23.24Z"/>
</svg>
