<svg xmlns="http://www.w3.org/2000/svg" width="200" height="200" fill="currentColor" viewBox="0 0 200 200">
	<g clip-path="url(#a)">
		<path fill="url(#b)" fill-rule="evenodd" d="M100.68 0C97.12 0 93.52.2 90 .6 39.64 5.92.48 48.4.48 100.08c0 55.24 44.84 100.04 100.2 100.04h.24c15.96 0 31.64-3.84 45.8-11.16 4.04-2.08 2.28-8.2-2.24-8.08h-.2c-40.08 1-76.04-15.92-90.72-47.28-8.8-18.76-8.44-36.16-4.36-49.88.04-.12.08-.24.08-.36 2.08-8.48 6-16.28 11.8-22.36.44-.52.92-1.04 1.44-1.52.32-.36.68-.68 1.04-.96.12-.16.28-.28.44-.4.12-.08.24-.2.36-.32.24-.24.56-.48.84-.68a55.12 55.12 0 0 1 34.96-12.36c29.88 0 54.12 23.32 54.12 52.12 0 9.88-2.92 19.56-8.4 27.84 23.88-8.24 41-30.24 41-56.12 0-14.72-5.56-28.16-14.8-38.6-3.88-3.96-8.04-7.6-12.52-10.84l-.04-.04C142.52 6.68 121.96 0 100.84 0h-.16Z" clip-rule="evenodd"/>
		<path fill="url(#c)" fill-rule="evenodd" d="M186.36 68c0 25.84-16.28 47.84-39.08 56.12-6.4 2.36-13.16 3.52-20 3.52-21.92 0-41.04-12.04-51.24-30-2.48-4.36-4.44-11.8-5.76-18.12-1.24-6-9.08-7.56-12.52-2.48a17.45 17.45 0 0 0-2.6 5.68c-.08.28-.16.6-.24.88-.04.08-.04.16-.04.28a60.986 60.986 0 0 0-1.4 20.68c0 .08 0 .16.04.28.32 3.16.88 6.24 1.68 9.32.96 4 2.32 7.92 4.04 11.68 12.48 27.92 40.36 45.12 77.16 42.12 3.64-.28 7.24-.8 10.8-1.56 30.36-6.4 52.2-33.92 52.4-66.36v-.6c0-4-.24-8.04-.72-12-2.4-21.68-11.8-42.04-26.72-57.96A59.41 59.41 0 0 1 186.36 68Z" clip-rule="evenodd"/>
	</g>
	<defs>
		<linearGradient id="b" x1=".48" x2="186.88" y1="100.06" y2="100.06" gradientUnits="userSpaceOnUse">
			<stop stop-color="#2D2D4B"/>
			<stop offset="1" stop-color="#1D1D3A"/>
		</linearGradient>
		<linearGradient id="c" x1="53.155" x2="199.6" y1="98.889" y2="98.889" gradientUnits="userSpaceOnUse">
			<stop stop-color="#95A1D4"/>
			<stop offset="1" stop-color="#594DA0"/>
		</linearGradient>
		<clipPath id="a">
			<path fill="#fff" d="M0 0h200v200H0z"/>
		</clipPath>
	</defs>
</svg>
