<svg xmlns="http://www.w3.org/2000/svg" width="200" height="200" fill="currentColor" viewBox="0 0 200 200">
	<path fill="#2EB6EA" d="M85.4 185.2c47.077 0 85.24-38.163 85.24-85.24 0-47.076-38.163-85.24-85.24-85.24S.16 52.883.16 99.96 38.323 185.2 85.4 185.2Z"/>
	<path fill="#1542CD" d="M84.92 185.2C.16 185.2-33.32 73.64 41.56 26.64c-8.92 93.2 38.48 95.28 82.44 93.2 73.68-3.4 73.72 65.36 73.72 65.36H84.92Z"/>
	<path fill="#745DDF" fill-rule="evenodd" d="M165.96 127.84c-12.84 32.88-44.36 56.36-81.52 57.4.88.04 1.76.04 2.64.04h112.08s-.04-40.28-33.2-57.44Z" clip-rule="evenodd"/>
</svg>
