<svg xmlns="http://www.w3.org/2000/svg" width="200" height="200" fill="currentColor" viewBox="0 0 200 200">
	<path fill="url(#a)" d="m95.683 193.224 48.76-54.695L83.081 33.087 99.814 4.4c1.095 1.387 1.932 2.222 2.507 3.21 12.706 21.8 25.369 43.623 38.069 65.427 12.693 21.792 25.421 43.565 38.115 65.358.688 1.18 1.205 2.459 1.915 3.926-2.233 2.541-4.399 5.043-6.604 7.511-11.742 13.14-23.708 26.09-35.108 39.521-3.295 3.881-6.568 5.088-11.342 4.945-9.444-.282-18.903-.052-28.356-.034-.939.002-1.877.001-2.815.001l-.512-1.041Zm-72.825-47.168c4.192 4.631 8.476 9.18 12.623 13.852a5779.74 5779.74 0 0 1 28.628 32.494c1.238 1.416 2.635 1.84 4.399 1.824 3.893-.034 7.788-.033 11.68.077 1.68.048 2.772-.538 3.897-1.819 6.229-7.092 12.599-14.06 18.876-21.109 1.609-1.807 3.058-3.756 5.051-6.221-1.909-.141-3.092-.299-4.276-.305-7.23-.037-14.464-.114-21.693-.01-2.313.033-3.82-.739-5.258-2.565-2.573-3.262-5.472-6.268-8.24-9.377-4.232-4.756-8.47-9.508-12.78-14.348 2.802-4.823 5.506-9.489 8.22-14.148 9.424-16.174 18.793-32.382 28.33-48.489 1.81-3.054 2.161-5.497.153-8.686-4.508-7.155-8.597-14.574-12.893-21.864-.458-.777-1.155-1.413-2.147-2.6L19.58 142.026c1.354 1.673 2.258 2.904 3.278 4.03Z"/>
	<defs>
		<linearGradient id="a" x1="100" x2="100" y1="2" y2="194.42" gradientUnits="userSpaceOnUse">
			<stop stop-color="#0C4EA2"/>
			<stop offset="1" stop-color="#092D64"/>
		</linearGradient>
	</defs>
</svg>
