<svg xmlns="http://www.w3.org/2000/svg" width="200" height="200" fill="currentColor" viewBox="0 0 200 200">
	<g clip-path="url(#a)">
		<path fill="#1C68F3" d="M100.22 200c55.384 0 100.22-44.835 100.22-100.22C200 44.835 155.165 0 100.22 0S0 44.835 0 100.22C0 155.165 44.835 200 100.22 200Z"/>
		<path fill="#fff" fill-rule="evenodd" d="M160.44 75.604v33.407H54.945c4.396 20.22 22.857 35.165 44.835 35.165 18.022 0 33.846-10.11 41.319-25.055h19.78v27.692c0 6.593-5.275 11.868-12.308 11.868H50.989c-6.593 0-12.308-5.275-12.308-11.868V75.604H160.44Zm-31.209 43.077c-6.594 9.231-17.143 15.385-29.45 15.385-12.309 0-23.297-6.154-29.451-15.385h58.901ZM73.846 83.516c-9.67 0-17.582 7.033-18.901 15.825h10.55c1.318-3.517 4.395-6.154 8.351-6.154 3.956 0 7.033 2.637 8.352 6.154h10.11c-1.319-9.231-9.231-15.825-18.462-15.825Zm51.868 0c-9.67 0-17.582 7.033-18.901 15.825h10.55c1.318-3.517 4.395-6.154 8.351-6.154 3.956 0 7.033 2.637 8.352 6.154h10.549c-1.758-9.231-9.67-15.825-18.901-15.825Zm22.418-44.835c6.593 0 12.308 5.275 12.308 11.868v14.506H38.681V50.549c0-6.593 5.275-11.868 12.308-11.868h97.143Z" clip-rule="evenodd"/>
	</g>
	<defs>
		<clipPath id="a">
			<path fill="#fff" d="M0 0h200v200H0z"/>
		</clipPath>
	</defs>
</svg>
