<svg xmlns="http://www.w3.org/2000/svg" width="200" height="200" fill="currentColor" viewBox="0 0 200 200">
	<g clip-path="url(#a)">
		<path fill="#00DACC" d="M200 97.84C198.8 43.52 154.4 0 100 0 44.8 0 0 44.8 0 100c0 39.84 23.68 75.92 60.24 91.76 4.88-7.28 8.56-15.36 11.04-23.76 2-5.12 4.16-10.08 6.48-14.96 2.88.88 5.92 1.36 9.04 1.36 8.4 0 16.4-3.36 22.24-9.28l.32-.32c-3.44-1.28-7.12-1.92-10.8-1.92-6.8 0-13.44 2.24-18.88 6.4 2.8-5.76 5.76-11.36 8.88-16.8 3.36 1.2 6.88 1.76 10.4 1.76 7.84 0 15.36-2.96 21.12-8.24l.32-.32c-3.84-1.6-8-2.48-12.16-2.48-6.16 0-12.16 1.84-17.28 5.2 3.12-5.12 6.24-10.08 9.6-14.8 2.56.72 5.28 1.04 7.92 1.04 8.8 0 17.2-3.68 23.12-10.24l.24-.32c-3.04-1.04-6.32-1.52-9.52-1.52-6.4 0-12.64 2-17.84 5.68.24-.32.56-.72.8-1.12 2-2.56 4.08-5.2 6.16-7.68a36.845 36.845 0 0 0 24.88-28.8l.08-.48h-.08a36.581 36.581 0 0 0-26.64 28.08c-2 2.4-4 4.88-5.92 7.36 1.36-3.52 2-7.2 2-10.96 0-5.36-1.36-10.56-4-15.2l-.24.32c-3.92 5.36-6.08 11.84-6.08 18.48 0 4.88 1.12 9.76 3.36 14.16-3.2 4.48-6.24 9.12-9.2 14 .4-1.92.56-3.92.56-5.84 0-8-3.12-15.68-8.64-21.44l-.16.4c-1.52 3.68-2.24 7.68-2.24 11.6 0 7.52 2.72 14.72 7.6 20.4-2.96 5.12-5.68 10.4-8.4 15.84.24-1.68.4-3.44.4-5.12 0-8.64-3.44-16.96-9.6-22.96l-.16.4c-1.12 3.36-1.76 6.96-1.76 10.48 0 8.24 3.12 16.16 8.8 22.16-1.76 3.76-3.44 7.52-5.04 11.44-.4-.4-.96-.72-1.52-.88-2.88-.8-5.6-2.08-8.08-3.6-2.08-1.28-4.32-2.24-6.64-3.04-9.04-2.96-7.68-7.28-12.4-16.08a97.18 97.18 0 0 0-4.8-5.2c-1.6-1.04-2.88-2.4-3.76-4.08a19.225 19.225 0 0 1-1.92-6.64c-.08-2.64-1.76-4.88-4.24-5.68-13.28-4.56-7.36-21.84-6.88-24.08a32.29 32.29 0 0 0-1.92-8.56c-.08-.32-.16-.72-.24-1.12-.16-.72-.24-1.52-.24-2.32a11.8 11.8 0 0 1 2.96-7.84c1.6-1.6 7.12-4.16 8.32-5.68 1.2-1.52 2-3.2 3.2-4.56 3.68-3.68 8-6.8 12.72-9.12 3.84-2.08 4.48-7.44 6-9.12 2.48-2.88 6.32-2.88 9.2-5.36 1.44-1.28 3.52-1.92 4.88-3.28 6.64-6.08 15.12-10 24.08-11.12 1.44-.08 2.96-.16 4.48-.16 4.8 0 9.52.64 14.08 1.84.88.16 1.76.32 2.56.56 13.76.48 30.32 3.36 36.4 9.2 2.96 2.88 5.2 6.4 6.4 10.4.96 3.04 2.32 6 4 8.72l3.68 6c1.68 2.64 2.56 5.76 2.56 8.88 0 1.28-.16 2.56-.4 3.84-.4 1.12-.56 2.32-.56 3.52 0 1.04.16 2 .4 2.96 1.92 2.96 4.24 5.6 6.8 8a17.43 17.43 0 0 0 3.36 2.64c2.8 1.68 5.6 3.52 8.16 5.52v.48c0 1.52-.72 2.88-1.92 3.68-2.32 2.08-6.88 5.36-6.88 5.36.16.96.48 1.84.8 2.64.64 1.2 2.16 3.04 1.68 4.56-.48 1.6-3.76 2.96-2.88 4.72.88 1.84 3.28 2.32 2.56 4-.64 1.6-3.92 4.4-3.6 5.6.32 1.2 3.04 12.4-3.2 14.32-7.68 1.52-15.44 2.4-23.28 2.56-2.56.16-4.88 1.6-6.08 3.84-1.2 2.24-1.92 4.64-2.24 7.12-2.24 8.88-5.28 17.6-8.96 26-3.68 8.4-.24.48-.56 1.28-.8 1.68-1.36 3.44-1.52 5.28.56 1.36 1.36 2.56 2.32 3.6.8.88 1.92 1.44 3.2 1.44.4 0 .88-.08 1.28-.16 40.48-14.08 67.6-52.32 67.6-95.2v-1.76l.08.16Z"/>
	</g>
	<defs>
		<clipPath id="a">
			<path fill="#fff" d="M0 0h200v200H0z"/>
		</clipPath>
	</defs>
</svg>
