<svg width="200" height="200" viewBox="0 0 200 200" fill="none" xmlns="http://www.w3.org/2000/svg">
<rect width="200" height="200" fill="white"/>
<path d="M17.6801 170.76C11.2801 170.76 6.08008 165.56 6.08008 159.16V130.36C6.08008 123.96 11.2801 118.76 17.6801 118.76C24.0801 118.76 29.2801 123.96 29.2801 130.36V159.16C29.2801 165.56 24.0801 170.76 17.6801 170.76Z" fill="black"/>
<path d="M184.72 173.96C178.32 173.96 173.12 168.76 173.12 162.36V56.96C173.12 52.72 169.68 49.24 165.4 49.24C161.96 49.24 158.88 51.56 157.96 54.88L131.96 148.4C128.12 162.24 115.92 171.48 101.56 171.48C101.48 171.48 101.36 171.48 101.28 171.48C86.8001 171.36 74.6401 161.88 71.0001 147.88L47.2001 56.08C46.1601 52.08 42.5601 49.28 38.4001 49.28C33.4001 49.28 29.3201 53.36 29.3201 58.36V64.96C29.3201 71.36 24.1201 76.56 17.7201 76.56C11.3201 76.56 6.12012 71.36 6.12012 64.96V58.36C6.12012 40.52 20.6401 26.04 38.4401 26.04C53.1601 26.04 66.0401 36 69.7201 50.24L93.6001 142.08C95.0801 147.8 100.08 148.28 101.56 148.32C101.6 148.32 101.6 148.32 101.64 148.32C103.2 148.32 108.08 147.84 109.64 142.24L135.64 48.72C139.36 35.4 151.6 26.08 165.44 26.08C182.52 26.08 196.4 39.96 196.4 57.04V162.4C196.36 168.76 191.16 173.96 184.72 173.96Z" fill="black"/>
<path d="M29.68 102L21.76 109.92C19.52 112.16 15.84 112.16 13.6 109.92L5.68 102C3.44 99.76 3.44 96.08 5.68 93.84L13.6 85.92C15.84 83.68 19.52 83.68 21.76 85.92L29.68 93.84C31.92 96.08 31.92 99.76 29.68 102Z" fill="#FEBF00"/>
</svg>
