<svg xmlns="http://www.w3.org/2000/svg" width="200" height="200" fill="currentColor" viewBox="0 0 200 200">
	<path fill="#fff" d="M198.6 198.6H1.44V1.44H198.6V198.6Zm-13-98.64c0-10.52-.04-21.04.04-31.52.04-3.52-1.16-6.04-4.08-8.12-15.96-11.56-31.84-23.24-47.76-34.84-9.8-7.2-19.64-14.36-29.44-21.56-1.84-1.36-3.84-1.96-6-1.44-1.32.32-2.56 1.04-3.68 1.84-14.08 10.24-28.12 20.52-42.2 30.8-11.6 8.48-23.16 17-34.8 25.44-2.4 1.72-3.68 3.88-3.76 6.8v63.56c0 .72 0 1.48.04 2.2.16 2.52 1.28 4.48 3.36 6C43.2 158 69.08 176.88 94.88 195.84c3.12 2.28 7.08 2.04 9.96-.08 25.4-18.68 50.84-37.28 76.36-55.8 3.12-2.24 4.48-4.88 4.44-8.72-.12-10.4-.04-20.84-.04-31.28Z"/>
	<path fill="#000" d="M185.6 99.96c0 10.44-.08 20.88.04 31.28.04 3.8-1.32 6.44-4.44 8.72-25.52 18.52-50.96 37.12-76.36 55.8-2.88 2.12-6.88 2.36-9.96.08-25.8-18.92-51.68-37.8-77.56-56.68-2.08-1.52-3.2-3.48-3.36-6-.04-.72-.04-1.48-.04-2.2V67.4c.08-2.92 1.36-5.08 3.76-6.8 11.64-8.44 23.2-16.96 34.8-25.44C66.52 24.88 80.6 14.6 94.68 4.36c1.12-.8 2.36-1.56 3.68-1.84 2.16-.52 4.16.08 6 1.44 9.8 7.2 19.6 14.36 29.44 21.52 15.92 11.64 31.8 23.32 47.76 34.84 2.88 2.08 4.12 4.64 4.08 8.12-.12 10.52-.04 21-.04 31.52Zm-76.56-63.84v22.6H113V44.48c.8.52 1.24 1.08 1.6 1.68l6.36 9.96c.48.72.88 1.64 2 1.16.64-3.68.52-4.36-1.28-7.24-2.2-3.48-4.4-6.92-6.6-10.4-.8-1.24-1.6-2.44-2.32-3.56-1.32.04-2.44.04-3.72.04Zm-21.36 84.12c.24-.12.44-.24.68-.36.16-1.92.68-3.88-.4-5.68-3.2-5.16-6.48-10.24-9.84-15.52-.72 0-1.48-.04-2.2 0-.48.04-.96.12-1.56.2v22.48h4.04V107.2c.88.6 1.4 1.28 1.88 2 1.96 3.04 3.84 6.12 5.8 9.16.4.72 1.04 1.28 1.6 1.88Zm78.32-3.92c-4.88 3.12-9.56 6.08-14.24 9.04v3.96h22.44v-3.96c-4.88-.16-9.64.04-14.36-.32 1.56-1.24 3.16-2.24 4.72-3.28 1.52-1 3.24-1.76 4.56-3.28-1.04-.72-1.96-1.36-3.12-2.16ZM59.8 145.24V149c3.04.48 20.92.36 22.6-.12v-3.8H68.12c-.04-.16-.08-.32-.12-.44 3.12-2 6.2-4 9.6-6.16-1.4-.92-2.44-1.64-3.52-2.32-4.88 3.08-9.64 6.12-14.28 9.08Zm37.76-15.28h22.64V126h-14.28c-.04-.16-.08-.32-.12-.44 3.12-2 6.24-4.04 9.64-6.24-1.36-.92-2.4-1.6-3.48-2.32-4.92 3.12-9.68 6.16-14.4 9.16v3.8Zm67.12-35.76c-.96.72-1.72 1.24-2.08 1.52v5.36h3.52c.12-1.04.24-1.92.36-2.84h9v16.72h3.84v-19c-.56-.6-1.16-1.24-1.6-1.76h-13.04ZM27.12 117.36v-3.6h-5.08c-.64.68-1.28 1.32-1.76 1.84v13.36c.48.52 1.12 1.16 1.44 1.52H39v-3.88H24.24v-8.84c.96-.16 1.84-.28 2.88-.4Zm90.72-33.92v13.28c.6.68 1.16 1.28 1.64 1.76h17.08V94.6h-14.8c-.08-3.12-.12-6 0-8.84 1.2-.16 2.04-.32 2.92-.44v-3.6h-5.16c-.56.56-1.12 1.12-1.68 1.72ZM83.88 63.56v5.12c.6.56 1.24 1.16 1.76 1.68h13.24c.68-.6 1.36-1.16 1.88-1.64-.08-5.88.16-11.4-.16-17h-3.8v14.64h-8.96c-.16-1.04-.28-1.88-.4-2.8h-3.56ZM66.24 105.6c-1.64-5.68-3.16-11-4.64-16.24H54c-1.56 5.4-3.08 10.68-4.64 16.24h3.88c1.2-4.16 2.36-8.32 3.56-12.56.84.08 1.44.16 2.08.24.6 2.16 1.2 4.24 1.76 6.28s1.16 4.08 1.72 6.08c1.36-.04 2.4-.04 3.88-.04Zm36.24-.64h5.12c.56-.6 1.2-1.24 1.72-1.8V89.92c-.6-.64-1.16-1.24-1.56-1.64-5.12-.44-15.4-.28-17.08.24v3.6h14.64v8.8c-1.04.16-1.88.28-2.84.44v3.6Zm2 64.44v-13.36c-.64-.8-1.16-1.44-1.48-1.8-5.64-.44-15.52-.28-17.28.28V158h14.8v8.88c-1.04.16-2 .28-2.84.4v3.6h5.16c.56-.52 1.16-1.08 1.64-1.48ZM152 74.8c-1.56-5.52-3.08-10.84-4.6-16.08h-7.68c-1.52 5.4-3.04 10.68-4.56 16.08H139c1.16-4.16 2.32-8.2 3.48-12.36.8.04 1.4.08 2.16.08 1.2 4.16 2.36 8.2 3.48 12.24 1.4.04 2.52.04 3.88.04Zm-34.72 61.56c-1.56 5.48-3.24 10.72-4.56 16.32.92 0 1.52.04 2.08 0s1.12-.12 1.76-.2c1.16-4.16 2.32-8.24 3.48-12.36h2.08c1.2 4.2 2.4 8.36 3.56 12.4h3.84c-1.6-5.52-3.12-10.84-4.64-16.16h-7.6ZM40.4 75.24c-3.72-.52-18.36-.36-20 .16v3.76h11.64c.04.12.08.28.16.4-1.32.88-2.6 1.8-4.12 2.84 1.2.92 2.2 1.68 3.24 2.44 3.2-2.04 6.2-3.96 9.08-5.8v-3.8ZM94.8 19.8h9.2v10.4h3.72V17.56c-.56-.64-1.12-1.32-1.48-1.8H92.68c-.64.6-1.28 1.2-1.64 1.52v5.24h3.56c.08-.96.12-1.76.2-2.72Zm45.96 110.92V118c-.6-.6-1.2-1.16-1.76-1.68h-13.44c-.6.56-1.16 1.12-1.6 1.52v5.24h3.64c.16-1.08.24-1.96.4-2.88h8.92v10.52h3.84Zm-11 26.28c-4.84 3.08-9.68 6.16-14.36 9.12v3.84h12.08v-3.8c-1.4-.08-2.64-.16-4.4-.28 3.6-2.32 6.72-4.36 10.08-6.52-1.28-.88-2.28-1.56-3.4-2.36ZM52.64 49.88c1.28.96 2.28 1.68 3.32 2.48 4.36-2.76 8.64-5.44 12.76-8.04v-3.76H56.96v3.76c1.28.12 2.32.2 3.88.36-2.96 1.84-5.4 3.4-8.2 5.2Zm91.56 107.6c.64-.84 1.08-1.4 1.48-2 1.16-1.76 2.2-3.68 3.52-5.32 2.04-2.52 1.48-5.24.96-8.08-1.92 2.88-3.84 5.8-5.88 8.88-2.08-3.2-4-6.08-5.92-9-.2.04-.36.12-.56.16.08 2-.4 4.28.4 5.92 1.56 3.28 3.84 6.16 6 9.44ZM77.96 62.2c1.76-2.68 3.2-5.16 4.92-7.4 2.04-2.6 1.52-5.4 1.36-8.8-2.24 3.4-4.2 6.36-6.28 9.56-2.16-3.24-4.12-6.16-6.08-9.12-.2.08-.36.16-.56.24.16 2-.28 4.32.56 6 1.64 3.28 3.92 6.24 6.08 9.52Zm-24.12 70.28c-2.12-3.16-4.08-6.08-6.04-9.04-.12.08-.24.12-.32.2v5.84c2.08 3.16 4.16 6.28 6.36 9.64 2.24-3.44 4.32-6.6 6.24-9.48v-6.56c-2.24 3.36-4.16 6.28-6.24 9.4Zm-5.36-54.24c3.52 2.32 6.72 4.4 9.56 6.28h6.52c-3.36-2.24-6.32-4.2-9.48-6.28 3.2-2.12 6.12-4.04 9.48-6.28-3.68-.24-6.68-.52-9.36 1.76-1.92 1.68-4.24 2.88-6.72 4.52Zm29.6 4.56c3.96.48 15.64.32 17.28-.2v-3.48c-4-.44-15.56-.28-17.28.24v3.44ZM48.64 60.64c-6 .12-11.72-.2-17.48.2v3.84h17.48v-4.04Zm101.68 26.72h17.2v-3.88h-17.2v3.88Zm-.28-40.88H131v3.6c3.92.48 17.28.32 19.04-.24v-3.36ZM65.72 165.24c3.8.44 14.24.32 16-.2v-3.6c-5.36-.16-10.64-.16-16-.04v3.84ZM84.68 40.32v-17.4h-3.8v17.4h3.8Zm-37.92 75.92h17.2v-3.8h-17.2v3.8Zm42.6 16.96c0 5.12-.2 10.04.12 14.92h3.84V133.2h-3.96Zm60.68-12.36V107h-3.84v13.84h3.84Zm9-52.64h3.88V55.6h-3.88v12.6Zm-120 26.4v12.56h3.88V94.6h-3.88Zm74-14.8V67.16h-3.64V79.8h3.64Zm28.8 26.68H129.6v3.76h12.2c.08-.64.16-1.12.16-1.6-.04-.68-.08-1.32-.12-2.16ZM127.12 29.4c-2.56-.48-8.96-.44-10.8.08v3.8c3.68.04 7.2.08 10.8-.04V29.4Zm-84.6 116.08v3.8h10.32v-3.8H42.52Zm59 43.52c.56-2.84.44-7.36-.12-8.96h-3.52V189h3.64Zm-9.32-87.32c-.52 3.16-.4 8.2.28 10 1.08-.04 2.28-.12 3.36-.16v-9.8c-1.28-.04-2.36-.04-3.64-.04Zm-23.36-9.52c3.32-.08 6.48.16 9.68-.16v-3.72h-9.68v3.88Zm11.24 79.48c1.68 2.96 3.2 5.64 4.64 8.16h4.36c-1.6-2.96-3.04-5.56-4.48-8.16h-4.52ZM98.2 31.36h-4.52c1.68 2.96 3.16 5.56 4.68 8.2 1.44-.08 2.64-.16 4.28-.24-1.64-3-3.08-5.56-4.44-7.96Zm10.32 113.88c-1.32-3.04-2.92-5.56-4.36-8.04h-4.48c1.64 2.92 3.12 5.52 4.56 8.04h4.28Zm60.04-81.48c1.72 3.04 3.2 5.6 4.6 8.08h4.4c-1.68-2.96-3.12-5.56-4.52-8.08h-4.48ZM66.2 70.2h3.64v-9.08H66.2v9.08Zm50.44 35.96v3.88h3.64v-3.88h-3.64ZM51.6 60.84v3.88h3.72v-3.88H51.6Zm57.88 48.88v3.8H113v-3.8h-3.52Zm-38.84 21.24h3.84v-3.72h-3.84v3.72Zm70.16-43.6v-3.88h-3.76v3.88h3.76Zm18.32-12.8v3.88h3.96c-.08-1.44-.12-2.64-.16-3.88h-3.8Zm-33.88-35.24V43h3.8v-3.68h-3.8ZM26.2 101.76H30v-3.6h-3.8v3.6ZM91.36 42v3.76H95V42h-3.64Zm12 37.08h-3.8v3.64h3.8v-3.64Zm52.4 63.52h3.76v-3.88c-1.4.08-2.56.12-3.76.16v3.72Zm-32.64-70.4h3.72v-3.72h-3.72v3.72Zm-64.84 83.48v3.8h3.76v-3.8h-3.76Zm48.8 20.32v3.68h3.64V176h-3.64Z"/>
	<path fill="#fff" d="M109.04 36.12h3.72c.72 1.12 1.52 2.32 2.32 3.56 2.2 3.44 4.4 6.92 6.6 10.4 1.8 2.84 1.92 3.52 1.28 7.24-1.16.44-1.56-.44-2-1.16l-6.36-9.96c-.4-.6-.8-1.16-1.6-1.68v14.24h-3.96V36.12Zm-21.36 84.12c-.56-.6-1.2-1.16-1.64-1.84a709.91 709.91 0 0 1-5.8-9.16c-.48-.72-1-1.44-1.88-2v14.16h-4.04V98.92c.6-.08 1.08-.2 1.56-.2.72-.04 1.44 0 2.2 0 3.36 5.28 6.64 10.36 9.84 15.52 1.12 1.8.56 3.76.4 5.68-.2.08-.44.2-.64.32Zm78.32-3.92c1.12.8 2.04 1.44 3.12 2.2-1.32 1.56-3.04 2.28-4.56 3.28-1.56 1.04-3.16 2.04-4.72 3.28 4.76.36 9.48.16 14.36.32v3.96h-22.44v-3.96c4.68-3 9.36-5.96 14.24-9.08ZM59.8 145.24c4.64-2.96 9.4-6 14.32-9.12 1.08.72 2.12 1.4 3.52 2.32-3.4 2.16-6.48 4.16-9.6 6.16.04.16.08.32.12.44h14.28v3.8c-1.68.48-19.56.64-22.6.12-.04-1.12-.04-2.32-.04-3.72Zm37.76-15.28v-3.8c4.72-3 9.48-6.04 14.4-9.16 1.08.72 2.12 1.44 3.48 2.32-3.4 2.2-6.52 4.2-9.64 6.24.04.16.08.32.12.44h14.28v3.96H97.56Zm67.12-35.76h13c.48.52 1.08 1.16 1.6 1.76v19h-3.84V98.24h-9c-.12.92-.2 1.8-.36 2.84h-3.52v-5.36c.4-.28 1.12-.8 2.12-1.52ZM27.12 117.36c-1.04.12-1.92.24-2.88.36v8.84H39v3.88H21.72c-.36-.36-.96-1-1.44-1.52v-13.36c.48-.52 1.12-1.16 1.76-1.84h5.08v3.64Zm90.72-33.92 1.68-1.68h5.16v3.6c-.88.12-1.72.24-2.92.44-.12 2.84-.08 5.72 0 8.84h14.8v3.88h-17.08c-.48-.52-1-1.12-1.64-1.76V83.44ZM83.88 63.56h3.6c.12.92.24 1.76.4 2.8h8.96V51.72h3.8c.32 5.56.08 11.12.16 17-.52.48-1.2 1.04-1.88 1.64H85.68c-.56-.52-1.2-1.12-1.76-1.68-.04-1.76-.04-3.36-.04-5.12ZM66.24 105.6h-3.88c-.56-2-1.16-4.04-1.72-6.08-.6-2.04-1.16-4.08-1.76-6.28-.64-.08-1.28-.12-2.08-.24-1.2 4.24-2.36 8.36-3.56 12.56h-3.88c1.6-5.52 3.12-10.84 4.64-16.24h7.6c1.52 5.28 3.04 10.6 4.64 16.28Zm36.24-.64v-3.6c.96-.16 1.8-.28 2.84-.44v-8.8H90.68v-3.6c1.68-.48 11.96-.68 17.08-.24.4.44.96 1.04 1.56 1.64v13.24c-.52.52-1.12 1.2-1.72 1.8h-5.12Zm2 64.44c-.44.4-1.04.96-1.64 1.48h-5.16v-3.6c.84-.12 1.76-.24 2.84-.4V158h-14.8v-3.48c1.76-.56 11.64-.76 17.28-.28.32.4.84 1 1.48 1.8v13.36ZM152 74.8h-3.84c-1.16-4-2.32-8.08-3.48-12.24-.72-.04-1.36-.04-2.16-.08-1.16 4.16-2.32 8.2-3.48 12.36h-3.84c1.52-5.4 3.04-10.72 4.56-16.08h7.68c1.48 5.2 3 10.52 4.56 16.04Zm-34.72 61.56h7.6c1.52 5.32 3.04 10.64 4.64 16.16h-3.84c-1.16-4.04-2.36-8.16-3.56-12.4h-2.08c-1.16 4.12-2.32 8.2-3.48 12.36-.64.08-1.2.16-1.76.2-.56.04-1.12 0-2.08 0 1.32-5.6 3-10.84 4.56-16.32ZM40.4 75.24v3.8c-2.88 1.84-5.88 3.76-9.08 5.8-1.04-.76-2.04-1.52-3.24-2.44 1.52-1.04 2.8-1.92 4.12-2.84-.04-.12-.08-.28-.16-.4H20.4V75.4c1.64-.52 16.28-.68 20-.16ZM94.8 19.8c-.08.96-.16 1.76-.24 2.76H91v-5.24c.36-.32 1.04-.92 1.64-1.52h13.56c.36.44.96 1.12 1.48 1.8v12.64h-3.72v-10.4c-3.08-.04-6-.04-9.16-.04Zm45.96 110.92h-3.88V120.2h-8.92c-.12.92-.24 1.8-.4 2.88h-3.64v-5.24c.44-.4 1-.96 1.6-1.52h13.44c.56.52 1.16 1.12 1.76 1.68.04 4.2.04 8.36.04 12.72Zm-11 26.28c1.12.8 2.12 1.48 3.4 2.36-3.36 2.16-6.48 4.16-10.08 6.52 1.8.12 3 .2 4.4.28v3.8H115.4v-3.84c4.72-2.96 9.52-6 14.36-9.12ZM52.64 49.88c2.8-1.76 5.24-3.36 8.2-5.2-1.56-.16-2.64-.24-3.88-.36v-3.76h11.76v3.76c-4.12 2.6-8.36 5.28-12.76 8.04-1.08-.8-2.04-1.52-3.32-2.48Zm91.56 107.6c-2.12-3.28-4.44-6.2-6-9.44-.8-1.64-.32-3.92-.4-5.92.2-.04.36-.12.56-.16 1.92 2.92 3.84 5.8 5.92 9 2.04-3.08 3.96-5.96 5.88-8.88.52 2.84 1.08 5.6-.96 8.08-1.36 1.64-2.36 3.56-3.52 5.32-.4.64-.88 1.16-1.48 2ZM77.96 62.2c-2.16-3.32-4.44-6.24-6.04-9.52-.84-1.68-.4-3.96-.56-6 .2-.08.36-.16.56-.24 1.96 2.96 3.92 5.88 6.08 9.12 2.08-3.2 4.04-6.16 6.28-9.56.16 3.36.68 6.2-1.36 8.8-1.76 2.24-3.2 4.76-4.96 7.4Zm-24.12 70.28c2.08-3.12 4-6.04 6.24-9.4v6.56c-1.92 2.92-3.96 6.04-6.24 9.48-2.2-3.36-4.28-6.48-6.36-9.64v-5.84c.12-.08.24-.12.32-.2 1.96 2.96 3.92 5.88 6.04 9.04Zm-5.36-54.24c2.48-1.6 4.84-2.84 6.76-4.48 2.68-2.32 5.68-2 9.36-1.76-3.36 2.2-6.28 4.12-9.48 6.28 3.16 2.08 6.08 4.04 9.48 6.28h-6.52c-2.92-1.92-6.08-4.04-9.6-6.32Zm29.6 4.56v-3.44c1.72-.52 13.28-.68 17.28-.24v3.48c-1.64.52-13.32.68-17.28.2ZM48.64 60.64v4.04H31.16v-3.84c5.76-.4 11.48-.08 17.48-.2Zm101.68 26.72v-3.88h17.2v3.88h-17.2Zm-.28-40.88v3.36c-1.72.56-15.12.72-19.04.24v-3.6h19.04ZM65.72 165.24v-3.84c5.32-.16 10.6-.16 16 .04v3.6c-1.76.52-12.16.64-16 .2ZM84.68 40.32h-3.8v-17.4h3.8v17.4Zm-37.92 75.92v-3.8h17.2v3.8h-17.2Zm42.6 16.96h4v14.92h-3.84c-.36-4.92-.16-9.84-.16-14.92Zm60.68-12.36h-3.84V107h3.84v13.84Zm9-52.64V55.6h3.88v12.6h-3.88Zm-120 26.4h3.88v12.56h-3.88V94.6Zm74-14.8h-3.64V67.16h3.64V79.8Zm28.8 26.68c.04.84.12 1.52.12 2.16 0 .48-.08.96-.16 1.6h-12.2v-3.76h12.24ZM127.12 29.4v3.84c-3.56.12-7.12.08-10.8.04v-3.8c1.8-.52 8.24-.56 10.8-.08Zm-84.6 116.08h10.32v3.8H42.52v-3.8Zm59 43.52h-3.68v-8.96h3.52c.6 1.6.68 6.16.16 8.96Zm-9.32-87.32h3.68v9.8c-1.12.04-2.28.12-3.36.16-.72-1.72-.84-6.76-.32-9.96Zm-23.36-9.52v-3.88h9.68V92c-3.16.32-6.32.08-9.68.16Zm11.24 79.48h4.56c1.44 2.6 2.84 5.2 4.48 8.16h-4.36c-1.48-2.52-3-5.2-4.68-8.16ZM98.2 31.36c1.36 2.44 2.76 4.96 4.44 7.96-1.6.08-2.84.16-4.28.24-1.52-2.64-3-5.24-4.68-8.2h4.52Zm10.32 113.88h-4.24c-1.44-2.52-2.92-5.12-4.56-8.04h4.48c1.4 2.48 3 5 4.32 8.04Zm60.04-81.48h4.48c1.4 2.48 2.84 5.12 4.52 8.08h-4.4c-1.4-2.48-2.88-5.08-4.6-8.08ZM66.2 70.2v-9.08h3.64v9.08H66.2Zm50.44 35.96h3.64v3.88h-3.64v-3.88ZM51.6 60.84h3.72v3.88H51.6v-3.88Zm57.88 48.88H113v3.8h-3.52v-3.8Zm-38.84 21.24v-3.72h3.84v3.72h-3.84Zm70.16-43.6h-3.76v-3.88h3.76v3.88Zm18.32-12.8h3.76c.04 1.24.12 2.44.16 3.88h-3.96c.04-1.32.04-2.52.04-3.88Zm-33.88-35.24h3.8V43h-3.8v-3.68ZM26.2 101.76v-3.6H30v3.6h-3.8ZM91.36 42H95v3.76h-3.64V42Zm12 37.08v3.64h-3.8v-3.64h3.8Zm52.4 63.52v-3.68c1.2-.04 2.4-.12 3.76-.16v3.88c-1.12-.04-2.28-.04-3.76-.04Zm-32.64-70.4v-3.72h3.72v3.72h-3.72Zm-64.84 83.48h3.76v3.8h-3.76v-3.8Zm48.8 20.32h3.64v3.68h-3.64V176Z"/>
</svg>
