<svg xmlns="http://www.w3.org/2000/svg" width="200" height="200" fill="currentColor" viewBox="0 0 200 200">
  <g clip-path="url(#a)">
    <path fill="#0074F0" d="M100.334 199.666c55.044-.185 99.517-44.956 99.332-100C199.481 44.622 154.71.15 99.666.334 44.622.52.15 45.29.334 100.334c.185 55.044 44.956 99.517 100 99.332Z"/>
    <path fill="#fff" d="M162.297 161.898c34.173-34.4 34.002-90.024-.399-124.197s-90.025-34.002-124.198.4l124.597 123.797Z" opacity=".2"/>
    <path fill="#fff" d="M95.93 60.637a40.01 40.01 0 0 1 4.07-.207c21.846 0 39.555 17.71 39.555 39.555 0 17.036-10.768 31.556-25.87 37.125l-13.422 18.875c30.807-.142 55.737-25.16 55.737-56 0-28.96-21.982-52.784-50.17-55.7l-9.9 16.352Z"/>
    <path fill="#fff" d="M98.73 44C68.387 44.674 44 69.481 44 99.984c0 28.538 21.346 52.089 48.941 55.56l11.56-16.258a39.818 39.818 0 0 1-4.501.254c-21.846 0-39.556-17.71-39.556-39.556 0-17.506 11.373-32.356 27.133-37.565L98.729 44Z"/>
    <path fill="url(#b)" d="M113.685 137.11c15.102-5.569 25.872-20.089 25.872-37.124h16.444c0 30.84-24.93 55.857-55.737 55.999l13.421-18.875Z"/>
    <path fill="url(#c)" d="M98.73 44C68.387 44.674 44 69.481 44 99.984c0 0 16.444.237 16.444 0 0-17.506 11.373-32.356 27.133-37.565L98.729 44Z"/>
    <path fill="#fff" d="m99.9 145.764 28.118-39.597-28.119 16.594-28.102-16.594 28.102 39.597Z"/>
    <path fill="#0074F0" d="m99.9 145.764 28.118-39.597L99.9 122.761v23.003Z" opacity=".1"/>
    <path fill="url(#d)" d="m99.814 117.506 28.257-16.624-28.257-46.674-28.258 46.674 28.258 16.624Z"/>
    <path fill="#fff" d="m99.814 117.506 28.257-16.624-28.257-46.674-28.258 46.674 28.258 16.624Z"/>
    <path fill="#0074F0" d="m99.814 117.504-28.258-16.622 28.258-46.674v63.296Z" opacity=".1"/>
    <path fill="#0074F0" d="M99.814 117.506V87.634l-28.258 13.248 28.258 16.624Zm0 0V87.634l28.257 13.248-28.257 16.624Z" opacity=".1"/>
  </g>
  <defs>
    <linearGradient id="b" x1="63.131" x2="124.805" y1="170.152" y2="129.752" gradientUnits="userSpaceOnUse">
      <stop stop-color="#1A82FF" stop-opacity=".5"/>
      <stop offset="1" stop-color="#fff"/>
    </linearGradient>
    <linearGradient id="c" x1="130.222" x2="71.213" y1="18.223" y2="60.859" gradientUnits="userSpaceOnUse">
      <stop stop-color="#1A82FF" stop-opacity=".5"/>
      <stop offset="1" stop-color="#fff"/>
    </linearGradient>
    <linearGradient id="d" x1="39.696" x2="89.201" y1="71.11" y2="101.321" gradientUnits="userSpaceOnUse">
      <stop stop-color="#1C313F"/>
      <stop offset="1" stop-color="#fff"/>
    </linearGradient>
    <clipPath id="a">
      <path fill="#fff" d="M0 0h200v200H0z"/>
    </clipPath>
  </defs>
</svg>
