<svg xmlns="http://www.w3.org/2000/svg" width="200" height="200" fill="currentColor" viewBox="0 0 200 200">
	<g clip-path="url(#a)">
		<path fill="url(#b)" d="M100 0c55.28 0 100 44.84 100 100 0 55.28-44.84 100-100 100C44.72 200 0 155.16 0 100S44.84 0 100 0Z"/>
		<path fill="#373535" d="M113.76 76.92 100.08 63.2 86.44 76.84l13.64 13.76 13.68-13.68Zm35.88-.56-37.28 36.52c-6.76 6.68-17.8 6.68-24.56 0L50.52 76.36l-13.2 13.56 37.28 36.52a36.522 36.522 0 0 0 25.52 10.36c9.24 0 18.44-3.48 25.52-10.36l37.28-36.52-13.28-13.56Z"/>
	</g>
	<defs>
		<linearGradient id="b" x1="193.948" x2="-21.863" y1="64.96" y2="145.464" gradientUnits="userSpaceOnUse">
			<stop offset=".372" stop-color="#FF97D6"/>
			<stop offset=".802" stop-color="#F8B994"/>
		</linearGradient>
		<clipPath id="a">
			<path fill="#fff" d="M0 0h200v200H0z"/>
		</clipPath>
	</defs>
</svg>
