<svg xmlns="http://www.w3.org/2000/svg" width="200" height="200" fill="currentColor" viewBox="0 0 200 200">
	<g clip-path="url(#a)">
		<path fill="#404971" fill-rule="evenodd" d="M56.72 128.36c-.6 2.12-2.48 2.64-4.16 1.12l-33.36-29c-1.72-1.48-1.32-3.36.84-4.2L66.8 78.84c2.16-.8 3.48.24 2.88 2.36l-12.96 47.16Z" clip-rule="evenodd"/>
		<path fill="#546096" fill-rule="evenodd" d="M31 155.44c-1.72 1.44-3.48.84-3.88-1.32l-8.88-47.6c-.4-2.16.64-2.72 2.28-1.2L51.4 133.2c1.68 1.52 1.6 3.92-.12 5.36L31 155.44ZM69 67.8c1.56 1.8 1 3.96-1.2 4.84l-46.88 18.6c-2.2.88-3.32-.2-2.48-2.44l19.24-51.4c.84-2.2 2.76-2.56 4.32-.76L69 67.8ZM22.32 150c.44 2.28-.28 2.56-1.64.6L1.84 123.2c-1.32-1.92-1.24-5.04.24-6.88l8.44-10.64c1.48-1.84 3.04-1.52 3.48.76L22.32 150ZM14.4 85.6c-.8 2.16-2.08 2.16-2.8-.04L5.48 67.24c-.72-2.2.08-5.28 1.8-6.84l21.8-19.72c1.72-1.56 2.48-1.04 1.68 1.12L14.4 85.6Zm-5.16 3.32c.64 2.04.16 5.08-1.04 6.8l-5.44 7.68c-1.2 1.72-2.04 1.36-1.84-.76l2.6-26.68c.2-2.12.92-2.2 1.52-.16l4.2 13.12Zm25.84-61.76c.76.8 0 2.56-1.68 3.92l-9.48 7.8c-1.68 1.36-1.96 1.16-.6-.48l7.96-9.68c1.32-1.64 3.04-2.32 3.8-1.56Zm56.68 153.4c-1.16 2-3.2 2.08-4.48.16l-25.4-36.88c-1.32-1.88-.48-3.64 1.8-3.88l51.08-5.24c2.28-.24 3.24 1.2 2.04 3.2l-25.04 42.64Zm-9.6-.8c1.28 1.88.6 2.84-1.6 2.08l-47.6-16.08c-2.16-.72-2.52-2.56-.8-4.04l20.4-17.48c1.72-1.48 4.24-1.16 5.52.72l24.08 34.8Z" clip-rule="evenodd"/>
		<path fill="#15F9FF" fill-rule="evenodd" d="M116.48 125.68c1.48 1.76.84 3.36-1.4 3.6l-50.64 5.36c-2.24.24-3.64-1.4-3.04-3.64l12.68-50.44c.56-2.24 2.24-2.64 3.68-.88l38.72 46Z" clip-rule="evenodd"/>
		<path fill="#546096" fill-rule="evenodd" d="M155.28 166.72c1.48 1.76.88 3.6-1.32 4.08L102.48 182c-2.2.48-3.08-.76-1.96-2.8l24.28-42.88c1.12-2 3.28-2.2 4.72-.44l25.76 30.84ZM70.36 194.4c-1.92 1.12-4.84.76-6.48-.84L40.72 171c-1.64-1.6-1.28-2.28.8-1.48L81.2 184.4c2.08.76 2.2 2.36.28 3.48l-11.12 6.52Zm58.6 3.6c-1.72 1.44-4.76 1.8-6.72.76l-16.48-8.6c-2-1.04-1.84-2.28.36-2.76l43.76-9.48c2.16-.48 2.56.32.84 1.76L128.96 198Zm-48.48.12c-2.44-.08-2.68-1-.52-2.04l9.64-4.56c2.16-1 5.68-1.04 7.84-.08l14.08 6.32c2.16.96 1.96 1.68-.48 1.6l-30.56-1.24ZM164.44 174c.8 1.04-.28 2.92-2.44 4.2l-12.76 7.48c-2.16 1.28-2.36.92-.48-.8l10.76-9.64c1.88-1.72 4.12-2.28 4.92-1.24Z" clip-rule="evenodd"/>
		<path fill="#404971" fill-rule="evenodd" d="M133.28 121.44c-2.16.8-3.48-.24-2.88-2.36l13-47.12c.6-2.12 2.48-2.64 4.2-1.12l33.36 29c1.72 1.48 1.32 3.36-.84 4.2l-46.84 17.4Z" clip-rule="evenodd"/>
		<path fill="#546096" fill-rule="evenodd" d="M181.88 93.8c.4 2.16-.64 2.72-2.28 1.2l-30.88-27.88c-1.68-1.52-1.6-3.92.12-5.36l20.28-16.88c1.72-1.44 3.48-.84 3.88 1.32l8.88 47.6Zm-19.44 69.16c-.84 2.2-2.76 2.56-4.32.76l-27-31.16c-1.56-1.8-1-3.96 1.2-4.84l46.88-18.64c2.2-.88 3.32.2 2.48 2.4l-19.24 51.48Zm35.84-85.84c1.32 1.96 1.24 5.04-.24 6.88l-8.44 10.64c-1.48 1.84-3.04 1.52-3.48-.76l-8.36-43.6c-.44-2.28.28-2.56 1.64-.6l18.88 27.44Zm-3.68 55.96c.72 2.2-.08 5.28-1.8 6.84L171 159.64c-1.72 1.56-2.48 1.04-1.68-1.12l16.32-43.8c.8-2.16 2.08-2.16 2.8.04l6.16 18.32Zm1.96-8.68c-.2 2.12-.92 2.2-1.56.16l-4.16-13.16c-.64-2.04-.16-5.08 1.04-6.8l5.44-7.68c1.2-1.72 2.04-1.36 1.84.76l-2.6 26.72Zm-27.76 47.2c-1.36 1.64-3.08 2.32-3.8 1.56-.76-.8 0-2.56 1.68-3.92l9.52-7.8c1.68-1.36 1.96-1.16.6.48l-8 9.68Z" clip-rule="evenodd"/>
		<path fill="#404971" fill-rule="evenodd" d="M133.92 56.48c1.32 1.88.48 3.64-1.8 3.88L81.04 65.6c-2.28.24-3.2-1.2-2.04-3.2l25-42.64c1.16-2 3.2-2.08 4.48-.16l25.44 36.88Z" clip-rule="evenodd"/>
		<path fill="#546096" fill-rule="evenodd" d="M147.52 56.08c-1.72 1.48-4.24 1.16-5.52-.72l-24.04-34.84c-1.32-1.88-.6-2.84 1.6-2.08l47.6 16.08c2.16.72 2.52 2.56.8 4.04l-20.44 17.52Zm-21.48 63.68c-.56 2.24-2.24 2.64-3.68.88l-38.76-46c-1.48-1.76-.84-3.36 1.4-3.6l50.64-5.36c2.24-.24 3.64 1.4 3.04 3.64l-12.64 50.44ZM75.28 64c-1.12 2-3.28 2.2-4.76.44L44.8 33.6c-1.48-1.76-.88-3.6 1.32-4.08l51.48-11.2c2.2-.48 3.08.76 1.96 2.8L75.28 64Zm43.64-48.04c-2.08-.76-2.2-2.36-.24-3.48l11.04-6.56c1.92-1.12 4.84-.76 6.48.84l23.16 22.56c1.64 1.6 1.28 2.28-.8 1.48l-39.64-14.84ZM50.24 22.4c-2.16.48-2.56-.32-.84-1.76L71.16 2.32c1.72-1.44 4.76-1.8 6.72-.76l16.48 8.6c2 1.04 1.84 2.28-.36 2.72L50.24 22.4Zm60.28-13.6c-2.16 1-5.68 1.04-7.84.08L88.6 2.56c-2.16-.96-1.96-1.68.48-1.6l30.52 1.28c2.44.08 2.68 1 .52 2.04l-9.6 4.52ZM40.56 25.12c-1.88 1.68-4.12 2.24-4.92 1.2-.8-1.04.28-2.92 2.44-4.2l12.76-7.48c2.16-1.28 2.36-.92.48.8l-10.76 9.68ZM27.08 165.16c.8-.76 2.56 0 3.92 1.68l7.8 9.48c1.36 1.68 1.16 1.96-.48.6l-9.68-7.96c-1.64-1.36-2.36-3.08-1.56-3.8Zm146.8-129.4c1.04-.8 2.92.28 4.2 2.44l7.48 12.76c1.28 2.16.92 2.36-.8.48l-9.64-10.76c-1.76-1.92-2.28-4.12-1.24-4.92Zm-2.4-4.4c1.64 1.36 2.32 3.08 1.56 3.8-.8.76-2.56 0-3.92-1.68l-7.8-9.48c-1.36-1.68-1.16-1.96.48-.6l9.68 7.96ZM20.72 159.68c1.68 1.88 2.24 4.12 1.2 4.92-1.04.8-2.92-.28-4.16-2.44l-7.48-12.76c-1.28-2.16-.92-2.36.8-.48l9.64 10.76Z" clip-rule="evenodd"/>
	</g>
	<defs>
		<clipPath id="a">
			<path fill="#fff" d="M0 0h200v200H0z"/>
		</clipPath>
	</defs>
</svg>
