<svg xmlns="http://www.w3.org/2000/svg" width="200" height="200" fill="currentColor" viewBox="0 0 200 200">
	<path fill="#5E12A0" d="M191.12 35.36c-2.04-7.84-8.6-15.68-20.36-24.4C161.32 4 151.28 0 143.28 0c-1.6 0-3.04.16-4.52.44-3.64.72-6.84 3.4-8.88 7.4-2.48 4.72-3.04 11.08-1.44 14.96.6 1.2 1.32 2.68 2.2 4-7.72 4.72-12.08 6.08-12.64 6.2 20.08 6.8 36.8 21 47.28 39.48l.16-1.76c.44-4.88 1.88-10.52 3.92-16.28 2.04.6 4.08.88 6.12.88 5.4 0 10.04-2.2 12.96-6.2 2.84-4 4-9.32 2.68-13.76Z"/>
	<path fill="url(#a)" d="M170.2 50.16c13.24 3.68 18.6-6.64 16.88-13.6-1.88-6.96-8-14.04-18.76-22.04-10.76-8-21.68-11.24-28.64-9.76-7 1.48-9 12.28-7.28 16.44.72 1.64 2.32 4 4.52 6.64-2.76 1.92-5.4 3.4-7.56 4.72 13.36 6.08 25 15.52 33.72 27.36 1-4 2.48-7.56 3.8-10.64 1 .12 2.16.44 3.32.88Z"/>
	<path fill="url(#b)" d="M94.44 195.12c44.88 0 81.28-37.04 81.28-82.68 0-45.64-36.4-82.68-81.28-82.68S13.16 66.8 13.16 112.44c0 45.64 36.36 82.68 81.28 82.68Z"/>
	<path fill="#A98698" d="M180.36 29.72C169.32 17.88 160 14.8 148.8 12.28c-8.72-2.08-6.4-7.12 4.2-6.08-5.08-1.76-9.88-2.2-13.36-1.48-7 1.48-9 12.28-7.28 16.44.72 1.64 2.32 4 4.52 6.64-3.92 2.68-7.28 4.6-10.04 6.08 1.32.6 2.92 1.32 4.8 2.36 4.96 2.68 10.32 7.12 10.32 7.12-8.16-7.12-6.4-10.36 4.8-18.36 3.48-2.52 9.88-2.2 15.84.88 5.96 3.08 12.96 10.96 12.96 10.96l-6.68 13c.44.16.88.28 1.32.44 4.2 1.2 7.56.88 10.16-.16 3.08-1.88 11.08-8.4 0-20.4Z" opacity=".6"/>
	<path fill="#5E12A0" d="M148.68 19.36c2.92 1.2 6.68 3.24 11.36 6.36 5.52 3.68 10.32 7.84 13.36 11.08-5.08 6.8-8.44 16.12-10.48 22.64 1 1.48 2.2 2.96 3.2 4.44 1-3.68 2.76-9.16 5.08-14.64.6.16 1.32.16 2.04.16 1.76 0 3.8-.28 5.4-1.64 1.16-.88 2.48-2.52 2.32-5.48 0-2.8-2.2-6.36-6.68-10.64-3.2-3.12-7.56-6.52-11.92-9.6-12.52-8.44-21.24-10.8-25.16-6.8-2.6 2.68-2.32 5.92-1.44 8.28-4.64 3.12-8.6 5.32-11.2 6.8 1.76.6 3.36 1.32 5.08 2.08 4.64-2.52 11.32-6.8 19.04-13.04Zm27.48 21.16c.44.72.6 1.48.6 1.92 0 1.32-.44 1.76-.72 2.08-.6.44-1.76.72-2.76.72.84-1.76 1.84-3.24 2.88-4.72Zm-35.92-22.04c.44-.44 1.6-.72 3.48-.44-1.44 1.2-2.92 2.2-4.36 3.24-.16-1 0-2.04.88-2.8Z"/>
	<path fill="#5E12A0" d="M94.44 24.84c-47.56 0-86.08 39.2-86.08 87.56S46.88 200 94.44 200c47.56 0 86.08-39.2 86.08-87.56s-38.68-87.6-86.08-87.6Zm0 170.28c-44.92 0-81.28-37-81.28-82.68 0-45.68 36.32-82.72 81.28-82.72 44.92 0 81.28 37 81.28 82.68 0 45.68-36.52 82.72-81.28 82.72Z"/>
	<path fill="url(#c)" d="M94.44 195.12c44.88 0 81.28-37.04 81.28-82.68 0-45.64-36.4-82.68-81.28-82.68S13.16 66.8 13.16 112.44c0 45.64 36.36 82.68 81.28 82.68Z" opacity=".6"/>
	<path fill="#A98698" d="M93.84 185.04c-44.36-7.24-74.44-49.72-67.2-94.84 3.2-19.96 13.08-37 27.04-49.28-20.36 12-35.48 32.84-39.56 58.28-7.12 45.12 22.96 87.56 67.2 94.84 24.72 4.16 48.56-3.68 66.16-19.08-15.52 9.2-34.44 13.2-53.64 10.08Z" opacity=".6"/>
	<path fill="url(#d)" d="M107.36 30.92c-20.52-3.4-40.44 1.32-56.72 11.84l-.6.6c6.24-3.84 15.4-7.24 15.4-7.24C41.88 50.04 34.6 65.84 34.6 65.84 43.76 47.8 70.68 35.08 91.76 34.2c21.08-.88 34.92 5.48 51.76 19.24 16.88 13.92 27.04 42.32 26.04 64.8-.88 22.48-12.52 40.68-12.52 40.68 8-10.52 12.8-18.2 15.84-26.04.6-2.36 1.16-4.72 1.44-7.24 7.36-45-22.6-87.48-66.96-94.72Z" opacity=".6"/>
	<path fill="url(#e)" d="M171.64 111.68c0 43.36-34.6 78.56-77.24 78.56-42.64 0-77.36-35.2-77.36-78.56h154.6Z"/>
	<path fill="url(#f)" d="M165.52 111.68c0 42.32-32.88 76.92-74.16 78.56h3.04c42.6 0 77.24-35.2 77.24-78.56h-6.12Z" opacity=".6"/>
	<path fill="url(#g)" d="M27.96 111.68H17.04c0 43.36 34.6 78.56 77.24 78.56 1.88 0 3.64 0 5.4-.16-40-2.96-71.72-36.96-71.72-78.4Z" opacity=".7"/>
	<path fill="url(#h)" d="M171.52 112.44c0-9.04-15.4-14.2-35.92-15.96-14.84-1.2-29.8.28-46.96 5.64-14.84 4.44-28.2 3.68-37.96 2.52-21.68-2.52-33.6-2.8-33.6 7.84 0 15.4 30.84 34.6 77.08 27.96 23.4-3.4 35.48-10.36 49.28-15.08 14.96-5.08 28.08-4.96 28.08-12.92Z"/>
	<path fill="#fff" d="M119.72 75.16c7.24 0 13.08-5.96 13.08-13.32s-5.88-13.32-13.08-13.32-13.08 5.96-13.08 13.32 5.88 13.32 13.08 13.32Zm21.4 9.88c3.04 0 5.52-2.52 5.52-5.64 0-3.12-2.48-5.64-5.52-5.64-3.04 0-5.52 2.52-5.52 5.64 0 3.12 2.44 5.64 5.52 5.64Z"/>
	<path fill="url(#i)" d="M160.88 51.2h-.28c-.88-.16-1.44-1.04-1.32-2.08 1.32-6.8 6.84-13.32 7.12-13.6.6-.72 1.76-.72 2.32-.16.72.6.72 1.76.16 2.36-.16.16-5.24 6.2-6.4 12.12-.16.92-.88 1.36-1.6 1.36Z" opacity=".6"/>
	<path fill="#fff" d="M89.04 174.12c2.24 0 4.08-1.84 4.08-4.16 0-2.28-1.84-4.16-4.08-4.16s-4.08 1.84-4.08 4.16c.04 2.28 1.84 4.16 4.08 4.16Z" opacity=".2"/>
	<g opacity=".4">
		<path fill="url(#j)" d="M86.72 172.64a4.25 4.25 0 0 1 0-5.92c.28-.28.6-.44.88-.76-.6.16-1 .44-1.44.88a4.25 4.25 0 0 0 0 5.92c1.32 1.32 3.36 1.64 4.96.72-1.48.64-3.24.36-4.4-.84Z" opacity=".6"/>
	</g>
	<path fill="#fff" d="M90.48 168.8c.48 0 .88-.4.88-.88s-.4-.88-.88-.88-.88.4-.88.88c.04.48.4.88.88.88Z" opacity=".3"/>
	<path fill="#fff" d="M110.28 172.04c2.24 0 4.08-1.84 4.08-4.16 0-2.28-1.84-4.16-4.08-4.16s-4.08 1.84-4.08 4.16c0 2.32 1.84 4.16 4.08 4.16Z" opacity=".2"/>
	<g opacity=".4">
		<path fill="url(#k)" d="M107.96 170.56a4.25 4.25 0 0 1 0-5.92c.28-.28.6-.44.88-.72-.6.16-1 .44-1.44.88a4.25 4.25 0 0 0 0 5.92c1.32 1.32 3.36 1.64 4.96.72-1.52.6-3.24.32-4.4-.88Z" opacity=".6"/>
	</g>
	<path fill="#fff" d="M111.72 166.72c.48 0 .88-.4.88-.88s-.4-.88-.88-.88-.88.4-.88.88.4.88.88.88Z" opacity=".3"/>
	<path fill="#fff" d="M99.8 181.64c1.68 0 3.04-1.4 3.04-3.12 0-1.72-1.36-3.12-3.04-3.12s-3.04 1.4-3.04 3.12c0 1.76 1.36 3.12 3.04 3.12Z" opacity=".2"/>
	<g opacity=".4">
		<path fill="url(#l)" d="M98.08 180.48c-1.16-1.2-1.16-3.24 0-4.44.16-.16.44-.28.6-.44-.44.16-.72.44-1 .72-1.16 1.2-1.16 3.24 0 4.44 1 1.04 2.48 1.2 3.8.44-1.24.48-2.56.16-3.4-.72Z" opacity=".6"/>
	</g>
	<path fill="#fff" d="M100.84 177.52c.32 0 .6-.28.6-.6 0-.32-.28-.6-.6-.6-.32 0-.6.28-.6.6 0 .32.28.6.6.6Z" opacity=".3"/>
	<path fill="#fff" d="M118.56 179.44c1.68 0 3.04-1.4 3.04-3.12 0-1.72-1.36-3.12-3.04-3.12s-3.04 1.4-3.04 3.12c0 1.72 1.36 3.12 3.04 3.12Z" opacity=".2"/>
	<g opacity=".4">
		<path fill="url(#m)" d="M116.84 178.24c-1.16-1.2-1.16-3.24 0-4.44.16-.16.44-.28.6-.44-.44.16-.72.44-1 .72-1.16 1.2-1.16 3.24 0 4.44 1 1.04 2.48 1.2 3.8.44-1.24.48-2.56.2-3.4-.72Z" opacity=".6"/>
	</g>
	<path fill="#fff" d="M119.6 175.28c.32 0 .6-.28.6-.6 0-.32-.28-.6-.6-.6-.32 0-.6.28-.6.6 0 .36.28.6.6.6Z" opacity=".3"/>
	<path fill="#fff" d="M71.72 172.64c3.68 0 6.68-3.04 6.68-6.8s-3-6.8-6.68-6.8c-3.68 0-6.68 3.04-6.68 6.8s3 6.8 6.68 6.8Z" opacity=".2"/>
	<g opacity=".4">
		<path fill="url(#n)" d="M67.96 170.12c-2.6-2.68-2.6-6.96 0-9.6.44-.44.88-.72 1.44-1.04-.88.28-1.6.88-2.32 1.48-2.6 2.68-2.6 6.96 0 9.6 2.2 2.2 5.52 2.68 8.16 1.04-2.48 1.04-5.4.6-7.28-1.48Z" opacity=".6"/>
	</g>
	<path fill="#fff" d="M74.08 163.76c.8 0 1.44-.68 1.44-1.48 0-.8-.64-1.48-1.44-1.48-.8 0-1.44.68-1.44 1.48 0 .8.64 1.48 1.44 1.48Z" opacity=".3"/>
	<path fill="#fff" d="M131.52 155.92c3.68 0 6.68-3.04 6.68-6.8s-3-6.8-6.68-6.8c-3.68 0-6.68 3.04-6.68 6.8s2.96 6.8 6.68 6.8Z" opacity=".2"/>
	<g opacity=".4">
		<path fill="url(#o)" d="M127.6 153.4c-2.6-2.68-2.6-6.96 0-9.6.44-.44.88-.72 1.44-1.04-.88.28-1.6.88-2.32 1.48-2.6 2.68-2.6 6.96 0 9.6 2.2 2.2 5.52 2.68 8.16 1.04-2.48 1.04-5.28.6-7.28-1.48Z" opacity=".6"/>
	</g>
	<path fill="#fff" d="M133.84 147.04c.8 0 1.44-.68 1.44-1.48 0-.8-.64-1.48-1.44-1.48-.8 0-1.44.68-1.44 1.48 0 .84.64 1.48 1.44 1.48Z" opacity=".3"/>
	<defs>
		<linearGradient id="c" x1="80.976" x2="107.874" y1="193.993" y2="30.86" gradientUnits="userSpaceOnUse">
			<stop stop-color="#81FFFF"/>
			<stop offset=".62" stop-color="#fff" stop-opacity="0"/>
		</linearGradient>
		<linearGradient id="d" x1="152.411" x2="84.141" y1="57.038" y2="118.616" gradientUnits="userSpaceOnUse">
			<stop offset=".289" stop-color="#fff"/>
			<stop offset=".78" stop-color="#fff" stop-opacity="0"/>
		</linearGradient>
		<linearGradient id="e" x1="17.059" x2="171.646" y1="150.962" y2="150.962" gradientUnits="userSpaceOnUse">
			<stop stop-color="#0002E9"/>
			<stop offset=".995" stop-color="#FF00C7"/>
		</linearGradient>
		<linearGradient id="f" x1="179.329" x2="93.891" y1="119.018" y2="198.395" gradientUnits="userSpaceOnUse">
			<stop offset=".289" stop-color="#fff"/>
			<stop offset=".78" stop-color="#fff" stop-opacity="0"/>
		</linearGradient>
		<linearGradient id="g" x1="17.059" x2="99.661" y1="150.962" y2="150.962" gradientUnits="userSpaceOnUse">
			<stop stop-color="#000292"/>
			<stop offset=".995" stop-color="#7D00C7"/>
		</linearGradient>
		<linearGradient id="h" x1="17.228" x2="171.505" y1="118.904" y2="118.904" gradientUnits="userSpaceOnUse">
			<stop stop-color="#000292"/>
			<stop offset=".995" stop-color="#BE00C7"/>
		</linearGradient>
		<linearGradient id="i" x1="169.167" x2="157.802" y1="34.904" y2="53.059" gradientUnits="userSpaceOnUse">
			<stop offset=".289" stop-color="#fff"/>
			<stop offset=".78" stop-color="#fff" stop-opacity="0"/>
		</linearGradient>
		<linearGradient id="j" x1="84.936" x2="91.089" y1="170.007" y2="170.007" gradientUnits="userSpaceOnUse">
			<stop offset=".289" stop-color="#fff"/>
			<stop offset=".78" stop-color="#fff" stop-opacity="0"/>
		</linearGradient>
		<linearGradient id="k" x1="106.149" x2="112.302" y1="167.934" y2="167.934" gradientUnits="userSpaceOnUse">
			<stop offset=".289" stop-color="#fff"/>
			<stop offset=".78" stop-color="#fff" stop-opacity="0"/>
		</linearGradient>
		<linearGradient id="l" x1="96.733" x2="101.352" y1="178.638" y2="178.638" gradientUnits="userSpaceOnUse">
			<stop offset=".289" stop-color="#fff"/>
			<stop offset=".78" stop-color="#fff" stop-opacity="0"/>
		</linearGradient>
		<linearGradient id="m" x1="115.43" x2="120.049" y1="176.419" y2="176.419" gradientUnits="userSpaceOnUse">
			<stop offset=".289" stop-color="#fff"/>
			<stop offset=".78" stop-color="#fff" stop-opacity="0"/>
		</linearGradient>
		<linearGradient id="n" x1="65.059" x2="75.107" y1="166.021" y2="166.021" gradientUnits="userSpaceOnUse">
			<stop offset=".289" stop-color="#fff"/>
			<stop offset=".78" stop-color="#fff" stop-opacity="0"/>
		</linearGradient>
		<linearGradient id="o" x1="124.735" x2="134.784" y1="149.305" y2="149.305" gradientUnits="userSpaceOnUse">
			<stop offset=".289" stop-color="#fff"/>
			<stop offset=".78" stop-color="#fff" stop-opacity="0"/>
		</linearGradient>
		<radialGradient id="a" cx="0" cy="0" r="1" gradientTransform="matrix(64.9969 0 0 66.116 184.409 27.218)" gradientUnits="userSpaceOnUse">
			<stop stop-color="#FFEAFF" stop-opacity=".6"/>
			<stop offset=".681" stop-color="#A087C9"/>
			<stop offset="1" stop-color="#10002F"/>
		</radialGradient>
		<radialGradient id="b" cx="0" cy="0" r="1" gradientTransform="matrix(159.024 0 0 161.763 148.248 55.414)" gradientUnits="userSpaceOnUse">
			<stop stop-color="#FFEAFF" stop-opacity=".6"/>
			<stop offset=".681" stop-color="#A087C9"/>
			<stop offset="1" stop-color="#10002F"/>
		</radialGradient>
	</defs>
</svg>
