<svg xmlns="http://www.w3.org/2000/svg" width="200" height="200" fill="currentColor" viewBox="0 0 200 200">
  <g clip-path="url(#a)">
    <path fill="#030C17" d="M199.666 99.666c.185 55.044-44.288 99.815-99.332 100-55.044.185-99.816-44.288-100-99.332C.149 45.29 44.622.519 99.666.334c55.044-.184 99.815 44.288 100 99.332Z"/>
    <path fill="#fff" d="M162.33 161.916c34.187-34.436 34.022-89.98-.414-124.168s-89.98-34.023-124.169.414L162.33 161.916Z" opacity=".2"/>
    <path fill="#FAFBFC" d="M109.352 91.057c-.993-.166-1.904-.414-2.815-.58-12.251-2.483-21.108-4.221-21.108-12.747 0-5.298 5.215-9.52 14.569-9.52 8.361 0 14.983 3.394 19.287 9.768l.663.165 13.327-13.658-.082-.497c-5.298-6.291-12.004-10.678-19.702-12.996a44.12 44.12 0 0 0-3.146-.828h-.082c-.414-.083-.746-.166-1.16-.248V37.83H90.892v12.086c-.58.083-1.159.248-1.738.33h-.083c-8.609 2.07-16.142 6.54-22.019 13.411-2.484 4.139-3.725 9.106-3.725 14.818 0 19.535 14.734 25.744 29.138 29.221 2.649.662 5.298 1.158 7.864 1.572 9.023 1.656 16.804 3.063 16.804 11.176 0 5.049-5.546 11.34-17.135 11.34-6.87 0-12.5-2.318-16.639-6.54-.248-.248-.579-.496-.828-.744l-15.728 10.926v.58a44.85 44.85 0 0 0 7.368 6.953c.91.663 1.821 1.242 2.732 1.821h.082c.911.58 1.904 1.076 2.815 1.573 0 0 .083 0 .083.083.993.497 1.904.91 2.897 1.324.083 0 .083 0 .165.083.994.414 1.987.745 2.98 1.077.083 0 .166 0 .166.082.497.166.91.248 1.407.414h.166c.497.166.993.248 1.573.414.082 0 .165 0 .248.083.414.083.91.165 1.324.248v12.086h18.212v-12.086c.331-.083.662-.083.993-.165h.166a31.156 31.156 0 0 0 3.725-.994c.579-.166 1.242-.414 1.821-.579 6.705-2.483 12.583-6.623 17.383-12.251a44.43 44.43 0 0 0 4.802-6.871c.745-2.649 1.076-5.629 1.076-8.775.083-21.025-15.811-26.737-29.635-29.469Z"/>
    <path fill="url(#b)" d="M66.887 135.923c-.911-1.076-1.739-2.152-2.484-3.31-.331-.497-.662-.994-.993-1.408-.083-.083-.166-.248-.249-.331-.248-.414-.579-.911-.827-1.407l-.249-.497c-.248-.414-.496-.911-.745-1.325l-.248-.496a7.329 7.329 0 0 1-.662-1.407c-.083-.166-.166-.414-.249-.58-.248-.497-.413-.911-.662-1.407a4.037 4.037 0 0 1-.248-.58c-.166-.496-.414-.993-.58-1.49 0-.082-.082-.248-.082-.33-.414-1.16-.828-2.318-1.16-3.478 0-.082-.082-.165-.082-.33-.083-.414-.248-.828-.331-1.242l-.249-.994c-.082-.414-.165-.744-.248-1.158-.083-.332-.165-.746-.248-1.076-.083-.414-.166-.746-.249-1.16l-.248-1.241c-.083-.331-.083-.745-.165-1.076-.083-.414-.166-.828-.166-1.325-.083-.331-.083-.662-.166-1.076-.082-.496-.082-.91-.165-1.407 0-.331-.083-.662-.083-.993 0-.58-.083-1.076-.083-1.656 0-.248 0-.497-.083-.828 0-.828-.082-1.656-.082-2.483 0-.828 0-1.573.082-2.4v-.746c0-.58.083-1.076.083-1.655 0-.249.083-.58.083-.828.083-.497.083-1.076.166-1.573 0-.248.082-.497.082-.745.083-.662.166-1.242.249-1.821 0-.166 0-.331.083-.414.082-.745.248-1.49.413-2.235.083-.248.083-.497.166-.662.083-.497.248-.994.331-1.49.083-.248.166-.58.166-.828.082-.497.248-.91.33-1.408.084-.248.166-.579.25-.827.165-.497.33-.993.413-1.49.083-.249.166-.414.248-.663l.745-1.986c.083-.248.166-.414.249-.662.165-.497.33-.911.58-1.408.082-.248.247-.496.33-.828a7.59 7.59 0 0 1 .58-1.158c.165-.248.248-.58.414-.828.165-.414.413-.745.58-1.159.165-.248.247-.497.413-.745l.993-1.738c-.745 2.732-1.076 5.712-1.076 8.857 0 10.761 4.553 18.957 13.576 24.503.497 9.685 3.311 17.3 8.113 22.184l-16.556 10.844Z"/>
    <path fill="url(#c)" d="M119.369 77.978c2.814 4.222 4.635 9.52 5.298 15.894a31.75 31.75 0 0 1 6.125 3.725c6.705 5.215 10.099 12.83 10.099 22.516 0 1.158-.083 2.318-.166 3.476v-.082c.332-.746.663-1.573.911-2.401.083-.248.165-.414.249-.662.165-.579.413-1.159.579-1.739.083-.248.165-.579.248-.828.083-.33.249-.744.331-1.076.166-.496.248-.91.414-1.407.083-.331.166-.745.248-1.076l.249-1.241c.083-.249.083-.58.165-.828.083-.58.249-1.242.332-1.822 0-.248.082-.496.082-.744l.248-1.987c0-.166 0-.249.084-.414.082-.662.165-1.242.165-1.904 0-.165 0-.331.083-.497.082-.745.082-1.49.166-2.235v-.497c0-.744.082-1.572.082-2.317 0-.828 0-1.656-.082-2.567 0-.248 0-.496-.084-.827 0-.58-.082-1.16-.082-1.656 0-.33-.083-.662-.083-.993-.083-.497-.083-.994-.165-1.49 0-.33-.084-.662-.166-1.076-.083-.497-.083-.91-.166-1.408-.082-.33-.082-.744-.165-1.076-.083-.414-.166-.91-.249-1.324-.082-.33-.165-.745-.248-1.076l-.248-1.242c-.083-.33-.166-.745-.248-1.076-.084-.414-.249-.828-.332-1.242-.082-.33-.165-.745-.331-1.076-.083-.414-.248-.745-.331-1.159-.083-.33-.248-.745-.331-1.076-.165-.414-.249-.745-.414-1.076-.165-.331-.248-.745-.414-1.076-.165-.331-.248-.745-.414-1.076a5.73 5.73 0 0 1-.413-1.077l-.497-.993a13.27 13.27 0 0 1-.497-1.076c-.166-.33-.331-.662-.496-.993-.166-.33-.332-.662-.58-.994-.166-.33-.331-.662-.58-.91-.165-.33-.414-.662-.579-.994-.165-.33-.414-.579-.579-.91-.58-.91-1.242-1.821-1.904-2.732-.497-.662-.994-1.241-1.49-1.82l-13.824 14.237Z"/>
  </g>
  <defs>
    <linearGradient id="b" x1="83.598" x2="44.756" y1="104.771" y2="75.853" gradientUnits="userSpaceOnUse">
      <stop offset=".001" stop-color="#fff"/>
      <stop offset="1" stop-color="#1E313F"/>
    </linearGradient>
    <linearGradient id="c" x1="117.478" x2="153.349" y1="90.213" y2="118.177" gradientUnits="userSpaceOnUse">
      <stop offset=".001" stop-color="#fff"/>
      <stop offset=".997" stop-color="#4E5A64"/>
    </linearGradient>
    <clipPath id="a">
      <path fill="#fff" d="M0 0h200v200H0z"/>
    </clipPath>
  </defs>
</svg>
