<svg width="200" height="200" viewBox="0 0 200 200" fill="none" xmlns="http://www.w3.org/2000/svg">
<g clip-path="url(#clip0_170_181)">
<rect width="200" height="200" fill="white"/>
<path fill-rule="evenodd" clip-rule="evenodd" d="M129.52 32.72C126.96 30.16 123.52 28.76 119.92 28.76H119.88C116.28 28.76 112.8 30.2 110.28 32.8L3.96008 139.56C1.40008 142.12 -0.0399207 145.6 7.92797e-05 149.2C7.92797e-05 152.84 1.44008 156.24 4.00008 158.84C6.56008 161.4 10.0001 162.8 13.6001 162.8C17.2401 162.8 20.6801 161.36 23.2801 158.8L129.56 52.04C134.84 46.64 134.8 38.04 129.52 32.72Z" fill="#2DB8E3"/>
<path fill-rule="evenodd" clip-rule="evenodd" d="M191.2 30.04C186.12 27.92 180.24 29.08 176.36 33.04L70.0799 139.84C64.7599 145.16 64.7999 153.8 70.1199 159.12C75.4399 164.4 84.0799 164.4 89.3999 159.08L172.4 75.72V149.48C172.4 157 178.52 163.08 186.04 163.12C193.56 163.12 199.64 157 199.68 149.48V42.64C199.64 37.12 196.32 32.12 191.2 30.04Z" fill="#3840C7"/>
</g>
<defs>
<clipPath id="clip0_170_181">
<rect width="200" height="200" fill="white"/>
</clipPath>
</defs>
</svg>
