<svg xmlns="http://www.w3.org/2000/svg" width="200" height="200" fill="currentColor" viewBox="0 0 200 200">
	<g clip-path="url(#a)">
		<path fill="#00CDD7" d="M66.68 33.32 100.04-.04l33.36 33.36-33.36 33.36-33.36-33.36Z" opacity=".73"/>
		<path fill="#00CDD7" d="m66.68 166.64 33.36-33.36 33.36 33.36L100.04 200l-33.36-33.36Z" opacity=".43"/>
		<path fill="#00CDD7" d="m37.76 141.04 45.56-12.2 12.2 45.56-45.56 12.2-12.2-45.56Z" opacity=".48"/>
		<path fill="#00CDD7" d="M104.4 25.6 150 13.4l12.2 45.56-45.56 12.2L104.4 25.6Z" opacity=".18"/>
		<path fill="#00CDD7" d="m13.36 150 12.2-45.56 45.56 12.2-12.2 45.56L13.36 150Z" opacity=".53"/>
		<path fill="#00CDD7" d="M128.8 83.28 141 37.72l45.56 12.2-12.2 45.56-45.56-12.2Z" opacity=".23"/>
		<path fill="#00CDD7" d="m0 100 33.36-33.36L66.72 100l-33.36 33.36L0 100Z" opacity=".58"/>
		<path fill="#00CDD7" d="m133.28 99.92 33.36-33.36L200 99.92l-33.36 33.36-33.36-33.36Z" opacity=".28"/>
		<path fill="#00CDD7" d="m13.32 49.96 45.56-12.2 12.2 45.56-45.56 12.2-12.2-45.56Z" opacity=".63"/>
		<path fill="#00CDD7" d="m128.76 116.64 45.56-12.2 12.2 45.56-45.56 12.2-12.2-45.56Z" opacity=".33"/>
		<path fill="#00CDD7" d="m37.76 58.96 12.2-45.56 45.56 12.2-12.2 45.56-45.56-12.2Z" opacity=".68"/>
		<path fill="#00CDD7" d="m104.44 174.4 12.2-45.56 45.56 12.2L150 186.6l-45.56-12.2Z" opacity=".38"/>
	</g>
	<defs>
		<clipPath id="a">
			<path fill="#fff" d="M0 0h200v200H0z"/>
		</clipPath>
	</defs>
</svg>
