<svg xmlns="http://www.w3.org/2000/svg" width="200" height="200" fill="currentColor" viewBox="0 0 200 200">
	<g clip-path="url(#a)">
		<path fill="#E6DAFE" d="M100 200c55.228 0 100-44.772 100-100S155.228 0 100 0 0 44.772 0 100s44.772 100 100 100Z"/>
		<path fill="#000" d="M118.516 89.258c0 8.086-6.524 14.648-14.61 14.648v14.649c16.133 0 29.18-13.086 29.18-29.258 0-16.172-13.086-29.258-29.18-29.258-5.312 0-10.312 1.406-14.61 3.906-8.71 5.04-14.609 14.532-14.609 25.352v73.164l13.126 13.164 1.484 1.484V89.258c0-8.086 6.523-14.649 14.609-14.649s14.61 6.602 14.61 14.649Z"/>
		<path fill="#000" d="M103.906 30.742c-10.625 0-20.586 2.852-29.18 7.852a57.625 57.625 0 0 0-14.609 11.992c-9.062 10.312-14.61 23.867-14.61 38.71v43.907l14.61 14.649V89.258c0-13.008 5.625-24.688 14.61-32.735 4.218-3.789 9.14-6.757 14.609-8.671 4.57-1.641 9.492-2.5 14.609-2.5 24.18 0 43.789 19.648 43.789 43.906s-19.648 43.906-43.828 43.906v14.649c32.227 0 58.36-26.211 58.36-58.516s-26.133-58.555-58.36-58.555Z"/>
	</g>
	<defs>
		<clipPath id="a">
			<path fill="#fff" d="M0 0h200v200H0z"/>
		</clipPath>
	</defs>
</svg>
