<svg xmlns="http://www.w3.org/2000/svg" width="200" height="200" fill="currentColor" viewBox="0 0 200 200">
	<path fill="#F5CA45" d="M43.325 142.102c5.577.08 10.51 1.782 15.165 4.3 5.612 3.035 10.898.908 13.625-2.47 1.889-2.34 2.055-5.124 2.374-7.915.377-3.304.38-6.755 1.403-9.861 3.704-11.253 11.93-17.522 23.463-18.798a25.848 25.848 0 0 1 15.689 3.268c2.519 1.447 5.135 2.136 8.024 1.972 5.437-.307 8.954-3.728 9.428-9.17.226-2.603.53-5.199.816-7.796 1.35-12.218 12.385-22.838 26.594-23.76 10.289-.668 21.114 6.359 25.35 16.356 8.091 19.095-5.029 37.058-23.112 39.496-5.705.77-11.45-1.174-16.653-4.066-5.271-2.93-12.182-1.387-14.612 4.611-.805 1.985-.873 4.367-.859 6.565.029 4.41-1.107 8.496-2.911 12.434-5.61 12.246-21.379 20.581-38.173 12.151-2.403-1.206-4.664-2.169-7.405-2.064-5.61.215-9.727 4.268-10.087 9.921-.212 3.335-.42 6.712-1.112 9.968-2.964 13.927-16.622 21.139-26.588 20.668-13.123-.62-23.19-9.27-26.411-21.344-3.553-13.321 4.641-27.584 16.317-32.094 3.072-1.187 6.442-1.602 9.675-2.372Zm-25.412-35.61c4.017 13.889 16.43 22.408 30.82 20.349 14.362-2.055 23.606-14.74 22.948-26.952-.117-2.184.265-4.525.983-6.598 2.026-5.847 8.592-8.335 14.186-5.593 1.176.577 2.276 1.339 3.492 1.797 5.658 2.131 11.376 3.477 17.516 2.075 12.255-2.799 21.73-15.342 21.203-28.135-.491-11.938-9.567-24.542-23.361-26.332-16.075-2.085-30.46 10.67-31.085 25.408-.087 2.053-.203 4.112-.466 6.148-.83 6.431-5.616 9.903-12.512 8.791-1.594-.257-3.084-1.241-4.589-1.96-4.98-2.38-10.32-3.903-15.723-3.258-14.656 1.75-24.633 13.996-24.32 27.049.285 2.408.243 4.912.908 7.211ZM43.438 2.067c-15.514-.093-27.425 13.258-27.452 27.43-.028 14.62 12.13 27.581 27.31 27.587 14.894.005 27.636-12.05 27.347-27.432.398-14.52-11.519-27.491-27.205-27.585Z"/>
</svg>
