<svg xmlns="http://www.w3.org/2000/svg" width="200" height="200" fill="currentColor" viewBox="0 0 200 200">
	<g clip-path="url(#a)">
		<path fill="#fff" d="M89.288 199.775c-44.96-5.68-79.2-37.36-88.04-81.48-1.68-8.4-1.68-28.32 0-36.72 8.28-41.28 39.04-72.08 80.36-80.32 8.4-1.68 28.321-1.68 36.721 0 41.32 8.24 72.12 39.04 80.36 80.32 1.68 8.4 1.68 28.32 0 36.72-8.24 41.12-39.2 72.2-80 80.24-5.48 1.08-24.32 1.88-29.4 1.24Z"/>
		<path fill="#000" d="M89.288 199.759c-44.92-5.64-79.2-37.36-88.04-81.48-1.68-8.4-1.68-28.32 0-36.72 8.28-41.28 39.04-72.08 80.36-80.32 8.4-1.68 28.32-1.68 36.72 0 41.32 8.24 72.12 39.04 80.36 80.32 1.68 8.4 1.68 28.32 0 36.72-8.24 41.12-39.2 72.2-80 80.24-5.48 1.08-24.32 1.88-29.4 1.24Zm4.52-74.6.2-14.52h13.04l6.32 14.72 6.32 14.72h8.08c4.44 0 8.28-.16 8.48-.36.2-.2-2.36-6.44-5.64-13.88-3.32-7.44-6.16-14.12-6.32-14.88-.24-1.08.16-1.6 1.76-2.24 2.72-1.12 6.36-5.24 7.52-8.48.64-1.84.92-6.2.92-14.96 0-11.68-.08-12.56-1.6-15.56-.88-1.76-2.8-4.24-4.28-5.48-4.88-4.16-6.44-4.4-29.96-4.2l-21.04.16-.2 6.48-.2 6.48-7.48.2-7.48.2v14l7.84.2 7.84.2v7.28l-7.84.2-7.84.2v14l7.84.2 7.84.2v30.08l7.84.08h7.84l.2-15.04Zm.16-39.92v-10.04h11c11 0 11 0 12.36 1.76 1.2 1.52 1.4 2.68 1.4 8.28 0 5.56-.2 6.76-1.4 8.28-1.4 1.76-1.4 1.76-12.36 1.76h-11v-10.04Z"/>
	</g>
	<defs>
		<clipPath id="a">
			<path fill="#fff" d="M0 0h200v200H0z"/>
		</clipPath>
	</defs>
</svg>
