<svg xmlns="http://www.w3.org/2000/svg" width="200" height="200" fill="currentColor" viewBox="0 0 200 200">
	<g clip-path="url(#a)">
		<path fill="#000" d="M170.56 29.28C151.68 10.4 126.6 0 99.92 0 44.84 0 0 44.88 0 100s44.84 100 99.92 100c26.68 0 51.76-10.4 70.64-29.28 18.88-18.88 29.24-44 29.24-70.72s-10.36-51.84-29.24-70.72Zm-70.64 163.8c-51.28 0-93-41.76-93-93.08s41.72-93.08 93-93.08 93 41.76 93 93.08-41.72 93.08-93 93.08Z"/>
		<path fill="#000" d="M132.72 102.36c-6.4-5.72-14.8-9.56-22.88-13.24l-.04-.04c-14.32-6.56-26.72-12.2-25.84-25.56.36-5.12 4.08-8.16 7.12-9.84 3.44-1.88 7.96-3 12.16-3 .48 0 1 .04 1.48.04 12.2.8 21.84 6 31.28 16.76l.56.64.64-.56 3.68-3.2.64-.56-.6-.64C130.44 51.12 119 45.08 105.08 44.12c-.6-.08-1.24-.08-1.96-.08-.4 0-.88 0-1.36.04h-.56c-9.16 0-19.16 3-26.76 8.04-9.12 6.04-14.2 14.32-14.32 23.32-.36 21.96 17.56 29.32 33.4 35.84h.04l.16.04c14 5.8 26.08 10.8 25.8 24.2-.12 8.84-12.76 13.72-21.44 13.72h-1.2c-12.96-.4-24.48-5.96-34.36-16.56l-.6-.64-.64.6-3.56 3.32-.64.6.6.64c11.2 12.04 25.04 18.56 39.96 18.72h.68c9.68 0 20.16-2.6 28.08-7 9.92-5.4 15.68-13.32 16.32-22.24.64-9.72-2.64-17.72-10-24.32ZM86.28 83.28c5.68 4.88 13.44 8.36 20.88 11.76l.16.04c7.92 3.64 15.4 7.08 20.8 11.88 6 5.28 8.56 11.4 8 19.24-.48 7.8-6.28 13-11.56 16.12 1-2.08 1.6-4.36 1.64-6.76.12-8.08-3-14.56-9.52-19.8-5.68-4.6-13.24-7.68-20.56-10.72C80.88 98.8 66.52 92.88 66.8 75.4c.08-6.72 4.12-13.08 11.36-17.92.24-.16.48-.32.76-.48-.84 1.88-1.36 3.84-1.44 5.92-.64 8.16 2.28 14.8 8.8 20.36Z"/>
	</g>
	<defs>
		<clipPath id="a">
			<path fill="#fff" d="M0 0h200v200H0z"/>
		</clipPath>
	</defs>
</svg>
