<svg width="200" height="200" viewBox="0 0 200 200" fill="none" xmlns="http://www.w3.org/2000/svg">
<rect width="200" height="200" fill="black"/>
<path d="M0 12.2V187.8H162.6V168.12H19.48V31.88H162.6V12.2H0Z" fill="white"/>
<path d="M178.72 79.6801C178.72 75.5201 177.12 71.8801 173.88 68.8001C170.64 65.7201 166.16 64.1601 160.32 64.1601C155.4 64.1601 151.52 65.1601 148.64 67.2401C145.76 69.3201 144.32 72.0401 144.32 75.4801C144.32 77.2801 144.68 78.9201 145.4 80.3601C146.12 81.8001 147.28 83.0801 149 84.2801C150.72 85.4801 152.96 86.4401 155.8 87.3601C158.6 88.2801 162.16 89.0801 166.48 89.8801C177.32 91.8801 185.6 95.2401 191.32 99.8401C197.08 104.56 199.92 111.44 199.92 120.6V122.4C199.92 127.28 199.04 131.64 197.32 135.64C195.6 139.56 193.12 142.88 189.88 145.72C186.64 148.52 182.72 150.6 178.04 152.16C173.36 153.6 168.16 154.44 162.32 154.44C155.52 154.44 149.56 153.44 144.36 151.52C139.16 149.6 134.84 146.88 131.44 143.44C128.04 140 125.32 136 123.64 131.36C121.84 126.72 120.96 121.64 120.96 116.2V115.28H140.44C140.44 121.52 142.24 126.52 145.84 130.32C149.44 134.04 155 135.96 162.6 135.96C168.52 135.96 172.92 134.68 175.8 132.04C178.68 129.4 180.12 126.32 180.12 122.8C180.12 121.08 179.84 119.52 179.24 117.92C178.6 116.36 177.64 115 176.08 113.76C174.64 112.48 172.6 111.4 169.96 110.4C167.36 109.4 164.12 108.6 160.16 107.88C154.96 106.96 150.2 105.8 145.8 104.36C141.48 102.92 137.72 101 134.48 98.6401C131.24 96.2801 128.84 93.2801 127.04 89.6801C125.24 86.0401 124.36 81.6801 124.36 76.5201V75.6001C124.36 71.3201 125.24 67.3601 126.96 63.7201C128.68 60.0801 131.08 56.9201 134.24 54.2001C137.4 51.4801 141.04 49.4001 145.44 47.9601C149.84 46.5201 154.68 45.6801 160.16 45.6801C166.28 45.6801 171.64 46.6001 176.4 48.3201C181.16 50.0401 185.12 52.4001 188.32 55.4001C191.56 58.4001 193.72 61.9201 195.6 65.7601C197.92 70.4001 198.04 79.8001 198.04 79.8001L178.72 79.6801Z" fill="white"/>
</svg>
