<svg xmlns="http://www.w3.org/2000/svg" width="168" height="200" fill="currentColor" viewBox="0 0 168 200">
	<g clip-path="url(#a)">
		<path fill="#0B4431" d="M82.183 200h-.25c-41.844-.126-61.888-20.188-71.41-36.865-8.77-15.549-12.152-32.602-9.771-50.659C2.63 97.429 8.644 81.63 18.166 67.085c6.013-9.28 13.906-18.684 22.3-26.333 6.138-5.643 11.15-9.279 15.158-10.909-1.253-5.141-2.004-13.291-2.255-16.05v-.502c-.125-6.395 7.016-9.279 9.396-10.282C67.275 1.13 72.662.125 77.8 0c5.136-.125 10.273.252 14.532 1.255 2.631.627 10.524 2.382 10.649 9.153l.376 11.536c0 2.132-.126 4.013-.376 5.768 22.425 7.9 41.467 31.6 49.235 44.39 3.132 5.14 10.774 19.059 14.156 36.488 4.009 20.941.627 39.624-10.147 55.8C134.049 197.367 94.336 200 82.184 200Zm-22.3-157.242c-5.01 2.76-19.543 14.922-30.317 31.725-10.649 16.426-25.808 49.028-7.14 82.006 11.024 19.561 31.695 29.968 59.632 30.094h.25c10.399 0 44.35-2.257 62.515-29.593 21.423-32.1.251-70.344-4.259-77.617-3.884-6.395-11.777-16.803-21.548-25.58l-40.967-6.27-31.07 6.144 16.413-9.279c-.627-.25-1.253-.501-1.88-.877-.626-.251-1.252-.502-1.628-.753Zm37.46-.25 15.409 6.018c-4.135-3.009-8.394-5.642-12.904-7.398-.626.377-1.253.753-2.005 1.129-.125.125-.25.25-.5.25ZM67.024 15.925c.626 5.14 1.378 10.407 1.879 11.912 1.002 2.758 2.63 4.514 5.136 5.517l5.011 2.006 4.26-2.382c2.255-1.254 3.758-3.135 3.884-3.26l.5-.753.251-.125c.376-.502 1.629-2.508 1.504-6.395v-7.9c-2.38-.627-6.515-1.128-11.4-1.003-4.636.126-8.77 1.38-11.025 2.383Z"/>
		<path fill="#77BAA1" d="M150.336 160.627c-20.546 30.972-58.631 32.602-68.403 32.602-12.277 0-47.481-1.505-65.521-33.48-17.289-30.596-9.146-63.574 7.391-89.028C36.707 50.783 55.248 35.736 60.01 35.486c.877 0 2.255.877 4.385 1.88 3.006 1.38 7.642 3.135 14.908 2.508 8.394-.752 12.904-2.257 15.535-3.636 3.007-1.505 3.758-2.759 5.01-2.257 21.549 7.273 39.84 30.972 46.48 41.756 7.141 11.786 26.684 50.909 4.009 84.89Z"/>
		<path fill="#F3ACBB" d="M27.687 93.166s-9.396 22.947-7.392 40.125c1.88 16.552 13.03 41.129 40.34 47.148 27.311 6.019 44.976-1.003 60.135-7.775 15.033-6.771 25.431-20.94 26.935-34.357 1.503-13.417 1.628-32.978-5.888-48.903"/>
		<path fill="#89B772" d="M94.336 51.035c-.877 3.134-15.16 6.144-21.674 4.388-6.389-1.755-6.89-5.893-8.393-18.056 3.006 1.38 7.642 3.135 14.908 2.508 8.394-.753 12.904-2.257 15.534-3.637.251 3.135.502 11.787-.375 14.797Z"/>
		<path fill="#F08FA2" d="M60.385 166.144c-.752-1.755-.877-3.636-.627-5.517.877-6.771 5.638-24.702 30.318-38.245 30.944-17.053 47.23-2.633 47.23-2.633s9.772 8.652 2.381 29.217c-7.392 20.438-43.598 27.962-43.598 27.962s-28.814 6.646-35.704-10.784Zm-29.817-37.492c-2.004 0-2.13-7.899.376-11.41 4.009-5.643 10.9-.377 10.9-.377s-6.014 11.787-11.276 11.787Z"/>
		<path fill="#F8D0D9" d="M141.817 89.404c0-3.009-25.558-5.391-57.128-5.391s-57.127 6.144-57.127 9.153c0 3.01 25.557 8.276 57.127 8.276 31.57 0 57.128-9.028 57.128-12.037Z"/>
		<path fill="#DD8843" d="M60.009 13.166s2.13 13.166 3.007 16.928c.751 3.135 5.637 9.906 14.658 10.909 9.646 1.003 15.158-7.398 15.158-7.398s3.884-3.636 3.633-11.41c-.25-7.775-.375-11.537-.375-11.537s-20.296 1.881-36.081 2.508Z"/>
		<path fill="#EBB646" d="M96.09 10.658c0-1.88-8.394-4.138-18.166-3.887-9.897.25-18.04 4.514-17.915 6.395 0 1.881 8.394 4.765 18.165 4.514 9.898-.25 17.915-5.14 17.915-7.022Z"/>
		<path fill="#fff" d="M32.322 96.802c-1.002-.25-1.754-.877-2.38-1.755-1.754-2.759-4.26-10.031 5.763-23.95C48.734 52.79 55.749 58.934 55.749 58.934s8.645 4.389-.751 19.812c-.126.125-.126.25-.25.376-.878 2.132-10.148 21.066-22.426 17.68Zm92.958 73.856c-2.13-.376-3.508-2.257-3.132-4.389.501-2.633 2.004-6.645 6.389-10.533 6.765-6.018 11.651-.627 12.778.878.251.376.376.753.502 1.129.25 1.254.125 3.761-3.258 7.523-3.883 4.264-8.644 6.27-13.279 5.392Z"/>
		<path fill="#A5D4C1" d="M156.599 115.11c1.253 3.26-8.017-8.903-9.27-9.028-1.879-.251-11.401 22.821-13.781 23.448-3.007.752-27.436-17.054-32.698-16.552-9.396.627-28.689 28.966-31.195 29.467-3.006.502-24.554-25.329-32.322-26.332-2.63-.376-20.796 21.693-22.3 20.063-.751-.753-2.505-18.308-2.255-23.198.251-3.135 2.38 12.288 3.258 12.288 1.503.126 18.165-16.551 21.673-16.3 3.132.25 27.812 22.194 30.192 21.692 2.38-.501 26.31-24.075 31.446-24.827 4.009-.502 25.306 14.921 31.069 13.918 3.508-.501 14.282-19.561 16.161-20.063 1.629-.125 8.644 11.913 10.022 15.424Z"/>
	</g>
	<defs>
		<clipPath id="a">
			<path fill="#fff" d="M0 0h168v200H0z"/>
		</clipPath>
	</defs>
</svg>
