<svg xmlns="http://www.w3.org/2000/svg" width="200" height="200" fill="currentColor" viewBox="0 0 200 200">
	<path fill="#5B6DEE" d="M100 197.405c53.796 0 97.406-43.61 97.406-97.405 0-53.796-43.61-97.406-97.406-97.406-53.795 0-97.406 43.61-97.406 97.406 0 53.795 43.61 97.405 97.406 97.405Z"/>
	<path fill="#fff" d="M83.565 94.038a55.67 55.67 0 0 0-10.13.872c2.751-25.45 23.961-44.721 49.213-44.72 15.461 0 26.055 7.571 26.055 23.246 0 15.674-12.716 23.245-31.267 23.245-13.694-.001-20.176-2.643-33.871-2.643Zm-1 9.283c-18.552 0-31.268 7.57-31.268 23.245 0 15.674 10.594 23.245 26.055 23.245 25.254 0 46.463-19.269 49.213-44.719a55.67 55.67 0 0 1-10.13.871c-13.695-.001-20.177-2.642-33.87-2.642Z"/>
</svg>
