<svg xmlns="http://www.w3.org/2000/svg" width="200" height="200" fill="currentColor" viewBox="0 0 200 200">
	<g clip-path="url(#a)">
		<path fill="#7B00FF" d="M100.04 199.92c55.206 0 99.96-44.754 99.96-99.96C200 44.754 155.246 0 100.04 0 44.834 0 .08 44.754.08 99.96c0 55.206 44.754 99.96 99.96 99.96Z"/>
		<path fill="#fff" d="M148.6 24.36c.12 10.8-2.72 19.64-8.76 27.36C131 63 118.84 68.96 105.4 72.6c-7.68 2.08-15.56 3.36-22.48 4.8 7.92 2.2 16.8 4.4 25.52 7.16 10 3.16 19.08 8.24 27.24 14.88 13.2 10.8 13.32 29.08.32 41-7.24 6.64-16.16 9.72-25.36 12.24-13.24 3.6-26.52 7.04-39.72 10.88-6.68 1.96-12.04 6.2-16.36 11.8-8.2-15.44-1.4-33.16 15.32-40.8 15.32-7.04 31.68-9.96 49.4-12.36-2.84-.64-4.6-1.04-6.32-1.44-1.8-.4-3.56-.84-5.36-1.24-15.08-3.48-29.32-8.76-41.68-18.44-14.68-11.52-15.04-30.68-.72-42.8 6.92-5.88 15.12-8.96 23.72-11.24 13.44-3.52 26.92-6.84 40.36-10.44 7.24-1.92 14.04-5 19.32-12.24Z"/>
		<path fill="#fff" d="M109.92 77.8c12.8-4.12 24.44-10.24 33.52-20.64 3.16 8.6-1.84 27.68-8.24 33.28-8.4-4.24-16.72-8.36-25.28-12.64Z"/>
	</g>
	<defs>
		<clipPath id="a">
			<path fill="#fff" d="M0 0h200v200H0z"/>
		</clipPath>
	</defs>
</svg>
