<svg xmlns="http://www.w3.org/2000/svg" width="200" height="200" fill="currentColor" viewBox="0 0 200 200">
	<path fill="#fff" d="M144 38.8C102.92 9.28 58.56.76 44.92 19.72c-7.8 10.88-30.8 42.84-38.6 53.72-13.6 18.96 8.64 58.28 49.72 87.8 41.08 29.52 85.44 38.08 99.08 19.12 7.8-10.88 30.8-42.84 38.6-53.72 13.64-19-8.64-58.32-49.72-87.84Z"/>
	<path fill="url(#a)" d="M190.92 99.04c-20.72-6.44-24.44 9.16-31.88 18.48-7.72 9.72-10.72 15.72-20.44 24.68-9.72 8.96-21.92 3.76-27.16 0-5.24-3.76-7.6-8.24-18.84-21.92-11.2-13.72-23.44-2.48-29.16 2.48-5.72 5-13.84 12.96-19.56 16.2a16.634 16.634 0 0 1-6.72 2.04C11.48 116.12-1 88.6 9.44 74.04c7.44-10.36 29.36-40.84 36.8-51.2 13-18.08 56.52-9.32 95.72 18.84 24.6 17.64 42.36 39.24 48.96 57.36Z"/>
	<path fill="#000" d="m190 126-36.8 51.24c-13 18.08-55.92 9.32-95.08-18.84-7.64-5.52-14.68-11.4-20.92-17.44 1.96-.16 4.32-.68 6.72-2.04 5.72-3.24 13.84-11.2 19.56-16.2 5.72-5 17.96-16.2 29.16-2.48 11.2 13.72 13.6 18.2 18.84 21.92 5.24 3.76 17.44 8.96 27.16 0 9.72-8.96 12.72-14.96 20.44-24.68 7.4-9.32 11.16-24.92 31.88-18.48 3.88 10.76 3.88 20.28-.96 27Z"/>
	<path stroke="#fff" stroke-linecap="round" stroke-miterlimit="10" stroke-width="6.226" d="M148.64 134.04c-1.92-.44-3.92-.92-5.92-1.52m29.76 2.56c-5.52 1.12-12.12 1.04-19.48-.2M42.96 43.76c-.2-1.24-.32-2.44-.4-3.64M71.6 89.4C57.2 75.24 47.36 60.48 43.92 48.04"/>
	<path fill="#fff" d="M138.44 46.44c-37.16-26.48-76.2-35.4-87.2-19.96-11 15.44 10.16 49.44 47.32 75.92 37.16 26.48 76.2 35.4 87.2 19.96 11.04-15.44-10.16-49.44-47.32-75.92Zm13.48 51.8c-5.2 7.28-24.36 2.52-42.84-10.68-18.48-13.16-29.24-29.72-24.04-37 5.2-7.28 24.36-2.52 42.84 10.68 18.48 13.16 29.24 29.76 24.04 37Z"/>
	<defs>
		<linearGradient id="a" x1="118.154" x2="69.104" y1="149.023" y2="17.967" gradientUnits="userSpaceOnUse">
			<stop offset=".244" stop-color="#FC51A1"/>
			<stop offset="1" stop-color="#1AB0ED"/>
		</linearGradient>
	</defs>
</svg>
