<svg xmlns="http://www.w3.org/2000/svg" width="200" height="200" fill="currentColor" viewBox="0 0 200 200">
	<g clip-path="url(#a)">
		<path fill="url(#b)" d="M100 200c55.228 0 100-44.772 100-100S155.228 0 100 0 0 44.772 0 100s44.772 100 100 100Z"/>
		<path fill="#fff" fill-rule="evenodd" d="M96.36 36.08c-5.8.68-11.2 3.32-15.28 7.52-3.08 3.04-5.96 6.16-9.08 9.2-1.56 1.6-3.12 3.16-4.68 4.72-1.56 1.56-3.32 3.24-4.92 4.88-1.64 1.64-3 3.12-4.48 4.64-2.36 2.36-4.72 4.72-7.08 7.12-1.8 1.88-3.6 3.8-5.36 5.68-1.04 1.12-2.2 2.16-3.2 3.32-4.12 5-6.36 11.28-6.36 17.76 0 .4 0 .76.04 1.16.08 3.72 1.04 7.36 2.84 10.64 1 1.96 2.2 3.84 3.52 5.64.88 1.24 1.52 1.2 2.68.24.24-.2.44-.4.6-.6 1.12-1.2 2.24-2.4 3.4-3.6 1.64-1.72 3.32-3.44 4.92-5.16 1.64-1.72 3.4-3.64 5.12-5.44.8-.88 1.68-1.68 2.52-2.56 1.76-1.84 3.48-3.76 5.2-5.6 1.76-1.84 3.52-3.56 5.24-5.32 1.72-1.76 3.8-4 5.76-5.96 1.92-2 3.56-3.68 5.36-5.48 2.32-2.4 4.6-4.88 6.92-7.28 1.44-1.48 2.92-2.88 4.32-4.32 2-2 3.84-3.96 5.8-5.96s3.4-3.32 5.08-5.04c3.72-3.76 7.48-7.56 11.2-11.4.24-.24.48-.48.68-.76.92-1.16 1-1.4-.12-2.24-1.72-1.36-3.6-2.56-5.52-3.6-3.44-1.6-7.2-2.44-11-2.44h-.2c-1.36 0-2.64.08-3.92.24Zm32.96 24.48h-.24c-3.32 0-6.44 1.44-8.56 4l-.6.6-6.08 5.96-6.24 6.24c-1.72 1.72-3.48 3.44-5.16 5.16-1.72 1.72-3.56 3.68-5.4 5.48-1.84 1.8-3.8 3.72-5.72 5.56l-6.8 6.84-12.6 12.6c-5.56 5.6-11.16 11.2-16.68 16.76-1.08 1.04-1.08 1.2 0 2.32 2.68 2.68 5.36 5.36 7.96 8.08 1.6 1.68 3.72 2.84 6 3.2 2.16.44 4.4.36 6.56-.2 1.6-.4 3.08-1.2 4.28-2.28l6.6-6.4c1.56-1.48 3.12-2.96 4.64-4.48 3.08-3.04 6.08-6.08 9.16-9.12 2.48-2.44 5.04-4.88 7.56-7.32l10.36-10.08c3.24-3.16 6.48-6.36 9.72-9.52.64-.96 2-1.24 2.96-.56.36.24.64.6.8 1 1.64 2.44 2.56 5.28 2.56 8.24 0 .52-.04 1-.08 1.52-.28 2.96-1.48 5.76-3.48 7.96-2.4 2.56-4.92 5-7.4 7.48-1.76 1.76-3.6 3.48-5.36 5.24-2.28 2.28-4.52 4.56-6.84 6.84-.32.36-.64.76-1 1.12l-2.24 2.32c-1.68 1.68-3.4 3.32-5.04 5-1.64 1.68-3.56 3.68-5.32 5.52-.16.16-.32.28-.48.44-2 1.84-3.84 3.72-5.72 5.56l-2.64 2.64c-1.52 1.52-3.08 3.04-4.52 4.6-.88.92-.88 1.52.16 2.24 1.72 1.32 3.56 2.52 5.52 3.52 4.8 2.16 10.16 2.92 15.4 2.2 5.2-.6 10.08-2.84 13.92-6.36 2.96-2.6 5.56-5.48 8.32-8.28 2-2 4-4.12 6.12-6.16l5.76-5.8c1.76-1.76 3.48-3.56 5.24-5.28 1.76-1.76 3.96-3.84 5.96-5.8s4-3.96 5.96-6.08c1.6-1.6 3.04-3.36 4.4-5.16 2.48-3.76 4.04-8.04 4.52-12.52.28-2.24.28-4.48 0-6.68-.6-3.96-2.04-7.72-4.2-11.08a32.621 32.621 0 0 0-5.56-6.4c-5.52-5.48-11-11-16.4-16.56a12.518 12.518 0 0 0-9.32-4.16H130l-.68.04Z" clip-rule="evenodd"/>
	</g>
	<defs>
		<linearGradient id="b" x1="14.119" x2="174.61" y1="41.238" y2="151.048" gradientUnits="userSpaceOnUse">
			<stop stop-color="#FF3B3B"/>
			<stop offset="1" stop-color="#FF9914"/>
		</linearGradient>
		<clipPath id="a">
			<path fill="#fff" d="M0 0h200v200H0z"/>
		</clipPath>
	</defs>
</svg>
