<svg xmlns="http://www.w3.org/2000/svg" width="200" height="200" fill="currentColor" viewBox="0 0 200 200">
	<path fill="#00C9FA" d="M2.73 125.876V122.8c.14-.627.307-1.25.42-1.882.84-4.701 1.668-9.403 2.502-14.105l10.664-60.167c.322-1.819.901-3.554 1.686-5.222a27.945 27.945 0 0 1 4.35-6.602c3.085-3.502 6.721-6.164 11.185-7.728 9.7-3.399 19.361-6.911 29.038-10.377 13.919-4.986 27.837-9.972 41.755-14.96a21.502 21.502 0 0 1 4.476-1.076c.586-.077 1.168-.187 1.752-.282h3.4c.236.052.469.118.708.151.881.121 1.769.2 2.646.351 4.877.84 9.29 2.658 13.097 5.924 4.114 3.53 8.336 6.934 12.512 10.392 15.061 12.474 30.126 24.942 45.173 37.432a20.052 20.052 0 0 1 2.675 2.69c3.221 3.926 5.135 8.455 6.013 13.438.088.5.156 1.005.232 1.508v4.857l-.28 1.584c-.682 3.853-1.362 7.705-2.045 11.558-3.611 20.377-7.227 40.753-10.828 61.132-.344 1.95-.824 3.85-1.633 5.66-1.793 4.012-4.426 7.393-7.738 10.255-2.184 1.886-4.608 3.377-7.342 4.343-2.468.872-4.93 1.759-7.395 2.642-12.854 4.603-25.707 9.207-38.561 13.809-8.434 3.02-16.869 6.035-25.302 9.059-1.556.558-3.146.96-4.785 1.175-.426.056-.848.14-1.272.211h-4.048c-.237-.048-.471-.122-.71-.141-1.835-.148-3.633-.498-5.406-.98-3.615-.982-6.886-2.598-9.773-5.029-4.974-4.185-10.006-8.301-15.014-12.445-14.358-11.882-28.722-23.759-43.07-35.655a19.102 19.102 0 0 1-2.457-2.453c-3.531-4.236-5.541-9.143-6.309-14.583-.067-.475-.21-.939-.316-1.408ZM119 127.377c-.505-.03-.875-.071-1.244-.071-5.585-.005-11.17.02-16.754-.021-1.286-.01-2.598-.121-3.85-.4-2.344-.522-3.516-1.988-3.734-4.383-.024-.268-.025-.539-.034-.808-.056-1.575.158-3.126.453-4.663 1.763-9.194 3.541-18.384 5.317-27.575.253-1.31.262-1.31 1.632-1.309l24.442.019c.324 0 .649.008.971-.013.567-.037.676-.134.828-.698.043-.156.067-.316.098-.476.824-4.236 1.648-8.474 2.469-12.71.042-.212.073-.426.093-.64.03-.322-.112-.524-.445-.546-.296-.02-.593-.025-.89-.025l-24.847.02c-1.126 0-1.173-.055-.961-1.153.703-3.628 1.411-7.255 2.117-10.883.448-2.304.903-4.607 1.341-6.912.159-.837.045-.963-.779-.994-.135-.005-.269-.004-.405-.004-2.077 0-4.155.035-6.231-.016-.903-.022-1.482.256-1.99 1.04-1.867 2.883-4.045 5.528-6.447 7.984a55.696 55.696 0 0 1-18.488 12.554c-.763.32-1.13.757-1.277 1.564-.65 3.583-1.354 7.157-2.036 10.734-.213 1.116-.154 1.187 1.027 1.189 3.156.004 6.313 0 9.47.003 1.257.001 1.29.045 1.022 1.303-1.29 6.042-2.607 12.078-3.863 18.126-.761 3.669-1.67 7.312-1.943 11.071-.26 3.581-.05 7.117.88 10.594.915 3.415 2.434 6.522 4.867 9.12 3.487 3.725 7.83 5.574 12.91 5.606 7.095.045 14.191.012 21.286.013.162 0 .324.002.486-.008.615-.041.714-.123.895-.733.038-.129.064-.262.095-.393 1.121-4.836 2.243-9.671 3.36-14.508.066-.282.093-.572.159-.998Z"/>
	<path fill="#fff" d="M119 127.377c-.066.426-.093.716-.158.998-1.117 4.836-2.239 9.672-3.36 14.508-.03.131-.057.264-.095.393-.181.61-.28.692-.895.732-.161.011-.324.008-.486.008-7.095 0-14.19.032-21.286-.013-5.08-.032-9.423-1.881-12.91-5.606-2.432-2.598-3.952-5.705-4.866-9.12-.93-3.476-1.14-7.012-.88-10.593.272-3.759 1.181-7.403 1.942-11.071 1.256-6.049 2.574-12.085 3.863-18.126.269-1.258.235-1.302-1.023-1.303-3.156-.003-6.313 0-9.47-.003-1.18-.002-1.239-.073-1.026-1.19.682-3.577 1.386-7.15 2.036-10.733.147-.808.514-1.244 1.278-1.564 7.006-2.936 13.175-7.12 18.488-12.555 2.4-2.456 4.58-5.1 6.447-7.984.507-.784 1.086-1.062 1.989-1.04 2.076.051 4.154.017 6.232.017.134 0 .27-.002.404.004.824.03.938.157.779.993-.438 2.306-.893 4.609-1.341 6.913-.706 3.627-1.414 7.255-2.117 10.883-.212 1.098-.165 1.153.961 1.153l24.848-.02c.296 0 .593.005.889.024.333.022.475.224.445.546-.02.214-.052.429-.092.64-.822 4.237-1.646 8.474-2.47 12.711-.03.159-.055.32-.098.476-.152.563-.26.66-.828.698-.322.02-.647.012-.97.012l-24.443-.018c-1.37 0-1.379 0-1.632 1.309-1.776 9.19-3.554 18.381-5.317 27.575-.294 1.537-.508 3.089-.453 4.663.01.269.01.539.034.808.218 2.395 1.39 3.861 3.735 4.383 1.252.278 2.563.39 3.849.399 5.585.042 11.169.017 16.754.022.368 0 .738.041 1.243.071Z"/>
</svg>
