<svg width="32" height="32" viewBox="0 0 32 32" fill="none" xmlns="http://www.w3.org/2000/svg">
<path d="M16.0001 28.6963L12.3201 20.4963L8.63208 18.3203L16.0001 28.6963Z" fill="#007FED"/>
<path d="M23.368 18.3203L16 28.6963L19.68 20.4963L23.368 18.3203Z" fill="url(#paint0_linear_107_2)"/>
<path d="M16.0001 13.96L8.63208 18.32L12.3201 20.496L16.0001 18.32L19.6801 20.496L23.3681 18.32L16.0001 13.96Z" fill="url(#paint1_linear_107_2)"/>
<path d="M16.0001 15.5282V3.3042L12.3201 17.7042L16.0001 15.5282Z" fill="#008CA3"/>
<path d="M16 15.5282V3.3042L19.68 17.7042L16 15.5282Z" fill="#28ACAC"/>
<path d="M8.63208 15.5282L16.0001 3.3042L12.3201 17.7042L8.63208 15.5282Z" fill="#28ACAC"/>
<path d="M23.368 15.5282L16 3.3042L19.68 17.7042L23.368 15.5282Z" fill="#008CA3"/>
<path d="M16.0001 28.6963L12.3201 20.4963L16.0001 18.3203V28.6963Z" fill="url(#paint2_linear_107_2)"/>
<path d="M16 28.6963L19.68 20.4963L16 18.3203V28.6963Z" fill="#007FED"/>
<path d="M16.0001 11.168L8.63208 15.528L12.3201 17.704L16.0001 15.528L19.6801 17.704L23.3681 15.528L16.0001 11.168Z" fill="url(#paint3_linear_107_2)"/>
<defs>
<linearGradient id="paint0_linear_107_2" x1="16" y1="23.5083" x2="23.368" y2="23.5083" gradientUnits="userSpaceOnUse">
<stop offset="0.000235553" stop-color="#0069E0"/>
<stop offset="0.9848" stop-color="#0069E0"/>
</linearGradient>
<linearGradient id="paint1_linear_107_2" x1="16.0001" y1="23.7199" x2="16.0001" y2="17.1839" gradientUnits="userSpaceOnUse">
<stop offset="0.25" stop-color="#00A5E6"/>
<stop offset="1" stop-color="#0098E6"/>
</linearGradient>
<linearGradient id="paint2_linear_107_2" x1="12.3201" y1="23.5083" x2="16.0001" y2="23.5083" gradientUnits="userSpaceOnUse">
<stop offset="0.000235553" stop-color="#0069E0"/>
<stop offset="0.9848" stop-color="#0069E0"/>
</linearGradient>
<linearGradient id="paint3_linear_107_2" x1="16.0001" y1="17.704" x2="16.0001" y2="11.168" gradientUnits="userSpaceOnUse">
<stop stop-color="#00A5E6" stop-opacity="0.8"/>
<stop offset="0.6" stop-color="#42E4AE" stop-opacity="0.6"/>
</linearGradient>
</defs>
</svg>
