<svg xmlns="http://www.w3.org/2000/svg" width="200" height="200" fill="currentColor" viewBox="0 0 200 200">
  <path fill="#007FED" d="m100.001 179.352-23-51.25-23.05-13.6 46.05 64.85Z"/>
  <path fill="url(#a)" d="M146.05 114.502 100 179.352l23-51.25 23.05-13.6Z"/>
  <path fill="url(#b)" d="m100.001 87.25-46.05 27.25L77 128.1l23-13.6 23 13.6 23.05-13.6L100 87.25Z"/>
  <path fill="#008CA3" d="M100.001 97.051v-76.4l-23 90 23-13.6Z"/>
  <path fill="#28ACAC" d="M100 97.051v-76.4l23 90-23-13.6Z"/>
  <path fill="#28ACAC" d="m53.95 97.051 46.051-76.4-23 90-23.05-13.6Z"/>
  <path fill="#008CA3" d="M146.05 97.051 100 20.651l23 90 23.05-13.6Z"/>
  <path fill="url(#c)" d="m100.001 179.352-23-51.25 23-13.6v64.85Z"/>
  <path fill="#007FED" d="m100 179.352 23-51.25-23-13.6v64.85Z"/>
  <path fill="url(#d)" d="m100.001 69.8-46.05 27.25L77 110.65l23-13.6 23 13.6 23.05-13.6L100 69.8Z"/>
  <defs>
    <linearGradient id="a" x1="100" x2="146.05" y1="146.927" y2="146.927" gradientUnits="userSpaceOnUse">
      <stop offset="0" stop-color="#0069E0"/>
      <stop offset=".985" stop-color="#0069E0"/>
    </linearGradient>
    <linearGradient id="b" x1="100.001" x2="100.001" y1="148.249" y2="107.399" gradientUnits="userSpaceOnUse">
      <stop offset=".25" stop-color="#00A5E6"/>
      <stop offset="1" stop-color="#0098E6"/>
    </linearGradient>
    <linearGradient id="c" x1="77.001" x2="100.001" y1="146.927" y2="146.927" gradientUnits="userSpaceOnUse">
      <stop offset="0" stop-color="#0069E0"/>
      <stop offset=".985" stop-color="#0069E0"/>
    </linearGradient>
    <linearGradient id="d" x1="100.001" x2="100.001" y1="110.65" y2="69.8" gradientUnits="userSpaceOnUse">
      <stop stop-color="#00A5E6" stop-opacity=".8"/>
      <stop offset=".6" stop-color="#42E4AE" stop-opacity=".6"/>
    </linearGradient>
  </defs>
</svg>
