<svg xmlns="http://www.w3.org/2000/svg" width="200" height="200" fill="currentColor" viewBox="0 0 200 200">
	<g clip-path="url(#a)">
		<path fill="#000" d="M100.124 199.176c54.855 0 99.324-44.469 99.324-99.324S154.979.528 100.124.528.8 44.997.8 99.852s44.469 99.324 99.324 99.324Z"/>
		<path fill="#3EFCAB" d="M48.58 138.024c15.52-10.584 32.764-18.492 48.232-29.212 5.284-3.684 10.968-7.424 14.416-13.02 6.96-14.256-43.82-10.264-51.428-11.144-.024-.14-.044-.28-.068-.424 21.048-6.292 63.264-14.096 84.052-8.004 22.82 7.268-12.18 26.572-20.368 31.6-23.536 12.864-48.148 25.312-74.54 30.784l-.296-.58Z"/>
	</g>
	<defs>
		<clipPath id="a">
			<path fill="#fff" d="M0 0h200v200H0z"/>
		</clipPath>
	</defs>
</svg>
