<svg xmlns="http://www.w3.org/2000/svg" width="200" height="200" fill="currentColor" viewBox="0 0 200 200">
	<g clip-path="url(#a)">
		<path fill="#FF4A4A" d="M128.16 125h-8.48a2.91 2.91 0 0 1-2.92-2.92V99.8l-14.84 9.24c-1.24.8-2.84.8-4.08 0L83.08 99.8v22.28a2.91 2.91 0 0 1-2.92 2.92h-8.4a2.91 2.91 0 0 1-2.92-2.92V79.12c0-2.12 1.72-3.84 3.84-3.84.8 0 1.48.24 2.12.72l23.36 16.08c.96.72 2.28.72 3.2 0L124.72 76c1.72-1.16 4.16-.72 5.32 1 .48.64.64 1.4.72 2.12v43c.24 1.56-1.04 2.88-2.6 2.88Zm-71.84-.04H3.76c-2.12 0-3.84-1.72-3.84-3.84v-43.2C0 76.28 1.24 75 2.92 75h8.48a2.91 2.91 0 0 1 2.92 2.92v32.88h31.84V77.92A2.91 2.91 0 0 1 49.08 75h8.24a2.91 2.91 0 0 1 2.92 2.92v43.2c-.08 2.08-1.8 3.84-3.92 3.84ZM143.68 75h52.56c2.12 0 3.84 1.72 3.84 3.84v43.2c0 1.56-1.24 2.92-2.84 2.92h-8.44a2.91 2.91 0 0 1-2.92-2.92v-31c0-1-.88-1.88-1.88-1.88h-28c-1 0-1.88.88-1.88 1.88v31a2.91 2.91 0 0 1-2.92 2.92h-8.48a2.91 2.91 0 0 1-2.92-2.92v-43.2c.04-2.12 1.76-3.84 3.88-3.84Z"/>
		<path fill="#FF4A4A" d="M165.72 98.28h8.4a2.91 2.91 0 0 1 2.92 2.92v8.56a2.91 2.91 0 0 1-2.92 2.92h-8.4a2.91 2.91 0 0 1-2.92-2.92v-8.64a2.92 2.92 0 0 1 2.92-2.84Z"/>
	</g>
	<defs>
		<clipPath id="a">
			<path fill="#fff" d="M0 0h200v200H0z"/>
		</clipPath>
	</defs>
</svg>
