<svg xmlns="http://www.w3.org/2000/svg" width="200" height="200" fill="currentColor" viewBox="0 0 200 200">
	<g clip-path="url(#a)">
		<path fill="url(#b)" d="M100 200c55.228 0 100-44.772 100-100S155.228 0 100 0 0 44.772 0 100s44.772 100 100 100Z"/>
		<path fill="#fff" d="M90.36 52.6V29.36l19.08-.28.28 23.36h36.52v15.12h-36.52v24.92c2.64 0 5.24-.2 7.76.04 4.12.36 8.32.56 12.28 1.68 10 2.8 16.88 9.12 18.92 19.52 1.6 8.24.6 16.2-4.76 23.08-4.32 5.6-10.32 8.56-17.12 9.84-3.44.64-7.04.76-10.56 1-2.04.12-4.12.04-6.68.04-.28 7.96.04 15.76-.2 23.72h-19v-23.64H53.48v-15.2h36.76c.2-8.4.08-25.12.08-25.12l-3.76.12s-10.36.2-15.44-1.2C61.4 103.68 54 98.2 51.52 88.08c-2.64-10.8-.96-20.84 8.04-28.48 5.6-4.76 12.48-6.52 19.72-6.92 3.48-.2 7.04-.08 11.08-.08Zm19.24 54.84c-.08-4.92-.12-9.84-.2-15h-19c0-8.2.12-16.44-.04-24.56-4.52-.68-9.76-.32-13 .8-2.88 1-5.2 2.68-6.56 5.48-3.72 7.68.2 16.16 8.6 17.76 3.6.68 7.36.36 11.08.48v15c6.52 0 12.84 0 19.12.04.04 8.2.04 16.4.04 24.8 4.76.24 9.2.56 13.48-1.12 3.44-1.36 5.8-3.84 6.48-7.48 1.52-8.28-1.52-14.48-10.76-15.72-3.04-.4-6.16-.32-9.24-.48Z"/>
		<path fill="url(#c)" d="M90.44 92.4c-3.68-.12-7.48.2-11.08-.48-8.36-1.6-12.32-10.08-8.6-17.76 1.36-2.8 3.64-4.52 6.56-5.48 3.24-1.12 8.52-1.44 13-.8.16 8.12.08 16.36.04 24.56l.08-.04Z"/>
		<path fill="url(#d)" d="M109.6 107.44c3.08.16 6.2.08 9.28.48 9.24 1.24 12.28 7.44 10.76 15.72-.68 3.64-3.04 6.12-6.48 7.48-4.28 1.68-8.76 1.36-13.48 1.12-.04-8.4-.04-16.6-.08-24.8Z"/>
		<path fill="url(#e)" d="M90.4 92.44h19c.08 5.16.12 10.08.2 15l.04-.04h-19.2v-15l-.04.04Z"/>
	</g>
	<defs>
		<radialGradient id="b" cx="0" cy="0" r="1" gradientTransform="translate(172.387 43.363) scale(148.837)" gradientUnits="userSpaceOnUse">
			<stop stop-color="#AAD65C"/>
			<stop offset=".623" stop-color="#4B9E58"/>
			<stop offset="1" stop-color="#205533"/>
		</radialGradient>
		<radialGradient id="c" cx="0" cy="0" r="1" gradientTransform="translate(172.387 43.362) scale(148.837)" gradientUnits="userSpaceOnUse">
			<stop stop-color="#AAD65C"/>
			<stop offset=".623" stop-color="#4B9E58"/>
			<stop offset="1" stop-color="#205533"/>
		</radialGradient>
		<radialGradient id="d" cx="0" cy="0" r="1" gradientTransform="translate(172.387 43.362) scale(148.837)" gradientUnits="userSpaceOnUse">
			<stop stop-color="#AAD65C"/>
			<stop offset=".623" stop-color="#4B9E58"/>
			<stop offset="1" stop-color="#205533"/>
		</radialGradient>
		<radialGradient id="e" cx="0" cy="0" r="1" gradientTransform="translate(172.387 43.362) scale(148.837)" gradientUnits="userSpaceOnUse">
			<stop stop-color="#AAD65C"/>
			<stop offset=".623" stop-color="#4B9E58"/>
			<stop offset="1" stop-color="#205533"/>
		</radialGradient>
		<clipPath id="a">
			<path fill="#fff" d="M0 0h200v200H0z"/>
		</clipPath>
	</defs>
</svg>
