<svg xmlns="http://www.w3.org/2000/svg" width="200" height="200" fill="currentColor" viewBox="0 0 200 200">
	<g clip-path="url(#a)">
		<path fill="url(#b)" d="M105.424 134.304c0 2.512-.02 4.816.008 7.116.02 1.776-.796 2.524-2.592 2.684-7.16.64-7.416.448-7.648-6.672-.032-.98-.188-1.952-.304-3.076-1.876-.324-3.608-.56-5.312-.924-8.208-1.76-13.788-10.272-11.952-18.4.188-.836 1.312-1.992 2.084-2.064 2.86-.26 5.756-.168 8.64-.128 1.668.024 2.36 1.112 2.296 2.652-.244 5.912 2.82 7.24 7.972 7.152 2.1-.036 4.216-.076 6.292-.344 2.66-.348 3.992-2.092 4.396-4.7 1.056-6.756-.868-9.42-7.72-10.424-3.18-.464-6.392-.72-9.568-1.208-9.788-1.496-14.408-6.716-14.612-16.644-.068-3.316-.14-6.696.416-9.944 1.184-6.932 5.448-10.896 12.364-12.12 1.4-.248 2.808-.476 4.692-.796 0-2.244.044-4.432-.012-6.616-.064-2.392 1.028-3.368 3.42-3.36 8.184.02 7.272-.344 7.316 6.712.008 1.08.12 2.164.184 3.296 1.224.248 2.184.484 3.16.632 10.304 1.568 13.452 10.804 12.884 18.776-.116 1.632-1.14 2.292-2.7 2.284-2.66-.008-5.324-.016-7.984-.004-1.816.008-2.424-.952-2.616-2.688-.684-6.132-1.568-6.876-7.704-6.948-1.44-.016-2.888-.036-4.324.056-4.008.26-5.456 1.724-5.788 5.804-.072.884-.072 1.772-.072 2.66.012 4.14 1.56 6.076 5.716 6.772 2.62.44 5.312.44 7.928.896 3.256.568 6.592 1.068 9.664 2.208 4.576 1.696 7.604 5.204 8.116 10.116.48 4.6.792 9.328.252 13.892-.84 7.112-5.504 11.432-12.58 12.748-1.188.22-2.4.336-4.312.604Z"/>
		<path fill="url(#c)" d="M24.312 78.704C33.6 45.636 63.968 21.392 100 21.392c36.032 0 66.4 24.244 75.688 57.312h22.032C187.956 33.708 147.92 0 100 0S12.044 33.708 2.28 78.704h22.032Z"/>
		<path fill="url(#d)" d="M178.608 100c0 2.928-.164 5.82-.476 8.668h21.492c.244-2.856.38-5.748.38-8.668 0-2.848-.124-5.668-.36-8.46H178.16c.292 2.78.448 5.6.448 8.46Z"/>
		<path fill="url(#e)" d="M21.392 100c0-2.86.156-5.68.456-8.46H.36C.124 94.332 0 97.152 0 100c0 2.92.132 5.812.38 8.668h21.492a78.577 78.577 0 0 1-.48-8.668Z"/>
		<path fill="url(#f)" d="M175.632 121.504c-9.356 32.96-39.672 57.104-75.632 57.104-35.96 0-66.276-24.14-75.632-57.104H2.328C12.164 166.396 52.156 200 100 200c47.844 0 87.836-33.604 97.672-78.496h-22.04Z"/>
	</g>
	<defs>
		<linearGradient id="b" x1="11.244" x2="176.764" y1="182.459" y2="29.672" gradientUnits="userSpaceOnUse">
			<stop stop-color="#8568C5"/>
			<stop offset="1" stop-color="#7C4497"/>
		</linearGradient>
		<linearGradient id="c" x1="-5.762" x2="159.757" y1="164.036" y2="11.249" gradientUnits="userSpaceOnUse">
			<stop stop-color="#8568C5"/>
			<stop offset="1" stop-color="#7C4497"/>
		</linearGradient>
		<linearGradient id="d" x1="51.926" x2="217.445" y1="226.531" y2="73.744" gradientUnits="userSpaceOnUse">
			<stop stop-color="#8568C5"/>
			<stop offset="1" stop-color="#7C4497"/>
		</linearGradient>
		<linearGradient id="e" x1="-29.861" x2="135.658" y1="137.928" y2="-14.859" gradientUnits="userSpaceOnUse">
			<stop stop-color="#8568C5"/>
			<stop offset="1" stop-color="#7C4497"/>
		</linearGradient>
		<linearGradient id="f" x1="27.784" x2="193.303" y1="200.377" y2="47.59" gradientUnits="userSpaceOnUse">
			<stop stop-color="#8568C5"/>
			<stop offset="1" stop-color="#7C4497"/>
		</linearGradient>
		<clipPath id="a">
			<path fill="#fff" d="M0 0h200v200H0z"/>
		</clipPath>
	</defs>
</svg>
