<svg xmlns="http://www.w3.org/2000/svg" width="200" height="200" fill="currentColor" viewBox="0 0 200 200">
  <g clip-path="url(#a)">
    <mask id="b" width="200" height="200" x="0" y="0" maskUnits="userSpaceOnUse" style="mask-type:luminance">
      <path fill="#fff" d="M0 0h200v200H0V0Z"/>
    </mask>
    <g mask="url(#b)">
      <mask id="c" width="200" height="200" x="0" y="0" maskUnits="userSpaceOnUse" style="mask-type:luminance">
        <path fill="#fff" d="M0 0h200v200H0V0Z"/>
      </mask>
      <g mask="url(#c)">
        <mask id="e" width="200" height="200" x="0" y="0" maskUnits="userSpaceOnUse" style="mask-type:alpha">
          <path fill="url(#d)" d="M100 200c55.231 0 100-44.769 100-100S155.231 0 100 0 0 44.769 0 100s44.769 100 100 100Z"/>
        </mask>
        <g mask="url(#e)">
          <path fill="url(#f)" d="M100 200c55.231 0 100-44.769 100-100S155.231 0 100 0 0 44.769 0 100s44.769 100 100 100Z"/>
          <path fill="url(#g)" fill-rule="evenodd" d="M112.25 187.731c14.687-1.375 26.881-11.793 32.281-25.468a175.66 175.66 0 0 0 1.544-4.038c20.887-11.512 34.994-33.356 34.994-58.412 0-25.063-14.107-46.92-35-58.42-.5-1.355-1.007-2.7-1.538-4.03-5.4-13.682-17.594-24.1-32.281-25.47a89.332 89.332 0 0 0-8.869-.08c-46.95 1.9-84.437 40.575-84.437 88 0 47.55 37.687 86.3 84.818 88.012 2.829.104 5.662.073 8.488-.094Zm33.825-29.506a169.731 169.731 0 0 0 10.312-58.412c0-20.494-3.637-40.157-10.312-58.413a69.814 69.814 0 0 0-33.769-8.625c-37.981 0-68.762 30.019-68.762 67.037 0 37.026 30.787 67.038 68.762 67.038a69.85 69.85 0 0 0 33.769-8.625Z" clip-rule="evenodd"/>
          <path fill="url(#h)" d="M146.081 158.2a69.82 69.82 0 0 1-33.762 8.625c-37.975 0-68.763-30.019-68.763-67.044 0-35.225 27.863-64.106 63.282-66.825 0 0 22.131-1.706 38.987 8.331 1.894 3.032 7.188 24.588 7.188 24.588a170.977 170.977 0 0 1 3.381 33.906c0 20.494-3.631 40.156-10.313 58.406v.013Z"/>
          <path fill="url(#i)" d="M146.081 158.2a69.82 69.82 0 0 1-33.762 8.625c-37.975 0-68.763-30.019-68.763-67.044 0-35.225 27.863-64.106 63.282-66.825 0 0 22.131-1.706 38.987 8.331 1.894 3.032 7.188 24.588 7.188 24.588a170.977 170.977 0 0 1 3.381 33.906c0 20.494-3.631 40.156-10.313 58.406v.013Z"/>
          <path fill="url(#j)" d="M146.081 158.2a69.82 69.82 0 0 1-33.762 8.625c-37.975 0-68.763-30.019-68.763-67.044 0-35.225 27.863-64.106 63.282-66.825 0 0 22.131-1.706 38.987 8.331 1.894 3.032 7.188 24.588 7.188 24.588a170.977 170.977 0 0 1 3.381 33.906c0 20.494-3.631 40.156-10.313 58.406v.013Z"/>
          <path fill="url(#k)" d="M146.081 158.2a69.82 69.82 0 0 1-33.762 8.625c-37.975 0-68.763-30.019-68.763-67.044 0-35.225 27.863-64.106 63.282-66.825 0 0 22.131-1.706 38.987 8.331 1.894 3.032 7.188 24.588 7.188 24.588a170.977 170.977 0 0 1 3.381 33.906c0 20.494-3.631 40.156-10.313 58.406v.013Z"/>
        </g>
      </g>
    </g>
  </g>
  <defs>
    <radialGradient id="f" cx="0" cy="0" r="1" gradientTransform="rotate(133.664 79.85 50.863) scale(201.071)" gradientUnits="userSpaceOnUse">
      <stop stop-color="#434343"/>
      <stop offset=".841"/>
    </radialGradient>
    <radialGradient id="g" cx="0" cy="0" r="1" gradientTransform="rotate(124.792 61.275 59.4) scale(154.302 137.863)" gradientUnits="userSpaceOnUse">
      <stop stop-color="#fff"/>
      <stop offset="1" stop-color="#EFC0FF"/>
    </radialGradient>
    <radialGradient id="i" cx="0" cy="0" r="1" gradientTransform="matrix(-54.16664 82.14803 -80.96254 -53.38496 145.069 39.85)" gradientUnits="userSpaceOnUse">
      <stop stop-color="#2A54DE"/>
      <stop offset="1" stop-color="#061B5E"/>
    </radialGradient>
    <radialGradient id="j" cx="0" cy="0" r="1" gradientTransform="rotate(128.794 57.838 59.53) scale(125.016 122.228)" gradientUnits="userSpaceOnUse">
      <stop stop-color="#573AA7"/>
      <stop offset=".841" stop-color="#090515"/>
    </radialGradient>
    <radialGradient id="k" cx="0" cy="0" r="1" gradientTransform="rotate(128.794 57.838 59.53) scale(125.016 122.228)" gradientUnits="userSpaceOnUse">
      <stop stop-color="#434343"/>
      <stop offset=".841"/>
    </radialGradient>
    <linearGradient id="d" x1="145.644" x2="49.244" y1="10.606" y2="188.444" gradientUnits="userSpaceOnUse">
      <stop stop-color="#32F273"/>
      <stop offset="1" stop-color="#05963F"/>
    </linearGradient>
    <linearGradient id="h" x1="134.106" x2="61.306" y1="50.062" y2="149.9" gradientUnits="userSpaceOnUse">
      <stop stop-color="#7DFBB6"/>
      <stop offset="1" stop-color="#43AB57"/>
    </linearGradient>
    <clipPath id="a">
      <path fill="#fff" d="M0 0h200v200H0z"/>
    </clipPath>
  </defs>
</svg>
