<svg xmlns="http://www.w3.org/2000/svg" width="200" height="200" fill="currentColor" viewBox="0 0 200 200">
  <g clip-path="url(#a)">
    <path fill="url(#b)" d="M200 100C200 44.772 155.228 0 100 0S0 44.772 0 100s44.772 100 100 100 100-44.772 100-100Z"/>
    <path fill="url(#c)" fill-rule="evenodd" d="M125.42 103.274c11.1-3.88 21.523-10.469 29.509-17.643.316-.27.497-.677.542-1.128a1.59 1.59 0 0 0-.361-1.173c-.271-.361-.632-.587-1.038-.632-.406-.09-.857 0-1.218.226-7.987 4.783-16.83 8.573-25.9 10.874.271-3.43.226-6.904-.225-10.378-1.038-7.67-3.61-15.296-9.025-21.117-6.001-6.633-15.837-9.114-24.32-6.452-10.198 3.023-18.68 12.228-18.996 23.192-.406 14.44 13.04 26.171 26.712 27.525 1.579.18 3.203.27 4.828.27-2.527 5.505-5.776 10.784-9.295 15.657-10.74-17.732-26.893-32.261-46.024-40.203a76.257 76.257 0 0 0-13.852-4.467c-1.625-.316-3.159-.632-4.828-.812-.406-.045-.813.09-1.173.316a1.54 1.54 0 0 0-.677.993c-.136.406-.09.812.09 1.173.18.36.496.676.857.812a115.025 115.025 0 0 1 29.104 20.485 111.707 111.707 0 0 1 25.719 37.812c2.572 6.136 10.648 8.392 16.063 4.422.812-.632 1.579-1.309 2.256-2.076a99.146 99.146 0 0 0 12.724-17.191c3.7-6.227 6.723-13.221 8.528-20.485Zm-24.004 28.11.135.271-.135-.271Zm8.257-35.42c.857-3.61 1.263-7.31 1.128-11.01-.361-6.632-2.933-16.018-10.83-16.153-6.813-.09-13.04 6.362-11.1 13.175 2.889 9.972 11.507 13.582 20.802 13.988Z" clip-rule="evenodd"/>
    <path fill="url(#d)" d="M160.164 78.863c.676 3.249 1.759 5.325 4.918 4.873 2.707-.36 4.918-3.068 4.918-5.775 0-2.707-2.211-4.422-4.918-4.016-3.384.542-5.46 2.256-4.918 4.918Z"/>
  </g>
  <defs>
    <linearGradient id="b" x1="200" x2="0" y1="200" y2="0" gradientUnits="userSpaceOnUse">
      <stop stop-color="#EEFED9"/>
      <stop offset="1" stop-color="#C8F1F3"/>
    </linearGradient>
    <linearGradient id="c" x1="30.541" x2="170.417" y1="53.957" y2="144.2" gradientUnits="userSpaceOnUse">
      <stop stop-color="#44BCC3"/>
      <stop offset="1" stop-color="#236D66"/>
    </linearGradient>
    <linearGradient id="d" x1="58.777" x2="198.653" y1="10.192" y2="100.434" gradientUnits="userSpaceOnUse">
      <stop stop-color="#44BCC3"/>
      <stop offset="1" stop-color="#236D66"/>
    </linearGradient>
    <clipPath id="a">
      <path fill="#fff" d="M0 0h200v200H0z"/>
    </clipPath>
  </defs>
</svg>
