<svg width="200" height="200" viewBox="0 0 200 200" fill="none" xmlns="http://www.w3.org/2000/svg">
<rect width="200" height="200" rx="100" fill="url(#paint0_linear_161_94)"/>
<path fill-rule="evenodd" clip-rule="evenodd" d="M125.42 103.274C136.52 99.3933 146.943 92.8056 154.929 85.6313C155.245 85.3606 155.426 84.9545 155.471 84.5033C155.516 84.0972 155.381 83.646 155.11 83.3301C154.839 82.9692 154.478 82.7435 154.072 82.6984C153.666 82.6082 153.215 82.6984 152.854 82.924C144.867 87.7069 136.024 91.4971 126.954 93.7983C127.225 90.3691 127.18 86.8947 126.729 83.4204C125.691 75.7497 123.119 68.1242 117.704 62.3036C111.703 55.6707 101.867 53.1891 93.384 55.8512C83.1865 58.8744 74.7037 68.0791 74.3879 79.0436C73.9818 93.4824 87.4279 105.214 101.1 106.568C102.679 106.748 104.303 106.838 105.928 106.838C103.401 112.343 100.152 117.622 96.6327 122.495C85.8938 104.763 69.7404 90.2337 50.6089 82.2923C46.0968 80.3521 41.4944 78.8631 36.7567 77.8253C35.1323 77.5095 33.5982 77.1936 31.9287 77.0131C31.5226 76.968 31.1165 77.1034 30.7555 77.329C30.3946 77.5546 30.1689 77.9156 30.0787 78.3217C29.9433 78.7277 29.9885 79.1338 30.1689 79.4948C30.3494 79.8558 30.6653 80.1716 31.0263 80.307C41.72 85.5862 51.5565 92.4898 60.1295 100.792C71.2294 111.486 79.9829 124.391 85.8487 138.604C88.4206 144.74 96.4973 146.996 101.912 143.026C102.724 142.394 103.491 141.717 104.168 140.95C108.996 135.716 113.282 129.94 116.892 123.759C120.592 117.532 123.615 110.538 125.42 103.274ZM101.416 131.384L101.551 131.655C101.506 131.565 101.461 131.475 101.416 131.384ZM109.673 95.9641C110.53 92.3544 110.936 88.6544 110.801 84.9545C110.44 78.3217 107.868 68.9364 99.9717 68.801C93.1584 68.7108 86.9316 75.1632 88.8718 81.9765C91.7596 91.9483 100.378 95.558 109.673 95.9641Z" fill="url(#paint1_linear_161_94)"/>
<path d="M160.164 78.8631C160.84 82.1118 161.923 84.1874 165.082 83.7362C167.789 83.3752 170 80.668 170 77.9607C170 75.2534 167.789 73.5388 165.082 73.9449C161.698 74.4863 159.622 76.2009 160.164 78.8631Z" fill="url(#paint2_linear_161_94)"/>
<defs>
<linearGradient id="paint0_linear_161_94" x1="200" y1="200" x2="0" y2="0" gradientUnits="userSpaceOnUse">
<stop stop-color="#EEFED9"/>
<stop offset="1" stop-color="#C8F1F3"/>
</linearGradient>
<linearGradient id="paint1_linear_161_94" x1="30.5409" y1="53.9571" x2="170.417" y2="144.2" gradientUnits="userSpaceOnUse">
<stop stop-color="#44BCC3"/>
<stop offset="1" stop-color="#236D66"/>
</linearGradient>
<linearGradient id="paint2_linear_161_94" x1="58.7768" y1="10.1917" x2="198.653" y2="100.434" gradientUnits="userSpaceOnUse">
<stop stop-color="#44BCC3"/>
<stop offset="1" stop-color="#236D66"/>
</linearGradient>
</defs>
</svg>
