<svg xmlns="http://www.w3.org/2000/svg" width="200" height="200" fill="currentColor" viewBox="0 0 200 200">
  <g clip-path="url(#a)">
    <path fill="#2C3851" d="M100 200.017c55.228 0 100-44.772 100-100 0-55.229-44.772-100-100-100S0 44.788 0 100.017c0 55.228 44.772 100 100 100Z"/>
    <path fill="#fff" d="M100 158.04c-9.353 0-18.147-3.644-24.76-10.257l-25.873-25.87c-13.654-13.653-13.654-35.867 0-49.516L62.303 59.46c6.614-6.614 15.407-10.257 24.76-10.257h25.874c9.353 0 18.146 3.643 24.76 10.257l12.936 12.937c13.65 13.653 13.65 35.866 0 49.516l-25.873 25.87c-6.613 6.617-15.407 10.257-24.76 10.257ZM87.063 63.1a20.98 20.98 0 0 0-14.933 6.187L59.193 82.222c-8.233 8.234-8.233 21.63 0 29.867l25.874 25.87A20.98 20.98 0 0 0 100 144.146a20.98 20.98 0 0 0 14.933-6.186l25.874-25.87c8.233-8.234 8.233-21.63 0-29.867L127.87 69.287a20.98 20.98 0 0 0-14.933-6.187H87.063Z"/>
    <path fill="#fff" d="M100 139.426a19.982 19.982 0 0 1-14.223-5.893l-21.54-21.54c-3.794-3.793-5.884-8.843-5.884-14.22 0-5.377 2.09-10.427 5.884-14.22l10.77-10.77c3.8-3.8 8.85-5.89 14.22-5.89h21.54a19.98 19.98 0 0 1 14.22 5.89l10.77 10.77c3.793 3.793 5.883 8.847 5.883 14.22 0 5.373-2.09 10.427-5.883 14.22l-21.54 21.54A19.958 19.958 0 0 1 100 139.426ZM89.23 80.65a6.229 6.229 0 0 0-4.493 1.86l-10.77 10.77a6.313 6.313 0 0 0-1.857 4.493c0 1.7.66 3.297 1.853 4.493l21.54 21.54c2.437 2.437 6.554 2.437 8.987 0l21.54-21.543a6.312 6.312 0 0 0 1.857-4.493c0-1.704-.66-3.297-1.857-4.494l-10.77-10.77a6.229 6.229 0 0 0-4.493-1.86H89.23v.004Z"/>
    <path fill="#fff" d="m100 122.347-23.59-23.59 14.8-14.8h17.583l14.8 14.8L100 122.347Z"/>
  </g>
  <defs>
    <clipPath id="a">
      <path fill="#fff" d="M0 0h200v200H0z"/>
    </clipPath>
  </defs>
</svg>
