<svg xmlns="http://www.w3.org/2000/svg" width="200" height="200" fill="currentColor" viewBox="0 0 200 200">
	<g clip-path="url(#a)">
		<path fill="url(#b)" d="M100 200c-26.493-.029-51.923-10.546-70.666-29.288A100.184 100.184 0 0 1 0 100.014 100.124 100.124 0 0 1 100 0a100.124 100.124 0 0 1 100 100.014 100.133 100.133 0 0 1-29.334 70.698C151.923 189.454 126.493 200 100 200Zm0-192.291A92.357 92.357 0 0 0 34.788 34.76a92.367 92.367 0 0 0-27.096 65.253c.029 24.474 9.76 47.973 27.067 65.282A92.225 92.225 0 0 0 100 192.32a92.275 92.275 0 0 0 65.241-27.024 92.557 92.557 0 0 0 27.067-65.282c-.029-24.473-9.788-47.943-27.067-65.253C147.905 17.452 124.455 7.71 100 7.71Z"/>
		<path fill="url(#c)" d="M112.629 184.181a82.875 82.875 0 0 1-58.524-24.273 83.012 83.012 0 0 1-24.311-58.576 83.013 83.013 0 0 1 24.31-58.575c15.529-15.533 36.568-24.273 58.525-24.273a82.872 82.872 0 0 1 58.525 24.273 83.015 83.015 0 0 1 24.311 58.575 83.014 83.014 0 0 1-24.311 58.576 82.702 82.702 0 0 1-58.525 24.273Zm0-159.736a76.892 76.892 0 0 0-54.305 22.524c-14.409 14.415-22.503 33.96-22.56 54.335a77.034 77.034 0 0 0 22.56 54.334 76.892 76.892 0 0 0 54.305 22.525 76.894 76.894 0 0 0 54.306-22.525 77.038 77.038 0 0 0 22.56-54.334 77.04 77.04 0 0 0-22.56-54.335 77.014 77.014 0 0 0-54.306-22.524Z"/>
		<path fill="url(#d)" d="M125.287 168.362a65.597 65.597 0 0 1-46.412-19.257c-12.314-12.323-19.26-29.03-19.26-46.454a65.866 65.866 0 0 1 19.26-46.454c12.313-12.323 29.018-19.229 46.412-19.258a65.592 65.592 0 0 1 46.412 19.258 65.866 65.866 0 0 1 19.26 46.454 65.866 65.866 0 0 1-19.26 46.454c-12.313 12.322-29.018 19.257-46.412 19.257Zm0-127.095a61.357 61.357 0 0 0-43.398 17.997 61.603 61.603 0 0 0-18.025 43.416 61.601 61.601 0 0 0 18.025 43.415 61.354 61.354 0 0 0 43.398 17.997 61.354 61.354 0 0 0 43.399-17.997 61.605 61.605 0 0 0 18.025-43.415c-.029-16.306-6.516-31.925-18.025-43.416-11.539-11.52-27.124-17.997-43.399-17.997Z"/>
		<path fill="url(#e)" d="M137.916 152.543c-12.858 0-25.201-5.129-34.299-14.214a48.678 48.678 0 0 1-14.237-34.303 48.745 48.745 0 0 1 14.237-34.331c9.098-9.113 21.441-14.214 34.299-14.243a48.488 48.488 0 0 1 34.3 14.243 48.692 48.692 0 0 1 14.236 34.331c-.028 12.868-5.137 25.219-14.236 34.303-9.099 9.085-21.441 14.214-34.3 14.214Zm0-94.512c-12.198 0-23.88 4.872-32.491 13.47a46.17 46.17 0 0 0-13.49 32.497 46.12 46.12 0 0 0 13.49 32.497 45.892 45.892 0 0 0 32.491 13.469 45.993 45.993 0 0 0 32.492-13.469 46.175 46.175 0 0 0 13.49-32.497c-.029-12.208-4.88-23.9-13.49-32.498a45.893 45.893 0 0 0-32.492-13.469Z"/>
	</g>
	<defs>
		<linearGradient id="b" x1="205.587" x2="-14.714" y1="171.225" y2="22.169" gradientUnits="userSpaceOnUse">
			<stop stop-color="#0F0C48"/>
			<stop offset="1" stop-color="#262769"/>
		</linearGradient>
		<linearGradient id="c" x1="200.121" x2="17.603" y1="160.332" y2="36.848" gradientUnits="userSpaceOnUse">
			<stop stop-color="#0F0C48"/>
			<stop offset="1" stop-color="#262769"/>
		</linearGradient>
		<linearGradient id="d" x1="194.645" x2="49.919" y1="149.461" y2="51.545" gradientUnits="userSpaceOnUse">
			<stop stop-color="#0F0C48"/>
			<stop offset="1" stop-color="#262769"/>
		</linearGradient>
		<linearGradient id="e" x1="189.176" x2="82.234" y1="138.572" y2="66.228" gradientUnits="userSpaceOnUse">
			<stop stop-color="#0F0C48"/>
			<stop offset="1" stop-color="#262769"/>
		</linearGradient>
		<clipPath id="a">
			<path fill="#fff" d="M0 0h200v200H0z"/>
		</clipPath>
	</defs>
</svg>
