<svg xmlns="http://www.w3.org/2000/svg" width="200" height="200" fill="currentColor" viewBox="0 0 200 200">
	<path fill="url(#a)" d="M100.04 197.84c54.08 0 97.92-43.84 97.92-97.92S154.12 2 100.04 2 2.12 45.84 2.12 99.92s43.84 97.92 97.92 97.92Z"/>
	<path fill="#fff" d="M104.92 62.52h-8.8v79.56h8.8V62.52Z"/>
	<path fill="#fff" d="M139.44 78.32 128.04 82c2.2-5.56 2.44-11.68 2.44-12.44v-.12c0-17-13.84-30.84-30.84-30.84S68.8 52.44 68.8 69.44c0 10.24 5.04 19.76 13.52 25.52l9.8 7.2V91.24l-4.68-3.44-.12-.08a22.084 22.084 0 0 1-9.72-18.28c0-12.16 9.88-22.04 22.04-22.04 12.12 0 22 9.84 22.04 22-.08 1.68-.52 6.16-1.92 9.6l-3.6-12.88-8.48 2.36 7.56 26.92 26.88-8.68-2.68-8.4Zm-24.88 29.4-5.64-4.16v10.92l.48.36.04.04c8.16 5.84 12.28 12.68 12.28 20.32 0 12.16-9.88 22.04-22.04 22.04-12.16 0-22.04-9.88-22.04-22.04 0-4.04 1.64-8.48 3.88-12.08l2 14.96 8.72-1.16-3.68-27.6-28.36 5.32 1.64 8.64 10.28-1.92a30.522 30.522 0 0 0-3.28 13.84c0 17 13.84 30.84 30.84 30.84s30.84-13.84 30.84-30.84c-.04-10.48-5.56-20-15.96-27.48Z"/>
	<defs>
		<linearGradient id="a" x1="15.224" x2="184.836" y1="50.947" y2="148.872" gradientUnits="userSpaceOnUse">
			<stop stop-color="#0077FD"/>
			<stop offset="1" stop-color="#095EB4"/>
		</linearGradient>
	</defs>
</svg>
