<svg xmlns="http://www.w3.org/2000/svg" width="200" height="200" fill="currentColor" viewBox="0 0 200 200">
	<g clip-path="url(#a)">
		<path fill="url(#b)" d="M100 200c55.228 0 100-44.772 100-100S155.228 0 100 0 0 44.772 0 100s44.772 100 100 100Z"/>
		<path fill="#fff" d="M130.48 144.8c-7.92 0-14.32-6.4-14.32-14.32v-26.4c13.04-1.04 22.48-3.76 28.64-8.32v34.72c0 7.92-6.4 14.32-14.32 14.32Zm-14.32-75.28c0-7.92 6.4-14.32 14.32-14.32s14.32 6.4 14.32 14.32v8.64c-.16 3.04-.8 6.16-3.44 8.88-3.12 3.12-10.08 6.72-25.12 8V69.52h-.08Zm-32.32 60.96c0 7.92-6.4 14.32-14.32 14.32s-14.32-6.4-14.32-14.32v-8c.16-2.96.88-6.16 3.76-9.04 3.28-3.28 10.16-6.96 24.88-8.4v25.44ZM69.52 55.2c7.92 0 14.32 6.4 14.32 14.32V96c-12.96 1.12-22.4 4.08-28.64 8.88V69.52c0-7.92 6.4-14.32 14.32-14.32Zm84.16 19.44v-5.12c0-12.88-10.4-23.28-23.28-23.28-12.8 0-23.28 10.48-23.28 23.28v25.92c-2.24.08-12.08 0-14.4.08v-26c0-12.88-10.4-23.28-23.28-23.28-12.8 0-23.28 10.48-23.28 23.28V122c-.08 1.44-.08 2.72 0 3.76v4.8c0 12.88 10.4 23.28 23.28 23.28 12.8 0 23.28-10.48 23.28-23.28v-25.92c2.32-.08 12.08 0 14.4-.08v26c0 12.88 10.4 23.28 23.28 23.28 12.8 0 23.28-10.48 23.28-23.28V78.8c.08-1.52.08-2.88 0-4.08v-.08Z"/>
	</g>
	<defs>
		<linearGradient id="b" x1="13.921" x2="187.921" y1="185.841" y2="12.321" gradientUnits="userSpaceOnUse">
			<stop stop-color="#00AEE9"/>
			<stop offset="1" stop-color="#69FABD"/>
		</linearGradient>
		<clipPath id="a">
			<path fill="#fff" d="M0 0h200v200H0z"/>
		</clipPath>
	</defs>
</svg>
