<svg xmlns="http://www.w3.org/2000/svg" width="200" height="200" fill="none" viewBox="0 0 200 200">
  <path fill="#000" d="m111.622 84.209 61.049-61.05L149.512 0l-49.47 49.469L50.573 0l-23.16 23.16 61.05 61.049a16.323 16.323 0 0 0 11.579 4.796c4.191 0 8.383-1.597 11.58-4.796ZM200 149.426l-49.469-49.468L200 50.488l-23.16-23.16-61.049 61.05c-6.395 6.395-6.395 16.764 0 23.16l61.049 61.049L200 149.426Zm-100.042 1.105L149.427 200l23.159-23.16-61.049-61.049c-6.396-6.395-16.764-6.395-23.16 0L27.33 176.84 50.488 200l49.47-49.469Zm-15.749-38.909a16.376 16.376 0 0 0 0-23.159l-61.05-61.05L0 50.573l49.47 49.469L0 149.512l23.16 23.16 61.05-61.05Z"/>
</svg>
