<svg xmlns="http://www.w3.org/2000/svg" width="200" height="200" fill="none" viewBox="0 0 200 200">
  <g clip-path="url(#a)">
    <circle cx="100" cy="100" r="100" fill="#86785F"/>
    <circle cx="100" cy="100" r="95" fill="#fff"/>
    <path fill="#86785F" d="M10 100a90.005 90.005 0 0 0 26.36 63.64 90.004 90.004 0 0 0 127.28 0A90.015 90.015 0 0 0 190 100 89.999 89.999 0 0 0 65.558 16.85 90.001 90.001 0 0 0 10 100Z"/>
    <path fill="#fff" d="m126.884 100.422-1.152-.306c9.843 2.435 19.969-3.347 22.616-13.12a18.294 18.294 0 0 0-1.853-14.084 18.56 18.56 0 0 0-4.832-5.44 18.787 18.787 0 0 0-6.575-3.19l-8.316-2.203 4.942-18.24-11.857-3.142-4.942 18.24-9.508-2.519 4.952-18.271L98.483 35l-4.951 18.272-21.764-5.767-3.463 12.783 15.15 4.015-15.84 58.464-15.152-4.015L49 131.535l21.764 5.767-5.12 18.898 11.875 3.146 5.12-18.897 9.508 2.518-5.118 18.891L98.886 165l5.118-18.891 9.8 2.597c13.503 3.579 27.39-4.349 31.008-17.704 3.619-13.355-4.425-27.002-17.928-30.58Zm-23.888-31.376 8.563 2.27 5.68 1.505c2.305.61 4.188 1.808 5.669 3.51a11.38 11.38 0 0 1 2.65 10.738 11.533 11.533 0 0 1-7.724 7.988c-2.142.742-4.378.848-6.684.238l-5.681-1.506-8.563-2.27 6.09-22.473Zm5.155 61.757c-.27.016-.435-.027-.682-.093l-11.198-2.968-8.564-2.269 6.09-22.474 8.563 2.269 11.199 2.968c.247.066.411.109.638.256 5.861 1.815 9.292 8.047 7.68 13.992-1.611 5.945-7.733 9.646-13.726 8.319Z"/>
  </g>
  <defs>
    <clipPath id="a">
      <path fill="#fff" d="M0 0h200v200H0z"/>
    </clipPath>
  </defs>
</svg>
