<svg width="33" height="33" viewBox="0 0 33 33" fill="none" xmlns="http://www.w3.org/2000/svg">
<g clip-path="url(#clip0_4_166)">
<path d="M25.5312 0.5H7.46875C3.62002 0.5 0.5 3.62002 0.5 7.46875V25.5312C0.5 29.38 3.62002 32.5 7.46875 32.5H25.5312C29.38 32.5 32.5 29.38 32.5 25.5312V7.46875C32.5 3.62002 29.38 0.5 25.5312 0.5Z" fill="#00F0FF"/>
<path d="M15.2677 13.1137H21.2426L27.3549 19.187C27.7525 19.582 27.7546 20.2246 27.359 20.6217L19.5203 28.5H13.3653L15.2261 26.691L22.0581 19.9021L15.3128 13.1131" fill="#1B1B1B"/>
<path d="M17.7234 19.8869H11.7485L5.63616 13.8135C5.23854 13.4185 5.23651 12.7759 5.63209 12.3788L13.4708 4.5H19.6258L17.765 6.30906L10.933 13.0979L17.6783 19.8869" fill="#1B1B1B"/>
</g>
<defs>
<clipPath id="clip0_4_166">
<rect width="32" height="32" fill="white" transform="translate(0.5 0.5)"/>
</clipPath>
</defs>
</svg>
