<svg xmlns="http://www.w3.org/2000/svg" width="200" height="200" fill="currentColor" viewBox="0 0 200 200">
  <path fill="#354228" d="M100 200c55.228 0 100-44.772 100-100S155.228 0 100 0 0 44.772 0 100s44.772 100 100 100Z"/>
  <path fill="#DDF7C4" d="M45.712 154.327a14.03 14.03 0 0 1-3.025-4.863 14.34 14.34 0 0 1-.803-5.666 13.8 13.8 0 0 1 1.53-5.513c.881-1.723 2.145-3.216 3.638-4.441 4.441-3.177 7.733-3.331 11.524-4.249 6.432-1.57 11.983-6.394 10.988-13.515-1.647-11.677-16.233-6.968-16.233-16.003s14.548-4.326 16.233-16.003c.995-7.083-4.518-11.945-10.988-13.515-3.79-.918-7.083-1.072-11.486-4.25-1.493-1.224-2.756-2.717-3.637-4.44a13.979 13.979 0 0 1-1.531-5.552 14.53 14.53 0 0 1 .804-5.704 13.357 13.357 0 0 1 3.024-4.862 14.027 14.027 0 0 1 4.862-3.025c1.8-.65 3.752-.919 5.667-.804 1.914.115 3.79.651 5.513 1.532 1.722.88 3.216 2.144 4.44 3.637 3.178 4.44 3.37 7.733 4.25 11.523 1.57 6.432 6.394 11.984 13.515 10.988C95.674 67.956 90.965 53.37 100 53.37s4.326 14.587 16.003 16.233c7.044.996 11.907-4.517 13.515-10.988.918-3.79 1.071-7.082 4.249-11.523 1.225-1.493 2.718-2.757 4.441-3.637 1.723-.88 3.599-1.417 5.513-1.532a14.246 14.246 0 0 1 5.666.804c1.8.651 3.484 1.685 4.863 3.025a13.7 13.7 0 0 1 3.024 4.862c.651 1.838.919 3.752.804 5.704a13.815 13.815 0 0 1-1.531 5.514c-.881 1.722-2.144 3.215-3.637 4.44-4.441 3.178-7.734 3.37-11.486 4.25-6.47 1.531-11.983 6.394-10.988 13.515 1.647 11.677 16.233 6.93 16.233 16.003s-14.548 4.326-16.233 16.003c-.995 7.083 4.518 11.906 10.988 13.476 3.752.919 7.083 1.072 11.486 4.25 1.493 1.225 2.756 2.718 3.637 4.441.88 1.723 1.416 3.598 1.531 5.513a14.523 14.523 0 0 1-.804 5.704 13.366 13.366 0 0 1-3.024 4.862 13.692 13.692 0 0 1-4.863 3.025 14.336 14.336 0 0 1-5.666.804 13.803 13.803 0 0 1-5.513-1.532 14.485 14.485 0 0 1-4.441-3.637c-3.178-4.441-3.331-7.733-4.249-11.523-1.57-6.432-6.394-11.984-13.515-10.988-11.677 1.646-6.968 16.233-16.003 16.233s-4.326-14.587-16.003-16.233c-7.045-.996-11.907 4.517-13.515 10.988-.918 3.79-1.072 7.082-4.25 11.485a13.565 13.565 0 0 1-4.44 3.637c-1.723.881-3.6 1.417-5.513 1.532a14.276 14.276 0 0 1-5.667-.804 13.36 13.36 0 0 1-4.862-3.025"/>
</svg>
