<svg xmlns="http://www.w3.org/2000/svg" width="200" height="200" fill="currentColor" viewBox="0 0 200 200">
  <g clip-path="url(#a)">
    <path fill="#0B0609" d="M100 200c55.228 0 100-44.772 100-100S155.228 0 100 0 0 44.772 0 100s44.772 100 100 100Z"/>
    <path fill="#F46825" d="M95.381 88.303c-1.163 1.06-2.288 2.165-3.51 3.151-.386.311-1.03.421-1.557.422-16.186.02-32.372.006-48.557.037-1.167.002-1.585-.392-1.46-1.51.056-.505-.116-1.067.048-1.518.15-.409.59-.73.953-1.032.122-.1.397-.02.602-.02l52.244-.002h.907l.33.472Zm.326-14.088H94.09c-17.212-.003-34.425-.005-51.637-.01-1.92 0-2.952-1.692-2.058-3.413.113-.217.453-.397.714-.442.449-.076.919-.037 1.38-.037 15.675-.005 31.35.027 47.026-.056 2.005-.01 3.558.4 4.805 1.999.426.546 1.108.893 1.673 1.331l-.286.628Zm.429-9.558c-1.31 1.24-2.34 2.3-3.474 3.236-.382.316-1.028.442-1.553.442-16.437.019-32.875-.001-49.312.031-1.285.002-1.663-.51-1.488-1.64.142-.911-.617-2.277 1.302-2.275 17.871.021 35.743.01 53.614.014.146 0 .292.059.911.192ZM95.4 50.758c-.78.036-1.272.079-1.764.079-17.061.002-34.122.004-51.183-.017-.677-.001-1.862-.09-1.938-.372-.256-.946-.159-2.002-.089-3.01.013-.175.535-.394.847-.45.448-.08.919-.034 1.38-.035 15.421-.002 30.844.103 46.263-.093 3.205-.041 4.55 1.857 6.485 3.898Zm12.642 37.072h1.509c15.162.002 30.324-.001 45.486.021.615.001 1.721.172 1.758.4.176 1.081.1 2.213-.002 3.316-.013.14-.703.31-1.079.31-14.394.016-28.788.019-43.182-.007-.461-.001-1.021-.208-1.364-.512-1.141-1.013-2.205-2.113-3.298-3.18l.172-.347ZM89.58 93.665c-2.002 2.283-3.56 4.048-6.856 3.99-13.416-.233-26.839-.096-40.26-.098-1.922 0-2.963-1.707-2.067-3.424.113-.216.454-.388.716-.438.396-.076.816-.028 1.226-.028l45.332-.002h1.908Zm.013-48.673h-1.748c-15.221-.001-30.442.003-45.663-.023-.602-.001-1.668-.199-1.72-.462-.194-.972-.145-2.028.036-3.011.04-.224.97-.402 1.492-.405 5.637-.032 11.274-.027 16.912-.027 7.892 0 15.792.2 23.673-.087 3.32-.12 5.007 1.612 7.018 4.015Zm24.291 48.673h1.347c13.314 0 26.627.02 39.941-.027 1.379-.004 1.921.323 1.856 1.778-.058 1.304-.042 2.19-1.828 2.179-12.136-.07-24.272-.019-36.407-.08-.813-.004-1.716-.484-2.412-.975-.992-.699-1.83-1.614-2.734-2.436l.237-.44Zm11.455-7.606c-6.395 0-12.309.017-18.222-.042-.347-.004-.938-.578-.991-.947-.421-2.919-.252-3.077 2.721-3.077 3.475 0 6.951.065 10.422-.031 1.403-.039 2.435.34 3.332 1.408.715.852 1.586 1.572 2.738 2.689Zm-44.056.004c.748-1.317 1.39-2.537 2.137-3.69.163-.251.7-.364 1.066-.366 3.779-.025 7.558.005 11.337-.026.949-.008 1.296.398 1.24 1.282-.016.254.001.51.001.764-.001 1.354-.669 2.033-2.003 2.035-4.593.002-9.186 0-13.778 0Zm-33.986-.003c-1.944 0-3.89-.025-5.833.011-.862.016-1.179-.32-1.17-1.174.038-3.49-.265-2.862 2.81-2.895 3.224-.036 6.449.029 9.672-.035 1.153-.023 1.6.378 1.475 1.503-.05.454-.04.92-.004 1.377.074.94-.356 1.254-1.27 1.233-1.892-.045-3.786-.014-5.68-.014v-.006Zm34.735-9.913h5.49c2.706 0 5.413.037 8.118-.013 1.056-.02 1.432.355 1.449 1.41.04 2.448.085 2.498-2.343 2.555-3.367.08-6.737.059-10.105.119-.945.016-1.297-.304-1.449-1.289-.142-.926-.724-1.785-1.16-2.782Zm-34.839 3.935c-1.837 0-3.674-.032-5.51.012-1.072.026-1.491-.422-1.387-1.464.046-.454-.129-.979.045-1.357.201-.436.671-1.056 1.035-1.064 3.93-.08 7.862-.083 11.792-.01.364.007.774.651 1.049 1.073.14.215.028.595.028.9 0 1.353-.665 2.03-1.997 2.034-1.685.003-3.37 0-5.055 0v-.124Zm.107-23.436c-1.888 0-3.778-.035-5.666.015-.977.026-1.442-.297-1.337-1.315.046-.453.033-.917.003-1.373-.053-.815.263-1.242 1.126-1.249 3.88-.033 7.759-.074 11.638-.131.834-.012 1.238.31 1.183 1.172a9.256 9.256 0 0 0 .005 1.526c.112 1.099-.406 1.414-1.438 1.382-1.836-.056-3.675-.016-5.513-.016v-.01Zm33.965-3.932h3.746c3.43.001 6.862.074 10.289-.025 1.646-.048 1.801.767 1.796 2.072-.005 1.257-.156 1.982-1.735 1.929-3.477-.117-6.961-.054-10.442-.021-.97.009-1.545-.109-1.8-1.29-.183-.852-1.047-1.557-1.854-2.665Zm.795 9.85c.459-1.16.78-2.135 1.235-3.043.181-.363.654-.82 1-.825 3.93-.056 7.86-.054 11.79.01.326.005.86.53.93.884.494 2.505.087 2.97-2.425 2.972-3.726.003-7.453.001-11.179.002h-1.35Zm31.173 13.592c1.685 0 3.377.095 5.053-.028 1.475-.109 1.941.48 1.748 1.838-.043.3-.027.611-.004.915.063.851-.345 1.203-1.174 1.201-3.881-.009-7.761-.008-11.642-.002-.86.002-1.179-.438-1.141-1.247.024-.508.028-1.02-.002-1.527-.05-.858.346-1.174 1.187-1.161 1.991.03 3.983.01 5.975.01Zm-.196-1.946c-1.844 0-3.69-.033-5.533.014-1.041.027-1.443-.343-1.454-1.42-.025-2.497-.073-2.498 2.487-2.497 3.33.001 6.663.071 9.991-.023 1.461-.042 1.583.684 1.506 1.79-.071 1.014.364 2.25-1.464 2.152-1.839-.099-3.688-.022-5.533-.022v.007Zm-.057-29.224c-1.844.002-3.688-.032-5.531.016-.959.025-1.465-.258-1.369-1.295.047-.507-.133-1.084.055-1.514.194-.443.705-1.055 1.087-1.063 3.891-.075 7.784-.073 11.674.007.381.008.909.617 1.079 1.057.188.49.013 1.11.052 1.669.064.899-.394 1.142-1.21 1.13-1.945-.029-3.891-.01-5.837-.007Zm.037 23.361c-1.895 0-3.79-.024-5.685.01-.915.017-1.436-.36-1.232-1.257.204-.9-.819-2.513.922-2.58 4.04-.154 8.09-.063 12.135.005.294.005.723.583.829.966.144.523.007 1.116.045 1.675.059.864-.332 1.19-1.175 1.178-1.946-.026-3.893-.008-5.839-.008v.01Zm.134-5.791c-1.895 0-3.793-.051-5.686.015-1.853.065-1.307-1.256-1.391-2.225-.09-1.029.041-1.748 1.426-1.717 3.738.082 7.479.056 11.218.02 1.008-.009 1.32.361 1.328 1.35.02 2.543.063 2.545-2.438 2.55-1.486.004-2.971 0-4.457 0v.008Zm-65.9-3.907c1.844 0 3.69.053 5.531-.02 1.163-.046 1.496.408 1.487 1.52-.02 2.416.03 2.419-2.44 2.417-3.329-.003-6.66-.09-9.986.015-1.911.061-1.462-1.166-1.553-2.233-.104-1.203.229-1.789 1.584-1.712 1.787.1 3.584.024 5.377.024v-.011Zm65.887-1.999c-1.939 0-3.879-.03-5.818.012-.927.02-1.318-.339-1.25-1.255a9.83 9.83 0 0 0 .003-1.373c-.057-.89.307-1.317 1.233-1.313 3.828.017 7.656.018 11.484.004.912-.004 1.317.377 1.239 1.292-.034.404-.043.817.002 1.22.118 1.05-.295 1.464-1.381 1.425-1.835-.066-3.674-.018-5.512-.018v.005Zm-.176-5.813c-1.843 0-3.686-.034-5.528.013-.967.025-1.454-.287-1.36-1.31.042-.456.032-.92.005-1.377-.049-.833.303-1.213 1.161-1.209 3.889.017 7.78-.02 11.668.058.377.008.884.61 1.072 1.048.185.432.007 1.006.05 1.513.078.92-.298 1.288-1.234 1.268-1.944-.041-3.89-.012-5.834-.012v.008Zm48.891 75.057c-2.053 2.139-3.411 4.015-6.606 3.976-15.575-.191-31.154-.083-46.731-.082-2.13 0-3.051-1.344-2.216-3.295.112-.259.492-.485.791-.564.385-.101.814-.046 1.224-.046 17.165.002 34.331.007 51.497.011h2.041Zm-.143 9.645c-.716.044-1.162.095-1.608.095-17.305.007-34.61.014-51.915-.006-.612-.001-1.689-.175-1.752-.451-.221-.959-.123-2.001-.06-3.006.01-.153.46-.363.728-.4.503-.069 1.021-.036 1.533-.036 15.359 0 30.72.12 46.076-.09 3.272-.045 5.087 1.416 6.998 3.894Zm-66.722 14.212c-1.165 1.06-2.291 2.168-3.516 3.153-.385.309-1.035.405-1.564.406-14.335.02-28.67.029-43.005-.021-.722-.002-1.541-.413-2.14-.864-1.051-.792-1.967-1.763-2.94-2.659l.203-.352h52.63l.332.337Zm66.165-37.485h-1.918c-16.909.003-33.817.008-50.725.01-2.219 0-2.907-.944-2.221-3.141.094-.299.503-.618.825-.701.482-.124 1.016-.056 1.529-.056 15.268.001 30.539.114 45.805-.085 3.224-.042 4.746 1.698 6.705 3.973Zm-6.03-5.838H138.39c-10.085-.001-20.17.007-30.254-.021-.603-.002-1.671-.197-1.724-.461-.193-.968-.163-2.028.045-2.997.054-.253 1.059-.424 1.628-.427 7.576-.03 15.152-.025 22.729-.025 6.143-.001 12.287.066 18.428-.033 1.743-.028 3.038.427 4.146 1.751.574.685 1.376 1.182 2.074 1.764l-.339.449Zm-66.044 49.088c-1.113 1.037-2.183 2.126-3.362 3.081-.383.31-1.05.375-1.588.377-10.506.021-21.012.033-31.518-.021-.73-.004-1.55-.417-2.163-.865-1.018-.744-1.903-1.67-2.844-2.519l.256-.361H88.8l.279.308Zm-11.302-8.46c1.187-1.104 2.346-2.239 3.58-3.287.305-.26.852-.325 1.288-.327 4.203-.024 8.407.009 12.61-.034 1.06-.011 1.438.364 1.467 1.418.071 2.671.111 2.67-2.496 2.671H78.089l-.312-.441Zm-19.124.437c-5.78 0-11.56-.009-17.34.011-.837.003-1.252-.29-1.215-1.15.02-.458.038-.922-.009-1.376-.122-1.198.37-1.594 1.587-1.574 3.888.066 7.78.074 11.668-.006 1.293-.027 2.222.349 3.091 1.287.783.846 1.76 1.512 2.65 2.258l-.432.55Zm97.579 1.774c1.84.001 3.681.035 5.519-.013.945-.024 1.323.354 1.224 1.265-.011.1-.002.203-.001.305.02 1.666-.789 2.499-2.424 2.499-3.322.001-6.646-.052-9.966.028-1.248.03-1.68-.408-1.539-1.587a5.61 5.61 0 0 0 .001-1.222c-.105-1.034.398-1.316 1.36-1.291 1.941.05 3.884.015 5.826.016Zm-.364-1.773c-1.789 0-3.581-.041-5.369.016-1.011.033-1.493-.223-1.471-1.352.064-3.234-.194-2.702 2.68-2.725 3.273-.027 6.547.038 9.819-.025 1.165-.022 1.592.395 1.455 1.511a4.07 4.07 0 0 0 .001 1.069c.186 1.272-.429 1.575-1.592 1.526-1.838-.077-3.682-.021-5.523-.02Zm-42.842 5.83c-1.793.001-3.587-.048-5.378.019-1.073.04-1.517-.354-1.43-1.413.042-.508.027-1.022.006-1.532-.036-.867.393-1.148 1.223-1.143 3.79.024 7.581.026 11.372.001.854-.005 1.231.326 1.193 1.172-.022.509-.038 1.024.006 1.531.094 1.094-.422 1.415-1.46 1.381-1.842-.061-3.687-.017-5.532-.016Zm.16-9.898c1.837.002 3.676.041 5.511-.014 1.016-.03 1.394.391 1.327 1.354-.032.456-.04.918-.001 1.373.095 1.093-.432 1.385-1.46 1.373a371.58 371.58 0 0 0-10.87.006c-1.164.02-1.491-.418-1.497-1.514-.014-2.58-.058-2.58 2.55-2.58 1.48-.001 2.96 0 4.44.002Zm-.052-25.336c-1.845-.001-3.69-.033-5.534.012-.958.024-1.369-.288-1.407-1.303-.099-2.634-.024-2.761 2.672-2.767 3.177-.007 6.355.047 9.53-.026 1.297-.03 1.686.446 1.663 1.692-.043 2.39.014 2.392-2.313 2.394-1.537.001-3.074 0-4.611-.002Zm33.999-3.836c.562-.043 1-.104 1.438-.104 4.196-.004 8.394.083 12.587-.03 1.742-.047 1.844.768 1.857 2.133.013 1.34-.273 1.903-1.77 1.859-3.579-.104-7.163-.039-10.745-.016-.853.006-1.319-.106-1.559-1.157-.205-.899-1.075-1.648-1.808-2.685Zm.865 9.718c.389-1.162.66-2.2 1.1-3.161.155-.338.725-.687 1.109-.692 3.889-.046 7.78-.051 11.669.029.373.008.91.612 1.053 1.044.183.552.153 1.239.002 1.812-.099.372-.576.915-.887.917-4.702.032-9.404-.013-14.107-.046-.027 0-.053-.075.061.097Zm.062 13.622c4.492 0 9.096.016 13.7-.014.95-.006 1.298.37 1.223 1.278-.042.507.133 1.08-.05 1.514-.188.447-.685 1.079-1.059 1.086-3.889.081-7.781.073-11.671.02-.38-.005-.941-.391-1.096-.741-.427-.965-.683-2.005-1.047-3.143Zm-35.009 4.046c-1.688 0-3.382-.088-5.063.026-1.469.1-1.955-.496-1.784-1.859.044-.352.026-.714.01-1.07-.037-.854.379-1.166 1.213-1.161 3.785.021 7.571.028 11.357-.002.948-.008 1.217.408 1.256 1.288.113 2.583.074 2.655-2.541 2.66-1.483.003-2.965.001-4.447.001l-.001.117Zm-23.188-4.057c1.737 0 3.476.051 5.21-.018 1.155-.046 1.685.299 1.651 1.539-.077 2.801.407 2.54-2.519 2.529-3.268-.013-6.538-.14-9.805-.089-1.755.028-1.474-1.088-1.505-2.143-.03-1.034-.076-1.93 1.452-1.838 1.833.11 3.677.026 5.516.026v-.006Zm.093-5.845c1.839 0 3.679.035 5.516-.014.98-.026 1.437.323 1.357 1.324-.036.456-.023.917-.004 1.375.035.812-.288 1.226-1.156 1.222-3.882-.018-7.764-.02-11.646-.009-.883.003-1.094-.451-1.13-1.246-.123-2.643-.147-2.642 2.466-2.645h4.597v-.007Zm66.126 23.363c1.84 0 3.682.051 5.519-.02 1.098-.042 1.491.382 1.379 1.428-.048.453.133.985-.048 1.357-.214.44-.7 1.053-1.079 1.061-3.883.078-7.767.042-11.652.052-.856.003-1.196-.401-1.147-1.227.03-.508.032-1.021-.002-1.529-.058-.883.375-1.147 1.203-1.133 1.942.034 3.885.011 5.827.011Zm-66.178-25.327c-1.838 0-3.678-.048-5.514.018-1.128.04-1.516-.362-1.507-1.497.02-2.394-.036-2.397 2.422-2.4 3.32-.005 6.64.074 9.956-.041 1.727-.06 1.55.952 1.578 2.056.03 1.139-.023 1.998-1.575 1.9-1.78-.112-3.573-.026-5.36-.026v-.01Zm-.155-5.796c-1.838 0-3.677-.029-5.515.012-.988.022-1.326-.371-1.345-1.353-.05-2.539-.09-2.54 2.418-2.543 3.37-.004 6.743.053 10.111-.033 1.556-.04 1.434.895 1.406 1.889-.028.983.287 2.13-1.407 2.06-1.886-.079-3.778-.018-5.668-.018v-.014Zm-42.843 17.535c-1.786 0-3.574-.049-5.358.014-1.776.062-1.407-1.178-1.452-2.197-.044-.98-.038-1.79 1.383-1.762 3.672.072 7.349.066 11.022 0 1.281-.023 1.47.64 1.35 1.617-.115.931.567 2.331-1.28 2.329-1.889-.003-3.777-.001-5.665-.001Zm42.781-35.096c-1.846 0-3.692-.033-5.536.014-.946.024-1.225-.363-1.253-1.269-.08-2.65-.113-2.651 2.52-2.653 3.229-.002 6.46.057 9.687-.024 1.828-.046 1.538 1.143 1.608 2.257.076 1.219-.313 1.778-1.646 1.706-1.788-.097-3.586-.024-5.38-.024v-.007Zm-42.793 23.351c-1.842 0-3.685-.034-5.526.01-1.646.04-1.224-1.146-1.26-2.034-.036-.906-.2-1.879 1.288-1.859 3.735.052 7.47.033 11.206.006.924-.006 1.233.362 1.268 1.269.101 2.612.136 2.611-2.525 2.614h-4.451v-.006Zm-.054-23.35c-1.792-.001-3.584-.037-5.374.014-.98.028-1.35-.315-1.378-1.316-.069-2.557-.072-2.601 2.435-2.604 3.224-.004 6.452.085 9.672-.032 1.797-.066 1.623.983 1.674 2.156.055 1.239-.191 1.909-1.658 1.811-1.783-.12-3.58-.029-5.371-.029Zm66.262 13.665c1.841 0 3.684.062 5.521-.021 1.392-.062 1.492.749 1.407 1.753-.078.922.436 2.192-1.292 2.184a803.538 803.538 0 0 0-11.196.005c-1.715.015-1.271-1.211-1.329-2.151-.059-.969-.06-1.849 1.368-1.788 1.838.078 3.681.019 5.521.018Zm-66.242 3.894c-1.79 0-3.584-.056-5.372.016-1.558.063-1.413-.959-1.385-1.938.026-.92-.299-2.003 1.325-1.976 3.684.063 7.37.039 11.055.005.955-.009 1.365.274 1.39 1.299.067 2.594.112 2.594-2.56 2.598-1.484.003-2.968.001-4.452.001v-.005Zm42.887-5.901c-1.89 0-3.78-.023-5.67.01-.855.015-1.224-.325-1.171-1.175.032-.507.028-1.019.002-1.527-.043-.829.317-1.225 1.162-1.223 3.78.007 7.56-.014 11.341.005 1.799.009 1.18 1.412 1.288 2.362.119 1.038-.225 1.624-1.435 1.576-1.836-.072-3.678-.019-5.517-.019v-.009Zm-42.791 0c-1.793.001-3.59-.075-5.377.025-1.345.076-1.58-.605-1.475-1.676.095-.971-.45-2.29 1.377-2.273 3.688.034 7.377.02 11.065.005.877-.003 1.362.307 1.307 1.251a13.5 13.5 0 0 0 0 1.532c.049.874-.381 1.158-1.21 1.145-1.896-.032-3.791-.01-5.687-.009Zm42.854-5.812c-1.845 0-3.69-.033-5.533.013-.957.024-1.47-.261-1.371-1.299.043-.455.032-.92.004-1.378-.051-.834.297-1.215 1.158-1.212 3.79.014 7.582-.001 11.374.001 1.725.001 1.167 1.319 1.254 2.23.09.959-.062 1.714-1.354 1.667-1.842-.066-3.688-.016-5.532-.016v-.006Zm-42.792 0c-1.79 0-3.582-.044-5.37.017-1.081.037-1.568-.266-1.57-1.448-.002-2.44-.06-2.442 2.423-2.444 3.222-.001 6.448.092 9.665-.034 1.755-.068 1.685.887 1.71 2.104.024 1.21-.155 1.934-1.643 1.832-1.73-.118-3.476-.027-5.215-.027Zm66.061 42.836c1.843.001 3.688.051 5.528-.018 1.099-.042 1.407.401 1.417 1.433.025 2.464.066 2.466-2.415 2.469-3.174.005-6.351-.081-9.521.041-1.711.066-1.884-.742-1.897-2.128-.013-1.373.356-1.937 1.822-1.827 1.68.126 3.377.029 5.066.03Zm-66.086-23.35c1.843-.001 3.69.062 5.529-.021 1.473-.066 1.374.867 1.33 1.806-.045.945.388 2.142-1.346 2.117a411.808 411.808 0 0 0-11.059-.006c-1.724.021-1.294-1.183-1.348-2.129-.055-.966-.075-1.852 1.365-1.787 1.84.083 3.686.02 5.53.02Z"/>
  </g>
  <defs>
    <clipPath id="a">
      <path fill="#fff" d="M0 0h200v200H0z"/>
    </clipPath>
  </defs>
</svg>
