<svg xmlns="http://www.w3.org/2000/svg" width="200" height="200" fill="none" viewBox="0 0 200 200">
  <g clip-path="url(#a)">
    <path fill="#fff" d="M100 200c55.229 0 100-44.771 100-100C200 44.772 155.229 0 100 0 44.772 0 0 44.772 0 100c0 55.229 44.772 100 100 100Z"/>
    <path fill="#0052FF" d="M143.95 87.625c1.962-13.1-8.019-20.144-21.656-24.844l4.425-17.75-10.8-2.687-4.313 17.281c-2.837-.712-5.75-1.375-8.656-2.038l4.344-17.393-10.8-2.694-4.425 17.744c-2.35-.538-4.663-1.063-6.9-1.625l.012-.056-14.9-3.72-2.875 11.538s8.019 1.838 7.85 1.95c4.375 1.094 5.163 3.988 5.031 6.288L75.25 89.838c.3.075.688.187 1.125.356l-1.144-.282-7.062 28.325c-.538 1.325-1.894 3.319-4.956 2.563.112.156-7.85-1.956-7.85-1.956L50 131.206l14.063 3.507c2.612.656 5.174 1.343 7.693 1.987l-4.469 17.95 10.794 2.687 4.425-17.75c2.95.794 5.813 1.532 8.613 2.232l-4.413 17.675 10.8 2.687 4.469-17.912c18.425 3.487 32.275 2.081 38.106-14.581 4.7-13.413-.231-21.157-9.925-26.2 7.063-1.625 12.375-6.27 13.794-15.863Zm-24.687 34.613c-3.332 13.418-25.925 6.162-33.25 4.343L91.95 102.8c7.325 1.831 30.806 5.45 27.313 19.438Zm3.343-34.807c-3.043 12.207-21.843 6-27.937 4.481l5.375-21.562c6.093 1.519 25.737 4.35 22.562 17.081Z"/>
    <path fill="#0052FF" fill-rule="evenodd" d="M100 190.625c50.051 0 90.625-40.574 90.625-90.625 0-50.05-40.574-90.625-90.625-90.625C49.95 9.375 9.375 49.949 9.375 100S49.949 190.625 100 190.625ZM200 100c0 55.229-44.771 100-100 100C44.772 200 0 155.229 0 100 0 44.772 44.772 0 100 0c55.229 0 100 44.772 100 100Z" clip-rule="evenodd"/>
  </g>
  <defs>
    <clipPath id="a">
      <path fill="#fff" d="M0 0h200v200H0z"/>
    </clipPath>
  </defs>
</svg>
