<svg t="1739951323846" class="icon" viewBox="0 0 1024 1024" version="1.1"
  xmlns="http://www.w3.org/2000/svg" p-id="19719" width="200" height="200">
  <path d="M512 0C229.2304 0 0 229.2304 0 512s229.2304 512 512 512 512-229.2304 512-512S794.7696 0 512 0z" fill="#FFFFFF" p-id="19720"></path>
  <path d="M512 48C255.7392 48 48 255.7392 48 512s207.7392 464 464 464 464-207.7392 464-464S768.2608 48 512 48zM0 512C0 229.2304 229.2304 0 512 0s512 229.2304 512 512-229.2304 512-512 512S0 794.7696 0 512z" fill="#0052FF" p-id="19721"></path>
  <path d="M512 143.872L288 512l224 137.6V143.872zM288 548.5712L512 880V688l-224-139.4288z" fill="#0052FF" p-id="19722"></path>
  <path d="M288 512l224 137.6 224-137.6L512 143.872V374.4l-224 137.6z m224 368l224-331.4288L512 688v192z" fill="#6697FF" opacity=".92" p-id="19723"></path>
  <path d="M512 374.4v275.2l224-137.6-224-137.6z" fill="#CCDCFF" p-id="19724"></path>
</svg>