<svg xml:space="preserve"
  xmlns:xlink="http://www.w3.org/1999/xlink" viewBox="0 0 100 100"
  xmlns="http://www.w3.org/2000/svg" class="ui-block ui-h-full ui-mx-auto">
  <defs>
    <path id="trust_svg__a" d="M10 5.2h80v90H10z"></path>
  </defs>
  <clipPath id="trust_svg__b">
    <use xlink:href="#trust_svg__a" style="overflow: visible;"></use>
  </clipPath>
  <g style="clip-path: url(&quot;#trust_svg__b&quot;);">
    <path d="M85.9 60.4c.9-3.3 1.4-6.7 1.4-10.2 0-3.6-.5-7.1-1.5-10.4 2.5-1.6 4.2-4.5 4.2-7.7 0-5.1-4.1-9.2-9.2-9.2-1.5 0-3 .4-4.3 1.1-4.7-4.8-10.7-8.3-17.4-10-.3-4.8-4.3-8.7-9.2-8.7S41 9.2 40.7 14C34 15.7 28 19.2 23.3 24c-1.3-.7-2.7-1-4.3-1-5.1 0-9.2 4.1-9.2 9.2 0 3.2 1.7 6.1 4.2 7.7-.9 3.3-1.5 6.8-1.5 10.4s.5 7 1.4 10.2c-2.5 1.6-4.1 4.5-4.1 7.7 0 5.1 4.1 9.2 9.2 9.2 1.5 0 2.9-.4 4.2-1 4.7 4.8 10.7 8.4 17.5 10.1.2 4.9 4.2 8.8 9.2 8.8 4.9 0 9-3.9 9.2-8.8 6.7-1.7 12.8-5.3 17.5-10.1 1.3.6 2.7 1 4.2 1 5.1 0 9.2-4.1 9.2-9.2 0-3.3-1.7-6.1-4.1-7.8m-1.8-10.2q0 4.65-1.2 9c-.7-.2-1.4-.2-2.1-.2-2.8 0-5.3 1.3-7 3.3l-1.4-.8c1.7-3.4 2.6-7.2 2.6-11.2s-1-7.9-2.7-11.3l1.4-.8c1.7 2 4.2 3.3 7 3.3.7 0 1.4-.1 2-.2 1 2.7 1.4 5.7 1.4 8.9M52.7 84.3c-.3-.4-.7-.8-1.1-1v-3c1.8.5 3.3 1.9 4 3.7-1 .1-1.9.2-2.9.3m-8.3-.4c.7-1.8 2.2-3.2 4-3.7v3c-.5.3-.8.6-1.1 1.1-1-.1-2-.2-2.9-.4M20.8 65.3c-.5-.3-1-.4-1.6-.4-.4-.9-.8-1.8-1.1-2.6.4-.1.7-.1 1.1-.1 1.6 0 3.1.7 4.2 1.7zm1.2 4.4c.3-.5.4-1 .4-1.6l2.6-1.5c.1.5.2 1 .2 1.5 0 1.5-.5 2.8-1.4 3.9-.7-.7-1.2-1.5-1.8-2.3m5.8-4.7 1.3-.7c4.2 6.3 11.3 10.6 19.3 11.1V77c-3.4.6-6.1 3-7.2 6.3-5.9-1.6-11.1-4.7-15.3-8.9 1.5-1.6 2.4-3.8 2.4-6.3.1-1.1-.1-2.1-.5-3.1m1.4-13.6c-.4-.8-.5-1.7 0-2.5.8-1.5 2.2-4 3.9-6.8L47 50.2l-13.7 8zm-9.9-16c.5 0 1-.2 1.5-.4l2.6 1.5c-1.1 1.1-2.6 1.7-4.2 1.7-.4 0-.7 0-1.1-.1zm3-3.3c0-.5-.1-1-.3-1.4l1.8-2.4c.9 1 1.4 2.4 1.4 3.8 0 .5-.1 1-.2 1.5zM26 26c4.2-4.1 9.4-7.2 15.2-8.8 1 3.3 3.8 5.7 7.2 6.3V25c-8 .5-15 4.7-19.3 11l-1.3-.8c.4-1 .6-2.1.6-3.2 0-2.2-.9-4.4-2.4-6m21.2-9.9c.3.5.7.9 1.2 1.1v3c-1.9-.5-3.4-1.9-4-3.7.9-.1 1.9-.3 2.8-.4m8.4.4c-.7 1.8-2.2 3.2-4 3.7v-3c.5-.3.9-.7 1.2-1.1.9.1 1.9.2 2.8.4M79.2 35c.4.3 1 .4 1.5.4.4.9.8 1.8 1.1 2.7-.3.1-.7.1-1 .1-1.6 0-3.1-.7-4.2-1.7zm-1.3-4.3c-.2.4-.4 1-.4 1.5L75 33.7c-.1-.5-.2-1-.2-1.5 0-1.4.5-2.8 1.4-3.8.6.7 1.2 1.5 1.7 2.3m-5.7 4.6-1.4.8C66.6 29.8 59.6 25.5 51.6 25v-1.5c3.4-.6 6.2-3.1 7.2-6.3 5.8 1.6 11.1 4.6 15.3 8.8-1.5 1.6-2.4 3.8-2.4 6.2 0 1.1.2 2.1.5 3.1m-1.6 13.5c.4.8.4 1.7 0 2.5L66.7 58l-13.5-7.9 13.7-8c1.5 2.8 2.9 5.3 3.7 6.7m-5.5 12-4 7c-.5.8-1.3 1.3-2.2 1.3h-7.3V52.9zM51.6 47.4V28.5c2.1.1 5.7.5 7.8 2.6 1.5 1.5 3.8 4.9 5.8 8.3zM40.4 31.1c2.1-2.1 5.9-2.5 8-2.6v18.8l-13.8-8c2.1-3.4 4.3-6.7 5.8-8.2m8 21.9v16.2h-7.5c-.9 0-1.7-.5-2.2-1.3l-4-6.9zm3.2 24v-1.6c8-.5 15.1-4.8 19.3-11.2l1.3.8c-.4 1-.6 2.1-.6 3.2 0 2.4.9 4.6 2.4 6.2-4.2 4.2-9.5 7.3-15.3 8.9-1-3.2-3.7-5.7-7.1-6.3m23.2-8.8c0-.5.1-1 .2-1.5l2.6 1.5c0 .6.2 1.1.4 1.6-.5.8-1.1 1.6-1.7 2.3-.9-1.1-1.5-2.5-1.5-3.9m6-3.3c-.6 0-1.1.2-1.6.4l-2.6-1.5c1.1-1.1 2.6-1.7 4.2-1.7.4 0 .7 0 1.1.1-.3 1-.7 1.9-1.1 2.7m0-38.7c3.3 0 6 2.7 6 6 0 1.8-.8 3.4-2.1 4.5-.4-.9-.8-1.9-1.2-2.8.3-.5.5-1.1.5-1.8 0-1.8-1.5-3.2-3.2-3.2h-.2l-1.8-2.4c.6-.2 1.3-.3 2-.3M50 8.4c2.9 0 5.3 2.1 5.9 4.8-1-.2-2-.3-3-.4-.5-1-1.6-1.7-2.9-1.7-1.2 0-2.3.7-2.9 1.7-1 .1-2 .2-3 .4.6-2.7 3-4.8 5.9-4.8M13.2 32.1c0-3.3 2.7-6 6-6 .7 0 1.4.1 2 .3l-1.8 2.4h-.3c-1.8 0-3.2 1.5-3.2 3.2q0 1.05.6 1.8l-1.2 2.7c-1.3-.9-2.1-2.6-2.1-4.4m2.7 18.1c0-3.1.4-6.2 1.2-9.1.7.2 1.4.2 2.1.2 2.8 0 5.3-1.3 7-3.3l1.3.8c-1.7 3.4-2.7 7.3-2.7 11.4s1 7.9 2.6 11.3l-1.3.7c-1.7-2-4.2-3.3-7-3.3-.7 0-1.4.1-2.1.2-.7-2.8-1.1-5.8-1.1-8.9m3.3 23.9c-3.3 0-6-2.7-6-6 0-1.8.8-3.4 2-4.5.4.9.8 1.9 1.2 2.8-.3.5-.5 1.1-.5 1.7 0 1.8 1.5 3.2 3.2 3.2h.1l1.8 2.4c-.5.3-1.2.5-1.8.4m30.8 18c-2.9 0-5.4-2.1-5.9-4.9 1 .2 2 .3 3 .4.5 1.1 1.6 1.8 2.9 1.8s2.4-.7 2.9-1.8c1-.1 2-.2 3-.4-.5 2.7-3 4.9-5.9 4.9m30.8-18c-.7 0-1.3-.1-1.9-.3.6-.8 1.3-1.6 1.8-2.4h.1c1.8 0 3.2-1.5 3.2-3.2 0-.6-.2-1.2-.5-1.7.4-.9.8-1.8 1.2-2.8 1.2 1.1 2 2.7 2 4.5.1 3.2-2.6 5.9-5.9 5.9" style="fill:#59777C;"></path>
  </g>
</svg>