<svg xmlns="http://www.w3.org/2000/svg" width="200" height="200" fill="none" viewBox="0 0 200 200">
  <path fill="#EA375A" fill-rule="evenodd" d="M99.944 0c55.272 0 99.944 44.784 99.944 99.944 0 55.272-44.784 99.944-99.944 99.944C44.68 199.896 0 155.112 0 99.944 0 44.68 44.784 0 99.944 0Z" clip-rule="evenodd"/>
  <path fill="#fff" d="m67.546 54.941 22.775-14.543c2.005-1.175 2.003-3.598.56-5.081L71.86 16.287a.932.932 0 0 0-1.35.004l-1.796 1.87c-2.299 2.393-2.288 6.262.023 8.643l7.425 7.093c1.261 1.298 1.021 3.476-.491 4.447l-8.875 5.623c-2.773 1.778-3.626 5.546-1.909 8.413l1.343 2.24a.94.94 0 0 0 1.317.321Zm21.975 78.033c1.87-8.373-.347-17.161-5.933-23.52L69.21 92.58c-8.004-9.393-6.026-23.963 4.17-30.71l23.527-15.565a3.863 3.863 0 0 1 4.826.444c8.607 8.217 38.552 37.824 37.224 68.398 0 0 .035 47.48-45.144 65.249-6.638 2.612-13.36-3.668-11.622-10.795 6.242-25.595 7.33-36.627 7.33-36.627Zm5.888-73.11c-3.598 2.358-10.568 6.928-16.517 10.831-3.981 2.612-4.784 8.272-1.702 11.962l15.033 17.991c8.614 9.806 12.033 23.36 9.149 36.27l-2.52 11.442c-1.095 4.969 4.572 8.444 8.299 5.114 15.839-14.151 38.048-48.167-8.27-93.275a2.776 2.776 0 0 0-3.472-.336Z"/>
</svg>
