<svg xmlns="http://www.w3.org/2000/svg" width="200" height="200" fill="none" viewBox="0 0 200 200">
  <path fill="#000" fill-rule="evenodd" d="M99.944 0c55.272 0 99.944 44.784 99.944 99.944 0 55.272-44.784 99.944-99.944 99.944C44.68 199.896 0 155.112 0 99.944 0 44.68 44.784 0 99.944 0Z" clip-rule="evenodd"/>
  <path fill="#E4F2FF" d="M101.955 115.223c-.026-4.283 1.176-8.421 3.367-11.588 2.191-3.166 5.209-5.128 8.452-5.493H168l-17.612 15.441H120.87c-1.903.011-3.726 1.01-5.071 2.781-1.346 1.771-2.105 4.17-2.112 6.675v38.622L102.1 180l-.145-64.777Zm-4.1-20.702c-3.022.095-5.954-1.369-8.168-4.08L50.552 40l21.29 5.49 21.32 27.528c1.366 1.762 3.201 2.75 5.114 2.75 1.912 0 3.747-.988 5.112-2.75l21.378-27.49L145.999 40l-38.266 49.565c-2.7 3.23-6.228 5.001-9.878 4.956Zm-15.57 67.1v-38.585c0-2.511-.756-4.92-2.102-6.699-1.347-1.779-3.174-2.784-5.082-2.794H45.554L28 98.102h53.04c3.35.065 6.566 1.747 9.037 4.727 1.2 1.345 2.172 3.008 2.85 4.881a18.666 18.666 0 0 1 1.09 5.985v66.303l-11.732-18.377Z"/>
</svg>
