<svg width="33" height="32" viewBox="0 0 33 32" fill="none" xmlns="http://www.w3.org/2000/svg">
<g clip-path="url(#clip0_1_54)">
<path d="M16.5 32C25.3366 32 32.5 24.8366 32.5 16C32.5 7.16344 25.3366 0 16.5 0C7.66344 0 0.5 7.16344 0.5 16C0.5 24.8366 7.66344 32 16.5 32Z" fill="black"/>
<path d="M27.9375 17.6437C27.9375 17.6375 27.9375 17.6375 27.9375 17.6437C27.9375 17.6312 27.9375 17.625 27.9438 17.625C27.95 17.6062 27.9501 17.5875 27.9501 17.5625C27.9501 17.5562 27.9501 17.55 27.9501 17.5375C27.9501 17.5188 27.95 17.5 27.9438 17.4813C27.9438 17.475 27.9438 17.475 27.9438 17.4688L27.1313 14.075C27.1 13.95 27.0063 13.8562 26.8813 13.825L23.5188 13.0125C23.5125 13.0125 23.5063 13.0125 23.5 13.0125C23.4813 13.0062 23.4688 13.0063 23.4501 13.0063C23.4438 13.0063 23.4313 13.0063 23.425 13.0063C23.4063 13.0063 23.3875 13.0125 23.3625 13.0125C23.3563 13.0125 23.35 13.0125 23.3438 13.0125H23.3375C23.3125 13.0187 23.2938 13.0312 23.2688 13.0437C23.2625 13.0437 23.2625 13.05 23.2563 13.05C23.2375 13.0625 23.2188 13.075 23.2063 13.0875L23.2001 13.0938L19.1313 17.0438C19.0938 17.0563 19.0563 17.0813 19.0313 17.1063C19 17.1375 18.975 17.175 18.9625 17.2125L17.5063 18.6313L16.6938 15.8375C16.6938 15.8312 16.6875 15.8188 16.6813 15.8125C16.675 15.8 16.675 15.7938 16.6688 15.7875C16.65 15.75 16.6313 15.7188 16.6 15.6938C16.5688 15.6688 16.5375 15.65 16.5 15.6313C16.4938 15.625 16.4813 15.625 16.475 15.6187C16.4688 15.6187 16.4563 15.6125 16.45 15.6062L13.7313 14.95L19.4813 9.225L18.6063 5.39375L14.9 4.5625L5.05005 14.375L5.8813 18.075L9.25005 18.95L10.075 22.2062C10.1063 22.3312 10.2063 22.425 10.3313 22.45L13.45 23.075L14.3688 26.3563C14.3688 26.3625 14.375 26.3688 14.3813 26.3813C14.3875 26.3875 14.3875 26.4 14.3938 26.4062C14.4125 26.4375 14.4313 26.475 14.4563 26.5V26.5063C14.4813 26.5313 14.5188 26.5563 14.5563 26.5688C14.5688 26.575 14.575 26.575 14.5875 26.5812C14.5938 26.5875 14.6063 26.5875 14.6125 26.5938L17.9125 27.4375C17.9375 27.4438 17.9688 27.45 17.9938 27.45C18.025 27.45 18.05 27.4438 18.075 27.4375C18.0813 27.4375 18.0813 27.4375 18.0875 27.4375C18.0938 27.4375 18.1 27.4312 18.1 27.4312C18.1125 27.425 18.125 27.425 18.1313 27.4188C18.1438 27.4125 18.15 27.4062 18.1625 27.4062C18.1688 27.4 18.1813 27.3938 18.1875 27.3875C18.1938 27.3813 18.2063 27.375 18.2125 27.3687C18.2188 27.3625 18.2188 27.3625 18.225 27.3563L27.8438 17.8L27.85 17.7938C27.8625 17.7813 27.8751 17.7625 27.8876 17.7437C27.8876 17.7375 27.8938 17.7375 27.8938 17.7313C27.9188 17.6875 27.9313 17.6625 27.9375 17.6437ZM23.5625 21.0938L22.9188 18.5063L24.5063 16.9188L26.9875 17.6875L23.5625 21.0938ZM18.1563 26.4688L17.4375 23.9937L20.3313 21.1L22.7626 21.8937L18.1563 26.4688ZM14.2063 23.2812L16.4938 23.9813L14.8625 25.6125L14.2063 23.2812ZM19.1 18.025L19.7938 20.6875L17.025 23.4562L14.35 22.6375L19.1 18.025ZM23.2813 13.9625L24.0313 16.45L22.4688 18.0125L19.9375 17.2125L23.2813 13.9625ZM22.9125 21.2375L20.8625 20.5688L22.3688 19.0625L22.9125 21.2375ZM20.3438 20.1375L19.75 17.8563L21.9375 18.5438L20.3438 20.1375ZM16.8938 24.5312L17.5063 26.6313L15.3438 26.0812L16.8938 24.5312ZM27.1563 17.05L24.6813 16.2812L23.9375 13.8L26.5313 14.425L27.1563 17.05ZM13.9063 22.1375L13.3 19.6437L14.225 18.675L16.7313 19.3937L13.9063 22.1375ZM14.275 17.65L13.6063 15.6062L15.7375 16.1187L14.275 17.65ZM14.75 18.125L16.2188 16.5812L16.8438 18.7188L14.75 18.125ZM13.75 18.2L12.825 19.1688L10.1813 18.4937L12.9438 15.7437L13.75 18.2ZM10.65 9.74375L11.3563 12.0875L8.45005 15.0188L6.0563 14.3188L10.65 9.74375ZM15.4625 7.94375L13.9375 9.4875L11.4688 8.93125L14.8375 5.58125L15.4625 7.94375ZM15.1313 12.6187L14.4813 9.8875L15.925 8.43125L18.4875 9.275L15.1313 12.6187ZM11.8938 11.55L11.3 9.58125L13.3813 10.05L11.8938 11.55ZM13.925 10.4438L14.4563 12.6875L12.375 12.0125L13.925 10.4438ZM8.37505 16.0438L9.0313 18.2L6.81255 17.625L8.37505 16.0438ZM8.91255 15.5063L11.8438 12.55L14.375 13.375L9.68755 18.0438L8.91255 15.5063ZM18.6563 8.61875L16.1125 7.78125L15.4688 5.375L18.0438 5.95625L18.6563 8.61875ZM5.8688 14.9625L7.91255 15.5625L6.3563 17.1313L5.8688 14.9625ZM10.6688 21.8312L9.98755 19.1375L12.65 19.8188L13.2688 22.35L10.6688 21.8312Z" fill="url(#paint0_linear_1_54)"/>
</g>
<defs>
<linearGradient id="paint0_linear_1_54" x1="10.1669" y1="22.3607" x2="22.8682" y2="9.65936" gradientUnits="userSpaceOnUse">
<stop stop-color="#34A3ED"/>
<stop offset="0.9988" stop-color="#8165F5"/>
</linearGradient>
<clipPath id="clip0_1_54">
<rect width="32" height="32" fill="white" transform="translate(0.5)"/>
</clipPath>
</defs>
</svg>
