<svg xmlns="http://www.w3.org/2000/svg" width="200" height="200" fill="currentColor" viewBox="0 0 200 200">
  <g clip-path="url(#a)">
    <path fill="#000" d="M100 200c55.228 0 100-44.772 100-100S155.228 0 100 0 0 44.772 0 100s44.772 100 100 100Z"/>
    <path fill="url(#b)" d="M171.484 110.273c0-.039 0-.039 0 0 0-.078 0-.117.039-.117.04-.117.04-.234.04-.39v-.157c0-.117 0-.234-.04-.351v-.078l-5.078-21.211a2.119 2.119 0 0 0-1.562-1.563l-21.016-5.078h-.117c-.117-.039-.195-.039-.312-.039h-.157c-.117 0-.234.04-.39.04h-.157c-.156.038-.273.116-.429.194-.039 0-.039.04-.078.04a2.115 2.115 0 0 0-.313.234l-.039.039-25.43 24.687a1.765 1.765 0 0 0-1.054 1.055l-9.102 8.867-5.078-17.46a.296.296 0 0 0-.078-.157c-.039-.078-.039-.117-.078-.156-.117-.234-.235-.43-.43-.586a3.379 3.379 0 0 0-.625-.39c-.04-.04-.117-.04-.156-.079a.297.297 0 0 1-.156-.078l-16.993-4.102 35.938-35.78-5.469-23.946L90 28.516 28.437 89.844l5.196 23.125 21.054 5.469 5.157 20.351c.195.781.82 1.367 1.601 1.524l19.492 3.906 5.743 20.508c0 .039.039.078.078.156.039.039.039.117.078.156.117.195.234.43.39.586v.039c.157.156.391.313.626.391.078.039.117.039.195.078.039.039.117.039.156.078l20.625 5.273c.156.039.352.079.508.079.195 0 .352-.04.508-.079h.078c.039 0 .078-.039.078-.039.078-.039.156-.039.195-.078.078-.039.118-.078.196-.078.039-.039.117-.078.156-.117.039-.039.117-.078.156-.117l.078-.078 60.117-59.727.04-.039c.078-.078.156-.195.234-.313 0-.039.039-.039.039-.078.156-.273.234-.429.273-.547Zm-27.343 21.563-4.024-16.172 9.922-9.922 15.508 4.805-21.406 21.289Zm-33.789 33.594-4.493-15.469 18.086-18.086 15.196 4.961-28.789 28.594Zm-24.688-19.922 14.297 4.375-10.195 10.195-4.102-14.57Zm30.586-32.852 4.336 16.641-17.305 17.305-16.719-5.118 29.688-28.828Zm26.133-25.39 4.687 15.547-9.765 9.765-15.821-5 20.899-20.312Zm-2.305 45.468-12.812-4.179 9.414-9.414 3.398 13.593Zm-16.055-6.875-3.71-14.257 13.671 4.296-9.961 9.961Zm-21.562 27.461 3.828 13.125-13.516-3.437 9.688-9.688Zm64.141-46.758-15.469-4.804-4.649-15.508 16.211 3.906 3.907 16.406Zm-82.813 31.797L80 122.773l5.781-6.054 15.664 4.492-17.656 17.148Zm2.305-28.047-4.18-12.773 13.32 3.203-9.14 9.57Zm2.969 2.969 9.18-9.648 3.905 13.359-13.085-3.711Zm-6.25.469-5.782 6.055-16.523-4.219 17.265-17.188 5.04 15.352ZM63.436 60.898l4.415 14.649-18.165 18.32-14.96-4.375 28.71-28.594Zm30.079-11.25-9.532 9.649-15.43-3.477L89.61 34.883l3.907 14.765Zm-2.07 29.22-4.063-17.071 9.023-9.102 16.016 5.274-20.977 20.898Zm-20.235-6.68L67.5 59.883l13.008 2.93-9.297 9.374Zm12.695-6.915 3.32 14.024-13.007-4.219 9.687-9.805Zm-34.687 35 4.101 13.477-13.867-3.594 9.766-9.883Zm3.36-3.359 18.32-18.477 15.82 5.157-29.297 29.179-4.844-15.859Zm60.898-43.047-15.899-5.234-4.023-15.04 16.093 3.634 3.829 16.64ZM33.555 93.516l12.773 3.75-9.726 9.804-3.047-13.554Zm30 42.929-4.258-16.836 16.64 4.258 3.868 15.821-16.25-3.243Z"/>
  </g>
  <defs>
    <linearGradient id="b" x1="60.418" x2="139.801" y1="139.754" y2="60.371" gradientUnits="userSpaceOnUse">
      <stop stop-color="#34A3ED"/>
      <stop offset=".999" stop-color="#8165F5"/>
    </linearGradient>
    <clipPath id="a">
      <path fill="#fff" d="M0 0h200v200H0z"/>
    </clipPath>
  </defs>
</svg>
