<svg xmlns="http://www.w3.org/2000/svg" width="200" height="200" fill="none" viewBox="0 0 200 200">
  <path fill="#060710" fill-rule="evenodd" d="M200 100c0 55.226-44.773 100-100 100C44.774 200 0 155.226 0 100S44.774 0 100 0c55.227 0 100 44.774 100 100Zm-57.136 78.209 35.354-35.355-16.82-16.83c-6.742 15.885-19.469 28.622-35.354 35.364l16.82 16.821Zm-64.252-15.05c-16.496-5.58-30.098-17.45-37.952-32.746l-13.632 13.622 35.354 35.355 16.23-16.231Zm-40-89.202c6.743-15.886 19.479-28.613 35.355-35.355L60.364 25 25.01 60.354l13.602 13.603Zm91.801-33.298 14.469-14.478 35.354 35.354-17.076 17.077c-5.581-16.496-17.451-30.098-32.747-37.953Z" clip-rule="evenodd"/>
  <mask id="a" width="101" height="101" x="50" y="50" maskUnits="userSpaceOnUse" style="mask-type:luminance">
    <path fill="#fff" d="M150.002 50H50.001v100.001h100.001V50Z"/>
  </mask>
  <g mask="url(#a)">
    <path fill="#B7B7B7" d="m100.02 50-.67 2.274v66.122l.67.669 30.689-18.14L100.02 50Z"/>
    <path fill="#fff" d="m100.011 50-30.69 50.925 30.69 18.14V50Z"/>
    <path fill="#939090" d="m100.01 124.882-.374.462v23.554l.374 1.102 30.719-43.248-30.719 18.13Z"/>
    <path fill="#fff" d="M100.011 150v-25.118l-30.69-18.13L100.012 150Z"/>
    <path fill="#939090" d="m100.021 119.065 30.689-18.14-30.689-13.947v32.087Z"/>
    <path fill="#B1B1B1" d="m69.322 100.925 30.689 18.14V86.978l-30.69 13.947Z"/>
  </g>
</svg>
