<svg width="32" height="32" viewBox="0 0 32 32" fill="none" xmlns="http://www.w3.org/2000/svg">
<g clip-path="url(#clip0_1_48)">
<path d="M30.8824 14.7688C31.1721 15.1827 31.3169 15.6795 31.3169 16.197C31.3169 16.88 31.048 17.5216 30.5718 17.9976C30.0958 18.4738 29.4334 18.7429 28.7712 18.7429C28.2744 18.7429 27.7776 18.5979 27.343 18.3082C26.9289 18.0184 26.5977 17.6251 26.4115 17.1698C26.2252 16.6938 26.1632 16.197 26.2667 15.7002C26.37 15.2034 26.6185 14.748 26.9704 14.3962C27.3222 14.0443 27.7776 13.7959 28.2744 13.6924C28.7712 13.5889 29.2886 13.651 29.744 13.8373C30.1993 14.0029 30.5926 14.3341 30.8824 14.7688Z" fill="#000D3D"/>
<path d="M30.8824 27.6835C31.1721 28.0975 31.3169 28.5942 31.3169 29.1118C31.3169 29.7948 31.048 30.4364 30.5718 30.9124C30.0958 31.3886 29.4334 31.6575 28.7712 31.6575C28.2744 31.6575 27.7776 31.5127 27.343 31.223C26.9289 30.9332 26.5977 30.5399 26.4115 30.0846C26.2252 29.6084 26.1632 29.1118 26.2667 28.615C26.37 28.1182 26.6185 27.6628 26.9704 27.311C27.3222 26.9591 27.7776 26.7107 28.2744 26.6071C28.7712 26.5038 29.2886 26.5659 29.744 26.7521C30.1993 26.9383 30.5926 27.2695 30.8824 27.6835Z" fill="#000D3D"/>
<path d="M31.3156 0.341797H25.1888V6.4685H31.3156V0.341797Z" fill="#000D3D"/>
<path d="M18.1336 27.6835C18.4234 28.0975 18.5682 28.5942 18.5682 29.1118C18.5682 29.7948 18.2992 30.4364 17.8231 30.9124C17.3471 31.3886 16.6847 31.6575 16.0223 31.6575C15.5256 31.6575 15.0288 31.5127 14.5942 31.223C14.1802 30.9332 13.849 30.5399 13.6628 30.0846C13.4765 29.6084 13.4144 29.1118 13.5179 28.615C13.6214 28.1182 13.8697 27.6628 14.2216 27.311C14.5735 26.9591 15.0288 26.7107 15.5256 26.6071C16.0223 26.5038 16.5399 26.5659 16.9952 26.7521C17.4712 26.9383 17.8645 27.2695 18.1336 27.6835Z" fill="#000D3D"/>
<path d="M19.0844 13.1121H12.9578V19.2388H19.0844V13.1121Z" fill="#000D3D"/>
<path d="M19.2503 0.341797H12.7717V6.82037H19.2503V0.341797Z" fill="#000D3D"/>
<path d="M6.83279 0.341797H0.0230713V7.15154H6.83279V0.341797Z" fill="#000D3D"/>
<path d="M6.12669 25.5309H0V31.6576H6.12669V25.5309Z" fill="#000D3D"/>
<path d="M6.47856 12.9476H0V19.4262H6.47856V12.9476Z" fill="#000D3D"/>
</g>
<defs>
<clipPath id="clip0_1_48">
<rect width="32" height="32" fill="white"/>
</clipPath>
</defs>
</svg>
