<svg xmlns="http://www.w3.org/2000/svg" width="200" height="200" fill="none" viewBox="0 0 200 200">
  <g clip-path="url(#a)">
    <path fill="#EDF0F4" d="M100 200c55.228 0 100-44.772 100-100S155.228 0 100 0 0 44.772 0 100s44.772 100 100 100Z"/>
    <path fill="#202020" d="M146.163 126.724c-9.23 15.909-26.447 26.609-46.163 26.609-29.455 0-53.333-23.878-53.333-53.333 0-29.456 23.878-53.333 53.333-53.333 19.736 0 36.966 10.72 46.19 26.654l11.539-6.683C146.198 46.728 124.664 33.333 100 33.333c-36.819 0-66.667 29.848-66.667 66.667S63.181 166.667 100 166.667c24.651 0 46.176-13.382 57.711-33.275l-11.548-6.668Z"/>
    <path fill="#202020" d="M166.667 93.333h-55.132c-2.307-3.981-6.603-6.667-11.535-6.667-7.364 0-13.334 5.97-13.334 13.334s5.97 13.333 13.334 13.333c4.932 0 9.228-2.685 11.535-6.667h55.132V93.333Z"/>
  </g>
  <defs>
    <clipPath id="a">
      <path fill="#fff" d="M0 0h200v200H0z"/>
    </clipPath>
  </defs>
</svg>
