<svg xmlns="http://www.w3.org/2000/svg" width="200" height="200" fill="currentColor" viewBox="0 0 200 200">
	<g clip-path="url(#a)">
		<path fill="#fff" fill-rule="evenodd" d="M100 0c55.303 0 100 44.81 100 100 0 55.303-44.809 100-100 100-55.295.008-100-44.801-100-100C0 44.705 44.81 0 100 0Z" clip-rule="evenodd"/>
		<path fill="#181EA9" d="M100.007 0C44.86 0 0 44.86 0 100.007c0 55.147 44.86 100.007 100.007 100.007 55.147 0 100.007-44.86 100.007-100.007C200.014 44.86 155.14 0 100.007 0Zm0 194.341c-52.014 0-94.334-42.32-94.334-94.334S47.979 5.673 100.007 5.673c52.029 0 94.334 42.32 94.334 94.334s-42.32 94.334-94.334 94.334Zm19.05-136.527-8.777 8.777a18.057 18.057 0 0 0-10.555-3.372c-10.047 0-18.218 8.17-18.218 18.217 0 9.018 6.576 16.51 15.184 17.964v6.59c-8.608 1.454-15.184 8.947-15.184 17.964 0 10.047 8.17 18.218 18.218 18.218 10.047 0 18.218-8.171 18.218-18.218 0-9.017-6.576-16.51-15.184-17.964V99.4c8.608-1.453 15.184-8.946 15.184-17.964 0-3.922-1.256-7.563-3.373-10.555l8.777-8.777-4.29-4.29Zm-7.182 66.154c0 6.703-5.447 12.15-12.15 12.15s-12.15-5.447-12.15-12.15 5.447-12.15 12.15-12.15 12.15 5.447 12.15 12.15Zm-12.15-30.382c-6.703 0-12.15-5.447-12.15-12.15 0-6.702 5.447-12.15 12.15-12.15s12.15 5.448 12.15 12.15c0 6.703-5.447 12.15-12.15 12.15Z"/>
	</g>
	<defs>
		<clipPath id="a">
			<path fill="#fff" d="M0 0h200v200H0z"/>
		</clipPath>
	</defs>
</svg>
