<svg xmlns="http://www.w3.org/2000/svg" width="200" height="144" fill="currentColor" viewBox="0 0 200 144">
  <g clip-path="url(#a)">
    <path fill="#007F88" d="M5.229.158C2.199.396-.131.871 0 1.228c1.208 2.87 8.677 19.77 8.78 19.872.101.102 1.837.22 3.879.306 9.051.34 16.214 2.106 23.956 5.928 5.563 2.734 9.681 5.672 13.969 9.936 6.312 6.284 10.43 13.265 12.845 21.808.273.985.494 1.868.494 2.004 0 .187-1.378.221-7.47.221-4.117 0-7.656.068-7.877.153-.323.119-1.174 1.953-4.713 10.055-2.382 5.452-4.356 10.038-4.39 10.19-.119.442 1.31.833 4.883 1.36.732.118 5.122.237 10.311.305l9.035.102-.545 1.868c-6.091 20.62-24.994 35.04-48.15 36.772-1.31.085-3.029.17-3.829.17H9.732L5.274 132.52c-3.828 8.747-4.423 10.242-4.168 10.327 1.157.424 3.743.577 9.732.577 7.657 0 11.383-.339 17.695-1.63 25.777-5.283 47.198-21.656 56.896-43.532 1.871-4.212 4.066-11.142 4.458-14.047l.119-.832h19.345l.068.374c1.395 6.828 2.91 11.43 5.53 16.866 7.877 16.373 22.646 29.74 40.936 37.077a88.128 88.128 0 0 0 34.965 6.268c5.002-.153 8.983-.714 8.779-1.24-.17-.442-8.643-19.855-8.694-19.906-.051-.051-1.804-.119-3.931-.204-5.972-.238-10.463-.934-15.534-2.378-7.809-2.242-15.534-6.301-21.455-11.261-7.452-6.267-12.845-14.063-15.704-22.708-.323-.986-.646-2.022-.697-2.327l-.12-.544 7.283-.05c3.998-.035 7.401-.12 7.537-.188.221-.119 8.932-19.838 8.932-20.228 0-.255-2.194-.9-4.185-1.223-1.463-.238-3.318-.306-10.719-.357l-8.967-.085.341-1.206c4.968-17.562 20.213-31.507 39.864-36.45 4.339-1.086 8.558-1.647 14.037-1.867 3.267-.136 3.675-.187 3.879-.459.136-.187 2.144-4.688 4.458-10.004 2.841-6.505 4.151-9.715 4.032-9.8-.374-.204-2.756-.629-4.628-.815-2.722-.29-10.667-.238-14.172.067-20.043 1.784-38.113 9.852-51.656 23.032-8.269 8.05-14.071 17.086-17.644 27.515-.919 2.633-2.024 6.777-2.365 8.781l-.204 1.24H90.3l-.068-.39c-.051-.204-.238-1.173-.442-2.158-2.808-13.927-10.736-27.464-21.932-37.434C55.114 9.958 39.223 2.84 21.732.679 16.475.04 9.698-.18 5.23.158Z"/>
  </g>
  <defs>
    <clipPath id="a">
      <path fill="#fff" d="M0 0h200v144H0z"/>
    </clipPath>
  </defs>
</svg>
