<svg xmlns="http://www.w3.org/2000/svg" width="200" height="200" fill="none" viewBox="0 0 200 200">
  <path fill="#0D0D0D" d="M0 100C0 44.772 44.771 0 100 0c55.228 0 100 44.772 100 100 0 55.229-44.772 100-100 100C44.771 200 0 155.229 0 100Z"/>
  <path fill="#fff" d="m107.422 73.738 3.521-4.11 12.215-14.242h11.05L110.84 82.593s-2.602-3.08-3.489-4.11c-1.166-1.379-1.126-3.438.071-4.745ZM78.066 55.386s19.569 23.42 26.65 30.684c1.127 1.132.926 2.621-.103 3.825-3.761 4.428-3.865 4.5-3.865 4.5l-33.667-39.01h10.985Zm15.911 70.293-3.521 4.111-12.215 14.241H67.19l23.368-27.207s2.602 3.081 3.49 4.11c1.164 1.379 1.126 3.438-.072 4.745Zm.447-23.912c-9.51 11.018-36.263 42.27-36.263 42.27H46.289l36.405-42.16c1.166-1.347 1.166-3.366 0-4.674L46.567 55.4h11.426l36.334 42.16c.926 1.243 1.094 3.049.103 4.214l-.006-.006Zm28.741 42.27-24.67-28.767-1.23-1.56c-1.165-1.346-1.126-3.437.072-4.751l45.979-53.566h11.393l-46.258 52.86c-1.197 1.314-1.23 3.399-.071 4.745l26.683 31.039h-11.905.007Zm21.005 0-26.553-31a3.608 3.608 0 0 1-.751-3.192c.207-.601.648-1.275 1.062-1.734l3.081-3.398 33.972 39.324H144.17Z"/>
</svg>
