<svg xmlns="http://www.w3.org/2000/svg" width="200" height="200" fill="none" viewBox="0 0 200 200">
  <g clip-path="url(#a)">
    <mask id="b" width="200" height="200" x="0" y="0" maskUnits="userSpaceOnUse" style="mask-type:alpha">
      <path fill="#162E2F" d="M100 200c55.228 0 100-44.772 100-100S155.228 0 100 0 0 44.772 0 100s44.772 100 100 100Z"/>
    </mask>
    <g mask="url(#b)">
      <path fill="#162E2F" d="M100 200c55.228 0 100-44.772 100-100S155.228 0 100 0 0 44.772 0 100s44.772 100 100 100Z"/>
      <path fill="url(#c)" d="M-37.5 31.25h155v31L133 81.625 117.5 101l27.125 17.438-27.125 17.437v34.875h-155V31.25Z"/>
      <path fill="url(#d)" d="M0 62.5h75v18.75H0V62.5Z"/>
      <path fill="url(#e)" d="M75 137.5H0v-18.75h75v18.75Z"/>
      <path fill="#C4FDF2" d="M148.569 74.11c-1.49-15.227-14.633-20.31-31.22-21.736l-.035-21.124-12.849.024.036 20.567c-3.378.005-6.83.078-10.261.153l-.032-20.705-12.842.022.032 21.118c-2.78.062-5.513.119-8.177.125l-.001-.067-17.72.024.026 13.733s9.487-.197 9.33-.023c5.203-.007 6.903 3.015 7.401 5.623.033 19.302.065 38.562.095 57.869-.225 1.639-1.183 4.256-4.82 4.267.166.146-9.338.014-9.338.014l-2.528 15.36 16.72-.028c3.113-.001 6.174.046 9.18.059l.042 21.365 12.834-.02-.036-21.139c3.524.068 6.933.09 10.264.081l.029 21.041 12.85-.024-.033-21.326c21.598-1.277 36.708-6.747 38.55-27.052 1.488-16.348-6.207-23.628-18.473-26.555 7.443-3.809 12.089-10.505 10.981-21.646l-.005-.002v.001Zm-17.899 45.712c.034 15.966-27.286 14.197-35.994 14.219l-.043-28.307c8.709-.012 36.01-2.565 36.037 14.088Zm-6.043-39.928c.021 14.526-22.763 12.87-30.016 12.882l-.042-25.672c7.252-.013 30.032-2.359 30.059 12.79h-.001Z"/>
    </g>
  </g>
  <defs>
    <linearGradient id="c" x1="144.625" x2="-37.5" y1="101" y2="101" gradientUnits="userSpaceOnUse">
      <stop stop-color="#4E988D"/>
      <stop offset="1" stop-color="#264C4A"/>
    </linearGradient>
    <linearGradient id="d" x1="37.5" x2="37.5" y1="62.5" y2="81.25" gradientUnits="userSpaceOnUse">
      <stop stop-opacity=".1"/>
      <stop offset="1" stop-opacity="0"/>
    </linearGradient>
    <linearGradient id="e" x1="37.5" x2="37.5" y1="137.5" y2="118.75" gradientUnits="userSpaceOnUse">
      <stop stop-opacity=".1"/>
      <stop offset="1" stop-opacity="0"/>
    </linearGradient>
    <clipPath id="a">
      <path fill="#fff" d="M0 0h200v200H0z"/>
    </clipPath>
  </defs>
</svg>
