<svg fill="none" height="32" viewBox="0 0 32 32" width="32"
  xmlns="http://www.w3.org/2000/svg"
  xmlns:xlink="http://www.w3.org/1999/xlink">
  <linearGradient id="a">
    <stop offset="0" stop-color="#f6e93d"/>
    <stop offset=".13" stop-color="#f8e330"/>
    <stop offset=".35" stop-color="#f7c730"/>
    <stop offset=".64" stop-color="#f59c2e"/>
    <stop offset=".98" stop-color="#eb5e2c"/>
    <stop offset="1" stop-color="#eb5c2c"/>
  </linearGradient>
  <linearGradient id="b" gradientUnits="userSpaceOnUse" x1="10.1975" x2="10.1975" xlink:href="#a" y1="13.3693" y2="23.0158"/>
  <linearGradient id="c" gradientUnits="userSpaceOnUse" x1="13.9886" x2="13.9886" xlink:href="#a" y1="18.9842" y2="26.999"/>
  <linearGradient id="d" gradientUnits="userSpaceOnUse" x1="18.4569" x2="18.4569" xlink:href="#a" y1="16.6426" y2="25.597"/>
  <linearGradient id="e" gradientUnits="userSpaceOnUse" x1="11.2292" x2="11.2292" xlink:href="#a" y1="6.77519" y2="13.7435"/>
  <linearGradient id="f" gradientUnits="userSpaceOnUse" x1="23.1743" x2="23.1743" xlink:href="#a" y1="9.13657" y2="19.7237"/>
  <linearGradient id="g" gradientUnits="userSpaceOnUse" x1="17.3524" x2="17.3524" xlink:href="#a" y1="5" y2="15.8941"/>
  <linearGradient id="h" gradientUnits="userSpaceOnUse" x1="19.4931" x2="19.4931" xlink:href="#a" y1="13.3535" y2="15.8971"/>
  <linearGradient id="i" gradientUnits="userSpaceOnUse" x1="12.4458" x2="13.2537" xlink:href="#a" y1="15.2621" y2="13.0423"/>
  <path d="m16 32c8.8366 0 16-7.1634 16-16 0-8.83656-7.1634-16-16-16-8.83656 0-16 7.16344-16 16 0 8.8366 7.16344 16 16 16z" fill="#000"/>
  <path d="m10.7644 14.4257h.0099l.1683.0594.1584.0595.1683.0495.1584.0693.1683.0594.1585.0594.1683.0594.1584.0594.1584.0594.1584.0594.1683.0594.1584.0693.1684.0495.1584.0594.1683.0594.1584.0693.1683.0594.1584.0495.1585.0595.1683.0693.1683.0594v-.2575-.0396-.2079-.1485-.1089-.2574-.2476-.2574-.2475-.2673-.2476-.0297h-.198-.1881-.0198-.208-.1584-.0594-.2079-.1089-.1089-.2179-.0594-.1485-.2079-.0099-.0099-.198-.1782-.0297-.2179-.1386-.3762-.3762-.0099-.2179l-.1584.0792-.3762.1981-.38616.2079-.38614.1881-.36634.198-.38613.2079-.38614.1882-.37624.2079-.38614.198-.37624.1881-.37623.2079-.34654.1783-.0396 5.6732.38614.2674.37623.2673.37624.2574.38614.2772.37624.2674.38614.2673.16831.1287.21782-.2772.36634-.4951.0396-.0495-.0396-.0297-.36634-.2673-.38613-.2673-.38614-.2674-.37624-.2673-.38614-.2772-.09901-.0594.0297-4.5941.06931-.0396.38614-.1881.37624-.1881.38614-.1881.38613-.1882.36634-.198.38614-.1881.38616-.1782.3762-.198z" fill="url(#b)"/>
  <path d="m17.3188 25.2476-.3168.1287-.3564.1485-.3565.1386-.3564.1485-.1584.0594-.1881-.0891-.3565-.1881-.3564-.1683-.3465-.1882-.3565-.1782-.3564-.1683-.3564-.1881-.3565-.1782-.3564-.1782-.3565-.1783-.3564-.1881-.3366-.1683-.3565-.1782-.0396-.0198v-4.6337h-.3168-.3564-.3565v5.2674l.3565.1683.3564.1782.3564.1881.3565.1683.3366.1881.3564.1783.3565.1782.3564.1782.3565.1782.3564.1782.3564.1782.3565.1882.3465.1683.3564.1881.3565.1683.1386.0792.2079-.099.3564-.1287.3565-.1485.3564-.1485.3465-.1386.3565-.1387-.3565-.891z" fill="url(#c)"/>
  <path d="m23.6455 18.8119.0198 2.1782-.0891.0792-.604.4158-.6039.4357-.604.4356-.6039.4258-.604.4257-.5941.4357-.6039.4257-.3565.2574-.2475-.1881-.594-.4653-.604-.4555-.604-.4653-.594-.4555-.1089-.0792v-2.3465l.1089-.099.594-.6337.604-.6238.604-.6336.594-.6238.5842-.6138h-.5842-.594-.604-.604-.594-.6139-.6039-.5941-.604-.6039-.5941-.6039l.6039.6336.5941.6238.6039.6237.604.6337.5941.6238.0891.0891v2.8416l.5148.4059.6139.4653.594.4555.604.4653.604.4555.594.4653.2178.1683.3862-.2772.6039-.4158.5941-.4357.604-.4356.6039-.4158.604-.4357.6039-.4356.604-.4159.604-.4356.495-.3664.099-2.6732-.594-.0198z" fill="url(#d)"/>
  <path d="m7.18022 13.7425h.06931l.0099-2.9109.38614-.2475.48515-.2871.47524-.2872.47525-.29699.47525-.28713.48514-.29703.4654-.28713.4851-.28712.4753-.29703.4851-.29703h.0099l.4554.26732.4852.26733.4752.27723.4753.26732.4752.26733.4753.26733.4752.27722.4654.26738.0198-.0397.4752-.86134-.4752-.27723-.4852-.26732-.4752-.26733-.4753-.26733-.4752-.27722-.4753-.26733-.4752-.26733-.4852-.27723-.4653-.26732-.0198-.0099-.4653.27722-.4753.29703-.4851.29703-.4654.29703-.48514.28713-.47525.28713-.47525.29703-.47524.28713-.48515.29703-.46535.28713-.48515.28713-.45544.28716-.0198 3.4752h.47524z" fill="url(#e)"/>
  <path d="m25.7941 11.0791-.2476-.198-.2475-.198-.2475-.2079-.2475-.198-.2476-.1981-.2574-.19798-.2475-.19802-.2475-.19802-.2575-.20792-.1881-.13861-.0693.07921-.2475.30693-.2475.31683-.0694.07921.0694.06931.2475.20796.2475.2079.2574.2079.2575.2079.2475.2178.2475.208.2574.2079.1188.099.0099 4.6832-.1287.0891-.2574.1584-.2475.1584-.2475.1584-.2575.1584-.2574.1584-.2475.1585-.2475.1584-.2476.1584-.2475.1584-.2475.1584-.2574.1584-.2476.1585-.2475.1584-.2475.1584-.2574.1584-.2476.1584.2476.3961.2574.396.0396.0693.2079-.1287.2475-.1485.2476-.1584.2574-.1486.2475-.1683.2475-.1485.2476-.1584.2475-.1485.2475-.1584.2574-.1485.2575-.1684.2475-.1485.2475-.1584.2574-.1485.2476-.1584.2475-.1485.2475-.1684.2475-.1485.2476-.1584z" fill="url(#f)"/>
  <path d="m17.6257 13.8713v.2574.2574.2575.2673.2673.2574.2575.198l.0792-.0297.3367-.1287.3366-.1386.3267-.1288.3367-.1386.3366-.1386.3267-.1287.3367-.1386.3366-.1287.3267-.1386.3367-.1287.3267-.1387v-.2574-.099-.6832-5.08907l-.3763-.23763-.3861-.21782-.3861-.21782-.3763-.23763-.3861-.21782-.3861-.21782-.3763-.22772-.3861-.22772-.3763-.22773-.3861-.21782-.3861-.22772-.3763-.22772-.3762-.21783-.3861-.21782-.208-.11881-.1782.09901-.3861.20792-.3862.19802-.3663.21782-.3861.20792-.3862.19802-.3861.21782.3861.21783.3862.21782.2376.14851.1485-.0792.3663-.19802.3862-.20793.3861-.19802.1485-.0792.2377.13861.3861.21782.3762.21782.3763.22773.3861.22772.3861.21782.3763.22772.3861.22773.3763.21782.3861.21782.3861.23762.3763.21783.1287.0693v4.51482h-.0891-.0396-.1782-.1981-.0198-.2277-.1386-.0792-.2178-.0891-.1288-.2178-.0297-.1881-.198-.0198-.2277-.1288-.0891-.1683-.0297" fill="url(#g)"/>
  <path d="m17.6258 15.8911 3.7426-1.5049-3.7426-1.0396" fill="url(#h)"/>
  <path d="m14.2 15.8911v-2.505l-3.4258 1.0198 3.4258 1.4753" fill="url(#i)"/>
</svg>