<svg t="1737426296825" class="icon" viewBox="0 0 1024 1024" version="1.1"
  xmlns="http://www.w3.org/2000/svg" p-id="4926" width="200" height="200">
  <path d="M512 512m-512 0a512 512 0 1 0 1024 0 512 512 0 1 0-1024 0Z" fill="#2A5ADA" p-id="4927"></path>
  <path d="M446.634667 206.677333L509.252267 170.666667l62.634666 36.010666 170.666667 98.645334L805.179733 341.333333v341.333334l-62.634666 36.010666-169.096534 98.645334-62.634666 36.010666-62.634667-36.010666L275.968 718.677333 213.333333 682.666667V341.333333l62.634667-36.010666 170.666667-98.645334zM338.5856 413.354667v197.290666l170.666667 98.645334 170.666666-98.645334V413.354667l-170.666666-98.645334-170.666667 98.645334z" fill="#FFFFFF" p-id="4928"></path>
</svg>