<svg xmlns="http://www.w3.org/2000/svg" width="200" height="200" fill="none" viewBox="0 0 200 200">
  <path fill="#FF596E" d="m52.995 79.47 45.89-21.287V0l-45.89 79.47Zm45.88-21.279v46.36l45.889-25.073-45.89-21.286Z"/>
  <path fill="#800010" d="M98.884 58.191v46.36l-45.89-25.073 45.89-21.286Zm45.88 21.279-45.89-21.287V0l45.89 79.47Z"/>
  <path fill="#FF596E" d="M98.864 122.441v49.411l-46.771-74.97 46.771 25.559Z"/>
  <path fill="#800010" d="M98.875 122.441v49.411l46.772-74.97-46.772 25.559Zm54.501-14.237 10.595 29.735 23.206-38.765-33.801 9.03Z"/>
  <path fill="#FF596E" d="m163.95 137.939 23.206-6.875v-31.89L163.95 137.94Z"/>
  <path fill="#800010" d="m187.184 131.062-33.801 56.477-25.676 10.992 36.271-60.595 23.206-6.874Z"/>
  <path fill="#FF596E" d="m10.584 131.062 33.802 56.477 25.676 10.992-36.272-60.595-23.206-6.874Z"/>
  <path fill="#800010" d="m98.895 198.543-54.492-90.331-10.595 29.736 36.271 60.595h28.816Z"/>
  <path fill="#FF596E" d="M44.386 108.204 33.79 137.939 10.584 99.174l33.802 9.03Z"/>
  <path fill="#800010" d="m33.79 137.939-23.206-6.875v-31.89L33.79 137.94Z"/>
  <path fill="#FF596E" d="m98.875 198.543 54.492-90.331 10.596 29.736-36.273 60.595H98.875Z"/>
</svg>
