<svg width="32" height="32" viewBox="0 0 32 32" fill="none" xmlns="http://www.w3.org/2000/svg">
<g clip-path="url(#clip0_1_2)">
<path d="M32 0H0V32H32V0Z" fill="black"/>
<path d="M15.8471 29.7466V25.0444C15.3783 25.0444 14.8994 25.0032 14.4306 24.9312L13.6968 29.5717C14.4102 29.6952 15.1338 29.7466 15.8471 29.7466ZM17.9873 29.582C18.7006 29.4688 19.4038 29.3042 20.0866 29.0778L18.6497 24.6019C18.2013 24.746 17.7325 24.8591 17.2637 24.9312L17.9873 29.582ZM11.6076 29.0778L13.0446 24.6122C12.5962 24.4681 12.158 24.2829 11.7299 24.0669L9.6102 28.2546C10.2522 28.5736 10.9248 28.8514 11.6076 29.0778ZM22.0739 28.2546C22.7159 27.9254 23.3274 27.5447 23.9083 27.1228L21.1567 23.326C20.7796 23.6038 20.372 23.8611 19.944 24.0669L22.0739 28.2546ZM7.7758 27.1125L10.5274 23.3157C10.1503 23.0379 9.78344 22.7292 9.44714 22.3897L6.14523 25.7132C6.65478 26.2173 7.2051 26.6907 7.7758 27.1125ZM25.5287 25.7337L25.5592 25.7029C26.0688 25.1987 26.5376 24.6431 26.9554 24.0669L23.1847 21.299C22.9096 21.6797 22.5936 22.0501 22.2675 22.3794L22.2166 22.4308L23.8064 23.9434L25.5287 25.7337ZM4.74905 24.0566L8.51975 21.2887C8.24459 20.908 7.98981 20.4964 7.7758 20.0746L3.61784 22.2045C3.94395 22.8527 4.32102 23.4701 4.74905 24.0566ZM28.0764 22.2148C28.4026 21.5768 28.6777 20.8977 28.9019 20.2083L24.4586 18.7678C24.3159 19.2206 24.1325 19.663 23.9185 20.0849L28.0764 22.2148ZM2.79236 20.2083L7.23567 18.7575C7.093 18.3048 6.9809 17.8418 6.90956 17.3685L2.293 18.099C2.4051 18.809 2.57835 19.519 2.79236 20.2083ZM29.4013 18.1093C29.5134 17.3993 29.5745 16.6688 29.5745 15.9485H24.907C24.907 16.4218 24.8662 16.9054 24.7949 17.3788L29.4013 18.1093ZM6.79746 15.9382C6.79746 15.4649 6.83822 14.9813 6.90956 14.508L2.293 13.7775C2.1809 14.4874 2.12994 15.218 2.11975 15.9382H6.79746ZM24.7949 14.5183L29.4115 13.7878C29.2994 13.0778 29.1363 12.3678 28.9121 11.6784L24.4688 13.119C24.6115 13.582 24.7236 14.045 24.7949 14.5183ZM7.23567 13.119C7.37835 12.6662 7.56179 12.2238 7.7758 11.8019L3.61784 9.67201C3.29173 10.3099 3.01657 10.989 2.79236 11.6784L7.23567 13.119ZM23.9287 11.8122L28.0968 9.68229C27.7707 9.03406 27.3936 8.4167 26.9656 7.8302L23.1847 10.5981C23.4599 10.9788 23.7147 11.3903 23.9287 11.8122ZM8.51975 10.5878C8.79491 10.2071 9.11083 9.83664 9.44714 9.49709L9.45733 9.4868L6.15542 6.16332L6.14523 6.17361C5.63567 6.68808 5.16688 7.23342 4.74905 7.81992L8.51975 10.5878ZM22.2675 9.51766L23.2662 8.49901L25.5592 6.19419L25.549 6.1839C25.0395 5.67972 24.4994 5.20641 23.9287 4.78455L21.1771 8.58133C21.5541 8.85914 21.921 9.16783 22.2471 9.50737L22.2675 9.51766ZM10.5376 8.56075C10.9147 8.28294 11.3223 8.03599 11.7503 7.81992L9.63058 3.63213C8.98854 3.96139 8.37708 4.3421 7.79618 4.76397L10.5376 8.56075ZM19.9745 7.8302L22.1045 3.64242C21.4624 3.31316 20.8 3.03535 20.1172 2.80898L18.6701 7.27458C19.1083 7.42892 19.5465 7.61413 19.9745 7.8302ZM13.065 7.27458C13.5134 7.13053 13.9822 7.01734 14.451 6.94532L13.7274 2.3048C13.0242 2.41799 12.3108 2.58262 11.628 2.80898L13.065 7.27458ZM17.2739 6.94532L18.0076 2.3048C17.3045 2.19162 16.5809 2.12988 15.8675 2.12988V6.83213C16.3363 6.83213 16.8153 6.87329 17.2739 6.94532Z" fill="white"/>
<path d="M15.8471 25.2605V20.5376C15.4497 20.5376 15.0624 20.4862 14.6752 20.3833L13.4522 24.9415C14.2369 25.1473 15.042 25.2605 15.8471 25.2605ZM18.242 24.9415C19.0268 24.7357 19.7707 24.427 20.4739 24.0155L18.1096 19.9306C17.7732 20.1261 17.4064 20.2804 17.0293 20.3833L18.242 24.9415ZM11.2306 24.0155L13.5949 19.9306C13.2586 19.7351 12.9427 19.4881 12.6573 19.2103L12.6166 19.1692L11.1287 20.7434L9.29427 22.5235L9.32484 22.5544C9.89554 23.1203 10.5376 23.6142 11.2306 24.0155ZM22.3796 22.5544C22.9503 21.9782 23.4497 21.3402 23.8471 20.6405L19.7605 18.274C19.5669 18.6135 19.3223 18.9222 19.0369 19.2103L22.3796 22.5544ZM7.84713 20.6302L11.9338 18.274C11.7401 17.9344 11.5873 17.5743 11.4854 17.1936L6.92994 18.4077C7.13376 19.1794 7.44968 19.9306 7.84713 20.6302ZM24.7745 18.418C24.9783 17.636 25.0904 16.8335 25.0904 16.0309H20.372C20.372 16.4219 20.321 16.8232 20.2191 17.2039L24.7745 18.418ZM11.3427 16.0206C11.3427 15.6296 11.3936 15.2283 11.4955 14.8476L6.92994 13.6335C6.72612 14.4155 6.61401 15.218 6.61401 16.0206H11.3427ZM20.2089 14.8579L24.7745 13.6437C24.5707 12.8618 24.2548 12.1106 23.8573 11.411L19.7707 13.7672C19.9541 14.1171 20.107 14.4772 20.2089 14.8579ZM11.9439 13.7672C12.1376 13.438 12.372 13.119 12.6573 12.8412L12.6675 12.8309L10.9758 11.1434L9.35542 9.46626L9.32484 9.49713C8.75414 10.063 8.26497 10.7113 7.85733 11.4007L11.9439 13.7672ZM19.0369 12.8412L20.7083 11.164L22.4204 9.53828L22.3796 9.49713C21.8089 8.92092 21.1669 8.43732 20.4739 8.02574L18.1096 12.1106C18.4459 12.3061 18.7516 12.5428 19.0369 12.8206V12.8412ZM13.5949 12.1106C13.9312 11.9151 14.2981 11.7608 14.6752 11.6579L13.4726 7.0997C12.6879 7.30549 11.944 7.61417 11.2408 8.02574L13.5949 12.1106ZM17.0191 11.6682L18.242 7.10999C17.4675 6.9042 16.6624 6.79102 15.8573 6.79102V11.5138C16.2446 11.5138 16.642 11.5653 17.0191 11.6682Z" fill="white"/>
</g>
<defs>
<clipPath id="clip0_1_2">
<rect width="32" height="32" fill="white"/>
</clipPath>
</defs>
</svg>
