<?xml version="1.0" encoding="UTF-8"?>
<svg xmlns="http://www.w3.org/2000/svg" xmlns:xlink="http://www.w3.org/1999/xlink" width="32px" height="32px" viewBox="0 0 32 32" version="1.1">
<g id="surface1">
<path style=" stroke:none;fill-rule:nonzero;fill:rgb(0%,0%,0%);fill-opacity:1;" d="M 25.644531 1.652344 L 18.964844 11.558594 C 18.503906 12.234375 19.390625 13.050781 20.03125 12.484375 L 26.601562 6.765625 C 26.777344 6.625 27.027344 6.730469 27.027344 6.980469 L 27.027344 24.84375 C 27.027344 25.09375 26.707031 25.199219 26.566406 25.019531 L 6.675781 1.226562 C 6.039062 0.445312 5.113281 0.0195312 4.085938 0.0195312 L 3.375 0.0195312 C 1.527344 0.0195312 0 1.546875 0 3.425781 L 0 28.574219 C 0 30.453125 1.527344 31.980469 3.410156 31.980469 C 4.582031 31.980469 5.683594 31.378906 6.320312 30.347656 L 13 20.441406 C 13.460938 19.765625 12.574219 18.949219 11.933594 19.515625 L 5.363281 25.199219 C 5.183594 25.339844 4.9375 25.234375 4.9375 24.984375 L 4.9375 7.15625 C 4.9375 6.90625 5.257812 6.800781 5.398438 6.980469 L 25.289062 30.773438 C 25.925781 31.554688 26.886719 31.980469 27.878906 31.980469 L 28.589844 31.980469 C 30.472656 31.980469 32 30.453125 32 28.574219 L 32 3.425781 C 32 1.546875 30.472656 0.0195312 28.589844 0.0195312 C 27.382812 0.0195312 26.28125 0.621094 25.644531 1.652344 Z M 25.644531 1.652344 "/>
</g>
</svg>
