<svg t="1739949054008" class="icon" viewBox="0 0 1024 1024" version="1.1"
	xmlns="http://www.w3.org/2000/svg" p-id="5431" width="200" height="200">
	<path d="M512.16 511.84m-511.84 0a511.84 511.84 0 1 0 1023.68 0 511.84 511.84 0 1 0-1023.68 0Z" fill="#FFFFFF" p-id="5432"></path>
	<path d="M512 153.28c73.92 0 145.12 27.68 196.48 79.2 52.8 51.36 81.76 118.72 81.76 191.2v447.2H233.6V423.68c0-72.48 28.96-139.84 81.76-191.2C366.88 180.96 436.8 153.28 512 153.28m0-14.56c-77.76 0-151.68 28.96-207.04 83.04S219.2 347.2 219.2 423.68v461.6h585.6V423.68c0-76.48-30.4-147.68-85.76-200.48-55.36-55.36-129.28-84.48-207.04-84.48z" fill="#070001" p-id="5433"></path>
	<path d="M684.2624 258.904l-13.12-13.12c-43.52-38.24-98.88-58.08-158.24-58.08-64.64 0-126.56 25.12-171.52 71.2-46.24 46.24-71.2 106.88-71.2 171.52v403.52H755.4624V431.704c0-65.92-26.24-126.56-71.2-172.8z m-75.2 550.08c-22.4 7.84-47.52 11.84-72.48 11.84H361.0624V740.344c-4-4-7.84-9.28-10.56-13.12-30.4-39.52-46.24-88.32-46.24-138.56v-151.68c0-59.36 22.4-114.72 61.92-158.24 5.28 0 11.84 0 18.4 1.28 40.96 4 96.32 18.4 143.84 51.36 42.24 28.96 93.6 81.76 93.6 167.52v306.08c-3.68 1.28-7.68 2.72-12.96 4z" fill="#070001" p-id="5434"></path>
	<path d="M530.0224 331.544c-47.52-31.68-102.88-47.52-143.84-51.36-6.56 0-13.12-1.28-18.4-1.28-39.52 43.52-61.92 98.88-61.92 158.24v151.68c0 50.08 15.84 98.88 46.24 138.56 4 4 6.56 9.28 10.56 13.12V820.984H538.1824c25.12 0 48.8-4 72.48-11.84 5.28-1.28 9.28-2.56 14.56-5.28v-306.24c-1.6-85.6-52.96-137.12-95.2-166.08z m-154.4 474.72v-51.36c23.68 22.4 51.36 40.96 81.76 51.36h-81.76z m233.44-11.84c-22.4 7.84-47.52 11.84-72.48 11.84-58.08 0-112.16-22.4-154.24-64.64l-7.84-7.84c-5.28-5.28-10.56-11.84-14.56-18.4-27.68-36.96-42.24-81.76-42.24-128v-150.4c0-52.8 19.84-104.16 54.08-143.84 92.32 4 236.16 67.2 236.16 204.48v296.8h1.12z" fill="#070001" p-id="5435"></path>
	<path d="M456.64 629.92c-4 0-7.84-4-7.84-7.84v-134.56c0-35.68 28.96-64.64 64.64-64.64 35.68 0 64.64 28.96 64.64 64.64 0 4-4 7.84-7.84 7.84-4 0-7.84-4-7.84-7.84 0-26.4-22.4-48.8-48.8-48.8s-48.8 22.4-48.8 48.8v134.56c-0.32 3.84-4.32 7.84-8.16 7.84z" fill="#070001" p-id="5436"></path>
	<path d="M536.96 525.76c-4 0-7.84-4-7.84-7.84 0-9.28-6.56-15.84-15.84-15.84-9.28 0-15.84 6.56-15.84 15.84 0 4-4 7.84-7.84 7.84-4 0-7.84-4-7.84-7.84 0-18.4 14.56-32.96 32.96-32.96 18.4 0 32.96 14.56 32.96 32.96-2.72 3.84-6.72 7.84-10.72 7.84zM456.64 629.92c-23.68 0-43.52-19.84-43.52-43.52 0-4 4-7.84 7.84-7.84 4 0 7.84 4 7.84 7.84 0 14.56 11.84 26.4 26.4 26.4s26.4-11.84 26.4-26.4c0-4 4-7.84 7.84-7.84 4 0 7.84 4 7.84 7.84 1.44 23.68-16.96 43.52-40.64 43.52zM410.4 538.88c-2.56 0-4-1.28-5.28-2.56l-35.68-35.68v30.4c0 4-4 7.84-7.84 7.84-4 0-9.28-4-9.28-9.28v-48.8c0-4 2.56-6.56 5.28-7.84 4-1.28 6.56-1.28 9.28 1.28l35.68 35.68v-21.12c0-4 4-7.84 7.84-7.84 4 0 7.84 4 7.84 7.84V529.6c0 4-2.56 6.56-5.28 7.84 0 1.44-1.28 1.44-2.56 1.44zM456.64 496.64c-4 0-7.84-4-7.84-7.84 0-1.28 0-34.24-22.4-34.24-4 0-7.84-4-7.84-7.84 0-4 4-7.84 7.84-7.84 30.4 0 38.24 32.96 38.24 50.08-0.16 3.84-4.16 7.68-8 7.68z" fill="#070001" p-id="5437"></path>
	<path d="M331.84 341.44l30.88-51.04 30.88-4.8 2.08-17.6-13.28-16.48-76.64 65.92-16.48 229.12L332.96 820.8l35.68 4.32v-80.32l-11.84-17.6-36.16-71.84-11.04-90.4 2.56-145.76z" fill="#070001" p-id="5438"></path>
</svg>