<svg t="1739951167078" class="icon" viewBox="0 0 1024 1024" version="1.1"
  xmlns="http://www.w3.org/2000/svg" p-id="14245" width="200" height="200">
  <path d="M0 512.007208a511.992792 511.992792 0 0 0 511.992792 511.992792 511.989592 511.989592 0 0 0 362.033303-149.959489 511.989592 511.989592 0 0 0 0-724.066606A511.992792 511.992792 0 0 0 0 512.007208z" fill="#708B96" p-id="14246"></path>
  <path d="M561.83689 712.068391l0.0032 22.335686H737.589616v-62.674318h-86.790778c52.218465-39.140249 85.766793-99.984192 85.766793-168.31443 0-118.081538-100.18579-213.80499-223.77445-213.80499-123.58706 0-223.77285 95.723452-223.77285 213.80499 0 68.330238 33.548328 129.174181 85.766793 168.31443H287.995946V734.404077h175.749525v-84.237214c-64.037498-19.942119-110.355246-77.880504-110.355246-146.245941 0-84.862805 71.366995-153.657037 159.400956-153.657037s159.400956 68.794232 159.400956 153.657037c0 68.365438-46.317748 126.303822-110.355247 146.245941v61.901528z" fill="#FFFFFF" p-id="14247"></path>
</svg>