<svg xmlns="http://www.w3.org/2000/svg" width="200" height="200" fill="currentColor" viewBox="0 0 200 200">
  <g clip-path="url(#a)">
    <path fill="url(#b)" d="M156.856 0a43.063 43.063 0 0 0-30.475 12.614A43.297 43.297 0 0 0 113.7 43.127v47.82c-4.444.3-8.989.49-13.7.49-4.711 0-9.233.19-13.7.457V43.129a43.33 43.33 0 0 0-12.88-30.15A43.095 43.095 0 0 0 43.15.55a43.095 43.095 0 0 0-30.27 12.43A43.33 43.33 0 0 0 0 43.13v114.288a43.328 43.328 0 0 0 12.88 30.149 43.093 43.093 0 0 0 30.27 12.43 43.093 43.093 0 0 0 30.27-12.43 43.328 43.328 0 0 0 12.88-30.149v-47.819c4.444-.3 8.989-.49 13.7-.49 4.711 0 9.233-.189 13.7-.457v48.766a43.33 43.33 0 0 0 12.88 30.149 43.094 43.094 0 0 0 30.27 12.43 43.094 43.094 0 0 0 30.27-12.43 43.33 43.33 0 0 0 12.88-30.15V43.129a43.3 43.3 0 0 0-12.677-30.512A43.064 43.064 0 0 0 156.856 0ZM43.144 17.67a25.42 25.42 0 0 1 17.984 7.449 25.56 25.56 0 0 1 7.483 18.01v50.637a144.87 144.87 0 0 0-36.667 10.395 66.658 66.658 0 0 0-14.222 8.512V43.129a25.56 25.56 0 0 1 7.468-17.994 25.42 25.42 0 0 1 17.954-7.465Zm25.467 139.747a25.572 25.572 0 0 1-7.459 18.057 25.432 25.432 0 0 1-18.008 7.48 25.432 25.432 0 0 1-18.007-7.48 25.572 25.572 0 0 1-7.46-18.057v-11.464c0-10.128 8-19.72 21.412-25.692a125.273 125.273 0 0 1 29.522-8.657v45.813Zm88.245 25.459a25.42 25.42 0 0 1-17.984-7.449 25.564 25.564 0 0 1-7.483-18.01V106.78a144.885 144.885 0 0 0 36.667-10.395 66.646 66.646 0 0 0 14.222-8.512v69.544a25.56 25.56 0 0 1-7.468 17.994 25.418 25.418 0 0 1-17.954 7.465Zm4.055-102.658a125.305 125.305 0 0 1-29.522 8.657V43.13a25.571 25.571 0 0 1 7.459-18.057 25.431 25.431 0 0 1 18.008-7.48 25.43 25.43 0 0 1 18.007 7.48 25.571 25.571 0 0 1 7.459 18.057v11.464c0 10.083-8 19.676-21.411 25.625Z"/>
  </g>
  <defs>
    <linearGradient id="b" x1="12.667" x2="186.667" y1="185.096" y2="11.096" gradientUnits="userSpaceOnUse">
      <stop stop-color="#00AEE9"/>
      <stop offset="1" stop-color="#69FABD"/>
    </linearGradient>
    <clipPath id="a">
      <path fill="#fff" d="M0 0h200v200H0z"/>
    </clipPath>
  </defs>
</svg>
