<svg xmlns="http://www.w3.org/2000/svg" width="200" height="200" fill="none" viewBox="0 0 200 200">
	<g clip-path="url(#a)">
		<path fill="#000" fill-rule="evenodd" d="M99.944 0c55.272 0 99.944 44.784 99.944 99.944 0 55.272-44.784 99.944-99.944 99.944C44.68 199.896 0 155.112 0 99.944 0 44.68 44.784 0 99.944 0Z" clip-rule="evenodd"/>
		<path fill="#DEF141" d="M127.733 49.65 18.7 158.233a100 100 0 1 1 167.717-108.6H127.75l-.017.017Z"/>
		<path fill="#DEF141" d="M138.583 76.367 36.95 177.617a102.11 102.11 0 0 1-7.767-7.034l105.25-104.9h59.517a96.815 96.815 0 0 1 3.233 10.667l-58.6.017Zm17.534 42.883h42.033a100.03 100.03 0 0 1-80.709 79.242 100.032 100.032 0 0 1-39.791-.992l78.467-78.25Z"/>
		<path fill="#DEF141" d="M200 100c0 1.067 0 2.133-.05 3.2h-50.517l-89 88.667a98.344 98.344 0 0 1-9.95-4.95l94.784-94.5h54.45c.183 2.5.283 5.033.283 7.583Z"/>
	</g>
	<defs>
		<clipPath id="a">
			<path fill="#fff" d="M0 0h200v200H0z"/>
		</clipPath>
	</defs>
</svg>
