<svg xmlns="http://www.w3.org/2000/svg" width="202" height="203" fill="currentColor" viewBox="0 0 202 203">
  <path fill="#006AFD" d="M99.994 201.052c55.226-.586 100.425-46.038 100.955-101.519.53-55.481-46.87-98.449-100.945-98.452C44.779 1.667 1.49 46.174.96 101.655c-.53 55.481 43.809 99.983 99.034 99.397Z"/>
  <path fill="#FEFEFE" d="M137.046 49.165c.279.241.557.484.833.73l.428.367c4.484 3.915 7.261 9.536 7.739 15.466.137 2.905-.02 5.773-.87 8.569-.082.27-.161.542-.237.815-.297 1.055-.698 2.026-1.175 3.012l-.223.463c-.577 1.177-1.203 2.26-1.995 3.307l-.346.457c-4.474 5.671-10.785 8.401-17.821 9.377-.685.067-1.37.09-2.058.119-2.77.216-5.654 1.27-7.559 3.359-1.776 2.232-2.154 4.743-1.883 7.522.268 1.485.898 2.818 1.833 4l.309.42c.608.703 1.397 1.113 2.191 1.58l.328.199c1.51.841 3.488 1.27 5.203 1.361 5.447.331 10.583 1.754 14.969 5.106l.388.286c3.099 2.364 5.358 5.339 6.946 8.881l.274.588c1.901 4.357 2.388 9.803 1.226 14.412l-.087.35c-.938 3.688-2.65 6.901-5.08 9.817l-.33.401c-.659.782-1.386 1.445-2.17 2.099l-.404.353c-5.105 4.364-11.526 5.781-18.096 5.313-2.363-.258-4.667-.853-6.833-1.833l-.333-.148c-2.24-1.011-4.178-2.333-5.97-4.017-.364-.344-.364-.344-.783-.66-.753-.621-1.311-1.413-1.914-2.175l-.421-.508c-1.023-1.253-1.764-2.557-2.44-4.025-.12-.258-.248-.512-.378-.766-2.554-5.115-2.467-11.651-.727-16.985a46.632 46.632 0 0 1 2.091-5.039c1.222-2.559 1.975-5.627 1.114-8.427-.983-2.457-2.608-4.067-4.987-5.176-2.216-.91-4.569-1.106-6.805-.178-1.343.625-2.411 1.37-3.447 2.437l-.372.373c-.765.806-1.397 1.666-2.014 2.586-3.61 5.376-8.472 9.076-14.698 10.844l-.368.104a1036.736 1036.736 0 0 0-.664.181c-1.03.213-2.056.276-3.105.291l-.39.007c-2.836.037-5.5.012-8.223-.886l-.362-.113a22.122 22.122 0 0 1-6.971-3.72l-.406-.303c-4.925-3.767-7.957-9.33-8.86-15.425-.108-.972-.117-1.942-.11-2.919 0-.342 0-.683-.003-1.024-.002-1.975.198-3.906.743-5.808l.108-.38c1.109-3.742 3.193-6.98 5.861-9.808l.334-.366c1.681-1.777 3.656-3.095 5.812-4.227l.48-.253a13.726 13.726 0 0 1 2.675-1.052c.357-.099.697-.22 1.043-.352 1.787-.601 3.781-.837 5.656-.916l.593-.027c5.703-.132 11.503 1.88 15.785 5.697.271.27.53.547.789.83.394.4.79.793 1.203 1.174 1.451 1.364 2.534 2.988 3.666 4.616 1.694 2.432 3.878 4.585 6.894 5.156 2.613.346 5.145-.344 7.27-1.878 1.696-1.375 2.809-3.41 3.134-5.568.219-3.155-.713-5.728-2.09-8.52-1.28-2.631-2.038-5.42-2.41-8.314l-.093-.642a19.534 19.534 0 0 1 .426-7.024l.146-.632c.724-2.926 1.967-5.543 3.687-8.014l.246-.355a13.07 13.07 0 0 1 1.656-1.903c.264-.262.493-.534.723-.825 3.393-4.025 9.256-6.334 14.367-6.91 6.203-.507 12.472 1.148 17.342 5.076Z"/>
</svg>
