<svg xmlns="http://www.w3.org/2000/svg" width="200" height="200" fill="none" viewBox="0 0 200 200">
  <path fill="#CC2C1E" fill-rule="evenodd" d="M100 0c55.303 0 100 44.81 100 100 0 55.303-44.809 100-100 100-55.295.008-100-44.801-100-100C0 44.705 44.81 0 100 0Z" clip-rule="evenodd"/>
  <path fill="#fff" fill-rule="evenodd" d="M100 36c16.015 0 31.089 6.237 42.411 17.574h.015C153.762 64.911 160 79.971 160 96c0 16.029-6.238 31.089-17.574 42.426C131.089 149.762 116.029 156 100 156c-16.029 0-31.089-6.238-42.426-17.574C46.237 127.089 40 112.029 40 96c0-11.604 3.273-22.73 9.483-32.381a12.818 12.818 0 0 1-2.922-8.162c0-7.109 5.787-12.897 12.896-12.897 7.108 0 12.896 5.788 12.896 12.897 0 7.108-5.788 12.896-12.896 12.896-2.136 0-4.144-.534-5.929-1.461-5.464 8.71-8.344 18.684-8.344 29.094 0 14.638 5.703 28.406 16.057 38.759 10.353 10.354 24.12 16.057 38.759 16.057 14.638 0 28.406-5.703 38.759-16.057 10.354-10.353 16.057-24.121 16.057-38.759 0-14.638-5.703-28.406-16.057-38.76C128.406 46.874 114.638 41.17 100 41.17V36ZM67.183 55.457c0-4.257-3.47-7.727-7.726-7.727-4.257 0-7.727 3.47-7.727 7.727 0 4.256 3.47 7.726 7.727 7.726 4.256 0 7.726-3.47 7.726-7.726ZM128.7 96c0 15.846-12.854 28.7-28.7 28.7-15.847 0-28.7-12.854-28.7-28.7 0-15.847 12.853-28.7 28.7-28.7 15.846 0 28.7 12.853 28.7 28.7Z" clip-rule="evenodd"/>
</svg>
