<svg xmlns="http://www.w3.org/2000/svg" width="200" height="200" fill="none" viewBox="0 0 200 200">
  <g clip-path="url(#a)">
    <path stroke="#075757" stroke-opacity=".23" stroke-width=".3" d="M92.839.256h1.79c.018-.003 0-.256 0-.256h-1.79s-.018.253 0 .256Z"/>
    <path stroke="#075959" stroke-opacity=".62" stroke-width=".3" d="M94.63.256c.644 0 1.61.2 2.045-.256H94.63s.018.253 0 .256Z"/>
    <path stroke="#055959" stroke-width=".3" d="M94.63.256h-1.791c-15.995 0-33.563 6.987-46.624 15.268-13.062 8.282-22.65 17.924-30.89 31.003C7.085 59.607.255 77.125.255 93.095v2.813c0 .726.203 1.785-.255 2.302v5.115c.391.212.25.88.256 1.279.102.427.112 1.299-.256 1.534v1.023c1.176 15.737 6.772 33.437 15.422 46.471 8.652 13.03 17.652 22.703 30.928 30.964 13.277 8.261 30.596 15.146 46.745 15.148h2.813c.726 0 1.785-.202 2.302.256h5.115c.419-.384 1.644-.44 2.046 0h1.79c47.998-2.309 90.657-45.11 92.839-93.095v-.255c-.399-.213-.24-.878-.256-1.279-.028-.721-.181-1.79.256-2.302v-4.86c-.44-.536-.256-1.572-.256-2.301v-3.069c0-12.31-4.616-25.941-9.66-36.632-5.043-10.69-11.064-18.611-19.432-27.115-8.371-8.504-16.478-13.915-27.092-19.2C132.946 4.61 118.985.807 106.905 0h-.255c-.215.399-.878.24-1.279.256-.721.028-1.79.181-2.302-.256h-6.394c-.435.455-1.401.256-2.046.256Zm64.194 101.023c.196 1.13-3.392 2.238-4.663 3.266-1.271 1.028-3.829 2.007-5.371 3.069-1.542 1.061-3.662 2.048-5.332 3.107-1.67 1.059-3.675 1.962-5.371 3.069-1.693 1.11-3.611 2.036-5.371 3.069-1.757 1.036-3.481 2.161-5.274 3.167-1.79 1.007-3.613 1.964-5.37 3.071-1.755 1.105-3.571 1.98-5.369 3.069-1.8 1.087-3.429 2.008-5.253 3.187-1.823 1.179-3.565 1.575-5.371 3.069-1.805 1.494-3.808 1.588-5.626.118-1.819-1.471-3.606-1.778-5.371-3.069-1.765-1.292-3.565-1.916-5.333-3.108-1.767-1.192-3.578-2.043-5.37-3.069-1.79-1.028-3.54-2.095-5.287-3.153-1.744-1.059-3.662-1.931-5.358-3.082-1.696-1.151-3.665-1.985-5.368-3.069-1.706-1.087-3.698-2.087-5.371-3.069-1.675-.985-3.711-2.197-5.253-3.19-1.542-.992-4.164-2.03-5.371-3.069-1.207-1.038-5.074-2.161-5.056-3.127.043-2.215 2.954-4.277 3.815-6.415.86-2.138 2.883-4.368 3.936-6.55 1.052-2.184 2.911-4.214 4.077-6.409 1.166-2.192 2.668-4.363 3.97-6.517 1.301-2.153 2.641-4.37 3.959-6.526 1.317-2.156 2.703-4.328 3.969-6.517 1.266-2.19 2.823-4.217 4.087-6.399 1.266-2.181 2.48-4.258 3.841-6.389 1.36-2.13 2.645-4.353 3.96-6.527 1.317-2.17 2.746-4.273 4.007-6.478 1.26-2.204 2.688-4.289 4.049-6.437 1.363-2.146 2.516-4.46 3.88-6.606 1.36-2.149 2.716-4.277 4.048-6.438 1.335-2.158 2.685-4.39 3.9-6.585 5.182 6.851 9.417 14.956 14.146 22.427 4.726 7.473 9.297 15.105 13.928 22.644 4.632 7.54 9.284 15.07 13.934 22.64 4.65 7.567 9.281 15.268 14.003 22.826Zm-56.011 33.248c2.164.453 4.918-2.952 7.22-3.778 2.299-.826 4.888-3.112 7.282-4.227 2.391-1.118 4.846-2.977 7.258-4.251 2.412-1.274 4.885-2.867 7.32-4.189 2.432-1.325 4.792-2.946 7.258-4.251 2.465-1.304 4.826-3.056 7.396-4.112-3.862 5.501-7.833 10.913-11.764 16.368 3.583-2.586 7.979-4.261 11.698-6.716 3.721-2.453 7.938-4.565 11.831-6.583-18.003 25.634-36.831 50.885-54.987 76.47-19.028-25.094-37.246-51.434-56.01-76.982 8.094 4.353 16.007 9.207 24.04 13.811a1104.43 1104.43 0 0 1-11.764-16.624c14.409 8.371 28.785 16.749 43.222 25.064Z"/>
    <path stroke="#075959" stroke-opacity=".65" stroke-width=".3" d="M105.371.256c.01 0 0-.256 0-.256h-2.302c.512.437 1.581.284 2.302.256Z"/>
    <path stroke="#045858" stroke-opacity=".29" stroke-width=".3" d="M105.371.256c.401-.016 1.064.143 1.279-.256h-1.279s.01.256 0 .256Z"/>
    <path stroke="#498686" stroke-width=".3" d="M47.315 101.535c.918-1.351 3.943-1.228 5.291-2.379 1.35-1.153 4.033-1.294 5.506-2.425 1.476-1.127 4.154-1.217 5.57-2.358.3-.483.49-1.09.768-1.534-3.713 1.959-9.069 3.077-13.043 5.37 16.828-27.958 34.197-55.703 51.151-83.631 1.048-.97 2.69 2.867 3.644 4.284.954 1.417 2.445 4.028 3.496 5.71 1.049 1.686 2.397 3.906 3.537 5.671 1.144 1.765 2.19 3.785 3.33 5.622 1.141 1.836 2.435 3.76 3.576 5.631 1.143 1.872 2.296 3.88 3.452 5.755 1.159 1.872 2.279 3.626 3.453 5.498 1.177 1.87 2.253 3.885 3.453 5.755 1.202 1.867 2.342 3.823 3.496 5.71 1.153 1.888 2.263 3.653 3.409 5.543 1.148 1.887 2.379 3.798 3.496 5.711 1.115 1.913 2.394 3.778 3.537 5.67 1.146 1.89 2.236 3.683 3.369 5.583 1.133 1.9 2.381 3.775 3.537 5.67 1.156 1.895 2.388 3.865 3.388 5.819-4.45-1.936-8.821-4.046-13.299-5.883.489.806 1.044 1.763 1.535 2.558 5.138 1.084 10.741 5.04 15.857 6.394-4.722-7.558-9.353-15.258-14.003-22.826-4.65-7.57-9.302-15.1-13.934-22.64-4.631-7.54-9.202-15.171-13.928-22.644-4.729-7.47-8.964-15.576-14.146-22.427-1.215 2.194-2.565 4.427-3.9 6.585-1.332 2.161-2.688 4.29-4.049 6.438-1.363 2.145-2.516 4.46-3.88 6.606-1.36 2.148-2.787 4.233-4.048 6.437-1.26 2.205-2.69 4.307-4.008 6.478-1.314 2.174-2.598 4.397-3.959 6.527-1.36 2.13-2.575 4.207-3.841 6.39-1.264 2.18-2.821 4.209-4.087 6.398-1.266 2.19-2.652 4.36-3.97 6.517-1.317 2.156-2.657 4.373-3.959 6.526-1.301 2.154-2.803 4.325-3.969 6.517-1.166 2.195-3.025 4.225-4.077 6.41-1.053 2.18-3.076 4.411-3.936 6.55-.861 2.137-3.772 4.199-3.815 6.414Z"/>
    <path stroke="#70A0A0" stroke-width=".3" d="M102.558 14.578c.649-.281.613 3.026.511 4.348-.102 1.322.171 4.066 0 5.626-.171 1.56.353 4.036 0 5.627 1.609.596 1.857 3.775 3.146 5.038 1.291 1.261 2.038 3.701 3.227 5.213 1.19 1.511 2.062 3.631 3.167 5.273 1.107 1.64 2.207 3.5 3.227 5.213 1.023 1.71 2.146 3.291 3.154 5.03 1.007 1.737 2.138 3.512 3.202 5.238 1.064 1.727 2.11 3.52 3.204 5.236 1.098 1.716 2.108 3.531 3.19 5.25a190.217 190.217 0 0 1 3.107 5.077c1.026 1.75 2.223 3.42 3.281 5.158 1.062 1.737 2.087 3.573 3.113 5.328 1.028 1.754 2.322 3.406 3.345 5.094 4.478 1.837 8.849 3.947 13.299 5.883-1-1.954-2.232-3.923-3.388-5.819-1.156-1.895-2.404-3.77-3.537-5.67s-2.223-3.693-3.369-5.583c-1.143-1.892-2.422-3.757-3.537-5.67-1.117-1.913-2.348-3.824-3.496-5.711-1.146-1.89-2.256-3.655-3.409-5.542-1.154-1.888-2.294-3.844-3.496-5.711-1.2-1.87-2.276-3.885-3.453-5.755-1.174-1.872-2.294-3.626-3.453-5.498-1.156-1.875-2.309-3.883-3.452-5.755-1.141-1.872-2.435-3.795-3.576-5.632-1.14-1.836-2.186-3.856-3.33-5.621-1.14-1.765-2.488-3.985-3.537-5.67-1.051-1.683-2.542-4.294-3.496-5.711-.954-1.417-2.596-5.253-3.644-4.284Z"/>
    <path stroke="#84ADAD" stroke-width=".3" d="M102.558 14.578C85.604 42.506 68.235 70.251 51.407 98.21c3.974-2.294 9.33-3.412 13.043-5.371 6.425-10.271 13.171-20.58 19.258-31.125 6.09-10.543 13.502-20.468 19.105-31.28.044-.084.243-.196.256-.255.353-1.59-.171-4.066 0-5.627.171-1.56-.102-4.304 0-5.626s.138-4.63-.511-4.348Z"/>
    <path stroke="#C0DBDB" stroke-width=".3" d="M102.813 30.435c.489 1.631.205 3.524.256 5.37.051 1.847-.02 3.74 0 5.627.021 1.888-.005 3.98 0 5.883.005 1.902.01 3.72 0 5.626-.01 1.906.033 3.985 0 5.883-.033 1.897.079 3.752 0 5.626-.079 1.875.169 4.056 0 5.882-.169 1.827.391 3.921 0 5.627s.831 4.42 0 5.882c1.522.4 2.903 1.167 4.356 1.783 1.45.619 2.905 1.397 4.36 2.033 1.453.64 2.826 1.251 4.261 1.878 1.435.626 3.013 1.291 4.435 1.959 1.419.667 2.8 1.248 4.248 1.89 1.45.642 2.936 1.376 4.35 2.043 1.412.67 2.852 1.192 4.228 1.91 1.376.72 3.179 1.1 4.468 1.929 1.286.826 3.087 1.008 4.225 1.91 1.141.901 3.701.86 4.547 1.847-.092-1.161-1.695-2.86-2.301-3.836-.466-.755-.816-1.553-1.279-2.302-.491-.795-1.046-1.752-1.535-2.558-1.023-1.688-2.317-3.34-3.345-5.094-1.026-1.755-2.051-3.591-3.113-5.328-1.058-1.739-2.255-3.409-3.281-5.158a190.377 190.377 0 0 0-3.107-5.077c-1.082-1.719-2.092-3.534-3.19-5.25-1.094-1.717-2.14-3.51-3.204-5.236s-2.195-3.501-3.202-5.238c-1.008-1.739-2.131-3.32-3.154-5.03-1.02-1.714-2.12-3.573-3.227-5.213-1.105-1.642-1.977-3.762-3.167-5.273-1.189-1.512-1.936-3.952-3.227-5.213-1.289-1.263-1.537-4.442-3.146-5.038-.013.059-.212.171-.256.256Z"/>
    <path stroke="#FEFEFE" stroke-width=".3" d="M64.45 92.839c-.279.445-.468 1.051-.767 1.534-.647 1.044-1.542 2.259-2.026 3.346-.483 1.087-1.908 2.156-2.066 3.304 1.248-.105 2.6-1.051 4.015-1.614 1.412-.56 3.008-1.322 4.445-1.946 1.438-.627 2.97-1.307 4.386-2.008 1.415-.7 2.878-1.168 4.307-1.83 1.43-.66 2.941-1.415 4.386-2.009 1.448-.593 2.931-1.368 4.35-2.043 1.418-.678 2.942-1.1 4.31-1.829 1.366-.731 3.128-1.222 4.384-2.01 1.258-.785 3.399-1.03 4.468-1.926 1.072-.892 3.806-.872 4.427-1.967.831-1.462-.391-4.176 0-5.882.391-1.706-.169-3.8 0-5.627.169-1.826-.079-4.007 0-5.882s-.033-3.729 0-5.626c.033-1.898-.01-3.977 0-5.883.01-1.905.005-3.724 0-5.626-.005-1.903.021-3.995 0-5.883-.02-1.887.051-3.78 0-5.626-.051-1.847.233-3.74-.256-5.371-5.603 10.81-13.015 20.736-19.105 31.279-6.087 10.544-12.833 20.854-19.258 31.125Z"/>
    <path stroke="#6F9E9E" stroke-width=".3" d="M59.59 101.023c-.15 1.097 3.535 2.148 4.783 3.146 1.248 1 3.919 2.187 5.468 3.227 1.553 1.041 3.86 2.082 5.54 3.156 1.68 1.072 3.737 2.146 5.496 3.2 1.76 1.054 3.576 2.002 5.371 3.069 1.795 1.069 3.65 2.248 5.491 3.205 1.839.959 3.609 2.365 5.507 3.189 1.897.826 3.534 2.68 5.567 3.128.123.025.256 0 .256 0 .665-7.358-.348-14.865 0-22.251.348-7.386-.261-14.857 0-22.25-.621 1.094-3.355 1.074-4.427 1.966-1.07.895-3.21 1.14-4.468 1.926-1.256.788-3.018 1.279-4.384 2.01-1.368.73-2.892 1.151-4.31 1.829-1.419.675-2.902 1.45-4.35 2.043-1.445.594-2.956 1.348-4.386 2.008-1.43.662-2.892 1.13-4.307 1.831-1.416.701-2.948 1.381-4.386 2.008-1.437.624-3.033 1.386-4.445 1.946-1.414.563-2.767 1.509-4.015 1.614Z"/>
    <path stroke="#A5C3C3" stroke-width=".3" d="M103.069 126.343c.941.575 3.458-1.865 4.783-2.381 1.322-.514 3.322-2.105 4.856-2.811 1.538-.709 3.353-2.174 4.96-2.972 1.608-.798 3.268-1.916 4.859-2.813 1.591-.898 3.276-1.893 4.859-2.814 1.583-.92 3.491-1.961 5.018-2.91 1.524-.951 3.453-1.865 4.859-2.813 1.405-.952 3.696-1.893 4.86-2.814 1.161-.923 4.511-1.89 4.424-2.992-.846-.987-3.406-.946-4.547-1.846-1.138-.903-2.939-1.085-4.225-1.911-1.289-.829-3.092-1.21-4.468-1.928-1.376-.72-2.816-1.24-4.228-1.91-1.414-.668-2.9-1.402-4.35-2.044-1.448-.642-2.829-1.223-4.248-1.89-1.422-.668-3-1.333-4.435-1.96-1.435-.626-2.808-1.237-4.261-1.877-1.455-.636-2.91-1.414-4.36-2.033-1.453-.616-2.834-1.384-4.356-1.783-.261 7.394.348 14.865 0 22.251-.348 7.386.665 14.893 0 22.251Z"/>
    <path stroke="#075757" stroke-opacity=".23" stroke-width=".3" d="M199.744 94.63c.013-.04.256 0 .256 0v-1.791s-.253-.018-.256 0v1.79Z"/>
    <path stroke="#075858" stroke-opacity=".26" stroke-width=".3" d="M0 94.63h.256v-1.535H0v1.534Z"/>
    <path stroke="#2B7271" stroke-width=".3" d="M47.315 101.535c-.018.966 3.849 2.089 5.056 3.127 1.207 1.039 3.828 2.077 5.37 3.069 1.543.993 3.579 2.205 5.254 3.19 1.673.982 3.665 1.982 5.37 3.069 1.704 1.084 3.673 1.918 5.369 3.069 1.696 1.151 3.614 2.023 5.358 3.082 1.747 1.058 3.496 2.125 5.287 3.153 1.792 1.026 3.603 1.877 5.37 3.069 1.768 1.192 3.568 1.816 5.333 3.108 1.765 1.291 3.552 1.598 5.371 3.069 1.818 1.47 3.821 1.376 5.626-.118 1.806-1.494 3.548-1.89 5.371-3.069 1.824-1.179 3.453-2.1 5.253-3.187 1.798-1.089 3.614-1.964 5.369-3.069 1.757-1.107 3.58-2.064 5.37-3.071 1.793-1.006 3.517-2.131 5.274-3.167 1.76-1.033 3.678-1.959 5.371-3.069 1.696-1.107 3.701-2.01 5.371-3.069 1.67-1.059 3.79-2.046 5.332-3.107 1.542-1.062 4.1-2.041 5.371-3.069 1.271-1.028 4.859-2.136 4.663-3.266-5.116-1.353-10.719-5.31-15.857-6.394.463.75.813 1.547 1.279 2.302 2.828 2.325 7.483 2.49 10.485 4.603-16.951 10.376-34.427 20.161-51.662 30.179-.153-1.856.317-3.879-.256-5.626-2.033-.448-3.67-2.302-5.567-3.128-1.898-.824-3.668-2.23-5.507-3.189-1.841-.957-3.696-2.136-5.49-3.205-1.796-1.067-3.612-2.015-5.372-3.069-1.76-1.054-3.816-2.128-5.496-3.2-1.68-1.074-3.987-2.115-5.54-3.156-1.55-1.04-4.22-2.227-5.468-3.227-1.248-.998-4.933-2.049-4.782-3.146.158-1.148 1.583-2.217 2.066-3.304.484-1.087 1.379-2.302 2.026-3.346-1.417 1.141-4.095 1.23-5.57 2.358-1.474 1.13-4.157 1.272-5.507 2.425-1.348 1.151-4.373 1.028-5.291 2.379Z"/>
    <path stroke="#065959" stroke-opacity=".56" stroke-width=".3" d="M0 95.908h.256v-1.279H0v1.279Zm199.744 0c.013.038.256 0 .256 0v-1.279s-.243-.038-.256 0v1.279Z"/>
    <path stroke="#075959" stroke-opacity=".82" stroke-width=".3" d="M0 98.21c.458-.517.256-1.576.256-2.302H0v2.302Z"/>
    <path stroke="#065959" stroke-opacity=".82" stroke-width=".3" d="M200 98.21v-2.302s-.243.038-.256 0c0 .729-.184 1.765.256 2.302Z"/>
    <path stroke="#4C8888" stroke-width=".3" d="M146.547 101.023c.087 1.102-3.263 2.069-4.424 2.992-1.164.921-3.455 1.862-4.86 2.814-1.406.948-3.335 1.861-4.859 2.813-1.527.949-3.435 1.99-5.018 2.91-1.583.921-3.268 1.916-4.859 2.814-1.591.897-3.251 2.015-4.859 2.813-1.607.798-3.422 2.263-4.96 2.972-1.534.706-3.534 2.297-4.856 2.811-1.325.516-3.842 2.956-4.783 2.381 0 0-.133.025-.256 0 .573 1.746.103 3.769.256 5.626 17.235-10.018 34.711-19.803 51.662-30.179-3.002-2.112-7.657-2.279-10.485-4.603.606.977 2.209 2.675 2.301 3.836Z"/>
    <path stroke="#065959" stroke-opacity=".65" stroke-width=".3" d="M199.744 105.371c0 .01.256 0 .256 0v-2.302c-.437.512-.284 1.581-.256 2.302Z"/>
    <path stroke="#065959" stroke-opacity=".69" stroke-width=".3" d="M0 104.604h.256c-.005-.399.135-1.067-.256-1.279v1.279Z"/>
    <path stroke="#055959" stroke-opacity=".44" stroke-width=".3" d="M0 106.138c.368-.235.358-1.107.256-1.534H0v1.534Z"/>
    <path stroke="#045858" stroke-opacity=".29" stroke-width=".3" d="M200 106.65v-1.279s-.256.01-.256 0c.016.401-.143 1.066.256 1.279Z"/>
    <path stroke="#FDFEFE" stroke-width=".3" d="M71.356 126.087c1.15 1.596 2.368 3.291 3.58 4.859.962 1.243 1.79 2.601 2.793 3.857 1.002 1.256 1.875 2.57 2.775 3.875.9 1.304 2.038 2.458 2.813 3.836.775 1.379 2.054 2.455 2.814 3.836.759 1.381 1.94 2.535 2.813 3.837.872 1.301 1.744 2.675 2.808 3.841 1.066 1.164 1.593 2.857 2.698 3.952 1.108 1.092 1.829 2.78 2.8 3.849.972 1.066 1.865 2.987 2.814 3.836.951.849 1.816 3.767 3.005 3.9-.739-.785.343-3.181 0-4.348-.343-1.166.177-2.989 0-4.347-.176-1.359.131-2.86 0-4.348-.13-1.489.169-3.008 0-4.604s.338-2.55 0-4.348.729-2.117 0-4.348c-.729-2.23 1.164-6.708-.256-8.695-14.437-8.315-28.813-16.693-43.222-25.064a1101.613 1101.613 0 0 0 11.765 16.624Z"/>
    <path stroke="#C0DBDB" stroke-width=".3" d="M102.813 134.527c1.42 1.987-.473 6.465.256 8.695.729 2.231-.338 2.55 0 4.348s-.169 2.752 0 4.348-.13 3.115 0 4.604c.13 1.488-.176 2.989 0 4.348.177 1.358-.343 3.181 0 4.347.343 1.167-.739 3.563 0 4.348.031.003.494-.24.512-.256 3.741-6.785 9.345-12.647 13.631-19.102 4.289-6.458 9.312-12.898 13.99-19.005 1.223-1.596 2.317-3.529 3.581-5.115 3.931-5.455 7.902-10.867 11.764-16.368-2.57 1.056-4.931 2.808-7.396 4.112-2.466 1.305-4.826 2.926-7.258 4.251-2.435 1.322-4.908 2.915-7.32 4.189s-4.867 3.133-7.258 4.251c-2.394 1.115-4.983 3.401-7.282 4.227-2.302.826-5.056 4.23-7.22 3.778Z"/>
    <path fill="#075757" fill-opacity=".23" d="M92.839.256h1.79c.018-.003 0-.256 0-.256h-1.79s-.018.253 0 .256Z"/>
    <path fill="#075959" fill-opacity=".62" d="M94.63.256c.644 0 1.61.2 2.045-.256H94.63s.018.253 0 .256Z"/>
    <path fill="#055959" d="M94.63.256h-1.791c-15.995 0-33.563 6.987-46.624 15.268-13.062 8.282-22.65 17.924-30.89 31.003C7.085 59.607.255 77.125.255 93.095v2.813c0 .726.203 1.785-.255 2.302v5.115c.391.212.25.88.256 1.279.102.427.112 1.299-.256 1.534v1.023c1.176 15.737 6.772 33.437 15.422 46.471 8.652 13.03 17.652 22.703 30.928 30.964 13.277 8.261 30.596 15.146 46.745 15.148h2.813c.726 0 1.785-.202 2.302.256h5.115c.419-.384 1.644-.44 2.046 0h1.79c47.998-2.309 90.657-45.11 92.839-93.095v-.255c-.399-.213-.24-.878-.256-1.279-.028-.721-.181-1.79.256-2.302v-4.86c-.44-.536-.256-1.572-.256-2.301v-3.069c0-12.31-4.616-25.941-9.66-36.632-5.043-10.69-11.064-18.611-19.432-27.115-8.371-8.504-16.478-13.915-27.092-19.2C132.946 4.61 118.985.807 106.905 0h-.255c-.215.399-.878.24-1.279.256-.721.028-1.79.181-2.302-.256h-6.394c-.435.455-1.401.256-2.046.256Zm64.194 101.023c.196 1.13-3.392 2.238-4.663 3.266-1.271 1.028-3.829 2.007-5.371 3.069-1.542 1.061-3.662 2.048-5.332 3.107-1.67 1.059-3.675 1.962-5.371 3.069-1.693 1.11-3.611 2.036-5.371 3.069-1.757 1.036-3.481 2.161-5.274 3.167-1.79 1.007-3.613 1.964-5.37 3.071-1.755 1.105-3.571 1.98-5.369 3.069-1.8 1.087-3.429 2.008-5.253 3.187-1.823 1.179-3.565 1.575-5.371 3.069-1.805 1.494-3.808 1.588-5.626.118-1.819-1.471-3.606-1.778-5.371-3.069-1.765-1.292-3.565-1.916-5.333-3.108-1.767-1.192-3.578-2.043-5.37-3.069-1.79-1.028-3.54-2.095-5.287-3.153-1.744-1.059-3.662-1.931-5.358-3.082-1.696-1.151-3.665-1.985-5.368-3.069-1.706-1.087-3.698-2.087-5.371-3.069-1.675-.985-3.711-2.197-5.253-3.19-1.542-.992-4.164-2.03-5.371-3.069-1.207-1.038-5.074-2.161-5.056-3.127.043-2.215 2.954-4.277 3.815-6.415.86-2.138 2.883-4.368 3.936-6.55 1.052-2.184 2.911-4.214 4.077-6.409 1.166-2.192 2.668-4.363 3.97-6.517 1.301-2.153 2.641-4.37 3.959-6.526 1.317-2.156 2.703-4.328 3.969-6.517 1.266-2.19 2.823-4.217 4.087-6.399 1.266-2.181 2.48-4.258 3.841-6.389 1.36-2.13 2.645-4.353 3.96-6.527 1.317-2.17 2.746-4.273 4.007-6.478 1.26-2.204 2.688-4.289 4.049-6.437 1.363-2.146 2.516-4.46 3.88-6.606 1.36-2.149 2.716-4.277 4.048-6.438 1.335-2.158 2.685-4.39 3.9-6.585 5.182 6.851 9.417 14.956 14.146 22.427 4.726 7.473 9.297 15.105 13.928 22.644 4.632 7.54 9.284 15.07 13.934 22.64 4.65 7.567 9.281 15.268 14.003 22.826Zm-56.011 33.248c2.164.453 4.918-2.952 7.22-3.778 2.299-.826 4.888-3.112 7.282-4.227 2.391-1.118 4.846-2.977 7.258-4.251 2.412-1.274 4.885-2.867 7.32-4.189 2.432-1.325 4.792-2.946 7.258-4.251 2.465-1.304 4.826-3.056 7.396-4.112-3.862 5.501-7.833 10.913-11.764 16.368 3.583-2.586 7.979-4.261 11.698-6.716 3.721-2.453 7.938-4.565 11.831-6.583-18.003 25.634-36.831 50.885-54.987 76.47-19.028-25.094-37.246-51.434-56.01-76.982 8.094 4.353 16.007 9.207 24.04 13.811a1104.43 1104.43 0 0 1-11.764-16.624c14.409 8.371 28.785 16.749 43.222 25.064Z"/>
    <path fill="#075959" fill-opacity=".65" d="M105.371.256c.01 0 0-.256 0-.256h-2.302c.512.437 1.581.284 2.302.256Z"/>
    <path fill="#045858" fill-opacity=".29" d="M105.371.256c.401-.016 1.064.143 1.279-.256h-1.279s.01.256 0 .256Z"/>
    <path fill="#498686" d="M47.315 101.535c.918-1.351 3.943-1.228 5.291-2.379 1.35-1.153 4.033-1.294 5.506-2.425 1.476-1.127 4.154-1.217 5.57-2.358.3-.483.49-1.09.768-1.534-3.713 1.959-9.069 3.077-13.043 5.37 16.828-27.958 34.197-55.703 51.151-83.631 1.048-.97 2.69 2.867 3.644 4.284.954 1.417 2.445 4.028 3.496 5.71 1.049 1.686 2.397 3.906 3.537 5.671 1.144 1.765 2.19 3.785 3.33 5.622 1.141 1.836 2.435 3.76 3.576 5.631 1.143 1.872 2.296 3.88 3.452 5.755 1.159 1.872 2.279 3.626 3.453 5.498 1.177 1.87 2.253 3.885 3.453 5.755 1.202 1.867 2.342 3.823 3.496 5.71 1.153 1.888 2.263 3.653 3.409 5.543 1.148 1.887 2.379 3.798 3.496 5.711 1.115 1.913 2.394 3.778 3.537 5.67 1.146 1.89 2.236 3.683 3.369 5.583 1.133 1.9 2.381 3.775 3.537 5.67 1.156 1.895 2.388 3.865 3.388 5.819-4.45-1.936-8.821-4.046-13.299-5.883.489.806 1.044 1.763 1.535 2.558 5.138 1.084 10.741 5.04 15.857 6.394-4.722-7.558-9.353-15.258-14.003-22.826-4.65-7.57-9.302-15.1-13.934-22.64-4.631-7.54-9.202-15.171-13.928-22.644-4.729-7.47-8.964-15.576-14.146-22.427-1.215 2.194-2.565 4.427-3.9 6.585-1.332 2.161-2.688 4.29-4.049 6.438-1.363 2.145-2.516 4.46-3.88 6.606-1.36 2.148-2.787 4.233-4.048 6.437-1.26 2.205-2.69 4.307-4.008 6.478-1.314 2.174-2.598 4.397-3.959 6.527-1.36 2.13-2.575 4.207-3.841 6.39-1.264 2.18-2.821 4.209-4.087 6.398-1.266 2.19-2.652 4.36-3.97 6.517-1.317 2.156-2.657 4.373-3.959 6.526-1.301 2.154-2.803 4.325-3.969 6.517-1.166 2.195-3.025 4.225-4.077 6.41-1.053 2.18-3.076 4.411-3.936 6.55-.861 2.137-3.772 4.199-3.815 6.414Z"/>
    <path fill="#70A0A0" d="M102.558 14.578c.649-.281.613 3.026.511 4.348-.102 1.322.171 4.066 0 5.626-.171 1.56.353 4.036 0 5.627 1.609.596 1.857 3.775 3.146 5.038 1.291 1.261 2.038 3.701 3.227 5.213 1.19 1.511 2.062 3.631 3.167 5.273 1.107 1.64 2.207 3.5 3.227 5.213 1.023 1.71 2.146 3.291 3.154 5.03 1.007 1.737 2.138 3.512 3.202 5.238 1.064 1.727 2.11 3.52 3.204 5.236 1.098 1.716 2.108 3.531 3.19 5.25a190.217 190.217 0 0 1 3.107 5.077c1.026 1.75 2.223 3.42 3.281 5.158 1.062 1.737 2.087 3.573 3.113 5.328 1.028 1.754 2.322 3.406 3.345 5.094 4.478 1.837 8.849 3.947 13.299 5.883-1-1.954-2.232-3.923-3.388-5.819-1.156-1.895-2.404-3.77-3.537-5.67s-2.223-3.693-3.369-5.583c-1.143-1.892-2.422-3.757-3.537-5.67-1.117-1.913-2.348-3.824-3.496-5.711-1.146-1.89-2.256-3.655-3.409-5.542-1.154-1.888-2.294-3.844-3.496-5.711-1.2-1.87-2.276-3.885-3.453-5.755-1.174-1.872-2.294-3.626-3.453-5.498-1.156-1.875-2.309-3.883-3.452-5.755-1.141-1.872-2.435-3.795-3.576-5.632-1.14-1.836-2.186-3.856-3.33-5.621-1.14-1.765-2.488-3.985-3.537-5.67-1.051-1.683-2.542-4.294-3.496-5.711-.954-1.417-2.596-5.253-3.644-4.284Z"/>
    <path fill="#84ADAD" d="M102.558 14.578C85.604 42.506 68.235 70.251 51.407 98.21c3.974-2.294 9.33-3.412 13.043-5.371 6.425-10.271 13.171-20.58 19.258-31.125 6.09-10.543 13.502-20.468 19.105-31.28.044-.084.243-.196.256-.255.353-1.59-.171-4.066 0-5.627.171-1.56-.102-4.304 0-5.626s.138-4.63-.511-4.348Z"/>
    <path fill="#C0DBDB" d="M102.813 30.435c.489 1.631.205 3.524.256 5.37.051 1.847-.02 3.74 0 5.627.021 1.888-.005 3.98 0 5.883.005 1.902.01 3.72 0 5.626-.01 1.906.033 3.985 0 5.883-.033 1.897.079 3.752 0 5.626-.079 1.875.169 4.056 0 5.882-.169 1.827.391 3.921 0 5.627s.831 4.42 0 5.882c1.522.4 2.903 1.167 4.356 1.783 1.45.619 2.905 1.397 4.36 2.033 1.453.64 2.826 1.251 4.261 1.878 1.435.626 3.013 1.291 4.435 1.959 1.419.667 2.8 1.248 4.248 1.89 1.45.642 2.936 1.376 4.35 2.043 1.412.67 2.852 1.192 4.228 1.91 1.376.72 3.179 1.1 4.468 1.929 1.286.826 3.087 1.008 4.225 1.91 1.141.901 3.701.86 4.547 1.847-.092-1.161-1.695-2.86-2.301-3.836-.466-.755-.816-1.553-1.279-2.302-.491-.795-1.046-1.752-1.535-2.558-1.023-1.688-2.317-3.34-3.345-5.094-1.026-1.755-2.051-3.591-3.113-5.328-1.058-1.739-2.255-3.409-3.281-5.158a190.377 190.377 0 0 0-3.107-5.077c-1.082-1.719-2.092-3.534-3.19-5.25-1.094-1.717-2.14-3.51-3.204-5.236s-2.195-3.501-3.202-5.238c-1.008-1.739-2.131-3.32-3.154-5.03-1.02-1.714-2.12-3.573-3.227-5.213-1.105-1.642-1.977-3.762-3.167-5.273-1.189-1.512-1.936-3.952-3.227-5.213-1.289-1.263-1.537-4.442-3.146-5.038-.013.059-.212.171-.256.256Z"/>
    <path fill="#FEFEFE" d="M64.45 92.839c-.279.445-.468 1.051-.767 1.534-.647 1.044-1.542 2.259-2.026 3.346-.483 1.087-1.908 2.156-2.066 3.304 1.248-.105 2.6-1.051 4.015-1.614 1.412-.56 3.008-1.322 4.445-1.946 1.438-.627 2.97-1.307 4.386-2.008 1.415-.7 2.878-1.168 4.307-1.83 1.43-.66 2.941-1.415 4.386-2.009 1.448-.593 2.931-1.368 4.35-2.043 1.418-.678 2.942-1.1 4.31-1.829 1.366-.731 3.128-1.222 4.384-2.01 1.258-.785 3.399-1.03 4.468-1.926 1.072-.892 3.806-.872 4.427-1.967.831-1.462-.391-4.176 0-5.882.391-1.706-.169-3.8 0-5.627.169-1.826-.079-4.007 0-5.882s-.033-3.729 0-5.626c.033-1.898-.01-3.977 0-5.883.01-1.905.005-3.724 0-5.626-.005-1.903.021-3.995 0-5.883-.02-1.887.051-3.78 0-5.626-.051-1.847.233-3.74-.256-5.371-5.603 10.81-13.015 20.736-19.105 31.279-6.087 10.544-12.833 20.854-19.258 31.125Z"/>
    <path fill="#6F9E9E" d="M59.59 101.023c-.15 1.097 3.535 2.148 4.783 3.146 1.248 1 3.919 2.187 5.468 3.227 1.553 1.041 3.86 2.082 5.54 3.156 1.68 1.072 3.737 2.146 5.496 3.2 1.76 1.054 3.576 2.002 5.371 3.069 1.795 1.069 3.65 2.248 5.491 3.205 1.839.959 3.609 2.365 5.507 3.189 1.897.826 3.534 2.68 5.567 3.128.123.025.256 0 .256 0 .665-7.358-.348-14.865 0-22.251.348-7.386-.261-14.857 0-22.25-.621 1.094-3.355 1.074-4.427 1.966-1.07.895-3.21 1.14-4.468 1.926-1.256.788-3.018 1.279-4.384 2.01-1.368.73-2.892 1.151-4.31 1.829-1.419.675-2.902 1.45-4.35 2.043-1.445.594-2.956 1.348-4.386 2.008-1.43.662-2.892 1.13-4.307 1.831-1.416.701-2.948 1.381-4.386 2.008-1.437.624-3.033 1.386-4.445 1.946-1.414.563-2.767 1.509-4.015 1.614Z"/>
    <path fill="#A5C3C3" d="M103.069 126.343c.941.575 3.458-1.865 4.783-2.381 1.322-.514 3.322-2.105 4.856-2.811 1.538-.709 3.353-2.174 4.96-2.972 1.608-.798 3.268-1.916 4.859-2.813 1.591-.898 3.276-1.893 4.859-2.814 1.583-.92 3.491-1.961 5.018-2.91 1.524-.951 3.453-1.865 4.859-2.813 1.405-.952 3.696-1.893 4.86-2.814 1.161-.923 4.511-1.89 4.424-2.992-.846-.987-3.406-.946-4.547-1.846-1.138-.903-2.939-1.085-4.225-1.911-1.289-.829-3.092-1.21-4.468-1.928-1.376-.72-2.816-1.24-4.228-1.91-1.414-.668-2.9-1.402-4.35-2.044-1.448-.642-2.829-1.223-4.248-1.89-1.422-.668-3-1.333-4.435-1.96-1.435-.626-2.808-1.237-4.261-1.877-1.455-.636-2.91-1.414-4.36-2.033-1.453-.616-2.834-1.384-4.356-1.783-.261 7.394.348 14.865 0 22.251-.348 7.386.665 14.893 0 22.251Z"/>
    <path fill="#075757" fill-opacity=".23" d="M199.744 94.63c.013-.04.256 0 .256 0v-1.791s-.253-.018-.256 0v1.79Z"/>
    <path fill="#075858" fill-opacity=".26" d="M0 94.63h.256v-1.535H0v1.534Z"/>
    <path fill="#2B7271" d="M47.315 101.535c-.018.966 3.849 2.089 5.056 3.127 1.207 1.039 3.828 2.077 5.37 3.069 1.543.993 3.579 2.205 5.254 3.19 1.673.982 3.665 1.982 5.37 3.069 1.704 1.084 3.673 1.918 5.369 3.069 1.696 1.151 3.614 2.023 5.358 3.082 1.747 1.058 3.496 2.125 5.287 3.153 1.792 1.026 3.603 1.877 5.37 3.069 1.768 1.192 3.568 1.816 5.333 3.108 1.765 1.291 3.552 1.598 5.371 3.069 1.818 1.47 3.821 1.376 5.626-.118 1.806-1.494 3.548-1.89 5.371-3.069 1.824-1.179 3.453-2.1 5.253-3.187 1.798-1.089 3.614-1.964 5.369-3.069 1.757-1.107 3.58-2.064 5.37-3.071 1.793-1.006 3.517-2.131 5.274-3.167 1.76-1.033 3.678-1.959 5.371-3.069 1.696-1.107 3.701-2.01 5.371-3.069 1.67-1.059 3.79-2.046 5.332-3.107 1.542-1.062 4.1-2.041 5.371-3.069 1.271-1.028 4.859-2.136 4.663-3.266-5.116-1.353-10.719-5.31-15.857-6.394.463.75.813 1.547 1.279 2.302 2.828 2.325 7.483 2.49 10.485 4.603-16.951 10.376-34.427 20.161-51.662 30.179-.153-1.856.317-3.879-.256-5.626-2.033-.448-3.67-2.302-5.567-3.128-1.898-.824-3.668-2.23-5.507-3.189-1.841-.957-3.696-2.136-5.49-3.205-1.796-1.067-3.612-2.015-5.372-3.069-1.76-1.054-3.816-2.128-5.496-3.2-1.68-1.074-3.987-2.115-5.54-3.156-1.55-1.04-4.22-2.227-5.468-3.227-1.248-.998-4.933-2.049-4.782-3.146.158-1.148 1.583-2.217 2.066-3.304.484-1.087 1.379-2.302 2.026-3.346-1.417 1.141-4.095 1.23-5.57 2.358-1.474 1.13-4.157 1.272-5.507 2.425-1.348 1.151-4.373 1.028-5.291 2.379Z"/>
    <path fill="#065959" fill-opacity=".56" d="M0 95.908h.256v-1.279H0v1.279Zm199.744 0c.013.038.256 0 .256 0v-1.279s-.243-.038-.256 0v1.279Z"/>
    <path fill="#075959" fill-opacity=".82" stroke="#000" d="M0 98.21c.458-.517.256-1.576.256-2.302H0v2.302Z"/>
    <path fill="#065959" fill-opacity=".82" stroke="#000" d="M200 98.21v-2.302s-.243.038-.256 0c0 .729-.184 1.765.256 2.302Z"/>
    <path fill="#4C8888" d="M146.547 101.023c.087 1.102-3.263 2.069-4.424 2.992-1.164.921-3.455 1.862-4.86 2.814-1.406.948-3.335 1.861-4.859 2.813-1.527.949-3.435 1.99-5.018 2.91-1.583.921-3.268 1.916-4.859 2.814-1.591.897-3.251 2.015-4.859 2.813-1.607.798-3.422 2.263-4.96 2.972-1.534.706-3.534 2.297-4.856 2.811-1.325.516-3.842 2.956-4.783 2.381 0 0-.133.025-.256 0 .573 1.746.103 3.769.256 5.626 17.235-10.018 34.711-19.803 51.662-30.179-3.002-2.112-7.657-2.279-10.485-4.603.606.977 2.209 2.675 2.301 3.836Z"/>
    <path fill="#065959" fill-opacity=".65" stroke="#000" d="M199.744 105.371c0 .01.256 0 .256 0v-2.302c-.437.512-.284 1.581-.256 2.302Z"/>
    <path fill="#065959" fill-opacity=".69" stroke="#000" d="M0 104.604h.256c-.005-.399.135-1.067-.256-1.279v1.279Z"/>
    <path fill="#055959" fill-opacity=".44" stroke="#000" d="M0 106.138c.368-.235.358-1.107.256-1.534H0v1.534Z"/>
    <path fill="#045858" fill-opacity=".29" stroke="#000" d="M200 106.65v-1.279s-.256.01-.256 0c.016.401-.143 1.066.256 1.279Z"/>
    <path fill="#FDFEFE" d="M71.356 126.087c1.15 1.596 2.368 3.291 3.58 4.859.962 1.243 1.79 2.601 2.793 3.857 1.002 1.256 1.875 2.57 2.775 3.875.9 1.304 2.038 2.458 2.813 3.836.775 1.379 2.054 2.455 2.814 3.836.759 1.381 1.94 2.535 2.813 3.837.872 1.301 1.744 2.675 2.808 3.841 1.066 1.164 1.593 2.857 2.698 3.952 1.108 1.092 1.829 2.78 2.8 3.849.972 1.066 1.865 2.987 2.814 3.836.951.849 1.816 3.767 3.005 3.9-.739-.785.343-3.181 0-4.348-.343-1.166.177-2.989 0-4.347-.176-1.359.131-2.86 0-4.348-.13-1.489.169-3.008 0-4.604s.338-2.55 0-4.348.729-2.117 0-4.348c-.729-2.23 1.164-6.708-.256-8.695-14.437-8.315-28.813-16.693-43.222-25.064a1101.613 1101.613 0 0 0 11.765 16.624Z"/>
    <path fill="#C0DBDB" d="M102.813 134.527c1.42 1.987-.473 6.465.256 8.695.729 2.231-.338 2.55 0 4.348s-.169 2.752 0 4.348-.13 3.115 0 4.604c.13 1.488-.176 2.989 0 4.348.177 1.358-.343 3.181 0 4.347.343 1.167-.739 3.563 0 4.348.031.003.494-.24.512-.256 3.741-6.785 9.345-12.647 13.631-19.102 4.289-6.458 9.312-12.898 13.99-19.005 1.223-1.596 2.317-3.529 3.581-5.115 3.931-5.455 7.902-10.867 11.764-16.368-2.57 1.056-4.931 2.808-7.396 4.112-2.466 1.305-4.826 2.926-7.258 4.251-2.435 1.322-4.908 2.915-7.32 4.189s-4.867 3.133-7.258 4.251c-2.394 1.115-4.983 3.401-7.282 4.227-2.302.826-5.056 4.23-7.22 3.778Z"/>
    <path fill="#498686" d="M134.783 126.087c-1.264 1.586-2.358 3.519-3.581 5.115 5.455-3.898 12-6.453 17.647-9.974-15.171 21.105-30.297 42.345-45.78 63.171-1.21-.031-1.913-2.921-2.89-3.76-.977-.836-1.939-2.879-2.928-3.977-.993-1.097-1.873-2.841-2.857-4.048-.985-1.207-1.87-2.56-2.813-3.836-.942-1.277-1.993-2.686-2.898-4.008-.906-1.322-2.041-2.624-2.941-3.964-.903-1.338-1.816-2.548-2.814-3.837-.997-1.289-1.777-2.813-2.818-4.087-1.04-1.273-1.905-2.69-2.936-3.969-1.03-1.281-1.734-2.621-2.729-3.921-.992-1.299-2.015-2.639-2.91-3.995-.898-1.355-2.06-2.606-2.929-3.977-.872-1.368-1.89-2.488-2.813-3.836a204.448 204.448 0 0 0-2.857-4.048c-.962-1.33-1.964-2.655-2.898-4.008-.933-1.35-2.181-2.627-2.749-4.156 5.895 3.133 11.944 7.205 17.647 9.974-1.212-1.567-2.43-3.263-3.58-4.859-8.034-4.604-15.947-9.458-24.041-13.811 18.764 25.548 36.982 51.888 56.01 76.982 18.156-25.585 36.984-50.836 54.987-76.47-3.893 2.018-8.11 4.13-11.831 6.583-3.719 2.455-8.115 4.13-11.698 6.716Z"/>
    <path fill="#84ADAD" d="M103.069 184.399c.171-2.476-.228-5.222 0-7.673.228-2.45-.655-5.299.512-7.416-.018.015-.481.258-.512.255-1.189-.133-2.054-3.051-3.005-3.9-.949-.849-1.841-2.77-2.813-3.836-.972-1.069-1.694-2.757-2.8-3.849-1.106-1.095-1.633-2.788-2.7-3.952-1.063-1.166-1.935-2.539-2.807-3.841-.872-1.302-2.054-2.455-2.814-3.837-.76-1.381-2.038-2.457-2.813-3.836-.775-1.378-1.913-2.532-2.813-3.836-.9-1.305-1.773-2.619-2.775-3.875-1.003-1.256-1.831-2.614-2.793-3.857-5.703-2.769-11.752-6.841-17.647-9.974.568 1.529 1.816 2.806 2.75 4.156.933 1.353 1.935 2.678 2.897 4.008.964 1.33 1.931 2.703 2.857 4.048.923 1.348 1.941 2.468 2.813 3.837.87 1.37 2.03 2.621 2.928 3.976.896 1.356 1.919 2.696 2.911 3.995.995 1.3 1.698 2.64 2.729 3.921 1.03 1.279 1.895 2.696 2.936 3.969 1.04 1.274 1.82 2.798 2.818 4.087.998 1.289 1.91 2.499 2.814 3.837.9 1.34 2.035 2.642 2.94 3.964.906 1.322 1.957 2.731 2.899 4.008.943 1.276 1.828 2.629 2.813 3.836.984 1.207 1.864 2.951 2.857 4.048.99 1.098 1.951 3.141 2.928 3.977.977.839 1.68 3.729 2.89 3.76Z"/>
    <path fill="#70A0A0" d="M131.202 131.202c-4.678 6.108-9.701 12.547-13.99 19.005-4.286 6.455-9.89 12.317-13.631 19.103-1.167 2.117-.284 4.966-.512 7.416-.228 2.451.171 5.197 0 7.673 15.483-20.826 30.609-42.066 45.78-63.171-5.647 3.521-12.192 6.076-17.647 9.974Z"/>
    <path fill="#065958" fill-opacity=".26" stroke="#000" d="M93.095 200h1.534v-.256h-1.534V200Z"/>
    <path fill="#075959" fill-opacity=".56" stroke="#000" d="M94.63 200h1.278v-.256h-1.279V200Z"/>
    <path fill="#075959" fill-opacity=".82" stroke="#000" d="M95.908 200h2.302c-.517-.458-1.576-.256-2.302-.256V200Z"/>
    <path fill="#075959" fill-opacity=".62" stroke="#000" d="M103.325 200h2.046c-.402-.44-1.627-.384-2.046 0Z"/>
  </g>
  <defs>
    <clipPath id="a">
      <path fill="#fff" d="M0 0h200v200H0z"/>
    </clipPath>
  </defs>
</svg>
