<svg t="1739948741834" class="icon" viewBox="0 0 1024 1024" version="1.1"
  xmlns="http://www.w3.org/2000/svg" p-id="11988" width="200" height="200">
  <path d="M512 1024c282.0096 0 512-229.9904 512-512 0-281.9584-229.9904-512-512-512C230.0416 0 0 230.0416 0 512c-0.0512 282.0096 229.9904 512 512 512z" fill="#2151a4" p-id="11989"></path>
  <path d="M380.672 246.6304h73.728c2.816 0 5.0688 2.304 5.0688 5.12v107.7248c0 2.8672 2.304 5.12 5.12 5.12h94.6688c2.816 0 5.12-2.2528 5.12-5.12V251.7504c0-2.816 2.2528-5.12 5.12-5.12h73.6768c2.816 0 5.12 2.304 5.12 5.12v107.7248c0 2.8672 2.2528 5.12 5.12 5.12h90.112c2.8672 0 5.12 2.304 5.12 5.12v73.5232c0 2.8672-2.2528 5.12-5.12 5.12h-90.112c-2.8672 0-5.12 2.304-5.12 5.12v114.432c0 2.816 2.2528 5.12 5.12 5.12h90.112c2.8672 0 5.12 2.2528 5.12 5.12v73.5232c0 2.816-2.2528 5.12-5.12 5.12h-90.112c-2.8672 0-5.12 2.304-5.12 5.12v107.7248c0 2.816-2.304 5.12-5.12 5.12h-73.6768c-2.8672 0-5.12-2.304-5.12-5.12V661.9136c0-2.8672-2.304-5.12-5.12-5.12H464.64c-2.816 0-5.12 2.304-5.12 5.12v107.7248c0 2.816-2.2528 5.12-5.0688 5.12h-73.728c-2.816 0-5.12-2.304-5.12-5.12V661.9136c0-2.8672-2.2528-5.12-5.12-5.12h-90.112c-2.8672 0-5.12-2.304-5.12-5.12v-73.5232c0-2.8672 2.2528-5.12 5.12-5.12h90.112c2.8672 0 5.12-2.304 5.12-5.12v-114.432c0-2.816-2.2528-5.12-5.12-5.12h-90.112a5.0688 5.0688 0 0 1-5.12-5.12v-73.5232c0-2.816 2.2528-5.12 5.12-5.12h90.112c2.8672 0 5.12-2.2528 5.12-5.12V251.7504a5.034667 5.034667 0 0 1 5.0688-5.12z m183.7568 321.3312V453.4784c0-2.816-2.304-5.12-5.12-5.12H464.64c-2.816 0-5.12 2.304-5.12 5.12v114.432c0 2.816 2.304 5.12 5.12 5.12h94.6688c2.816 0.0512 5.12-2.304 5.12-5.0688z" fill="#FFFFFF" p-id="11990"></path>
</svg>