<svg xmlns="http://www.w3.org/2000/svg" width="200" height="200" fill="none" viewBox="0 0 200 200">
  <g clip-path="url(#a)">
    <path fill="#76FB8E" fill-rule="evenodd" d="M100 0c55.303 0 100 44.81 100 100 0 55.303-44.809 100-100 100-55.295.008-100-44.801-100-100C0 44.705 44.81 0 100 0Z" clip-rule="evenodd"/>
    <path fill="#121312" d="M160.811 99.99h-14.94a8.077 8.077 0 0 0-8.077 8.079v21.688a8.077 8.077 0 0 1-8.078 8.079H70.284a8.077 8.077 0 0 0-8.077 8.079v14.942a8.078 8.078 0 0 0 8.077 8.08h62.873c4.462 0 8.025-3.617 8.025-8.08v-11.988c0-4.463 3.616-7.629 8.078-7.629h11.547a8.076 8.076 0 0 0 8.077-8.078v-25.187c0-4.463-3.612-7.985-8.073-7.985ZM62.205 70.304a8.077 8.077 0 0 1 8.077-8.079h59.397a8.077 8.077 0 0 0 8.077-8.079V39.204a8.077 8.077 0 0 0-8.077-8.08h-62.84a8.077 8.077 0 0 0-8.077 8.08v11.514a8.077 8.077 0 0 1-8.077 8.078H39.189a8.077 8.077 0 0 0-8.077 8.08v25.213c0 4.463 3.63 7.898 8.092 7.898h14.939a8.077 8.077 0 0 0 8.077-8.08l-.015-21.603Zm30.762 13.978h14.35c4.676 0 8.47 3.797 8.47 8.471v14.354c0 4.677-3.797 8.471-8.47 8.471h-14.35c-4.676 0-8.47-3.797-8.47-8.471V92.753c0-4.677 3.797-8.471 8.47-8.471Z"/>
  </g>
  <defs>
    <clipPath id="a">
      <path fill="#fff" d="M0 0h200v200H0z"/>
    </clipPath>
  </defs>
</svg>
