<svg xmlns="http://www.w3.org/2000/svg" width="200" height="200" fill="none" viewBox="0 0 200 200">
  <g clip-path="url(#a)">
    <path fill="#4A21EF" fill-rule="evenodd" d="M99.944 0c55.272 0 99.944 44.784 99.944 99.944 0 55.272-44.784 99.944-99.944 99.944C44.68 199.896 0 155.112 0 99.944 0 44.68 44.784 0 99.944 0Z" clip-rule="evenodd"/>
    <path fill="#fff" d="M93.305 44.015a12.9 12.9 0 0 0-9.123 3.78L46.174 85.8a7.351 7.351 0 0 0-2.159 5.213 7.35 7.35 0 0 0 2.16 5.214l24.907 24.907V77.041c0-3.29 2.646-5.959 5.937-5.959h52.359l27.066-27.066h-63.14ZM71.083 129.38h52.339a5.957 5.957 0 0 0 5.957-5.958V79.326l24.907 24.907a7.35 7.35 0 0 1 2.16 5.213 7.348 7.348 0 0 1-2.159 5.213l-38.007 38.008a12.904 12.904 0 0 1-9.123 3.778H44.016l27.067-27.066Z"/>
  </g>
  <defs>
    <clipPath id="a">
      <path fill="#fff" d="M0 0h200v200H0z"/>
    </clipPath>
  </defs>
</svg>
