<svg xmlns="http://www.w3.org/2000/svg" width="200" height="200" fill="currentColor" viewBox="0 0 200 200">
  <g clip-path="url(#a)">
    <path fill="#fff" stroke="#000" stroke-width="2" d="M100 1c13.364 0 26.327 2.619 38.536 7.78v.001c11.422 4.832 21.711 11.681 30.612 20.368l.857.846c8.805 8.805 15.779 19.017 20.74 30.366l.474 1.103C196.38 73.673 199 86.635 199 100c0 13.365-2.62 26.327-7.781 38.536-4.832 11.422-11.681 21.711-20.368 30.612l-.846.857c-8.805 8.805-19.017 15.779-30.366 20.74l-1.103.474C126.328 196.387 113.365 199 100 199c-13.365 0-26.328-2.62-38.537-7.781-11.422-4.832-21.71-11.681-30.611-20.368l-.857-.846c-8.805-8.805-15.779-19.017-20.74-30.366l-.474-1.103C3.62 126.327 1 113.365 1 100c0-13.365 2.62-26.327 7.781-38.536 4.832-11.422 11.681-21.71 20.368-30.612l.846-.857c9.096-9.089 19.678-16.227 31.469-21.214h-.001C73.673 3.618 86.635 1 100 1Z"/>
    <path fill="#000" d="M100 194.701c52.302 0 94.701-42.399 94.701-94.701 0-52.302-42.399-94.701-94.701-94.701C47.698 5.299 5.299 47.698 5.299 100c0 52.302 42.399 94.701 94.701 94.701Z"/>
    <path fill="#fff" d="M102.328 82.213v43.632l42.715-25.887-42.715-17.745Zm0-4.925 42.327 17.59-10.118-16.497L156.05 56.87l-12.855-12.863-18.43 18.437-22.437-36.577v51.422Zm-4.544 48.557V82.213L55.07 99.958l42.715 25.887ZM55.458 94.878l42.326-17.59V25.866l-22.43 36.577-18.436-18.437L44.063 56.87l21.512 21.505-10.117 16.504Zm89.106 18.662-42.236 25.598v33.902l17.378-24.49 18.141 18.14 12.855-12.855-20.32-20.321 14.182-19.974Zm-46.78 25.598L55.55 113.54l14.182 19.974-20.32 20.321 12.855 12.855 18.14-18.133 17.378 24.476v-33.895Z"/>
  </g>
  <defs>
    <clipPath id="a">
      <path fill="#fff" d="M0 0h200v200H0z"/>
    </clipPath>
  </defs>
</svg>
