<svg t="1737426435267" class="icon" viewBox="0 0 1024 1024" version="1.1"
  xmlns="http://www.w3.org/2000/svg" p-id="8053" width="200" height="200">
  <path d="M512 1024C230.4 1024 0 793.6 0 509.448533 2.56 227.848533 230.4-2.542933 514.56 0.017067c281.6 2.56 509.44 230.4 509.44 517.12C1021.44 796.16 793.6 1024 512 1024z" fill="#E42D04" p-id="8054"></path>
  <path d="M521.975467 887.466667c37.162667 0 132.488533-16.750933 216.507733-83.7632 96.6144-77.056 105.710933-120.0384 111.5904-147.746134 0.512-2.4064 0.989867-4.7104 1.5104-6.903466 0.981333-4.1472 1.553067-9.787733 1.749333-16.494934-20.292267-3.285333-48.733867-5.162667-81.928533-1.220266-54.289067 6.442667-96.9472 43.4944-111.488 61.2096C651.835733 652.270933 612.411733 571.733333 519.338667 571.733333c-93.064533 0-143.266133 80.546133-156.7232 120.814934-8.618667-15.035733-40.721067-48.324267-100.181334-61.2096-36.7616-7.970133-68.829867-4.036267-91.776 2.670933 1.809067 29.952 11.656533 61.883733 37.853867 95.5904 45.0816 57.992533 115.029333 93.7984 146.2272 109.781333 3.473067 1.774933 6.459733 3.3024 8.8832 4.590934 24.234667 12.885333 90.478933 43.4944 158.344533 43.4944z" fill="#FFFFFF" p-id="8055"></path>
  <path d="M853.248 631.381333c-20.2752-3.268267-48.699733-5.1456-81.877333-1.220266C717.115733 636.586667 674.4832 673.536 659.950933 691.2c-8.072533-40.157867-47.470933-120.4736-140.484266-120.4736-93.013333 0-143.189333 80.315733-156.637867 120.4736-8.618667-14.993067-40.695467-48.187733-100.1216-61.038933-36.736-7.944533-68.7872-4.010667-91.7248 2.670933-1.646933-27.229867 3.3792-52.804267 8.763733-76.561067 9.045333-39.8336 31.761067-92.629333 41.984-114.039466-9.147733-21.956267-30.353067-84.1728-41.984-157.4144-11.6224-73.250133 8.081067-122.624 19.3792-138.146134 18.304 4.821333 62.011733 19.9168 90.427734 41.762134 28.424533 21.845333 72.132267 70.144 90.436266 91.562666 23.68-6.4256 84.616533-19.285333 138.871467-19.285333 54.254933 0 106.581333 12.859733 125.952 19.285333 16.1536-19.285333 55.876267-64.571733 85.589333-91.562666C760.1152 161.450667 808.448 148.2752 828.9024 145.066667c5.376 6.9632 16.7936 27.306667 19.370667 53.009066 3.242667 32.128-6.4512 99.584-19.370667 144.554667-10.333867 35.985067-23.688533 78.1824-29.064533 94.779733 2.688 5.888 11.946667 25.053867 27.451733 54.613334 16.4352 31.342933 27.0592 101.973333 25.966933 139.357866z" fill="#FFAA35" p-id="8056"></path>
  <path d="M588.270933 774.331733c-3.84 5.137067-8.004267 14.984533-9.608533 19.268267v-1.604267l-4.795733-38.536533c-9.0624 1.066667-32.64 3.208533-54.4 3.208533s-47.470933-2.133333-57.6-3.208533l-1.604267 38.536533a117.845333 117.845333 0 0 1-6.4-11.2384c-3.191467-6.4256-14.395733-16.059733-14.395733-20.881066 0-3.848533-5.333333-12.305067-8.004267-16.0512L426.666667 737.399467h28.8l6.4 4.821333c5.333333-0.5376 18.875733-0.964267 30.404266 1.604267 11.52 2.56 18.6624-7.492267 20.795734-12.842667V705.28c-4.804267-3.208533-16.64-10.5984-25.6-14.455467-11.204267-4.8128-22.4-24.081067-19.2-43.349333s12.8-25.685333 19.2-24.0896c6.4 1.6128 48-1.604267 54.4 0 6.4 1.6128 17.604267 4.821333 22.4 12.8512 4.804267 8.021333 1.604267 40.1408-8.004267 51.3792-7.68 8.994133-22.391467 15.522133-28.791467 17.664v25.685333c0 3.217067 11.195733 11.246933 12.8 12.8512 1.595733 1.604267 25.6 0 30.395734 0 3.84 0 6.9376-3.217067 8.004266-4.821333H605.866667v6.4256c0 3.208533-4.804267 17.664-6.4 19.268267-1.604267 1.604267-6.4 3.208533-11.204267 9.634133z" fill="#000000" p-id="8057"></path>
  <path d="M536.789333 763.733333L520.533333 776.533333l-13.0048-12.8-11.374933 5.691734L486.4 759.466667h68.266667l-9.7536 11.374933-8.123734-7.108267zM361.856 501.162667c-19.037867-7.867733-39.671467-13.124267-47.598933-14.762667-2.116267 1.092267-6.3488 4.590933-6.3488 9.847467 0 6.570667-1.5872 13.124267 0 26.257066 1.5872 13.124267 14.276267 21.333333 36.497066 31.1808C366.6176 563.524267 404.701867 571.733333 431.684267 571.733333c26.973867 0 1.5872-27.904-7.936-34.4576-9.5232-6.570667-38.084267-26.257067-61.892267-36.104533z" fill="#000000" p-id="8058"></path>
  <path d="M387.925333 457.617067c-14.2336 2.542933-33.962667 3.182933-42.052266 3.182933-8.081067-1.058133-25.224533-6.0416-29.1072-17.493333-4.855467-14.318933 8.0896-30.225067 24.260266-38.178134 16.170667-7.953067 37.188267-4.770133 50.1248 14.318934 12.936533 19.080533 14.557867 34.986667-3.234133 38.1696z" fill="#FFFFFF" p-id="8059"></path>
  <path d="M679.210667 492.629333c19.037867-7.867733 39.671467-13.124267 47.607466-14.762666 2.116267 1.092267 6.340267 4.590933 6.340267 9.847466 0 6.570667 1.5872 13.124267 0 26.257067-1.5872 13.124267-14.276267 21.333333-36.497067 31.1808C674.449067 554.999467 636.3648 563.2 609.3824 563.2c-26.973867 0-1.5872-27.904 7.936-34.4576 9.5232-6.570667 38.084267-26.257067 61.892267-36.104533z" fill="#000000" p-id="8060"></path>
  <path d="M627.541333 457.617067c14.2336 2.542933 33.962667 3.182933 42.052267 3.182933 8.081067-1.058133 25.224533-6.0416 29.1072-17.493333 4.855467-14.318933-8.0896-30.225067-24.260267-38.178134-16.170667-7.953067-37.188267-4.770133-50.1248 14.318934-12.936533 19.080533-14.557867 34.986667 3.234134 38.1696z" fill="#FFFFFF" p-id="8061"></path>
  <path d="M276.736 338.551467c-11.630933 12.706133-33.92 41.284267-43.613867 53.981866-6.459733-13.755733-20.676267-50.4832-25.838933-87.3216-5.1712-36.829867-1.083733-93.661867 1.6128-117.4784 6.997333 0.529067 27.460267 6.3488 53.2992 25.403734 25.838933 19.0464 63.522133 54.5024 79.138133 69.853866-16.6912 13.226667-52.974933 42.862933-64.597333 55.560534z" fill="#FF8C30" p-id="8062"></path>
  <path d="M204.8 217.975467c25.403733 10.5984 58.8288 26.794667 72.840533 41.4464 14.216533 14.848 26.717867 34.517333 34.141867 47.778133A1566.242133 1566.242133 0 0 1 341.333333 283.3152c-15.786667-15.402667-53.888-50.978133-80.017066-70.0928-26.129067-19.114667-46.813867-24.96-53.896534-25.489067-0.8448 7.424-1.826133 18.030933-2.619733 30.242134z" fill="#FF9A32" p-id="8063"></path>
  <path d="M738.730667 338.551467c11.639467 12.706133 33.92 41.284267 43.613866 53.981866 6.459733-13.755733 20.676267-50.4832 25.838934-87.3216 5.1712-36.829867 1.0752-93.661867-1.6128-117.4784-6.997333 0.529067-27.460267 6.3488-53.2992 25.403734-25.838933 19.0464-63.530667 54.5024-79.138134 69.853866 16.6912 13.226667 52.974933 42.862933 64.597334 55.560534z" fill="#FF8C30" p-id="8064"></path>
  <path d="M810.666667 217.975467c-25.403733 10.5984-58.8288 26.794667-72.840534 41.4464-14.216533 14.848-26.717867 34.517333-34.133333 47.778133A1565.602133 1565.602133 0 0 0 674.133333 283.3152c15.786667-15.402667 53.888-50.978133 80.017067-70.0928 26.129067-19.114667 46.813867-24.96 53.896533-25.489067 0.8448 7.424 1.826133 18.030933 2.619734 30.242134z" fill="#FF9A32" p-id="8065"></path>
</svg>