<svg xmlns="http://www.w3.org/2000/svg" width="200" height="200" fill="none" viewBox="0 0 200 200">
  <path fill="url(#a)" fill-rule="evenodd" d="M99.944 0c55.272 0 99.944 44.784 99.944 99.944 0 55.272-44.784 99.944-99.944 99.944C44.68 199.896 0 155.112 0 99.944 0 44.68 44.784 0 99.944 0Z" clip-rule="evenodd"/>
  <path fill="#FEFEFE" d="M75.978 61.716c1.133.282 2.293.37 3.433.672a1566.52 1566.52 0 0 1-14.76 54.083c-.931 3.316-1.614 6.712-2.404 10.078-4.654-.887-11.046-3.591-14.176 1.579-3.13 5.17 1.098 9.993 6.305 10.826 5.211.834 10.274 2.94 15.423 4.055-1.136 2.647-1.304 5.408-2.379 8.086-1.07 2.68-.786 5.902 1.435 7.954 2.218 2.053 5.544 2.345 8.046.652 2.506-1.69 2.76-4.75 3.515-7.31.752-2.563.91-7.01 4.374-5.576 3.466 1.431 5.3 1.199 8.694 2.241-.72 3.04-1.826 5.979-2.402 9.07-.786 3.15-.43 6.923 3.116 8.371 3.55 1.448 7.693-.36 8.822-3.742 1.126-3.387 1.751-6.937 2.822-10.34 14.808 6.628 34.488-3.867 35.356-20.155.065-1.67.034-3.37 0-5.039-.051-2.52-1.04-5.308-1.981-7.468-.94-2.16-2.399-4.38-3.769-6.053-1.373-1.673-3.882-3.373-5.131-4.384-1.247-1.014-6.347-2.869-4.48-3.846 1.867-.978 5.863-.333 7.833-1.74 1.971-1.405 4.257-2.063 5.897-3.971 1.638-1.911 3.261-2.95 4.35-5.15 1.084-2.2 2.32-4.723 2.773-7.027.584-3.642.402-8.828-1.054-12.07-1.458-3.238-2.392-5.976-5.382-8.17-2.99-2.193-4.061-4.72-8.317-5.297-4.253-.581-3.011-4.908-1.377-8.388 1.634-3.483.714-7.78-2.512-9.641-3.224-1.864-7.628-.276-9.052 3.027-1.421 3.305-1.689 7.252-2.856 10.642-3.889-.5-7.521-1.918-11.328-2.688.258-3.473 2.204-6.809 2.746-10.077 1.658-5.365-5.832-10.165-10.04-6.803-4.205 3.363-3.248 9.14-5.063 13.521-4.336-1.159-8.788-1.942-13.037-3.366-4.247-1.428-9.203-.275-10.535 4.485-1.332 4.76 3.13 7.968 7.095 8.959Zm45.311 12.429c5.241 1.061 8.482 8.616 4.833 12.792-3.649 4.179-9.526 4.488-14.675 5.794-5.149 1.304-11.715 4.065-17.276 3.585-5.561-.48-8.177-8.953-4.72-12.681 3.46-3.726 9.584-4.962 14.681-5.788 5.101-.823 11.719-4.804 17.157-3.702Zm-10.641 36.615c5.052 1.025 8.615 8.083 5.176 12.456-3.44 4.374-9.656 4.713-14.791 6.017-5.132 1.303-11.603 4.085-17.16 3.698-5.557-.386-8.643-8.522-5.176-12.456 3.467-3.933 9.717-5.206 14.794-6.013 5.08-.803 11.788-4.79 17.157-3.702Z"/>
  <defs>
    <linearGradient id="a" x1="147" x2="42" y1="181" y2="20.5" gradientUnits="userSpaceOnUse">
      <stop stop-color="#E09838"/>
      <stop offset="1" stop-color="#F7CF64"/>
    </linearGradient>
  </defs>
</svg>
