<svg t="1737427338330" class="icon" viewBox="0 0 1024 1024" version="1.1"
  xmlns="http://www.w3.org/2000/svg" p-id="18319" width="200" height="200">
  <path d="M512 1024c282.7696 0 512-229.2304 512-512S794.7696 0 512 0 0 229.2304 0 512s229.2304 512 512 512z" fill="#F2F5FF" p-id="18320"></path>
  <path d="M296.2816 474.7824l-5.888 9.0336c-66.4064 101.8672-51.576 235.2784 35.656 320.7504 51.3184 50.2832 118.5776 75.4288 185.8368 75.4336L296.2816 474.7824z" fill="#00A3FF" p-id="18321"></path>
  <path d="M511.824 597.9376l-215.608-123.1552L511.824 880V597.9376zM727.7344 474.7824l5.888 9.0336c66.4032 101.8672 51.5728 235.2784-35.6592 320.7504-51.3168 50.2832-118.5744 75.4288-185.8368 75.4336l215.608-405.2176z" fill="#00A3FF" opacity=".6" p-id="18322"></path>
  <path d="M512.1072 597.9376l215.6064-123.1552L512.1072 880V597.9376zM512.1712 322.808v212.4112l185.7216-106.136-185.7216-106.2752z" fill="#00A3FF" opacity=".2" p-id="18323"></path>
  <path d="M512.12 322.808l-185.856 106.272 185.856 106.1392V322.808z" fill="#00A3FF" opacity=".6" p-id="18324"></path>
  <path d="M512.12 144.1728l-185.856 284.9744 185.856-106.5696V144.1728z" fill="#00A3FF" p-id="18325"></path>
  <path d="M512.1712 322.544l185.8656 106.5728L512.1712 144v178.544z" fill="#00A3FF" opacity=".6" p-id="18326"></path>
</svg>