<svg width="33" height="33" viewBox="0 0 33 33" fill="none" xmlns="http://www.w3.org/2000/svg">
<g clip-path="url(#clip0_4_204)">
<path d="M0.5 0.5H32.5V32.5H0.5V0.5Z" fill="#FFB800"/>
<path d="M13.5255 17.2804C14.8975 17.0576 15.8292 15.7648 15.6065 14.3928C15.3838 13.0208 14.0909 12.0892 12.719 12.3118C11.347 12.5345 10.4154 13.8273 10.638 15.1994C10.8607 16.5713 12.1536 17.503 13.5255 17.2804ZM20.1035 17.2804C21.4755 17.0576 22.4072 15.7648 22.1844 14.3928C21.9618 13.0208 20.669 12.0892 19.297 12.3118C17.925 12.5345 16.9932 13.8273 17.216 15.1994C17.4387 16.5713 18.7315 17.503 20.1035 17.2804Z" fill="white"/>
<path d="M16.4071 4.40704C9.57355 4.40704 4.03314 10.0529 4.03503 17.0152H7.19573C7.19573 11.7975 11.2871 7.56711 16.4071 7.56711C21.5271 7.56711 25.6185 11.7975 25.6185 17.0152H28.7792C28.7804 10.0529 23.2401 4.40704 16.4071 4.40704Z" fill="white"/>
</g>
<defs>
<clipPath id="clip0_4_204">
<rect width="32" height="32" fill="white" transform="translate(0.5 0.5)"/>
</clipPath>
</defs>
</svg>
