<svg xmlns="http://www.w3.org/2000/svg" width="210" height="210" fill="none" viewBox="0 0 210 210">
  <path fill="#fff" stroke="#080503" stroke-width="10" d="M105 205c55.228 0 100-44.772 100-100S160.228 5 105 5 5 49.772 5 105s44.772 100 100 100Z"/>
  <path fill="#080503" fill-rule="evenodd" d="M135.019 66.498c12.427 1.102 22.265 4.961 23.358 16.459l.005-.004c.814 8.416-2.676 13.456-8.258 16.334 9.186 2.239 14.938 7.741 13.797 20.082-1.407 15.322-12.738 19.429-28.919 20.359v7.238h-9.624v-7.023c-2.495.004-5.051-.02-7.688-.077v7.097h-9.616v-7.27a5200.52 5200.52 0 0 0-14.954-.06l.071-8.435h8.027V75.12l-8.03-.046.029-8.556s12.797.01 14.88-.03v-7.361h9.616v7.049a398.09 398.09 0 0 1 7.685-.098v-6.946h9.621v7.366Zm-15.236 61.645c7.884.114 25.111.363 25.111-10.7h-.008c-.003-11.315-16.575-10.922-24.645-10.731-.894.021-1.685.04-2.337.04v21.371c.538 0 1.17.009 1.879.02Zm-.275-31.154c6.581.11 20.921.351 20.921-9.701.005-10.28-13.78-9.92-20.526-9.741-.761.02-1.433.036-1.984.036V96.97c.453 0 .989.009 1.589.019Z" clip-rule="evenodd"/>
  <path fill="#080503" d="M70.27 79.59h-15.5v15.632h15.5V79.59Z"/>
  <path fill="#080503" d="M85.769 95.222h-15.5v15.633h15.5V95.222Zm-46.501 0h15.499v15.633h-15.5V95.222Zm31.002 15.634h-15.5v15.633h15.5v-15.633Z"/>
</svg>
