<svg xmlns="http://www.w3.org/2000/svg" width="200" height="200" fill="none" viewBox="0 0 200 200">
  <path fill="#3C7858" fill-rule="evenodd" d="M99.944 0c55.272 0 99.944 44.784 99.944 99.944 0 55.272-44.784 99.944-99.944 99.944C44.68 199.896 0 155.112 0 99.944 0 44.68 44.784 0 99.944 0Z" clip-rule="evenodd"/>
  <mask id="a" width="127" height="123" x="36" y="39" maskUnits="userSpaceOnUse" style="mask-type:luminance">
    <path fill="#fff" d="M163 39H36v123h127V39Z"/>
  </mask>
  <g mask="url(#a)">
    <path fill="#fff" d="M160 39.011c-13.518 0-26.672.017-39.832-.011-3.267-.006-5.797 1.267-7.758 3.99-5.808 8.077-11.676 16.104-17.522 24.152-2.725 3.761-5.45 7.517-8.213 11.328-.292-.381-.52-.667-.737-.964C80.531 70.05 75.081 62.63 69.74 55.13c-1.782-2.5-3.944-3.694-6.984-3.66-8.7.106-17.402.04-26.097.04H35c.439.616.715 1.02 1.002 1.417C47.288 68.402 58.568 83.883 69.885 99.33c.656.903.688 1.446.017 2.371-11.28 15.481-22.522 30.995-33.77 46.499-.254.358-.493.728-.877 1.295h1.657c8.696 0 17.397-.04 26.093.027 2.763.017 4.827-1.036 6.463-3.318 5.456-7.594 10.96-15.144 16.449-22.711.227-.308.487-.594.775-.947.297.392.525.678.742.969 8.294 11.446 16.611 22.88 24.867 34.348 2.022 2.802 4.589 4.147 7.965 4.136 12.396-.045 24.792-.017 37.188-.017h2.275a399791.356 399791.356 0 0 0-44.589-61.446A203111.6 203111.6 0 0 0 160 39.011Zm-20.962 111.796c.13.18.266.353.586.774-6.41 0-12.532.016-18.654-.045-.45-.006-1.002-.533-1.322-.964a15335.27 15335.27 0 0 1-20.858-28.72c-4.942-6.821-9.883-13.648-14.824-20.475-.211-.297-.411-.6-.644-.947 3.721-5.128 7.416-10.235 11.117-15.335 8.381-11.546 16.779-23.087 25.139-34.655.579-.802 1.165-1.088 2.118-1.082 5.938.045 11.876.022 18.031.022-.309.488-.499.83-.726 1.144-11.849 16.254-23.693 32.52-35.574 48.751-.677.925-.726 1.502-.022 2.472 11.903 16.333 23.763 32.699 35.633 49.06Z"/>
  </g>
</svg>
