<svg xmlns="http://www.w3.org/2000/svg" width="200" height="200" fill="none" viewBox="0 0 200 200">
  <g clip-path="url(#a)">
    <path fill="#122A5F" fill-rule="evenodd" d="M99.944 0c55.272 0 99.944 44.784 99.944 99.944 0 55.272-44.784 99.944-99.944 99.944C44.68 199.896 0 155.112 0 99.944 0 44.68 44.784 0 99.944 0Z" clip-rule="evenodd"/>
    <path fill="#fff" fill-rule="evenodd" d="M158.042 100c0-32.4-27.035-58.667-60.385-58.667V20c5.685 0 11.235.56 16.595 1.625C151.774 29.085 180 61.34 180 100c0 44.183-36.866 80-82.343 80-35.852 0-66.353-22.262-77.657-53.333h23.857c9.995 18.995 30.334 32 53.8 32 33.35 0 60.385-26.266 60.385-58.667ZM24.812 62.667c13.806 25.375 41.247 42.666 72.845 42.666V84c-27.062 0-49.966-17.296-57.64-41.13a80.497 80.497 0 0 0-15.205 19.797Zm24.493-27.429c4.698 21.758 24.561 38.095 48.352 38.095 15.159 0 27.448 11.94 27.448 26.667 0 14.728-12.289 26.667-27.448 26.667H56.571C65.434 139.531 80.528 148 97.657 148c27.286 0 49.406-21.49 49.406-48s-22.12-48-49.406-48C82.498 52 70.21 40.061 70.21 25.333v-.78a82.966 82.966 0 0 0-20.905 10.685Z" clip-rule="evenodd"/>
  </g>
  <defs>
    <clipPath id="a">
      <path fill="#fff" d="M0 0h200v200H0z"/>
    </clipPath>
  </defs>
</svg>
