<svg t="1737427049903" class="icon" viewBox="0 0 1024 1024" version="1.1"
  xmlns="http://www.w3.org/2000/svg" p-id="14520" width="200" height="200">
  <path d="M660.011774 419.32794c-5.012094-51.929423-49.948699-69.290902-106.476847-74.234101v-72.046693h-43.817066v70.152087c-11.522648 0-23.269204 0.241132-35.01576 0.482263v-70.617126h-43.885961v72.029469c-9.490253 0.189461-18.825492 0.378921-27.902376 0.378921v-0.223908h-60.45515v46.831211s32.39776-0.637277 31.846602 0c17.774847 0 23.544783 10.334214 25.232705 19.221638v82.053655a38.391603 38.391603 0 0 1 4.633172 0.292803H399.589592v114.968126c-0.775066 5.580475-4.064791 14.485123-16.483071 14.51957 0.585605 0.499487-31.863825 0-31.863825 0l-8.611845 52.342792h57.079307c10.609793 0 21.064572 0.189461 31.295443 0.241132v72.856205h43.817066v-72.046692c12.056583 0.206684 23.665349 0.292803 35.032984 0.292803v71.753889h43.817065V675.857568c73.734614-4.271475 125.30234-22.873059 131.675105-92.095067 5.167107-55.735859-21.099019-80.62409-62.952584-90.631053 25.49106-12.969438 41.354078-35.790826 37.616537-73.803508z m-61.264663 155.839941c0.086118 54.444082-93.162935 48.22633-122.891023 48.346895v-96.538778c29.710864 0.068895 122.873799-8.54295 122.891023 48.191883z m-20.461743-136.187712c0 49.552554-77.73051 43.782618-102.463727 43.817066v-87.530789c24.664323-0.017224 102.42928-7.957344 102.463727 43.713723z" fill="#F09242" p-id="14521"></path>
  <path d="M512.008612 0C229.230081 0 0 229.230081 0 512.008612s229.230081 511.991388 512.008612 511.991388 511.991388-229.230081 511.991388-511.991388S794.769919 0 512.008612 0z m0 978.081644c-257.408037 0-466.073032-208.664996-466.073033-466.073032s208.664996-466.073032 466.073033-466.073033 466.073032 208.664996 466.073032 466.073033-208.664996 466.073032-466.073032 466.073032z" fill="#282138" p-id="14522"></path>
  <path d="M140.562528 512.008612a370.30932 370.30932 0 0 1 103.342136-257.149681L208.406641 215.296116a424.443375 424.443375 0 0 0-31.002641 558.047534l39.614485-35.532471a369.827057 369.827057 0 0 1-76.455957-225.802567zM883.437472 512.008612a370.137083 370.137083 0 0 1-104.737255 258.493129l35.515247 39.614485a424.426152 424.426152 0 0 0 29.280272-563.21464l-39.511143 35.498024a369.758162 369.758162 0 0 1 79.452879 229.609002zM283.501926 219.154223a371.42886 371.42886 0 0 1 484.554051 23.785915l39.614485-35.515248A424.408928 424.408928 0 0 0 248.021126 179.625856zM738.999613 806.068659a371.411636 371.411636 0 0 1-486.586446-28.419087l-39.614486 35.515247a424.495047 424.495047 0 0 0 561.647285 32.39776z" fill="#5A5564" p-id="14523"></path>
</svg>