<svg t="1737427181250" class="icon" viewBox="0 0 1024 1024" version="1.1"
  xmlns="http://www.w3.org/2000/svg" p-id="15570" width="200" height="200">
  <path d="M287.072 1015.6c257.376 0 257.376-3.84 301.024-16.784 57.024-16.928-161.024-167.872-301.024-167.872s-253.504 41.344-253.504 92.32c0 51.008 113.504 92.336 253.504 92.336z" fill="#000000" p-id="15571"></path>
  <path d="M871.52 230.48l11.84 12.752-10.352 13.984c-335.68 453.872-529.056 659.36-611.104 631.808-49.968-16.8-100.08-67.28-150.208-140.592a1035.408 1035.408 0 0 1-49.2-79.904 869.872 869.872 0 0 1-22.896-43.616c-5.616-11.792-8-19.04-9.872-28.576l-0.224-1.152a97.44 97.44 0 0 0-1.648-7.536 458.08 458.08 0 0 1-15.264-117.616c0-252.64 204.8-457.44 457.44-457.44 79.152 0 155.424 20.144 223.024 57.952l1.744 1.088c55.344 38.544 114.208 91.488 176.72 158.848zM671.664 106.672A413.456 413.456 0 0 0 470.032 54.56C240.576 54.56 54.56 240.576 54.56 470.032c0 36.464 4.688 72.288 13.856 106.848 0.912 3.424 1.328 5.36 2.288 10.304l0.192 1.024c1.216 6.144 2.496 10.08 6.576 18.64a831.52 831.52 0 0 0 21.68 41.248 994.016 994.016 0 0 0 47.2 76.64c45.28 66.24 90.176 111.488 128.928 124.496 51.664 17.36 246.176-188.544 553.568-602.912-55.808-58.896-108.24-105.44-157.184-139.648z" fill="#000000" p-id="15572"></path>
  <path d="M671.664 106.672A413.456 413.456 0 0 0 470.032 54.56C240.576 54.56 54.56 240.576 54.56 470.032c0 36.464 4.688 72.288 13.856 106.848 0.912 3.424 1.328 5.36 2.288 10.304l0.192 1.024c1.216 6.144 2.496 10.08 6.576 18.64a831.52 831.52 0 0 0 21.68 41.248 994.016 994.016 0 0 0 47.2 76.64c45.28 66.24 90.176 111.488 128.928 124.496 51.664 17.36 246.176-188.544 553.568-602.912-55.808-58.896-108.24-105.44-157.184-139.648z" fill="#EC1C79" p-id="15573"></path>
  <path d="M553.968 1011.408c-252.64 0-457.44-204.8-457.44-457.44s204.8-457.44 457.44-457.44 457.44 204.8 457.44 457.44-204.8 457.44-457.44 457.44z m0-41.968c229.456 0 415.472-186.016 415.472-415.472S783.424 138.496 553.968 138.496 138.496 324.512 138.496 553.968 324.512 969.44 553.968 969.44z" fill="#000000" p-id="15574"></path>
  <path d="M553.968 969.44c229.456 0 415.472-186.016 415.472-415.472S783.424 138.496 553.968 138.496 138.496 324.512 138.496 553.968 324.512 969.44 553.968 969.44z" fill="#FFFFFF" p-id="15575"></path>
  <path d="M243.168 639.072l-54.992-165.68h48.176l28.672 95.184 31.728-95.648H336l31.728 95.648 28.672-95.2h47.248L388.64 639.088h-39.728l-33.12-94.72-32.912 94.72h-39.728z m218.56-1.168V473.392h132.32v38.768H506.88v24.912h78.96v35.968H506.88v26.08h88.368v38.784h-133.488z m196.96 0v-124.56h-49.36v-39.952h144.304v39.952h-49.36v124.56h-45.6z m114.912 0V473.392h45.6v61.568h58.512v-61.568h45.6v164.512h-45.6v-62.512H819.2v62.512h-45.6z" fill="#000000" p-id="15576"></path>
  <path d="M39.84 423.904a23.504 23.504 0 1 1 21.024-42.032l67.152 33.568a23.504 23.504 0 0 1-21.024 42.032l-67.136-33.568zM32.112 535.248a23.504 23.504 0 0 1 19.696-42.688l67.152 30.992a23.504 23.504 0 0 1-19.68 42.688l-67.168-30.992z" fill="#000000" p-id="15577"></path>
</svg>