<svg xmlns="http://www.w3.org/2000/svg" width="200" height="200" fill="none" viewBox="0 0 200 200">
    <g clip-path="url(#a)">
        <mask id="b" width="200" height="200" x="0" y="0" maskUnits="userSpaceOnUse" style="mask-type:luminance">
            <path fill="#fff" fill-rule="evenodd" d="M0 0h200v200H0V0Z" clip-rule="evenodd"/>
        </mask>
        <g mask="url(#b)">
            <path fill="#0090FF" fill-rule="evenodd" d="M100 200C45 200 0 155 0 99.5.5 44.5 45-.5 100.5 0c55 .5 99.5 45 99.5 101-.5 54.5-45 99-100 99Z" clip-rule="evenodd"/>
        </g>
        <path fill="#fff" fill-rule="evenodd" d="m109.5 88-3 16 28.5 4-2 7.5-28-4c-2 6.5-3 13.5-5.5 19.5-2.5 7-5 14-8 20.5-4 8.5-11 14.5-20.5 16-5.5 1-11.5.5-16-3-1.5-1-3-3-3-4.5 0-2 1-4.5 2.5-5.5 1-.5 3.5 0 5 .5 1.5 1.5 3 3.5 4 5.5 3 4 7 4.5 11 1.5 4.5-4 7-9.5 8.5-15 3-12 6-23.5 8.5-35.5v-2l-26.5-4 1-7.5 27.5 4L97 86.5 68.5 82l1-8L99 78c1-3 1.5-5.5 2.5-8 2.5-9 5-18 11-26s13-13 23.5-12.5c4.5 0 9 1.5 12 5 .5.5 1.5 1.5 1.5 2.5 0 2 0 4.5-1.5 6-2 1.5-4.5 1-6.5-1-1.5-1.5-2.5-3-4-4.5-3-4-7.5-4.5-11-1-2.5 2.5-5 6-6.5 9.5-3.5 10.5-6 21.5-9.5 32.5l27.5 4-2 7.5-26.5-4Z" clip-rule="evenodd"/>
    </g>
    <defs>
        <clipPath id="a">
            <path fill="#fff" d="M0 0h200v200H0z"/>
        </clipPath>
    </defs>
</svg>
