<svg xmlns="http://www.w3.org/2000/svg" width="200" height="200" fill="none" viewBox="0 0 200 200">
  <g clip-path="url(#a)">
    <path fill="#1D44EE" fill-rule="evenodd" d="M100 0c55.303 0 100 44.81 100 100 0 55.303-44.809 100-100 100-55.295.008-100-44.801-100-100C0 44.705 44.81 0 100 0Z" clip-rule="evenodd"/>
    <path fill="#fff" fill-rule="evenodd" d="M153.729 158c-2.338 0-4.271-1.916-4.271-4.333 0-2.373 1.888-4.334 4.271-4.334 2.338 0 4.271 1.916 4.271 4.334 0 2.417-1.888 4.333-4.271 4.333Zm-2.158-46.757c-2.383 0-4.316-1.962-4.316-4.379 0-2.418 1.933-4.38 4.316-4.38s4.316 1.962 4.316 4.38c0 2.417-1.933 4.379-4.316 4.379Zm0-13.092c-2.383 0-4.316-1.962-4.316-4.38 0-2.417 1.933-4.379 4.316-4.379s4.316 1.962 4.316 4.38c0 2.417-1.933 4.379-4.316 4.379Zm-8.677-7.755v7.983h-8.676v-9.762c0-1.14.404-2.235 1.258-3.102l10.161-10.218c1.348-1.369 3.416-1.825 5.08-.958 2.787 1.46 3.192 5.018 1.169 7.025l-8.992 9.032Zm7.823 36.448c-1.664.866-3.732.41-5.08-.958l-10.161-10.219c-.854-.866-1.258-1.961-1.258-3.101v-9.762h8.676v7.983l8.992 9.032c2.023 2.052 1.663 5.565-1.169 7.025Zm-20.86-42.378v31.566l24.681 25.09c1.349 1.368 1.799 3.421.899 5.109-1.438 2.874-4.99 3.239-7.013 1.186l-25.985-26.412a4.422 4.422 0 0 1-1.259-3.102V82.641c0-1.14.405-2.28 1.259-3.102l15.96-16.194c1.348-1.368 3.416-1.825 5.125-.958 2.787 1.46 3.147 5.064 1.124 7.07l-14.791 15.009Zm-10.026-7.983a4.29 4.29 0 0 1-3.057 1.277H82.112a4.217 4.217 0 0 1-3.057-1.277l-15.96-16.194c-1.348-1.369-1.797-3.422-.898-5.11 1.438-2.828 4.99-3.238 7.013-1.185l14.7 14.962h31.112l14.656-14.871c1.349-1.369 3.417-1.825 5.125-.958 2.788 1.46 3.147 5.018 1.124 7.07l-16.095 16.286Zm-4.72-13.23a4.29 4.29 0 0 1-3.057 1.278h-9.711v-8.804h7.912l8.902-9.032c1.349-1.368 3.417-1.825 5.125-.958 2.788 1.46 3.147 5.018 1.124 7.07l-10.295 10.447Zm-9.216-11.495c-2.383 0-4.316-1.961-4.316-4.379 0-2.417 1.933-4.379 4.316-4.379 2.382 0 4.316 1.962 4.316 4.38 0 2.417-1.934 4.378-4.316 4.378ZM88.227 64.577A4.216 4.216 0 0 1 85.17 63.3L74.964 52.898c-1.348-1.369-1.798-3.421-.899-5.11 1.439-2.828 4.99-3.238 7.013-1.185l8.992 9.123h7.912v8.804h-9.755v.046Zm4.765-12.819c-2.383 0-4.316-1.961-4.316-4.379 0-2.417 1.933-4.379 4.316-4.379s4.316 1.962 4.316 4.38c-.045 2.417-1.933 4.378-4.316 4.378Zm-15.33 30.928v35.218c0 1.14-.405 2.281-1.26 3.102L60.443 137.2c-1.348 1.368-3.416 1.824-5.125.958-2.787-1.46-3.147-5.064-1.124-7.071l14.791-15.008V84.557l-14.7-14.962c-1.35-1.369-1.8-3.422-.9-5.11 1.439-2.873 4.99-3.238 7.013-1.185l16.05 16.285a4.578 4.578 0 0 1 1.214 3.102Zm-14.297 2.829a4.343 4.343 0 0 1 1.26 3.102v9.762h-8.677v-7.983l-8.902-8.941c-1.349-1.368-1.798-3.467-.944-5.155a4.35 4.35 0 0 1 6.968-1.14l10.295 10.355Zm-16.05 3.877c2.384 0 4.317 1.962 4.317 4.38 0 2.417-1.933 4.379-4.316 4.379S43 96.189 43 93.77c0-2.417 1.933-4.379 4.316-4.379Zm0 13.138c2.384 0 4.317 1.962 4.317 4.379 0 2.418-1.933 4.379-4.316 4.379S43 109.327 43 106.909c0-2.417 1.933-4.379 4.316-4.379Zm8.633 8.257v-7.983h8.676v9.762a4.34 4.34 0 0 1-1.258 3.101l-10.16 10.219c-1.35 1.368-3.418 1.824-5.08.958-2.788-1.46-3.193-5.018-1.17-7.025l8.992-9.032Zm23.018 12.407a4.294 4.294 0 0 1 3.056-1.277h34.707c1.124 0 2.203.411 3.057 1.277l25.941 26.321c1.348 1.369 1.798 3.422.899 5.109-1.439 2.829-4.99 3.239-7.013 1.186l-24.727-25.134h-31.02L69.21 145.638c-1.349 1.368-3.417 1.825-5.125.958-2.787-1.46-3.147-5.018-1.124-7.071l16.005-16.331Zm6.204 13.229a4.29 4.29 0 0 1 3.057-1.277h9.711v8.804h-7.913l-8.902 9.032c-1.348 1.369-3.416 1.825-5.125.958-2.787-1.46-3.147-5.018-1.124-7.071l10.296-10.446Zm7.822 12.499c2.383 0 4.316 1.962 4.316 4.38 0 2.417-1.933 4.379-4.316 4.379s-4.316-1.962-4.316-4.379c0-2.418 1.933-4.38 4.316-4.38Zm19.062-13.776c1.124 0 2.203.41 3.057 1.277l10.205 10.355c1.349 1.369 1.799 3.422.899 5.109-1.438 2.829-4.99 3.239-7.013 1.186l-8.991-9.123h-7.913v-8.804h9.756Zm-6.159 13.776c2.382 0 4.316 1.962 4.316 4.38 0 2.417-1.934 4.379-4.316 4.379-2.383 0-4.316-1.962-4.316-4.379 0-2.418 1.933-4.38 4.316-4.38Z" clip-rule="evenodd"/>
  </g>
  <defs>
    <clipPath id="a">
      <path fill="#fff" d="M0 0h200v200H0z"/>
    </clipPath>
  </defs>
</svg>
