<svg xmlns="http://www.w3.org/2000/svg" width="200" height="200" fill="currentColor" viewBox="0 0 200 200">
  <g clip-path="url(#a)">
    <mask id="b" width="200" height="200" x="0" y="0" maskUnits="userSpaceOnUse" style="mask-type:luminance">
      <path fill="#fff" d="M200 0H0v200h200V0Z"/>
    </mask>
    <g mask="url(#b)">
      <path fill="#0089DB" fill-rule="evenodd" d="M179.688 39.688c-15.157-19.376-37.344-31.72-61.875-31.72-47.5 0-82.344 44.22-82.344 92.032 0 33.281 22.187 58.281 46.718 58.281 2.344 0 4.532-.156 6.876-.625C72.5 145.625 62.03 123.75 62.03 100c0-37.813 25.625-67.344 55.782-67.344 32.968 0 55.781 32.657 55.781 67.344-.157 25.625-9.219 51.094-25.313 69.844-14.062 16.406-32.187 26.719-52.187 30 0 0 1.719.156 3.906.156 55.156 0 100-44.844 100-100 0-22.656-7.5-43.594-20.312-60.313ZM164.531 100c0-33.281-22.187-58.281-46.718-58.281-2.344 0-4.532.156-6.875.625C127.5 54.375 137.969 76.25 137.969 100c0 37.813-25.625 67.344-55.781 67.344-32.97 0-55.782-32.656-55.782-67.344.157-25.625 9.219-51.094 25.313-69.844C65.78 13.75 83.906 3.438 103.906.156c0 0-1.719-.156-3.906-.156C44.844 0 0 44.844 0 100c0 22.656 7.5 43.594 20.313 60.312 15.156 19.375 37.343 31.563 61.874 31.563 47.5.156 82.344-44.062 82.344-91.875Z" clip-rule="evenodd"/>
    </g>
  </g>
  <defs>
    <clipPath id="a">
      <path fill="#fff" d="M0 0h200v200H0z"/>
    </clipPath>
  </defs>
</svg>
