<svg t="1737430281089" class="icon" viewBox="0 0 1024 1024" version="1.1"
  xmlns="http://www.w3.org/2000/svg" p-id="1007" width="200" height="200">
  <path d="M511.71328 0c282.99264 0 511.71328 229.29408 511.71328 511.71328 0 282.99264-229.29408 511.71328-511.71328 511.71328C228.7616 1023.46752 0 794.17344 0 511.71328 0 228.7616 229.29408 0 511.71328 0z" fill="#50A1F9" p-id="1008"></path>
  <path d="M297.79456 476.16l-5.84704 8.90368c-65.97632 100.39296-51.24096 231.87456 35.42528 316.11392 50.98496 49.55136 117.80608 74.33216 184.6272 74.3424L297.79456 476.16z" fill="#FFFFFF" p-id="1009"></path>
  <path d="M512 597.53472L302.08 476.16l209.92 399.36v-277.98528zM731.32544 476.16l5.84704 8.90368c65.97632 100.39296 51.23584 231.87456-35.42528 316.11392-50.97984 49.55136-117.80608 74.33216-184.6272 74.3424l214.20544-399.36z" fill="#AAD9FC" p-id="1010"></path>
  <path d="M517.12 597.53472L727.04 476.16l-209.92 399.36v-277.98528zM517.12 322.56v215.04l189.44-107.44832L517.12 322.56z" fill="#61B3FA" p-id="1011"></path>
  <path d="M517.12 322.56L322.56 430.14656 517.12 537.6V322.56z" fill="#AAD9FC" p-id="1012"></path>
  <path d="M517.12 153.6L322.56 435.2l194.56-105.30816V153.6z" fill="#FFFFFF" p-id="1013"></path>
  <path d="M517.12 329.94304L706.56 435.2l-189.44-281.6v176.34304z" fill="#AAD9FC" p-id="1014"></path>
</svg>