<svg xmlns="http://www.w3.org/2000/svg" width="200" height="200" fill="none" viewBox="0 0 200 200">
  <g clip-path="url(#a)">
    <path fill="#000" fill-rule="evenodd" d="M100.944 1c55.272 0 99.944 44.784 99.944 99.944 0 55.272-44.784 99.944-99.944 99.944C45.68 200.896 1 156.112 1 100.944 1 45.68 45.784 1 100.944 1Z" clip-rule="evenodd"/>
    <path fill="#fff" d="M119.737 100.789c-.79-.789-.79-.789 0-2.368l41.053-41.053.789-.79C148.158 37.633 125.263 25 100 25c-25.263 0-47.368 12.632-61.579 31.579 0 0 0 .79.79.79L81.053 99.21c.79.79.79.79 0 1.579L40 141.842c-.79.79-.79.79-.79 1.579C52.633 162.368 75.527 175 100.79 175c25.263 0 48.157-12.632 61.578-31.579 0 0 0-.789-.789-.789-14.211-14.211-28.421-27.632-41.842-41.843Zm-44.21-43.42c0-.79 0-.79-.79-.79 7.895-4.737 16.579-7.105 25.263-7.105 8.684 0 17.368 2.368 25.263 7.105 0 0 0 .79-.789.79L100.79 81.052c-.79.79-.79.79-1.58 0L75.527 57.368Zm-.79 86.052.79-.789 23.684-23.685c.789-.789.789-.789 1.579 0l23.684 23.685.789.789c-15.789 9.474-35.526 9.474-50.526 0Z"/>
    <path fill="#fff" d="M53.421 122.105c.79-.789 0-.789 0-1.579-1.579-3.947-3.158-8.684-3.947-13.421-.79-9.474.79-18.947 4.737-27.631 0-.79 0-1.58-.79-2.369-5.526-4.737-11.053-10.263-16.579-15.79h-.79C28.948 72.369 25 85.79 25 100s3.947 27.631 11.053 39.474l17.368-17.369Zm110.526-61.579-17.368 17.368v1.58c1.579 3.947 3.158 8.684 3.947 12.631 1.579 9.474 0 18.947-3.947 28.421v1.579l16.579 16.579.789.789C171.052 128.421 175 114.21 175 100c0-14.21-3.948-27.632-11.053-39.474Z"/>
  </g>
  <defs>
    <clipPath id="a">
      <path fill="#fff" d="M0 0h200v200H0z"/>
    </clipPath>
  </defs>
</svg>
