<svg xmlns="http://www.w3.org/2000/svg" width="198" height="196" fill="currentColor" viewBox="0 0 198 196">
  <path fill="#231815" d="M152.788 132.117a9688.636 9688.636 0 0 0 21.827 28.826c-14.7 17.163-32.963 28.165-55.012 32.786-24.498 5.061-47.661 1.32-70.155-11.002 20.044-14.743 39.643-29.266 59.465-43.789 4.454 4.181 8.686 8.362 12.918 12.323 4.677 4.4 2.895 4.621 8.908 1.32 8.241-4.621 15.145-11.002 20.49-18.704.223-.44.668-.88.891-1.32-.223 0 0 0 .668-.44ZM65.26 151.481c-5.567 4.18-10.69 7.921-15.812 11.882-3.787 2.861-7.573 5.501-11.359 8.362-1.559 1.32-2.673 1.32-4.454-.22-16.927-14.963-27.617-33.447-31.626-55.452-4.01-22.224-.446-43.348 10.245-63.372.223-.44.668-1.1.89-1.54 0-.22.223-.22.669-.44 14.7 19.143 29.621 38.287 44.32 57.431-.445.66-.668 1.1-1.113 1.54-4.454 4.621-8.909 9.242-13.586 13.643-1.336 1.32-1.559 2.42-.668 3.961 4.677 8.802 11.136 16.063 19.154 22.004 1.113.66 2.004 1.32 3.34 2.201Zm83.074-136.648c-7.127 5.061-14.254 10.122-21.381 14.963-12.249 8.582-24.499 17.383-36.526 25.965-1.559 1.1-2.672 1.32-4.008-.22-4.01-4.18-8.24-7.921-12.25-12.102-1.113-1.1-2.227-1.32-3.786-.66-9.577 4.84-17.15 11.662-23.385 20.244-.446.44-.891 1.1-1.337 1.76-3.563-4.62-6.904-8.802-10.245-13.203-3.563-4.62-6.904-9.241-10.245-13.642-1.113-1.54-1.336-2.64.223-4.181C42.544 15.053 63.702 4.05 89.091 1.41c20.045-2.2 39.198 1.76 57.016 11.223.668.44 1.336.66 2.004 1.1 0 .66 0 .88.223 1.1Zm36.303 132.027c-4.677-5.942-8.909-11.443-13.14-16.944-9.8-12.762-19.6-25.745-29.622-38.507-1.336-1.76-1.336-2.861.223-4.401 4.232-4.181 8.24-8.362 12.472-12.543 1.114-1.1 1.559-2.2.668-3.74-4.9-9.243-11.581-16.944-20.267-23.105-.668-.44-1.336-1.1-2.227-1.54.668-.66 1.336-1.1 1.782-1.541 8.463-6.381 16.926-12.543 25.389-18.924 1.337-1.1 2.45-1.54 4.009 0 21.158 18.924 32.517 42.469 33.63 70.855.446 16.503-3.34 32.126-10.913 46.869-.668.88-1.336 1.98-2.004 3.521Z"/>
</svg>
