<svg xmlns="http://www.w3.org/2000/svg" width="200" height="200" fill="currentColor" viewBox="0 0 200 200">
  <path fill="url(#a)" fill-rule="evenodd" d="M109.598 3.528a18.826 18.826 0 0 0-18.46 0L19.597 43.77A18.826 18.826 0 0 0 10 60.18v79.642a18.827 18.827 0 0 0 9.597 16.409l71.541 40.242a18.825 18.825 0 0 0 18.46 0l71.542-40.242a18.827 18.827 0 0 0 9.597-16.409V60.179a18.827 18.827 0 0 0-9.597-16.409L109.598 3.528Zm.257 22.934a18.827 18.827 0 0 0-18.973 0l-48.95 28.554a18.827 18.827 0 0 0-9.34 16.262v57.445a18.825 18.825 0 0 0 9.34 16.262l48.95 28.554a18.825 18.825 0 0 0 18.973 0l48.949-28.554a18.826 18.826 0 0 0 9.341-16.262V71.278a18.828 18.828 0 0 0-9.341-16.263l-48.949-28.553Z" clip-rule="evenodd" opacity=".2"/>
  <path fill="url(#b)" fill-rule="evenodd" d="m104.57 48.778 9.265-5.258 29.476 16.734v15.299l13.538 7.685V116.8l-13.538 7.676v15.27l-29.476 16.734-9.265-5.259v-45.899L59.932 79.976l-10.984 6.228v27.557l10.971 6.229 11.83-6.676.046-.442c.265-2.624 2.415-4.602 5.001-4.602 2.791 0 5.06 2.298 5.06 5.123 0 2.826-2.269 5.124-5.06 5.124a4.934 4.934 0 0 1-2.195-.53l-.394-.193-11.721 6.612v12.338L86.9 150.606l4.206-2.387v-4.649l-23.575-13.366v-2.684l2.815-1.589 20.76 11.765v-34.115l5.06 2.872v44.768L86.9 156.48l-29.474-16.734v-15.295l-13.539-7.688V83.199l13.54-7.677V60.254L86.9 43.52l9.265 5.26v45.898l44.639 25.346 10.984-6.229V86.24l-10.971-6.231-11.831 6.678-.043.442c-.266 2.622-2.416 4.6-5.004 4.6-2.791 0-5.059-2.298-5.059-5.123s2.268-5.124 5.059-5.124c.742 0 1.481.18 2.196.53l.393.195 11.723-6.614V63.256l-24.417-13.862-4.206 2.387v4.65l23.576 13.363v2.685l-2.816 1.589-3.373-1.912-.016.01-17.371-9.863v34.019l-5.059-2.874v-44.67Zm-17.67.616L62.485 63.256v9.398l28.621-16.225v-4.646L86.9 49.394ZM65.11 77.042 91.108 62.3v29.502L65.11 77.042Zm70.517 45.918-25.999-14.765V137.7l25.999-14.74Zm-25.999 25.258v-4.646l28.624-16.227v9.399l-24.417 13.861-4.207-2.387Z" clip-rule="evenodd"/>
  <path fill="url(#c)" fill-rule="evenodd" d="M94.83 1.45a11.295 11.295 0 0 1 11.076 0l79.073 44.479c3.557 2 5.758 5.764 5.758 9.845v88.452c0 4.081-2.201 7.844-5.758 9.845l-79.073 44.478a11.291 11.291 0 0 1-11.075 0l-79.073-44.478A11.296 11.296 0 0 1 10 144.226V55.774c0-4.08 2.201-7.845 5.758-9.845L94.831 1.45Zm8.307 4.923 79.073 44.478a5.65 5.65 0 0 1 2.879 4.923v88.452a5.648 5.648 0 0 1-2.879 4.922l-79.073 44.478a5.643 5.643 0 0 1-5.537 0l-79.073-44.478a5.647 5.647 0 0 1-2.879-4.922V55.774c0-2.04 1.1-3.922 2.879-4.923L97.6 6.373a5.647 5.647 0 0 1 5.537 0Z" clip-rule="evenodd"/>
  <defs>
    <linearGradient id="a" x1="10" x2="10" y1="1.11" y2="198.891" gradientUnits="userSpaceOnUse">
      <stop stop-color="#13E5BF"/>
      <stop offset="1" stop-color="#01C38D"/>
    </linearGradient>
    <linearGradient id="b" x1="10" x2="10" y1="0" y2="200" gradientUnits="userSpaceOnUse">
      <stop stop-color="#13E5BF"/>
      <stop offset="1" stop-color="#01C38D"/>
    </linearGradient>
    <linearGradient id="c" x1="10" x2="10" y1="0" y2="200" gradientUnits="userSpaceOnUse">
      <stop stop-color="#13E5BF"/>
      <stop offset="1" stop-color="#01C38D"/>
    </linearGradient>
  </defs>
</svg>
