<svg xmlns="http://www.w3.org/2000/svg" width="200" height="200" fill="currentColor" viewBox="0 0 200 200">
  <path fill="#fff" fill-rule="evenodd" d="M100 0c55.303 0 100 44.81 100 100 0 55.303-44.809 100-100 100-55.295.008-100-44.801-100-100C0 44.705 44.81 0 100 0Z" clip-rule="evenodd"/>
  <path fill="#3F75FF" d="M160 97.404c-1.267-30.011-24.377-54.345-53.771-57.374-3.411-.354-6.199 2.474-6.199 5.919V62.58c0 3.445 2.807 6.173 6.17 6.853 11.541 2.338 20.765 11.104 23.806 22.42 1.231-.423 2.632-.68 4.252-.687 5.586.026 8.601 3.127 10.949 5.634 2.196 2.314 3.949 4.131 7.623 4.185 3.422.005 5.173-1.546 7.17-3.58ZM73.485 45.91c3.787-1.876 7.92 1.113 7.92 5.354v40.064c-5.591.04-8.573 3.08-10.93 5.552l-.05.05c-2.2 2.262-3.948 4.058-7.63 4.052-3.674-.054-5.426-1.87-7.623-4.184-2.348-2.508-5.362-5.608-10.949-5.635-1.36.006-2.566.188-3.646.497 2.773-20.13 15.439-37.083 32.908-45.75Z"/>
  <path fill="#003F99" d="M106.225 159.97c-3.411.352-6.199-2.474-6.199-5.918V137.42c0-3.443 2.807-6.173 6.17-6.852 14.191-2.876 24.877-15.468 24.877-30.57 0-.137 0-.274-.002-.41.901-.366 1.933-.575 3.19-.572 3.675.054 5.427 1.87 7.623 4.184 2.349 2.507 5.363 5.608 10.95 5.634 2.874-.011 5.06-.814 6.827-1.927-3.181 28.003-25.463 50.18-53.436 53.063ZM40 100.102c.04 23.681 13.672 44.159 33.478 53.985 3.786 1.877 7.92-1.112 7.92-5.354V99.18c-3.644.012-5.386 1.802-7.575 4.052l-.05.05c-2.363 2.48-5.356 5.53-10.977 5.552-5.587-.026-8.601-3.127-10.95-5.634-2.196-2.314-3.949-4.13-7.623-4.184-1.764-.003-3.084.408-4.223 1.086Z"/>
</svg>
