<svg xmlns="http://www.w3.org/2000/svg" width="200" height="200" fill="currentColor" viewBox="0 0 200 200">
  <g clip-path="url(#a)">
    <path fill="#000" fill-rule="evenodd" d="M100 0c55.303 0 100 44.81 100 100 0 55.303-44.809 100-100 100-55.295.008-100-44.801-100-100C0 44.705 44.81 0 100 0Z" clip-rule="evenodd"/>
    <path fill="#fff" d="M169.433 57.778c-2.358-1.86-5.17-4.4-10.295-5.034-4.807-.635-9.705 2.585-13.016 4.716-3.31 2.132-9.569 8.39-12.154 10.295-2.585 1.905-9.206 3.674-19.864 10.068-10.657 6.395-52.471 33.243-52.471 33.243l10.884.136-48.526 24.988h4.852l-6.984 5.307s6.168 1.632 11.338-1.633v1.497s57.778-22.767 68.934-16.871l-6.802 1.995c.59 0 11.564.726 11.564.726a15.585 15.585 0 0 0 6.985 11.247c6.621 4.354 6.757 6.757 6.757 6.757s-3.447 1.406-3.447 3.175c0 0 5.08-1.542 9.796-1.406a37.52 37.52 0 0 1 8.844 1.406s-.363-1.905-4.944-3.175c-4.58-1.269-9.115-6.258-11.338-8.979a12.702 12.702 0 0 1-1.859-12.426c1.587-4.127 7.12-6.395 18.549-12.291 13.469-6.984 16.553-12.154 18.458-16.19 1.905-4.036 4.716-12.064 6.304-15.828 1.995-4.852 4.444-7.438 6.485-8.98 2.041-1.541 11.111-4.943 11.111-4.943s-6.939-6.032-9.161-7.8Z"/>
  </g>
  <defs>
    <clipPath id="a">
      <path fill="#fff" d="M0 0h200v200H0z"/>
    </clipPath>
  </defs>
</svg>
