<svg xmlns="http://www.w3.org/2000/svg" width="200" height="200" fill="currentColor" viewBox="0 0 200 200">
  <path fill="#55A271" fill-rule="evenodd" d="M100 0c55.303 0 100 44.81 100 100 0 55.303-44.809 100-100 100-55.295.008-100-44.801-100-100C0 44.705 44.81 0 100 0Z" clip-rule="evenodd"/>
  <path fill="#fff" d="M70 70.904V55h16.06v15.904H70Zm29.469 18.522V73.522h16.061v15.904H99.469Zm29.47 18.537V92.058H145v15.905h-16.061Zm-29.47 18.501v-15.905h16.061v15.905H99.469ZM70 145v-15.905h16.06V145H70Zm0-37.037V92.058h16.06v15.905H70Z"/>
</svg>
