<svg xmlns="http://www.w3.org/2000/svg" width="200" height="200" fill="currentColor" viewBox="0 0 200 200">
  <g clip-path="url(#a)">
    <path fill="#fff" fill-rule="evenodd" d="M100 0c55.303 0 100 44.81 100 100 0 55.303-44.809 100-100 100-55.295.008-100-44.801-100-100C0 44.705 44.81 0 100 0Z" clip-rule="evenodd"/>
    <mask id="b" width="200" height="200" x="0" y="0" maskUnits="userSpaceOnUse" style="mask-type:luminance">
      <path fill="#fff" d="M200 0H0v200h200V0Z"/>
    </mask>
    <g mask="url(#b)">
      <path fill="#B46395" fill-rule="evenodd" d="M200 100c0 55.229-44.771 100-100 100C44.772 200 0 155.229 0 100 0 44.772 44.772 0 100 0c55.229 0 100 44.772 100 100Zm-35.482 45.643c-4.758 0-8.791-2.445-11.352-6.882 0 0-22.523-38.882-31.805-54.958 0 0-21.557 37.335-31.77 55.044-2.618 4.539-6.724 7.04-11.561 7.04-.467 0-.95-.024-1.431-.07-5.402-.518-9.836-4.262-11.294-9.54-.971-3.513-.48-6.996 1.462-10.355l1.284-2.221a29738.5 29738.5 0 0 1 16.91-29.232 1517.558 1517.558 0 0 1-6.192-10.663L67.8 102.8l-.045.079c-6.614 11.452-11.978 20.74-20.928 36.243-2.52 4.365-6.59 6.769-11.456 6.769-.118 0-.236 0-.356-.004-4.975-.121-8.974-2.619-11.273-7.03-2.146-4.122-2.016-8.668.367-12.798 2.008-3.481 7.355-12.743 13.704-23.742 10.64-18.43 24.095-41.74 29.383-50.91 2.438-4.227 6.146-6.61 10.72-6.885.304-.019.613-.029.914-.029 4.83 0 8.868 2.373 11.366 6.68 3.053 5.267 6.14 10.613 9.126 15.786l.747 1.291 3.166-5.483 1.14-1.976.012-.02c1.788-3.097 3.576-6.193 5.366-9.289 2.55-4.408 6.886-7.04 11.605-7.04 4.72 0 9.083 2.644 11.639 7.074a31082.036 31082.036 0 0 0 20.822 36l.005.01c6.68 11.536 13.294 22.959 22.022 38.081 2.375 4.117 2.575 8.974.532 12.99-2.004 3.938-5.765 6.476-10.318 6.96a14.65 14.65 0 0 1-1.542.086Zm-52.931-8.902a13.758 13.758 0 0 0 9.793 4.158h.106c7.685 0 13.763-6.018 13.833-13.701.07-7.608-6.047-13.857-13.636-13.932h-.137c-7.562 0-13.795 6.124-13.893 13.651a13.702 13.702 0 0 0 3.934 9.824Z" clip-rule="evenodd"/>
    </g>
  </g>
  <defs>
    <clipPath id="a">
      <path fill="#fff" d="M0 0h200v200H0z"/>
    </clipPath>
  </defs>
</svg>
