<svg xmlns="http://www.w3.org/2000/svg" width="200" height="200" fill="currentColor" viewBox="0 0 200 200">
  <path fill="#fff" fill-rule="evenodd" d="M100 0c55.303 0 100 44.81 100 100 0 55.303-44.809 100-100 100-55.295.008-100-44.801-100-100C0 44.705 44.81 0 100 0Z" clip-rule="evenodd"/>
  <path fill="#0043FF" fill-rule="evenodd" d="M42.74 147h84.13c5 0 8.805-6.121 5.925-10.568l-42.011-75.28C87.715 55.703 81.894 52 75.228 52c-6.984 0-13.122 4.14-16.085 10.24l-31.959 57.088C20.676 131.292 29.55 147 42.74 147Zm66.246-67.216c-4.974-8.824-2.011-20.155 6.561-25.275 8.571-5.12 19.577-2.07 24.551 6.755l32.487 57.959c4.974 8.824 2.011 20.154-6.561 25.274-8.572 5.121-19.577 2.07-24.551-6.754l-32.487-57.959Z" clip-rule="evenodd"/>
</svg>
