<svg xmlns="http://www.w3.org/2000/svg" width="200" height="200" fill="currentColor" viewBox="0 0 200 200">
  <path fill="#94F09E" fill-rule="evenodd" d="M100 0c55.303 0 100 44.81 100 100 0 55.303-44.809 100-100 100-55.295.008-100-44.801-100-100C0 44.705 44.81 0 100 0Z" clip-rule="evenodd"/>
  <path fill="#94F09E" fill-rule="evenodd" d="M100 0c55.303 0 100 44.81 100 100 0 55.303-44.809 100-100 100-55.295.008-100-44.801-100-100C0 44.705 44.81 0 100 0Z" clip-rule="evenodd"/>
  <path fill="#000" d="M100 0C44.786 0 0 44.76 0 100c0 55.213 44.76 100 100 100 55.213 0 100-44.761 100-100C200 44.786 155.239 0 100 0ZM54.54 132.186H26.78v-27.762l10.168-10.168V53.48l22.25-22.251H86.96V58.99L76.222 69.728v40.776l-21.655 21.657-.026.025Zm27.789 33.635H54.567V138.06l25.795-25.796V71.488l37.283-37.284h27.762v27.762l-25.795 25.796v40.776l-37.283 37.283Zm90.866-70.22-10.142 10.143v40.776l-22.277 22.277h-27.762v-27.762l10.763-10.764V89.496l21.656-21.656h27.762V95.6Z"/>
</svg>
