<svg xmlns="http://www.w3.org/2000/svg" width="200" height="200" fill="currentColor" viewBox="0 0 200 200">
	<g clip-path="url(#a)">
		<path fill="url(#b)" fill-rule="evenodd" d="m138.356 132.258 38.057 32.258v-.806c3.239-4.033 6.478-8.871 9.717-13.71l-42.915-25-4.859 7.258Z" clip-rule="evenodd"/>
		<path fill="url(#c)" fill-rule="evenodd" d="M149.692 100h49.393v.806c0 4.839-.81 9.678-1.619 14.517v3.225c-.81 4.839-2.43 9.678-4.049 14.517v.806l-46.964-16.936c2.43-4.838 3.239-10.483 3.239-16.935Z" clip-rule="evenodd"/>
		<path fill="url(#d)" fill-rule="evenodd" d="M186.939 50c2.429 4.839 4.859 9.678 6.478 14.516l.81.807v.806c1.619 4.839 3.239 9.677 4.048 14.516v.807l-48.583 8.87c-1.619-8.87-4.858-16.935-10.526-23.386l38.057-32.259v.807L186.939 50Z" clip-rule="evenodd"/>
		<path fill="url(#e)" fill-rule="evenodd" d="M109.206 50.806C105.968 50 103.538 50 100.3 50V0c5.668 0 11.336.806 17.004 1.613 5.668.806 10.526 2.42 16.194 4.032 4.858 1.613 10.526 4.032 15.385 7.258 4.858 2.42 8.906 5.645 13.765 9.678h.809l-31.578 37.903c-4.049-4.032-9.717-6.452-14.575-8.871-2.43 0-5.668-.806-8.098-.806Z" clip-rule="evenodd"/>
		<path fill="#1D2667" d="M100.3 0v50c-27.53 0-50.203 22.58-50.203 50 0 27.419 22.672 50 50.203 50 14.575 0 29.149-6.452 38.056-17.742l38.057 32.258C157.789 187.097 129.449 200 100.3 200 45.239 200 .704 155.645.704 100S44.43 0 100.3 0Zm46.963 116.935 46.964 16.936c-1.62 5.645-4.859 10.484-7.288 16.129l-42.915-25c.81-2.419 2.429-4.839 3.239-8.065Zm51.012-34.677c.81 5.645 1.62 11.29 1.62 17.742h-49.393c0-3.226 0-5.645-.81-8.871l48.583-8.87Zm-34.008-58.87c4.049 4.031 8.907 8.064 12.146 12.096l-38.057 32.258c-1.619-2.42-4.048-4.032-6.477-6.452l32.388-37.903Z"/>
	</g>
	<defs>
		<linearGradient id="b" x1="167.649" x2="156.272" y1="136.938" y2="153.808" gradientUnits="userSpaceOnUse">
			<stop stop-color="#fff" stop-opacity="0"/>
			<stop offset="1" stop-opacity=".1"/>
		</linearGradient>
		<linearGradient id="c" x1="176.919" x2="172.435" y1="111.266" y2="124.372" gradientUnits="userSpaceOnUse">
			<stop stop-color="#fff" stop-opacity="0"/>
			<stop offset="1" stop-opacity=".1"/>
		</linearGradient>
		<linearGradient id="d" x1="158.285" x2="176.687" y1="55.517" y2="88.579" gradientUnits="userSpaceOnUse">
			<stop stop-color="#fff" stop-opacity="0"/>
			<stop offset="1" stop-opacity=".1"/>
		</linearGradient>
		<linearGradient id="e" x1="99.817" x2="153.192" y1="13.421" y2="53.998" gradientUnits="userSpaceOnUse">
			<stop stop-color="#fff" stop-opacity="0"/>
			<stop offset="1" stop-opacity=".1"/>
		</linearGradient>
		<clipPath id="a">
			<path fill="#fff" d="M0 0h200v200H0z"/>
		</clipPath>
	</defs>
</svg>
