<svg xmlns="http://www.w3.org/2000/svg" width="200" height="200" fill="currentColor" viewBox="0 0 200 200">
	<g clip-path="url(#a)">
		<path fill="#178DD0" fill-rule="evenodd" d="M100 200C44.8 200 0 155.2 0 100S44.8 0 100 0s100 44.8 100 100-44.8 100-100 100Z" clip-rule="evenodd"/>
		<path fill="#fff" d="M47.28 103.28c.56-3.76.56-5.92 2.72-7.52 2.16-2.16 12.88 0 16.16.56 6.56 1.12 12.24 2.24 16.72 7.52 2.72 3.2 2.72 6.48 2.72 12.4v40.4c0 3.76 0 5.92-1.04 6.96-1.6.56-3.76.56-7.52.56h-15.6c-6.48 0-9.12 0-11.84-2.16-2.16-2.16-2.72-4.88-3.2-10.8-.56-5.92-1.04-12.88-1.04-21.52.56-10.8 1.04-19.92 2.16-26.4h-.24Zm105.52 0c-.56-3.76-.56-5.92-2.72-7.52-2.16-2.16-12.88 0-16.16.56-6.56 1.12-12.24 2.24-16.72 7.52-2.72 3.2-2.72 6.48-2.72 12.4v40.4c0 7.92.16 8.08 8.08 8.08h15.6c6.48 0 9.12 0 11.84-2.16 2.72-2.16 2.72-4.88 3.2-10.8.56-5.92 1.04-12.88 1.04-21.52 0-11.28-.56-20.48-1.6-26.88l.16-.08ZM49.44 39.76c2.16-2.16 5.36-2.72 12.4-3.2 9.68-.56 23.68-1.6 38.72-1.6s29.04 1.04 39.28 1.6c6.48.56 10.24.56 12.4 3.2 3.04 3.04 3.36 24.64 0 28-2.16 2.16-5.36 2.72-11.84 3.2-9.68 1.04-23.68 1.6-39.84 1.6-15.6 0-29.6-.56-39.28-1.6-6.48-.56-9.68-.56-11.84-2.72-3.2-4-3.28-25.28 0-28.56v.08Z"/>
	</g>
	<defs>
		<clipPath id="a">
			<path fill="#fff" d="M0 0h200v200H0z"/>
		</clipPath>
	</defs>
</svg>
