<svg xmlns="http://www.w3.org/2000/svg" width="200" height="200" fill="currentColor" viewBox="0 0 200 200">
	<g clip-path="url(#a)">
		<path fill="#20252F" d="M100 200c55.23 0 100-44.77 100-100S155.23 0 100 0 0 44.77 0 100s44.77 100 100 100Z"/>
		<path fill="#fff" d="M163.45 61.56h-21.21l-9.78 31.94h20.92l10.07-31.94Zm-38.07 55.07-10.45-24.7a16.247 16.247 0 0 0-5.91-7.53 16.024 16.024 0 0 0-9.14-2.85c-3.23 0-6.39.96-9.06 2.78a16.114 16.114 0 0 0-5.93 7.39l-10.87 24.86-16.59-54.99H36.56l24.79 80.67a7.223 7.223 0 0 0 2.62 3.68c1.24.92 2.75 1.41 4.29 1.41h11.99c1.45.01 2.88-.41 4.09-1.22a7.234 7.234 0 0 0 2.69-3.3l12.85-31.63 13.06 31.73a7.152 7.152 0 0 0 2.67 3.28c1.2.81 2.6 1.24 4.05 1.24h11.8c1.54 0 3.04-.49 4.28-1.41 1.24-.91 2.16-2.2 2.62-3.67l11.77-38.22H129.3l-3.92 12.48Z"/>
	</g>
	<defs>
		<clipPath id="a">
			<path fill="#fff" d="M0 0h200v200H0z"/>
		</clipPath>
	</defs>
</svg>
