<svg xmlns="http://www.w3.org/2000/svg" width="230" height="200" fill="currentColor" viewBox="0 0 230 200">
  <g clip-path="url(#a)">
    <path fill="#8C91C7" d="m172.024 0-115 .537L0 100.566l57.976 99.494 115-.537L230 99.493 172.024 0Zm-6.31 187.064-100.595.477-50.714-87.034 49.88-87.512 100.596-.476 50.714 87.034-49.881 87.511Z"/>
    <path fill="#8C91C7" d="M182.798 79.642h-6.667L163.81 15.261 94.107 37.318v-6.14l68.929-21.64 5.535 2.563 14.227 67.541ZM75.536 26.23l-4.346 2.742-11.309-17.467h6.13l9.525 14.724Zm1.19 29.21H82.5v86.438h-5.774V55.44ZM61.429 185.574l3.452 6.021 7.5-14.188-3.81-4.352-7.142 12.519Zm104.583 5.842-1.667.179-68.69-23.607 1.488-4.888 65.714 21.937 13.691-66.05h5.714l-16.25 72.429Zm51.488-88.882h-16.667l.358-5.902 16.428-.06-.119 5.962ZM95.952 153.383l71.25-40.894-3.809-4.59-69.94 40.834 2.5 4.65ZM63.87 149.15l-53.037-46.617.834-7.153 55.238-49.12L70 51.027 16.012 100.03l51.667 45.126-3.81 3.994Zm101.547-56.631-72.62-42.385 2.798-5.007 72.381 42.265-2.559 5.127Z"/>
    <path fill="#F43B7B" d="M182.262 77.675c-12.143 0-22.024 9.896-22.024 22.057 0 12.161 9.881 22.056 22.024 22.056s22.024-9.895 22.024-22.056c0-12.161-9.822-22.057-22.024-22.057Zm0 38.391c-8.988 0-16.25-7.273-16.25-16.275 0-9.001 7.262-16.274 16.25-16.274s16.25 7.273 16.25 16.274c0 9.002-7.262 16.275-16.25 16.275Z"/>
    <path fill="#5AA2DA" d="M80.714 22.653c-9.762 0-17.678 7.928-17.678 17.705 0 9.776 7.916 17.705 17.678 17.705s17.679-7.929 17.679-17.705c-.06-9.836-7.917-17.705-17.679-17.705Zm0 30.164c-6.904 0-12.5-5.604-12.5-12.519s5.596-12.519 12.5-12.519c6.905 0 12.5 5.604 12.5 12.52 0 6.914-5.595 12.518-12.5 12.518Z"/>
    <path fill="#F66F4D" d="M79.464 139.255c-11.31 0-20.535 9.18-20.535 20.566s9.166 20.567 20.535 20.567c11.31 0 20.536-9.181 20.536-20.567 0-11.386-9.167-20.566-20.536-20.566Zm0 35.171c-8.095 0-14.583-6.557-14.583-14.605 0-8.107 6.548-14.605 14.583-14.605 8.096 0 14.584 6.558 14.584 14.605.06 8.048-6.489 14.605-14.584 14.605Z"/>
  </g>
  <defs>
    <clipPath id="a">
      <path fill="#fff" d="M0 0h230v200H0z"/>
    </clipPath>
  </defs>
</svg>
