<svg xmlns="http://www.w3.org/2000/svg" width="141" height="200" fill="currentColor" viewBox="0 0 141 200">
  <g clip-path="url(#a)">
    <path fill="#49C1BF" d="m140.997 117.356-28.74-12.839-76.244-38.886 76.244-36.73v60.713l28.74 12.977V12.898L112.257.058-.003 53.892v28.614l77.708 38.198-77.708 37.417v29.027l29.197 12.839 111.803-53.925v-28.706Z"/>
    <path fill="#077A8F" d="m-.003 187.148 112.26-53.926 28.74 12.84-111.803 53.925-29.197-12.839Z"/>
    <path fill="#298E97" d="m112.258 133.344 28.74 12.839v-28.705l-28.74-12.84v28.706Z"/>
    <path fill="#49C1BF" d="M-.003 187.122v-29.026l77.708-37.418L-.003 82.481V53.867L112.257.033V28.83L36.013 65.606l76.244 38.885v28.705L-.003 187.122Z"/>
    <path fill="#298E97" d="m112.258.247 28.74 12.84v89.692l-28.74-12.977V.247Z"/>
  </g>
  <defs>
    <clipPath id="a">
      <path fill="#fff" d="M0 200h141V0H0z"/>
    </clipPath>
  </defs>
</svg>
