<svg xmlns="http://www.w3.org/2000/svg" width="200" height="200" fill="currentColor" viewBox="0 0 200 200">
  <path fill="#000" fill-rule="evenodd" d="M100 0c55.303 0 100 44.81 100 100 0 55.303-44.809 100-100 100-55.295.008-100-44.801-100-100C0 44.705 44.81 0 100 0Z" clip-rule="evenodd"/>
  <path fill="#000" fill-rule="evenodd" d="M100 0c55.303 0 100 44.81 100 100 0 55.303-44.809 100-100 100-55.295.008-100-44.801-100-100C0 44.705 44.81 0 100 0Z" clip-rule="evenodd"/>
  <path fill="#F2F2F2" d="M102.998 39c-4.62.023-9.19.96-13.448 2.76a35.163 35.163 0 0 0-11.374 7.724 35.379 35.379 0 0 0-7.567 11.514 35.53 35.53 0 0 0-2.608 13.548v11.741h28.435v-17.01a6.11 6.11 0 0 1 1.771-4.302 6.02 6.02 0 0 1 4.279-1.781h1.025a6.02 6.02 0 0 1 2.315.462 6.065 6.065 0 0 1 3.275 3.292c.304.739.46 1.53.46 2.329v45.601c3.734 0 7.432-.74 10.882-2.176a28.436 28.436 0 0 0 9.226-6.198 28.612 28.612 0 0 0 6.164-9.276 28.726 28.726 0 0 0 2.164-10.94V74.545a35.709 35.709 0 0 0-10.251-25.133 34.707 34.707 0 0 0-11.333-7.707A34.552 34.552 0 0 0 102.998 39Z"/>
  <path fill="#F2F2F2" d="M103.512 137.96h-1.025a6.03 6.03 0 0 1-4.278-1.781 6.082 6.082 0 0 1-1.771-4.301v-45.6a28.3 28.3 0 0 0-10.883 2.175 28.426 28.426 0 0 0-9.225 6.197 28.597 28.597 0 0 0-6.164 9.276 28.724 28.724 0 0 0-2.164 10.941v11.578a35.357 35.357 0 0 0 2.56 13.577 35.208 35.208 0 0 0 7.563 11.539 35.006 35.006 0 0 0 11.398 7.722 34.837 34.837 0 0 0 26.954 0 35.005 35.005 0 0 0 11.398-7.722 35.21 35.21 0 0 0 7.563-11.539 35.336 35.336 0 0 0 2.56-13.577v-11.578h-28.435v17.011a6.113 6.113 0 0 1-1.773 4.301 6.034 6.034 0 0 1-4.278 1.781Z"/>
</svg>
